<svg xmlns="http://www.w3.org/2000/svg" width="240.963" height="232.79" viewBox="0 0 240.963 232.79">
  <path id="image" d="M21.795.447a10.41,10.41,0,0,1-1.732.419c-1.645.014-6.668,2.872-9.584,5.456A27.626,27.626,0,0,0,5.4,12.976c-.433.837-.837,1.631-.909,1.746a16.947,16.947,0,0,0-1.241,5.2,42.052,42.052,0,0,0-.058,7.606,36.73,36.73,0,0,0,3.161,9.526,7.921,7.921,0,0,1,.895,2.367l.173,1-.635.65a5.1,5.1,0,0,1-2.122,1.3.4.4,0,0,0-.332.433c0,.3.087.361.693.433.375.058,1.674.39,2.9.736a25.555,25.555,0,0,0,2.54.635,1.187,1.187,0,0,1,.592.217,1.058,1.058,0,0,0,.52.217c.361,0,.462.26.2.52-.13.115-.231.173-.231.115s-.144.029-.318.188a2.091,2.091,0,0,1-.621.375c-.159.043-2.078.837-4.258,1.761s-4.258,1.746-4.619,1.847a2.981,2.981,0,0,0-.88.346.954.954,0,0,1-.534.188c-.245,0-.318.087-.318.361,0,.2.058.361.115.361s2.006-.26,4.3-.577c6.293-.852,8.6-1.054,10.941-.953a10.257,10.257,0,0,1,2.151.216c.318.318-.26,1.3-2.483,4.272-1.79,2.41-6.712,8.227-7.967,9.454a2.632,2.632,0,0,0-.707.924c0,.3.693.318.808.014a.366.366,0,0,1,.274-.216.657.657,0,0,0,.39-.188c.548-.534,6.365-4.85,8.054-5.975a44.2,44.2,0,0,1,8.054-4.6c1.068-.4,1.083-.4,2.223.895A83,83,0,0,1,31.1,61.068a46.567,46.567,0,0,1,3.478,7.274c.375,1.025.953,2.584,1.3,3.464s.678,1.819.779,2.093c.548,1.516.765,1.53.678.029a23.159,23.159,0,0,0-.621-4.07,7.4,7.4,0,0,1-.188-1.516c0-.505.029-.548.173-.289a11.307,11.307,0,0,0,.765.866c1,.967,13.77,17.84,13.77,18.186,0,.115.058.216.115.216a2.151,2.151,0,0,1,.592.664c.26.361.548.621.635.592.188-.058.144-.823-.058-1.039a.886.886,0,0,1-.13-.505,1.445,1.445,0,0,0-.216-.678c-.26-.375-.938-2.093-3.219-8.27C45.8,69.57,44.167,65.1,44.167,64.907a1.036,1.036,0,0,0-.217-.447c-.231-.3-.289-.664-.1-.664a3.726,3.726,0,0,1,.592.678c.751,1.01,29.978,35.247,30.613,35.853a4.317,4.317,0,0,1,.707.837c.173.318.52.4.664.173.043-.072-.058-.361-.216-.621a6.13,6.13,0,0,1-.375-.693c-.043-.115-.245-.505-.447-.866s-1.068-2.107-1.949-3.9-2.627-5.21-3.883-7.592-2.295-4.431-2.295-4.532a.808.808,0,0,0-.245-.462c-.13-.144-.188-.3-.115-.375s.245.087.419.332c.4.577,8.848,9.281,18.128,18.677a45.916,45.916,0,0,0,6.971,5.846c.967.678,2.309,1.631,2.988,2.107a111.974,111.974,0,0,0,13.784,7.679c3.507,1.6,9.165,4.417,11.258,5.629a60.785,60.785,0,0,0,7.578,3.753,30.975,30.975,0,0,1,2.9,1.357.779.779,0,0,0,.447.2.628.628,0,0,1,.4.216.886.886,0,0,0,.592.217,11.147,11.147,0,0,1,2.324.953c1.039.52,3.724,1.819,5.932,2.887s4.763,2.338,5.643,2.829a150.5,150.5,0,0,1,15.242,9.916c3.233,2.338,18.244,13.755,18.374,13.972.087.144.693.188,2.483.188h2.382V148.449l-.65-.577c-.361-.318-5.9-5.615-12.312-11.763s-16.743-16.007-22.978-21.9S137.292,103.286,137.075,103s-.491-.52-.606-.52-.217-.072-.217-.144c0-.231.115-.173.909.419.707.52,7.938,4.662,18.576,10.623,2.656,1.5,5.413,3.06,6.12,3.493a11.808,11.808,0,0,0,1.4.765,2.606,2.606,0,0,1,.65.361c.289.2.577.318.65.274.173-.1.159-.635-.014-.635s-11.951-9.194-15.227-11.893c-8.1-6.683-10.075-8.617-14.794-14.52-6.813-8.5-11.388-13.337-17.32-18.258-5.528-4.59-9.916-7.765-21.39-15.473-3.724-2.5-6.755-4.59-6.755-4.676s.1-.13.217-.13.216-.13.216-.289a.255.255,0,0,0-.274-.289.7.7,0,0,1-.462-.245c-.173-.217-.173-.231.087-.13.159.072,4.258.693,9.093,1.4,9.786,1.414,12.167,1.79,12.918,2.006a4.745,4.745,0,0,0,.981.144c.375,0,.476-.058.433-.26a.45.45,0,0,0-.361-.289.855.855,0,0,1-.476-.26.606.606,0,0,0-.39-.2,1.871,1.871,0,0,1-.65-.3c-.231-.173-4.171-2.136-8.747-4.388S89.574,43.618,85,41.294s-8.415-4.2-8.53-4.2a.627.627,0,0,1-.4-.217c-.1-.115-.231-.188-.289-.144a.159.159,0,0,1-.216-.072c-.13-.2-.087-.2,3.32.289,4.676.65,10.508,1.414,12.268,1.573.88.087,1.833.2,2.136.245.447.072.534.043.534-.188s-.563-.621-.924-.621a.786.786,0,0,1-.361-.188,4.656,4.656,0,0,0-.88-.462c-.361-.144-3.147-1.472-6.206-2.93-15.574-7.448-21-10.017-21.261-10.075a3.161,3.161,0,0,1-.837-.419,2.224,2.224,0,0,0-.765-.361,1.223,1.223,0,0,1-.534-.289l-.346-.289.346-.289a1.186,1.186,0,0,1,.548-.289,40.189,40.189,0,0,0,4.489-2.41,3.636,3.636,0,0,1,.953-.476.638.638,0,0,0,.375-.217.66.66,0,0,1,.419-.217.62.62,0,0,0,.592-.534c0-.144-.981-.188-4.951-.188-2.872,0-5.312-.058-5.817-.159a14.071,14.071,0,0,1-4.316-1.53c-.534-.548-.808-1.631-.895-3.652s.043-2.872.909-6.466a10.59,10.59,0,0,0,.462-3.1l-.043-1.039L53.115,4A17.058,17.058,0,0,1,49.2,7.217c-1.111.592-1.645.563-2.41-.072a11.537,11.537,0,0,1-1.905-2.483,2.511,2.511,0,0,0-.361-.563,1.98,1.98,0,0,1-.361-.592,4.676,4.676,0,0,0-.361-.823,3.645,3.645,0,0,1-.361-.895c0-.346-.289-.375-.765-.087a6.8,6.8,0,0,1-3.017.606c-1.054,0-2.555-.332-6.394-1.443L30.238,0,26.7.014c-3.464.014-3.565.029-4.907.433ZM88.55,52.394c.043.072.029.144-.058.144a.337.337,0,0,1-.231-.144c-.043-.087-.029-.144.058-.144A.294.294,0,0,1,88.55,52.394Z" transform="matrix(-0.848, -0.53, 0.53, -0.848, 156.676, 232.79)" fill="#fff"/>
</svg>
