<svg xmlns="http://www.w3.org/2000/svg" width="193.431" height="174.162" viewBox="0 0 193.431 174.162">
  <path id="image" d="M158.99.447a9.95,9.95,0,0,0,1.69.419c1.605.014,6.506,2.872,9.351,5.456a27.562,27.562,0,0,1,4.957,6.654c.422.837.817,1.631.887,1.746a17.291,17.291,0,0,1,1.211,5.2,43.1,43.1,0,0,1,.056,7.606,37.372,37.372,0,0,1-3.084,9.526,8.046,8.046,0,0,0-.873,2.367l-.169,1,.62.65a4.958,4.958,0,0,0,2.07,1.3.4.4,0,0,1,.324.433c0,.3-.084.361-.676.433-.366.058-1.634.39-2.831.736a24.43,24.43,0,0,1-2.479.635,1.141,1.141,0,0,0-.577.217,1.019,1.019,0,0,1-.507.217c-.352,0-.451.26-.2.52.127.115.225.173.225.115s.141.029.31.188a2.03,2.03,0,0,0,.606.375c.155.043,2.028.837,4.154,1.761s4.154,1.746,4.506,1.847a2.868,2.868,0,0,1,.859.346.916.916,0,0,0,.521.188c.239,0,.31.087.31.361,0,.2-.056.361-.113.361s-1.957-.26-4.2-.577c-6.14-.852-8.393-1.054-10.674-.953a9.774,9.774,0,0,0-2.1.216c-.31.318.253,1.3,2.422,4.272,1.746,2.41,6.548,8.227,7.773,9.454a2.629,2.629,0,0,1,.69.924c0,.3-.676.318-.789.014a.359.359,0,0,0-.268-.216.635.635,0,0,1-.38-.188c-.535-.534-6.21-4.85-7.858-5.975a42.844,42.844,0,0,0-7.858-4.6c-1.042-.4-1.056-.4-2.169.895s-3.9,5.182-4.83,6.712a47.085,47.085,0,0,0-3.394,7.274c-.366,1.025-.929,2.584-1.267,3.464s-.662,1.819-.76,2.093c-.535,1.516-.746,1.53-.662.029a23.7,23.7,0,0,1,.606-4.07,7.578,7.578,0,0,0,.183-1.516c0-.505-.028-.548-.169-.289a11.227,11.227,0,0,1-.746.866c-.972.967-13.435,17.84-13.435,18.186,0,.115-.056.216-.113.216a2.13,2.13,0,0,0-.577.664c-.253.361-.535.621-.62.592-.183-.058-.141-.823.056-1.039a.9.9,0,0,0,.127-.505,1.471,1.471,0,0,1,.211-.678c.253-.375.915-2.093,3.14-8.27,3.084-8.516,4.675-12.99,4.675-13.178a1.047,1.047,0,0,1,.211-.447c.225-.3.282-.664.1-.664a3.7,3.7,0,0,0-.577.678c-.732,1.01-29.249,35.247-29.869,35.853a4.3,4.3,0,0,0-.69.837c-.169.318-.507.4-.648.173-.042-.072.056-.361.211-.621a6.182,6.182,0,0,0,.366-.693c.042-.115.239-.505.437-.866s1.042-2.107,1.9-3.9,2.563-5.21,3.788-7.592,2.239-4.431,2.239-4.532a.815.815,0,0,1,.239-.462c.127-.144.183-.3.113-.375s-.239.087-.408.332c-.394.577-8.632,9.281-17.687,18.677a45.088,45.088,0,0,1-6.8,5.846c-.944.678-2.253,1.631-2.915,2.107a108.523,108.523,0,0,1-13.449,7.679c-3.422,1.6-8.942,4.417-10.984,5.629a58.735,58.735,0,0,1-7.393,3.753,29.9,29.9,0,0,0-2.831,1.357.752.752,0,0,1-.437.2.608.608,0,0,0-.394.216.852.852,0,0,1-.577.217,10.722,10.722,0,0,0-2.267.953c-1.014.52-3.633,1.819-5.788,2.887s-4.647,2.338-5.506,2.829A146.492,146.492,0,0,0,22.673,144.9c-3.154,2.338-17.8,13.755-17.927,13.972-.084.144-.676.188-2.422.188H0V148.449l.634-.577c.352-.318,5.76-5.615,12.012-11.763s16.336-16.007,22.419-21.9S46.3,103.286,46.514,103s.479-.52.591-.52.211-.072.211-.144c0-.231-.113-.173-.887.419-.69.52-7.745,4.662-18.124,10.623-2.591,1.5-5.281,3.06-5.971,3.493a11.432,11.432,0,0,1-1.366.765,2.524,2.524,0,0,0-.634.361c-.282.2-.563.318-.634.274-.169-.1-.155-.635.014-.635s11.66-9.194,14.857-11.893c7.9-6.683,9.83-8.617,14.434-14.52,6.647-8.5,11.111-13.337,16.9-18.258,5.394-4.59,9.675-7.765,20.87-15.473,3.633-2.5,6.591-4.59,6.591-4.676s-.1-.13-.211-.13-.211-.13-.211-.289a.252.252,0,0,1,.268-.289.678.678,0,0,0,.451-.245c.169-.217.169-.231-.084-.13-.155.072-4.154.693-8.872,1.4-9.548,1.414-11.871,1.79-12.6,2.006a4.525,4.525,0,0,1-.958.144c-.366,0-.465-.058-.422-.26a.442.442,0,0,1,.352-.289.829.829,0,0,0,.465-.26.587.587,0,0,1,.38-.2,1.8,1.8,0,0,0,.634-.3c.225-.173,4.07-2.136,8.534-4.388s11.773-5.961,16.237-8.285,8.21-4.2,8.323-4.2a.608.608,0,0,0,.394-.217c.1-.115.225-.188.282-.144a.153.153,0,0,0,.211-.072c.127-.2.084-.2-3.239.289-4.563.65-10.252,1.414-11.97,1.573-.859.087-1.788.2-2.084.245-.437.072-.521.043-.521-.188s.549-.621.9-.621a.76.76,0,0,0,.352-.188,4.507,4.507,0,0,1,.859-.462c.352-.144,3.07-1.472,6.055-2.93,15.195-7.448,20.49-10.017,20.743-10.075a3.053,3.053,0,0,0,.817-.419,2.145,2.145,0,0,1,.746-.361,1.184,1.184,0,0,0,.521-.289l.338-.289-.338-.289a1.147,1.147,0,0,0-.535-.289,38.9,38.9,0,0,1-4.38-2.41,3.511,3.511,0,0,0-.929-.476.619.619,0,0,1-.366-.217.638.638,0,0,0-.408-.217.611.611,0,0,1-.577-.534c0-.144.958-.188,4.83-.188,2.8,0,5.182-.058,5.675-.159a13.517,13.517,0,0,0,4.211-1.53c.521-.548.789-1.631.873-3.652s-.042-2.872-.887-6.466a10.837,10.837,0,0,1-.451-3.1l.042-1.039L128.431,4a16.723,16.723,0,0,0,3.816,3.219c1.084.592,1.605.563,2.352-.072a11.513,11.513,0,0,0,1.859-2.483,2.522,2.522,0,0,1,.352-.563,1.991,1.991,0,0,0,.352-.592,4.74,4.74,0,0,1,.352-.823,3.7,3.7,0,0,0,.352-.895c0-.346.282-.375.746-.087a6.5,6.5,0,0,0,2.943.606c1.028,0,2.493-.332,6.238-1.443L150.752,0l3.45.014c3.38.014,3.478.029,4.788.433ZM93.859,52.394c-.042.072-.028.144.056.144a.328.328,0,0,0,.225-.144c.042-.087.028-.144-.056-.144A.286.286,0,0,0,93.859,52.394Z" transform="matrix(-0.996, -0.087, 0.087, -0.996, 179.568, 174.162)" fill="#fff"/>
</svg>
