<svg xmlns="http://www.w3.org/2000/svg" width="92.24" height="91.062" viewBox="0 0 92.24 91.062">
  <g id="Group_76" data-name="Group 76" transform="translate(-6383.26 2065.885)">
    <g id="svgg" transform="translate(6329.141 -2084.224)">
      <path id="path0" d="M94.183,19.881a6.648,6.648,0,0,0-1.159.2,7.715,7.715,0,0,1-1.309.211,6.273,6.273,0,0,0-1.369.261,5.378,5.378,0,0,1-1.107.258,2.387,2.387,0,0,0-.741.167,3.2,3.2,0,0,1-.835.211,4.709,4.709,0,0,0-1.124.322,1.908,1.908,0,0,1-.578.207,1.236,1.236,0,0,0-.452.154,12.264,12.264,0,0,1-1.755.689,3.164,3.164,0,0,0-.571.224c-.265.123-.789.365-1.166.537l-1.106.508c-.232.107-.493.22-.579.252a2.045,2.045,0,0,0-.316.156c-.087.054-.49.253-.9.441a5.462,5.462,0,0,0-.79.414,1.681,1.681,0,0,1-.371.235c-.175.09-.577.333-.893.541a2.992,2.992,0,0,1-.7.378.411.411,0,0,0-.248.153,3.923,3.923,0,0,1-.724.488,7.384,7.384,0,0,0-.923.611c-.179.152-.434.347-.567.433s-.626.445-1.1.8-.932.683-1.026.737c-.186.108-2.161,1.948-3.445,3.209A42.37,42.37,0,0,0,64.419,37.2c-.114.145-.455.595-.757,1s-.6.784-.667.843a4.859,4.859,0,0,0-.453.684c-.185.319-.476.793-.645,1.053s-.389.628-.487.816-.218.342-.265.342-.086.063-.086.139a1.683,1.683,0,0,1-.313.553,1.963,1.963,0,0,0-.316.519,2.492,2.492,0,0,1-.208.527c-.505,1.034-1.045,2.234-1.114,2.475a1.329,1.329,0,0,1-.211.421,2.121,2.121,0,0,0-.261.632,2.322,2.322,0,0,1-.228.6,2.618,2.618,0,0,0-.245.632c-.078.279-.259.815-.4,1.191s-.307.827-.366,1a11.205,11.205,0,0,0-.552,1.9,5.128,5.128,0,0,1-.263.948,4.753,4.753,0,0,0-.262,1,1.505,1.505,0,0,1-.159.566,6.041,6.041,0,0,0-.264,1.422,13.045,13.045,0,0,1-.264,1.7,20.829,20.829,0,0,0-.269,2.844c-.061,1.245-.144,2.573-.185,2.949a5.789,5.789,0,0,0,0,1.2c.043.284.126,1.517.186,2.738a23.759,23.759,0,0,0,.267,2.854,14.633,14.633,0,0,1,.259,1.708,6.028,6.028,0,0,0,.249,1.369,3.062,3.062,0,0,1,.213.795,3,3,0,0,0,.221.8,4.135,4.135,0,0,1,.261.956,2.883,2.883,0,0,0,.2.778,2.664,2.664,0,0,1,.218.693,2.691,2.691,0,0,0,.212.685,3.3,3.3,0,0,1,.259.679,3.434,3.434,0,0,0,.259.684,1.457,1.457,0,0,1,.166.434,17.032,17.032,0,0,0,.739,2c.08.174.269.589.419.922a28.218,28.218,0,0,0,2.74,5.135c.131.2.377.582.545.843a30.735,30.735,0,0,0,1.987,2.63.444.444,0,0,1,.161.279c0,.08.046.145.1.145s.172.134.257.3a7.256,7.256,0,0,0,.766.979c.337.374.92,1.031,1.3,1.459a23.277,23.277,0,0,0,2.325,2.32c.245.2.842.743,1.327,1.2s1.13,1.013,1.433,1.233.811.6,1.13.833a24.6,24.6,0,0,0,2.212,1.548c.145.071.6.341,1,.6a43.4,43.4,0,0,0,4.371,2.406,19.93,19.93,0,0,0,3.416,1.458,4.249,4.249,0,0,1,.737.3,1.554,1.554,0,0,0,.481.165,2.188,2.188,0,0,1,.608.227,3.083,3.083,0,0,0,.843.258,6.639,6.639,0,0,1,.972.247,5.247,5.247,0,0,0,.948.218,3.314,3.314,0,0,1,.775.181,9.406,9.406,0,0,0,1.369.3c.645.11,1.41.246,1.7.3s.929.148,1.422.206,1.132.157,1.422.221a73.55,73.55,0,0,0,9.321-.04,16.578,16.578,0,0,1,1.738-.233,7.7,7.7,0,0,0,1.39-.218,8.9,8.9,0,0,1,1.307-.255,4.915,4.915,0,0,0,1.085-.228,4.469,4.469,0,0,1,.852-.253,21.062,21.062,0,0,0,2.644-.751,2.973,2.973,0,0,1,.674-.183,2.109,2.109,0,0,0,.682-.223.8.8,0,0,1,.355-.145,11.481,11.481,0,0,0,1.859-.734c1.117-.5,5.033-2.466,5.355-2.684a3.074,3.074,0,0,1,.61-.325,2.386,2.386,0,0,0,.511-.26c.146-.1.526-.353.845-.562s.782-.524,1.031-.7a3.555,3.555,0,0,1,.5-.318c.079,0,2.8-2.242,3.269-2.695.236-.227.605-.555.821-.729a35.334,35.334,0,0,0,5.022-5.367c.2-.287.421-.6.491-.685.4-.508.734-.957.873-1.163.087-.129.288-.4.448-.606a1.447,1.447,0,0,0,.29-.509.3.3,0,0,1,.142-.223c.18-.107.325-.664.173-.664a.227.227,0,0,0-.17.154,3.38,3.38,0,0,1-.5.606c-.241.249-.77.812-1.175,1.251-1.153,1.25-1.4,1.506-1.6,1.675l-.98.831a8.308,8.308,0,0,0-.878.817.276.276,0,0,1-.179.143.905.905,0,0,0-.341.237,12.9,12.9,0,0,1-2.032,1.553,1.505,1.505,0,0,0-.343.2,14.047,14.047,0,0,1-1.886,1.174.4.4,0,0,0-.234.148,1.8,1.8,0,0,1-.46.319c-.185.094-.408.215-.5.269s-.513.27-.948.479-1.146.565-1.58.788a5.944,5.944,0,0,1-.922.413c-.072,0-.132.05-.132.1s-.154.13-.342.17a6.254,6.254,0,0,0-.816.261,21.85,21.85,0,0,1-2.106.7,3.13,3.13,0,0,0-.7.261,3.906,3.906,0,0,1-.888.259,5.936,5.936,0,0,0-.878.228,5.926,5.926,0,0,1-.955.2c-.465.071-1.106.2-1.425.284-1.912.511-9.836.81-10.954.415a9.335,9.335,0,0,0-1.475-.241,13.087,13.087,0,0,1-1.632-.255,9.62,9.62,0,0,0-1.106-.22,3.386,3.386,0,0,1-.843-.207,3.1,3.1,0,0,0-.737-.207,14.379,14.379,0,0,1-2.358-.708,5.315,5.315,0,0,0-.7-.254,5.648,5.648,0,0,1-.8-.305,1.372,1.372,0,0,0-.449-.157c-.155,0-3.862-1.811-4.326-2.113-.145-.094-.561-.369-.925-.609a6.818,6.818,0,0,0-.713-.438,33.774,33.774,0,0,1-3.338-2.341,46.751,46.751,0,0,1-6-5.927L77.12,86.5a5.465,5.465,0,0,1-.685-1.02.48.48,0,0,0-.136-.272,2.681,2.681,0,0,1-.322-.508c-.1-.2-.3-.558-.441-.79A8.954,8.954,0,0,1,75.1,83.1c-.1-.217-.215-.395-.261-.395s-.142-.19-.211-.423a1.454,1.454,0,0,0-.268-.54.383.383,0,0,1-.141-.236,7.712,7.712,0,0,0-.462-1.067,15.648,15.648,0,0,1-1.012-2.357,1.936,1.936,0,0,0-.211-.512,1.761,1.761,0,0,1-.21-.584,1.548,1.548,0,0,0-.175-.528,14.1,14.1,0,0,1-.719-2.425,8.764,8.764,0,0,0-.3-1.017,4.642,4.642,0,0,1-.228-.967,9.139,9.139,0,0,0-.209-1.09c-.612-2.264-.612-10.986,0-13.008a7.576,7.576,0,0,0,.215-1.106,4.357,4.357,0,0,1,.258-1.053,4.311,4.311,0,0,0,.263-.948A2.034,2.034,0,0,1,71.6,54.2a2.5,2.5,0,0,0,.2-.682,4.245,4.245,0,0,1,.316-.967,1.845,1.845,0,0,0,.209-.583,1.654,1.654,0,0,1,.194-.55,3.038,3.038,0,0,0,.256-.689,44.751,44.751,0,0,1,2.548-5.366c.257-.464.545-.995.64-1.18a1.824,1.824,0,0,1,.321-.46.414.414,0,0,0,.148-.261,3.119,3.119,0,0,1,.5-.773c.275-.349.69-.905.922-1.236s.516-.707.632-.836.424-.482.685-.785.77-.859,1.132-1.236.658-.7.658-.722a2.949,2.949,0,0,1,.372-.381l.883-.819c.281-.261.829-.758,1.219-1.106s.792-.708.894-.8.511-.4.91-.671.843-.6.988-.732a26.4,26.4,0,0,1,2.264-1.518c.29-.183.6-.382.685-.442a24.079,24.079,0,0,1,2.738-1.382c.26-.112.649-.3.863-.409a1.9,1.9,0,0,1,.515-.206,2.342,2.342,0,0,0,.558-.2,13.564,13.564,0,0,1,1.777-.745,2.483,2.483,0,0,0,.54-.2,14.528,14.528,0,0,1,2.692-.794,1.707,1.707,0,0,0,.591-.167,3.51,3.51,0,0,1,.937-.205,12.054,12.054,0,0,0,1.2-.206,40.327,40.327,0,0,1,7.725-.535c.481.06,1.775.152,2.876.205a11.323,11.323,0,0,1,2.475.27,7.47,7.47,0,0,0,1.283.274,6.016,6.016,0,0,1,1.181.258,2.15,2.15,0,0,0,.679.156,4.119,4.119,0,0,1,1.006.263,4.777,4.777,0,0,0,.866.264,1.621,1.621,0,0,1,.5.157,6.841,6.841,0,0,0,.858.306,16.09,16.09,0,0,1,2.686,1.011c.087.051.537.286,1,.523s.913.475,1,.53a5.224,5.224,0,0,0,.526.261,7.891,7.891,0,0,1,.759.4c.215.13.693.412,1.063.627a4.734,4.734,0,0,1,.807.553.434.434,0,0,0,.253.162,3.147,3.147,0,0,1,.714.413c.327.227.73.485.9.573a4.238,4.238,0,0,1,.682.509c1.146,1.047,2.131,1.911,2.8,2.455a23.968,23.968,0,0,1,1.926,1.963c.145.163.465.513.711.777a2.38,2.38,0,0,1,.448.582c0,.056.072.1.161.1s.207.121.263.27.15.24.208.2c.167-.1.124-.32-.105-.527a.619.619,0,0,1-.21-.328,3.521,3.521,0,0,0-.5-.814c-.275-.372-.572-.782-.658-.91-.28-.413-1.289-1.734-1.463-1.915-.093-.1-.359-.4-.59-.684-.4-.482-1-1.145-2.04-2.237-.253-.267-.561-.6-.684-.748a2.712,2.712,0,0,0-.487-.434,10.17,10.17,0,0,1-.948-.828,19.709,19.709,0,0,0-2-1.687c-.194-.145-.629-.477-.969-.737a28.291,28.291,0,0,0-3.238-2.317.475.475,0,0,1-.24-.132,39.37,39.37,0,0,0-3.825-2.02c-1.1-.556-2.039-1.011-2.084-1.01a16.2,16.2,0,0,1-1.76-.779,2.725,2.725,0,0,0-.654-.21,2.891,2.891,0,0,1-.684-.223,1.351,1.351,0,0,0-.46-.154,5.724,5.724,0,0,1-.92-.264,5.015,5.015,0,0,0-.993-.264,1.458,1.458,0,0,1-.543-.159,2.779,2.779,0,0,0-.738-.22,7.341,7.341,0,0,1-1.013-.251,7.767,7.767,0,0,0-1.369-.265,5.328,5.328,0,0,1-1.156-.226,9.465,9.465,0,0,0-1.79-.248,16.3,16.3,0,0,1-1.846-.206,52.237,52.237,0,0,0-5.582-.152m7.373,14.9a20.766,20.766,0,0,1-2.264.212,6.424,6.424,0,0,0-2.121.267,2.749,2.749,0,0,1-1.007.237,3.644,3.644,0,0,0-1.091.245,2.388,2.388,0,0,1-.775.227,1.642,1.642,0,0,0-.686.217,1.741,1.741,0,0,1-.621.253,1.835,1.835,0,0,0-.63.255,1.421,1.421,0,0,1-.585.216,1.369,1.369,0,0,0-.587.225.766.766,0,0,1-.446.162,1,1,0,0,0-.55.264.963.963,0,0,1-.49.263.724.724,0,0,0-.416.211.716.716,0,0,1-.406.21.961.961,0,0,0-.479.264.993.993,0,0,1-.542.263c-.142,0-.258.05-.258.111s-.171.182-.379.269a2.586,2.586,0,0,0-.952.647,1.016,1.016,0,0,1-.343.237,1.166,1.166,0,0,0-.369.264.979.979,0,0,1-.433.263.38.38,0,0,0-.261.211.38.38,0,0,1-.261.21.447.447,0,0,0-.286.194,1.244,1.244,0,0,1-.364.314,9.723,9.723,0,0,0-1.357,1.178.73.73,0,0,1-.33.21c-.064,0-.141.095-.171.211a.267.267,0,0,1-.216.21.282.282,0,0,0-.226.205.468.468,0,0,1-.27.27.279.279,0,0,0-.205.22.259.259,0,0,1-.163.217,1.921,1.921,0,0,0-.785.834c0,.082-.046.15-.1.15s-.2.184-.311.408a1.2,1.2,0,0,1-.369.47.169.169,0,0,0-.1.219c.065.168.177.11.546-.281a.6.6,0,0,1,.257-.184c.079,0,.3-.191,1.5-1.308a2.6,2.6,0,0,1,.816-.551c.159-.034.29-.127.29-.205s.115-.172.256-.207a1.038,1.038,0,0,0,.438-.266.593.593,0,0,1,.324-.2.651.651,0,0,0,.335-.184,4.9,4.9,0,0,1,1.308-.776,1.363,1.363,0,0,0,.5-.306c0-.044.161-.11.358-.147a.991.991,0,0,0,.487-.222.42.42,0,0,1,.258-.155,2.353,2.353,0,0,0,.593-.246,3.3,3.3,0,0,1,.919-.307,1.518,1.518,0,0,0,.632-.214,1.709,1.709,0,0,1,.695-.22,1.639,1.639,0,0,0,.712-.242,1.924,1.924,0,0,1,1.061-.218A4.631,4.631,0,0,0,97.2,39.2a42.994,42.994,0,0,1,8.459-.029,5.632,5.632,0,0,0,1.184.242,2.308,2.308,0,0,1,.948.24,1.9,1.9,0,0,0,.763.241,3.393,3.393,0,0,1,.947.275,1.7,1.7,0,0,0,.639.2.915.915,0,0,1,.476.156,2.283,2.283,0,0,0,.622.274,2.327,2.327,0,0,1,.673.318.927.927,0,0,0,.445.2.335.335,0,0,1,.26.114,1.741,1.741,0,0,0,.507.319,3.741,3.741,0,0,1,1.106.656,1.612,1.612,0,0,0,.5.286c.254.109.462.247.462.307s.071.109.159.109a.584.584,0,0,1,.34.21.587.587,0,0,0,.3.211,4.372,4.372,0,0,1,1.106.787.589.589,0,0,0,.242.16,25.913,25.913,0,0,1,2.532,2.26,16.346,16.346,0,0,1,1.613,1.938,4.091,4.091,0,0,0,.423.467.712.712,0,0,1,.237.36.238.238,0,0,0,.149.2.809.809,0,0,1,.284.392,1.284,1.284,0,0,0,.326.472.442.442,0,0,1,.19.275.974.974,0,0,0,.211.406.962.962,0,0,1,.21.43.319.319,0,0,0,.143.247,1.068,1.068,0,0,1,.384.709.7.7,0,0,0,.211.376.737.737,0,0,1,.21.431.956.956,0,0,0,.2.477,1.8,1.8,0,0,1,.274.682c.04.234.134.45.211.479s.172.251.211.493a1.53,1.53,0,0,0,.222.609,2.061,2.061,0,0,1,.245.757,2.867,2.867,0,0,0,.251.831,3.478,3.478,0,0,1,.226,1.086,4.88,4.88,0,0,0,.225,1.186c.444.984.446,7.908,0,8.9a4.666,4.666,0,0,0-.225,1.135,3.263,3.263,0,0,1-.217,1.02,2.1,2.1,0,0,0-.212.684c-.075.533-.25,1.034-.361,1.034-.043,0-.1.193-.136.429a1.4,1.4,0,0,1-.215.606,1.874,1.874,0,0,0-.273.611,1.392,1.392,0,0,1-.26.555,1.073,1.073,0,0,0-.209.528c-.036.224-.136.435-.224.469a.37.37,0,0,0-.159.332.819.819,0,0,1-.263.516.8.8,0,0,0-.264.452.65.65,0,0,1-.21.4.621.621,0,0,0-.211.319.442.442,0,0,1-.164.265,1.55,1.55,0,0,0-.311.488.865.865,0,0,1-.31.415.256.256,0,0,0-.163.212.26.26,0,0,1-.166.214.6.6,0,0,0-.266.286,6.921,6.921,0,0,1-1.048,1.412,2.408,2.408,0,0,0-.416.543c0,.047-.095.111-.211.141a.267.267,0,0,0-.21.216.282.282,0,0,1-.205.226.469.469,0,0,0-.271.27c-.036.113-.111.205-.167.205a4.22,4.22,0,0,0-.78.649,5.313,5.313,0,0,1-1.711,1.247.133.133,0,0,0-.132.132c0,.12-.193.267-.93.711a4.579,4.579,0,0,0-.429.293c-.615.5-.848.655-.982.655a.612.612,0,0,0-.341.208,1.124,1.124,0,0,1-.411.278,1.86,1.86,0,0,0-.474.266.915.915,0,0,1-.433.2.919.919,0,0,0-.433.2,1.769,1.769,0,0,1-.646.268c-.217.04-.395.114-.395.163,0,.116-.588.321-.921.321a1.028,1.028,0,0,0-.525.211,1.155,1.155,0,0,1-.685.21,1.165,1.165,0,0,0-.674.2,2.087,2.087,0,0,1-.964.276,2.276,2.276,0,0,0-.886.23c-.495.434-9.121.446-9.786.014a3.416,3.416,0,0,0-1.094-.236,2.551,2.551,0,0,1-1.106-.263,2.017,2.017,0,0,0-.783-.249,1.2,1.2,0,0,1-.632-.21,1.249,1.249,0,0,0-.632-.222,1.592,1.592,0,0,1-.744-.281.8.8,0,0,0-.455-.21.635.635,0,0,1-.411-.211.645.645,0,0,0-.42-.211.744.744,0,0,1-.445-.205,1.65,1.65,0,0,0-.621-.317.834.834,0,0,1-.476-.269.266.266,0,0,0-.231-.157c-.165,0-.489-.216-1.065-.711a.964.964,0,0,0-.428-.237c-.182,0-.6-.312-1.231-.922a2.162,2.162,0,0,0-.575-.448c-.06,0-.161-.095-.223-.211s-.165-.21-.228-.21a.555.555,0,0,1-.286-.2c-.214-.246-.6-.375-.694-.23-.037.06-.018.109.044.109s.111.069.111.154a3.448,3.448,0,0,0,.684.859,5,5,0,0,1,.685.794.107.107,0,0,0,.118.089,2.593,2.593,0,0,1,.83.863.092.092,0,0,0,.1.085,2.106,2.106,0,0,1,.745.745.1.1,0,0,0,.106.1.8.8,0,0,1,.335.264.827.827,0,0,0,.327.263,1.4,1.4,0,0,1,.428.262c.182.144.426.332.542.417s.36.275.542.422a1.381,1.381,0,0,0,.431.268.644.644,0,0,1,.291.211.621.621,0,0,0,.33.21c.077,0,.217.119.312.263a.558.558,0,0,0,.357.264.966.966,0,0,1,.452.21,1,1,0,0,0,.409.213.98.98,0,0,1,.4.208,1.016,1.016,0,0,0,.381.208,1,1,0,0,1,.377.206,1.726,1.726,0,0,0,.536.274.883.883,0,0,1,.4.212,1.364,1.364,0,0,0,.5.266,2.043,2.043,0,0,1,.544.257,1.651,1.651,0,0,0,.613.208c.25.041.478.136.507.211s.259.168.512.206a1.83,1.83,0,0,1,.721.274.991.991,0,0,0,.5.205,2.118,2.118,0,0,1,.668.2,3.85,3.85,0,0,0,1.081.253,3.359,3.359,0,0,1,1,.23,4.893,4.893,0,0,0,1.243.272,11.48,11.48,0,0,1,1.471.255,35.588,35.588,0,0,0,7.261-.014,3.7,3.7,0,0,1,1.485-.252,3.763,3.763,0,0,0,1.514-.26,2.585,2.585,0,0,1,.987-.235,2.253,2.253,0,0,0,.877-.2,1.722,1.722,0,0,1,.684-.214,1.948,1.948,0,0,0,.759-.255,1.749,1.749,0,0,1,.652-.256,1.1,1.1,0,0,0,.53-.211,1.149,1.149,0,0,1,.544-.214,1.371,1.371,0,0,0,.626-.271.688.688,0,0,1,.4-.2.919.919,0,0,0,.448-.2,1.723,1.723,0,0,1,.586-.27.984.984,0,0,0,.46-.225.417.417,0,0,1,.262-.151,1.082,1.082,0,0,0,.435-.249,1.992,1.992,0,0,1,.535-.323c.13-.041.237-.118.237-.171s.154-.161.342-.24a1.512,1.512,0,0,0,.487-.317.513.513,0,0,1,.339-.174.4.4,0,0,0,.307-.21c.062-.116.17-.211.241-.212a.86.86,0,0,0,.376-.264.813.813,0,0,1,.422-.261.439.439,0,0,0,.306-.21c.073-.116.179-.211.236-.211a3.934,3.934,0,0,0,.762-.617c1-.936,1.412-1.279,1.541-1.279a.138.138,0,0,0,.118-.151c0-.083.1-.182.217-.22a.591.591,0,0,0,.314-.323c.053-.14.169-.254.257-.254a.16.16,0,0,0,.16-.159c0-.168.294-.534,1.027-1.277a2.157,2.157,0,0,0,.448-.558c0-.057.095-.155.21-.217s.211-.164.211-.225a1.071,1.071,0,0,1,.237-.4c.13-.157.332-.42.448-.583a3.777,3.777,0,0,1,.448-.512.7.7,0,0,0,.237-.386.709.709,0,0,1,.185-.376,2.662,2.662,0,0,0,.321-.467c.45-.868.546-1.027.7-1.152a.57.57,0,0,0,.167-.39.656.656,0,0,1,.21-.432.625.625,0,0,0,.211-.4,1.325,1.325,0,0,1,.263-.576,1.323,1.323,0,0,0,.264-.565.7.7,0,0,1,.171-.4,1.764,1.764,0,0,0,.264-.685,1.776,1.776,0,0,1,.242-.662,1.465,1.465,0,0,0,.22-.587,2.057,2.057,0,0,1,.272-.706,1.369,1.369,0,0,0,.2-.725,1.763,1.763,0,0,1,.2-.768,2.7,2.7,0,0,0,.26-.895,2.378,2.378,0,0,1,.208-.79,4.538,4.538,0,0,0,.219-1.329c.041-.608.143-1.532.226-2.054a22.746,22.746,0,0,0,0-5.161c-.083-.522-.184-1.47-.225-2.107a4.792,4.792,0,0,0-.166-1.218,1.981,1.981,0,0,1-.205-.685,5.445,5.445,0,0,0-.305-1.046,3.507,3.507,0,0,1-.242-.926,1.547,1.547,0,0,0-.207-.684,1.685,1.685,0,0,1-.229-.68c-.04-.275-.109-.5-.154-.5-.123,0-.326-.5-.326-.8a1.042,1.042,0,0,0-.211-.536.967.967,0,0,1-.21-.45.94.94,0,0,0-.2-.442,1.773,1.773,0,0,1-.279-.567,1.783,1.783,0,0,0-.27-.559.914.914,0,0,1-.195-.426.778.778,0,0,0-.158-.381,4.877,4.877,0,0,1-.747-1.261c-.036-.144-.11-.261-.165-.261s-.173-.178-.263-.395a1.246,1.246,0,0,0-.31-.479.279.279,0,0,1-.147-.19,1.689,1.689,0,0,0-.38-.5,7.842,7.842,0,0,1-.739-.93,30.6,30.6,0,0,0-3.954-4.2,4.152,4.152,0,0,0-.816-.68.109.109,0,0,1-.115-.1c0-.056-.145-.177-.321-.269a4.067,4.067,0,0,1-.948-.7,1.268,1.268,0,0,0-.406-.244c-.122-.039-.221-.107-.221-.152s-.187-.167-.415-.27a1.124,1.124,0,0,1-.471-.332.3.3,0,0,0-.27-.145.7.7,0,0,1-.414-.2,1.313,1.313,0,0,0-.448-.278,1.932,1.932,0,0,1-.5-.274.917.917,0,0,0-.379-.2.852.852,0,0,1-.371-.21.85.85,0,0,0-.433-.211.644.644,0,0,1-.379-.2,1.661,1.661,0,0,0-.577-.322.889.889,0,0,1-.422-.227c-.019-.056-.223-.131-.454-.166a1.5,1.5,0,0,1-.631-.247,1.46,1.46,0,0,0-.619-.245,1.368,1.368,0,0,1-.586-.223,2.113,2.113,0,0,0-.8-.258,6.225,6.225,0,0,1-1.046-.26,2.788,2.788,0,0,0-.79-.168c-.48-.007-1.158-.2-1.158-.325a1.763,1.763,0,0,0-.817-.1,18.381,18.381,0,0,1-2.174-.211,15.366,15.366,0,0,0-4.225-.093m32.914,7.2a.279.279,0,0,0,.105.217c.058.036.105-.033.105-.152s-.048-.217-.105-.217-.105.069-.105.152M83.512,83.026a.329.329,0,0,0,.184.184c.079.026.119-.013.092-.092a.33.33,0,0,0-.184-.184c-.079-.026-.118.013-.092.092M138.2,88.017c-.073.19.045.4.178.317s.125-.469-.01-.469c-.06,0-.135.069-.167.153" transform="translate(-0.522 -0.475)" fill="#fff" stroke="rgba(112,112,112,0)" stroke-width="1" fill-rule="evenodd"/>
      <path id="path1" d="M149.654,91.5a16.53,16.53,0,0,0-4.108,1,4.491,4.491,0,0,1-.685.211,2.252,2.252,0,0,0-.579.205c-.116.07-.6.286-1.07.478a8.069,8.069,0,0,0-1.444.783c-.322.238-1.1.786-1.722,1.219a20.055,20.055,0,0,0-6.139,7.06,18.328,18.328,0,0,0-1.737,4.634,3.362,3.362,0,0,1-.174.761c-.558,1.061-.514,6.682.069,8.82a4.755,4.755,0,0,1,.157.75,21.535,21.535,0,0,0,.779,2.466,30.62,30.62,0,0,0,2.19,4.089,25.238,25.238,0,0,0,4.765,4.863c.164.116.422.31.574.431a13.632,13.632,0,0,0,3.226,1.813,33.309,33.309,0,0,0,3.95,1.334c2.389.66,8.481.448,10.375-.362.116-.049.448-.169.737-.265l1.126-.373a7.719,7.719,0,0,0,.79-.3c.1-.056.547-.264.982-.462a12.46,12.46,0,0,0,1.264-.663c.26-.167.6-.376.756-.465a4.249,4.249,0,0,0,.581-.425c.163-.145.485-.4.717-.571a37.445,37.445,0,0,0,4.311-4.487,16.082,16.082,0,0,0,1.635-2.853,28.642,28.642,0,0,0,1.211-3.367,4.471,4.471,0,0,1,.248-.8,4.4,4.4,0,0,0,.225-.94c.061-.4.184-1.037.274-1.417.515-2.174.036-6.132-1.152-9.526-.242-.69-.533-1.426-.96-2.422a17.069,17.069,0,0,0-1.63-2.707c-.267-.3-.437-.505-.828-1.017a29.17,29.17,0,0,0-2.981-2.951,22.033,22.033,0,0,0-3.716-2.486,13.162,13.162,0,0,0-2.06-.845,2.987,2.987,0,0,1-.616-.221,1.325,1.325,0,0,0-.4-.148,7.349,7.349,0,0,1-.9-.256,12.247,12.247,0,0,0-1.566-.382l-1.317-.211a43.137,43.137,0,0,0-5.161.005" transform="translate(-51.148 -48.138)" fill="#480ef1" fill-rule="evenodd"/>
      <path id="path3" d="M95.5,18.817A4.978,4.978,0,0,0,94.292,19a6.95,6.95,0,0,1-1.422.227A9.608,9.608,0,0,0,91.2,19.5a3.489,3.489,0,0,1-.948.169,3.088,3.088,0,0,0-.908.168A6.337,6.337,0,0,1,88.2,20.1a4.213,4.213,0,0,0-1,.244,4.166,4.166,0,0,1-.889.257,2.834,2.834,0,0,0-.838.273.963.963,0,0,1-.443.164,1.778,1.778,0,0,0-.635.263,1.746,1.746,0,0,1-.7.26.6.6,0,0,0-.406.156,1.025,1.025,0,0,1-.513.221,1.907,1.907,0,0,0-.652.253,1.985,1.985,0,0,1-.6.26.968.968,0,0,0-.451.217.97.97,0,0,1-.455.216,1.426,1.426,0,0,0-.493.2,2.422,2.422,0,0,1-.527.269,2.426,2.426,0,0,0-.526.269,1.479,1.479,0,0,1-.507.2.633.633,0,0,0-.406.222.252.252,0,0,1-.22.148,1.286,1.286,0,0,0-.508.264,1.68,1.68,0,0,1-.424.263,5.342,5.342,0,0,0-.771.463,5.821,5.821,0,0,1-.929.534c-.13.039-.237.111-.237.16s-.208.19-.463.313a3.582,3.582,0,0,0-.718.46,9.527,9.527,0,0,1-.827.629l-.836.575a2.054,2.054,0,0,0-.4.368.441.441,0,0,1-.249.185,50.949,50.949,0,0,0-6.008,5.705c-.157.2-.394.484-.527.632a5.169,5.169,0,0,0-.4.51c-.087.133-.407.539-.711.9a5.938,5.938,0,0,0-.553.722,1.056,1.056,0,0,1-.211.3c-.446.5-.526.608-.526.7a.434.434,0,0,1-.161.226,5.4,5.4,0,0,0-.787,1.12,1.667,1.667,0,0,1-.264.371,1.157,1.157,0,0,0-.263.447.62.62,0,0,1-.211.324.65.65,0,0,0-.21.286,1.48,1.48,0,0,1-.237.431,7.229,7.229,0,0,0-.685,1.125,2.329,2.329,0,0,1-.248.421,1.969,1.969,0,0,0-.206.474,2.459,2.459,0,0,1-.27.579,1.477,1.477,0,0,0-.2.474,1.8,1.8,0,0,1-.272.567.919.919,0,0,0-.195.433.966.966,0,0,1-.211.45.973.973,0,0,0-.21.464,1.642,1.642,0,0,1-.2.563,3.354,3.354,0,0,0-.275.735,2.748,2.748,0,0,1-.264.685,2.391,2.391,0,0,0-.246.712,1.2,1.2,0,0,1-.209.546,1.334,1.334,0,0,0-.22.586,2.126,2.126,0,0,1-.229.678,2.346,2.346,0,0,0-.221.809,2.481,2.481,0,0,1-.207.8,3.184,3.184,0,0,0-.242.9,4.127,4.127,0,0,1-.273,1.008,4.5,4.5,0,0,0-.255,1.213,4.467,4.467,0,0,1-.209,1.109,4.673,4.673,0,0,0-.183,1.21,13.142,13.142,0,0,1-.23,1.757,55.669,55.669,0,0,0,0,9.269,10.741,10.741,0,0,1,.226,1.652,4.675,4.675,0,0,0,.184,1.211,4.7,4.7,0,0,1,.208,1.168,3.564,3.564,0,0,0,.24,1.173,2.446,2.446,0,0,1,.235.814,4.316,4.316,0,0,0,.268,1.006,2.35,2.35,0,0,1,.2.767,3.349,3.349,0,0,0,.263.951,3.8,3.8,0,0,1,.264.787,1.793,1.793,0,0,0,.21.554,1.77,1.77,0,0,1,.211.637,1.741,1.741,0,0,0,.21.633,4.225,4.225,0,0,1,.32.837c.06.246.155.448.21.448s.13.189.167.419a1.106,1.106,0,0,0,.212.54.4.4,0,0,1,.145.248,2.821,2.821,0,0,0,.259.64,4.525,4.525,0,0,1,.323.8.869.869,0,0,0,.214.414.4.4,0,0,1,.151.236,5.932,5.932,0,0,0,.808,1.581.3.3,0,0,1,.14.229,1.079,1.079,0,0,0,.241.443,3.551,3.551,0,0,1,.368.561,4.865,4.865,0,0,0,.629.981,1.108,1.108,0,0,1,.237.432.618.618,0,0,0,.21.324.64.64,0,0,1,.211.294.889.889,0,0,0,.237.35c.429.447.606.672.606.773a.981.981,0,0,0,.237.361c.13.144.356.414.5.6s.334.419.421.516a3.434,3.434,0,0,1,.316.446,24.689,24.689,0,0,0,2.344,2.622,7.449,7.449,0,0,1,.922,1.046.107.107,0,0,0,.109.1,3.958,3.958,0,0,1,.779.658c2.031,2,3.218,3.028,3.482,3.028a1.457,1.457,0,0,1,.3.237,4.042,4.042,0,0,0,.94.709.682.682,0,0,1,.264.166,4.145,4.145,0,0,0,1.142.783.3.3,0,0,1,.222.134,1.084,1.084,0,0,0,.348.271,7.917,7.917,0,0,1,1.106.649,7.234,7.234,0,0,0,1.158.659,1.638,1.638,0,0,1,.46.325.5.5,0,0,0,.328.174.967.967,0,0,1,.451.211.965.965,0,0,0,.447.21,1.1,1.1,0,0,1,.492.264,1.1,1.1,0,0,0,.5.263.848.848,0,0,1,.429.211.883.883,0,0,0,.474.21.659.659,0,0,1,.416.2,1.141,1.141,0,0,0,.517.277,3.305,3.305,0,0,1,.7.269,1.675,1.675,0,0,0,.62.2,1.387,1.387,0,0,1,.581.2,2.635,2.635,0,0,0,.747.279,1.348,1.348,0,0,1,.554.213,1.5,1.5,0,0,0,.634.206,2.355,2.355,0,0,1,.721.209,3.952,3.952,0,0,0,1.03.251,3.85,3.85,0,0,1,1.042.261,3.365,3.365,0,0,0,1.022.224,3.391,3.391,0,0,1,1,.213,4.348,4.348,0,0,0,1.214.206,11.151,11.151,0,0,1,1.745.271,7.913,7.913,0,0,0,2.106.21c.749,0,1.931.044,2.626.087a57.655,57.655,0,0,0,7.847-.337,7.82,7.82,0,0,1,1.317-.224,3.559,3.559,0,0,0,1.056-.213,3.181,3.181,0,0,1,.963-.214,3.835,3.835,0,0,0,1.051-.233,3.886,3.886,0,0,1,.962-.254,3.149,3.149,0,0,0,.9-.242,2.473,2.473,0,0,1,.76-.22,1.834,1.834,0,0,0,.684-.207,2.522,2.522,0,0,1,.782-.254,2.287,2.287,0,0,0,.8-.278.643.643,0,0,1,.362-.158,1.777,1.777,0,0,0,.571-.195,17.223,17.223,0,0,1,1.8-.809,1.138,1.138,0,0,0,.4-.221.538.538,0,0,1,.327-.144,1.337,1.337,0,0,0,.54-.263,1.383,1.383,0,0,1,.5-.264.967.967,0,0,0,.415-.21.974.974,0,0,1,.407-.211,1.607,1.607,0,0,0,.527-.263,1.64,1.64,0,0,1,.518-.264.415.415,0,0,0,.256-.151.916.916,0,0,1,.433-.219.744.744,0,0,0,.388-.191,1.513,1.513,0,0,1,.448-.307,8.073,8.073,0,0,0,1.822-1.206.3.3,0,0,1,.221-.138.845.845,0,0,0,.379-.21,1.057,1.057,0,0,1,.309-.211,1.687,1.687,0,0,0,.4-.29c.181-.159.454-.384.607-.5s.358-.286.457-.379a2.149,2.149,0,0,1,.375-.273,32.268,32.268,0,0,0,2.508-2.27,2.574,2.574,0,0,1,.6-.5c.056,0,.131-.09.166-.2a.429.429,0,0,1,.27-.254.263.263,0,0,0,.207-.215.287.287,0,0,1,.211-.228.287.287,0,0,0,.21-.227.264.264,0,0,1,.207-.215.422.422,0,0,0,.269-.248.456.456,0,0,1,.267-.259c.113-.036.205-.13.205-.209s.095-.174.211-.211.21-.1.21-.148a3.094,3.094,0,0,1,.478-.6,8.523,8.523,0,0,0,1.154-1.412c.172-.261.513-.734.758-1.053l.66-.859a1.082,1.082,0,0,0,.214-.39.281.281,0,0,1,.132-.194,7.575,7.575,0,0,0,1.009-1.453c.144-.232.349-.55.456-.707a1.178,1.178,0,0,0,.194-.389c0-.057.092-.168.2-.246a.876.876,0,0,0,.278-.442,1.259,1.259,0,0,1,.271-.5.734.734,0,0,0,.2-.432.885.885,0,0,1,.158-.442c.18-.238.208-.8.04-.8-.063,0-.168.142-.234.316s-.175.316-.242.316-.2.122-.3.27a3.561,3.561,0,0,1-.381.474.677.677,0,0,0-.2.362c0,.087-.043.158-.095.158s-.192.154-.31.343-.359.532-.535.763a5.741,5.741,0,0,0-.39.563,2.2,2.2,0,0,1-.292.38c-1.015,1.088-2.018,2.2-2.136,2.37a11.974,11.974,0,0,1-1.115,1.027c-.534.452-1.135,1-1.336,1.217a1.4,1.4,0,0,1-.5.395.3.3,0,0,0-.215.132,8.463,8.463,0,0,1-1.478,1.237.891.891,0,0,0-.344.21.859.859,0,0,1-.367.211.847.847,0,0,0-.371.263.833.833,0,0,1-.382.264,2.219,2.219,0,0,0-.625.342,15.274,15.274,0,0,1-2.1,1.232c-.463.237-.913.475-1,.528s-.513.267-.948.474-.861.419-.948.469a5.657,5.657,0,0,1-1.581.642,1.3,1.3,0,0,0-.578.21,1.329,1.329,0,0,1-.6.21,1.9,1.9,0,0,0-.684.2,3.449,3.449,0,0,1-.82.277,1.514,1.514,0,0,0-.581.211,2.9,2.9,0,0,1-.958.238,4.608,4.608,0,0,0-1,.208,5.435,5.435,0,0,1-1.089.231,5.291,5.291,0,0,0-1.156.261,7.82,7.82,0,0,1-1.849.213,20.709,20.709,0,0,0-2.315.221,14.178,14.178,0,0,1-4,0c-.463-.081-1.481-.181-2.26-.223a8.954,8.954,0,0,1-1.764-.221,5.074,5.074,0,0,0-1.162-.209,5.02,5.02,0,0,1-1.245-.247,4.7,4.7,0,0,0-1.046-.26,2.813,2.813,0,0,1-.836-.214,2.243,2.243,0,0,0-.694-.2,2.288,2.288,0,0,1-.79-.274,1.3,1.3,0,0,0-.579-.208,1.7,1.7,0,0,1-.632-.2,3.43,3.43,0,0,0-.727-.276,2.669,2.669,0,0,1-.684-.277,1.35,1.35,0,0,0-.493-.2.846.846,0,0,1-.411-.211.847.847,0,0,0-.423-.21.912.912,0,0,1-.431-.2,1.746,1.746,0,0,0-.593-.272.824.824,0,0,1-.406-.18,1.807,1.807,0,0,0-.5-.312,5.084,5.084,0,0,1-1.268-.74.71.71,0,0,0-.33-.195.623.623,0,0,1-.312-.211.621.621,0,0,0-.316-.21.787.787,0,0,1-.348-.184,9.359,9.359,0,0,0-.806-.54,2.118,2.118,0,0,1-.584-.441c0-.047-.094-.115-.21-.152a1.061,1.061,0,0,1-.343-.191,13.853,13.853,0,0,0-1.855-1.336.143.143,0,0,1-.12-.158c0-.087-.045-.158-.1-.158a52.049,52.049,0,0,1-4.323-4.212c-.145-.178-.346-.4-.448-.5a.586.586,0,0,1-.184-.3.185.185,0,0,0-.079-.161c-.072-.032-.7-.826-1.74-2.186a5.18,5.18,0,0,1-.547-.879,1.57,1.57,0,0,0-.313-.493.454.454,0,0,1-.164-.285,1.22,1.22,0,0,0-.21-.461l-.407-.6a2.584,2.584,0,0,1-.276-.553,1.441,1.441,0,0,0-.212-.419,2.119,2.119,0,0,1-.259-.553c-.07-.217-.169-.395-.22-.395s-.144-.187-.205-.417a1.207,1.207,0,0,0-.207-.475,1.226,1.226,0,0,1-.221-.452,2.037,2.037,0,0,0-.261-.552,2.139,2.139,0,0,1-.26-.629,2.749,2.749,0,0,0-.273-.682.889.889,0,0,1-.148-.425,2.259,2.259,0,0,0-.263-.709,2.247,2.247,0,0,1-.263-.71,1.756,1.756,0,0,0-.21-.609,1.924,1.924,0,0,1-.211-.752,2.267,2.267,0,0,0-.2-.792,3.776,3.776,0,0,1-.27-.932,1.465,1.465,0,0,0-.209-.644,2.979,2.979,0,0,1-.218-1.186,6.278,6.278,0,0,0-.23-1.41c-.355-.835-.358-10.05,0-11.006a7.084,7.084,0,0,0,.23-1.42A3.4,3.4,0,0,1,70.8,55.9a2.531,2.531,0,0,0,.255-.83,2.679,2.679,0,0,1,.244-.825,2.264,2.264,0,0,0,.2-.792,1.678,1.678,0,0,1,.182-.7,1.542,1.542,0,0,0,.239-.592,3.738,3.738,0,0,1,.323-.841,1.326,1.326,0,0,0,.192-.528,1.767,1.767,0,0,1,.211-.605,1.811,1.811,0,0,0,.21-.546,2.245,2.245,0,0,1,.247-.618,6.255,6.255,0,0,0,.313-.664A2.013,2.013,0,0,1,73.583,48c.054-.087.252-.49.438-.9s.382-.808.433-.9.167-.3.256-.474.278-.506.418-.737.351-.611.468-.843.354-.634.526-.9a6.941,6.941,0,0,0,.414-.7.634.634,0,0,1,.186-.264,4.452,4.452,0,0,0,.77-1,.591.591,0,0,1,.158-.243c.087-.092.523-.617.969-1.167a12.369,12.369,0,0,1,1-1.138c.1-.076.19-.18.19-.232a21.672,21.672,0,0,1,2.046-2.106,1.259,1.259,0,0,0,.3-.237,27.794,27.794,0,0,1,2.508-2.1c.111-.042.2-.113.2-.159s.13-.142.29-.214a4.008,4.008,0,0,0,.755-.552,2.573,2.573,0,0,1,.548-.422,2.813,2.813,0,0,0,.568-.342,14.732,14.732,0,0,1,1.6-.992c.188-.1.342-.211.342-.249a1.107,1.107,0,0,1,.421-.26c.232-.1.421-.227.421-.271s.154-.114.342-.154a1.409,1.409,0,0,0,.5-.206,2.18,2.18,0,0,1,.579-.265,2.17,2.17,0,0,0,.579-.265,1.383,1.383,0,0,1,.493-.2.971.971,0,0,0,.455-.216.967.967,0,0,1,.455-.215,2.59,2.59,0,0,0,.651-.257,2.527,2.527,0,0,1,.7-.255,1.038,1.038,0,0,0,.5-.212,1.078,1.078,0,0,1,.511-.217,1.412,1.412,0,0,0,.565-.228,2.065,2.065,0,0,1,.79-.245,3.625,3.625,0,0,0,.932-.256,1.832,1.832,0,0,1,.718-.168,2.845,2.845,0,0,0,.9-.207,6.687,6.687,0,0,1,1.632-.308,4.409,4.409,0,0,0,1.306-.241,86.22,86.22,0,0,1,10.932.031,5.34,5.34,0,0,0,1.158.248,3.923,3.923,0,0,1,1.019.222,4.563,4.563,0,0,0,1.106.241,4.349,4.349,0,0,1,1.141.264,1.515,1.515,0,0,0,.581.17,1.739,1.739,0,0,1,.644.2,3.171,3.171,0,0,0,.788.275,2.2,2.2,0,0,1,.639.216,2.223,2.223,0,0,0,.685.211,2.228,2.228,0,0,1,.673.2,3.539,3.539,0,0,0,.669.271,1.006,1.006,0,0,1,.5.267.613.613,0,0,0,.384.2,1.719,1.719,0,0,1,.584.27.916.916,0,0,0,.381.2.918.918,0,0,1,.381.2,1.91,1.91,0,0,0,.515.276,1.378,1.378,0,0,1,.421.217,1.282,1.282,0,0,0,.443.208.922.922,0,0,1,.417.23,1.1,1.1,0,0,0,.347.251,5.571,5.571,0,0,1,.59.331c.482.307,1.056.679,1.257.814a6.411,6.411,0,0,0,1.195.74,3.951,3.951,0,0,1,1.019.774c.557.5,1.2,1.046,1.52,1.282.417.31,3.2,3.079,3.692,3.671.232.28.529.631.661.781s.345.41.474.58.341.441.471.6a1.176,1.176,0,0,1,.237.395.643.643,0,0,0,.21.291c.268.242.268.526,0,.867a.981.981,0,0,0-.21.4.916.916,0,0,1-.2.381c-.352.451-.381,1.955-.044,2.189a1.527,1.527,0,0,1,.245.467,1.222,1.222,0,0,0,.46.579,3.108,3.108,0,0,1,.5.361.915.915,0,0,0,.555.184.642.642,0,0,1,.433.115c.126.2,1.7-.1,1.9-.368a.394.394,0,0,1,.223-.169,2.084,2.084,0,0,0,.773-.822,1.9,1.9,0,0,1,.211-.52c.421-.786-.236-3.082-.882-3.082a.852.852,0,0,1-.343-.224,3.491,3.491,0,0,0-2.1-.3c-.575.087-.605.064-1.048-.813a1.806,1.806,0,0,0-.319-.46.411.411,0,0,1-.15-.242,5.719,5.719,0,0,0-.733-1.194.448.448,0,0,1-.107-.223,5.349,5.349,0,0,0-.767-1.072c-.077-.087-.312-.419-.521-.737a8.727,8.727,0,0,0-.705-.928A1.878,1.878,0,0,1,135,35.6a5.275,5.275,0,0,0-.549-.7c-.759-.885-.842-.975-2.016-2.195-.571-.593-1.11-1.185-1.2-1.316s-.2-.237-.243-.237a5.02,5.02,0,0,1-.774-.643,15.587,15.587,0,0,0-1.764-1.566,10.115,10.115,0,0,1-.97-.713c-.5-.391-1.074-.829-1.283-.974s-.436-.31-.505-.369c-.243-.2-.967-.738-1.142-.843-.1-.058-.39-.255-.65-.437a3.718,3.718,0,0,0-.72-.409,1.927,1.927,0,0,1-.5-.273.908.908,0,0,0-.424-.2.6.6,0,0,1-.356-.214,1.011,1.011,0,0,0-.491-.275.543.543,0,0,1-.36-.2.643.643,0,0,0-.4-.212,1.771,1.771,0,0,1-.6-.273.913.913,0,0,0-.381-.2.989.989,0,0,1-.4-.211,1.675,1.675,0,0,0-.594-.277c-.178-.035-.324-.1-.324-.15s-.107-.116-.237-.153a8.6,8.6,0,0,1-.816-.334c-1.125-.516-1.429-.646-2.135-.918a4.2,4.2,0,0,0-.975-.274,1.785,1.785,0,0,1-.654-.21,1.823,1.823,0,0,0-.69-.211,2.408,2.408,0,0,1-.772-.217,4.015,4.015,0,0,0-1.021-.276,2.391,2.391,0,0,1-.795-.215,3.8,3.8,0,0,0-1.13-.236,3.535,3.535,0,0,1-1.016-.192,8.16,8.16,0,0,0-2.28-.34,1.261,1.261,0,0,1-.6-.106c-.274-.274-6.657-.415-9.731-.216m8.682.262c.467.08,1.252.176,1.745.215a9.594,9.594,0,0,1,1.467.229,10.056,10.056,0,0,0,1.264.241,12.2,12.2,0,0,1,1.534.317l1.555.434a43.314,43.314,0,0,1,10.135,4.192l1.153.634a31.544,31.544,0,0,1,3.952,2.751c.339.26.722.545.851.632a14.957,14.957,0,0,1,1.6,1.351c.3.288.765.7,1.026.912a24.839,24.839,0,0,1,2.3,2.321c.705.747,1.338,1.475,1.879,2.161.162.205.355.443.428.527.133.152.305.383,1.409,1.891a20.755,20.755,0,0,1,1.564,2.49,1.644,1.644,0,0,0,.264.373,1.124,1.124,0,0,1,.263.462c0,.494.383.647,1.479.595,1-.048,1.069-.037,1.468.227a2.115,2.115,0,0,0,.513.277c.157,0,.607.756.851,1.432l.232.641-.271.774a2.348,2.348,0,0,1-2.534,1.834c-2.411,0-3.432-2.3-1.978-4.459.323-.48.306-1.065-.032-1.065-.079,0-.175-.12-.211-.266a.65.65,0,0,0-.265-.372.363.363,0,0,1-.2-.256.8.8,0,0,0-.245-.391c-.134-.133-.478-.525-.763-.871-.48-.583-1.773-1.986-2.522-2.738-.334-.336-1.429-1.3-2.052-1.8-.2-.165-.632-.539-.954-.831a11.132,11.132,0,0,0-1.348-1c-.42-.259-.949-.591-1.177-.735a40.362,40.362,0,0,0-3.788-2.182c-.9-.46-1.728-.89-1.843-.955a16.045,16.045,0,0,0-2.686-.972c-.956-.3-1.9-.615-2.106-.694a28.648,28.648,0,0,0-3.265-.725,8.008,8.008,0,0,1-1.106-.264c-1.177-.461-10.962-.416-12.194.056a11.454,11.454,0,0,1-1.147.207c-.541.079-1.362.242-1.825.364a25,25,0,0,0-2.738.792c-.174.078-.648.271-1.053.43s-.936.376-1.179.483a3.709,3.709,0,0,1-.5.195,8.131,8.131,0,0,0-.77.325c-.391.179-.853.387-1.027.463a21.3,21.3,0,0,0-2.9,1.525,5.115,5.115,0,0,1-.913.527.186.186,0,0,0-.158.086,5.659,5.659,0,0,1-1.1.759,4.519,4.519,0,0,0-.612.474,4.121,4.121,0,0,1-.619.474,17.515,17.515,0,0,0-1.819,1.392c-.064.075-.439.42-.834.768a36.262,36.262,0,0,0-5,5.413c-.26.348-.594.775-.742.948a11.462,11.462,0,0,0-.79,1.232l-.918,1.612c-.509.9-1.939,3.8-2.206,4.487-.113.29-.294.764-.4,1.053s-.32.858-.472,1.264a26.826,26.826,0,0,0-.911,3.05,3.983,3.983,0,0,1-.246.79,3.3,3.3,0,0,0-.208.847c-.039.319-.165,1.045-.278,1.613a51.336,51.336,0,0,0-.005,11.815c.112.579.238,1.314.278,1.633a4.221,4.221,0,0,0,.209.9,8.216,8.216,0,0,1,.295.948,36.271,36.271,0,0,0,2.283,6.425l.783,1.633c.208.434.424.861.48.948s.455.784.888,1.55A16.41,16.41,0,0,0,77.1,86.442c.076.087.421.535.766,1a19.468,19.468,0,0,0,1.944,2.289c.55.6,1.214,1.27,1.475,1.495s.784.7,1.164,1.053A22.448,22.448,0,0,0,84.47,94c.188.133.776.56,1.3.948a20.064,20.064,0,0,0,2.511,1.632.793.793,0,0,1,.263.159,35.7,35.7,0,0,0,5.2,2.649c.3.1,1.151.406,1.893.67a20.868,20.868,0,0,0,2.106.637,9.234,9.234,0,0,1,1.073.28,35.739,35.739,0,0,0,4.529.782,31.053,31.053,0,0,0,5.864.265,50.107,50.107,0,0,0,5.223-.613,2.8,2.8,0,0,1,.657-.165,31.043,31.043,0,0,0,3.265-.746c.373-.141.905-.319,2.054-.684a14.906,14.906,0,0,0,2.844-1.136c2.306-1.155,3.59-1.829,4.055-2.13.261-.168.758-.478,1.106-.688a18.86,18.86,0,0,0,3.891-2.9c.293-.265.817-.717,1.164-1a20.856,20.856,0,0,0,2.054-2.04c.275-.3,1.437-1.622,1.725-1.967a1.389,1.389,0,0,0,.277-.429.906.906,0,0,1,.263-.346.831.831,0,0,0,.263-.381.443.443,0,0,1,.184-.271,1.476,1.476,0,0,0,.334-.427c.082-.159.211-.29.287-.29s.168-.119.2-.263.108-.264.16-.264c.15,0,.108.508-.049.6a1.082,1.082,0,0,0-.271.479c-.071.217-.175.395-.231.395s-.152.142-.213.316-.153.316-.205.316a.111.111,0,0,0-.095.122,1.563,1.563,0,0,1-.29.5,6.748,6.748,0,0,0-.488.747,9.377,9.377,0,0,1-.658.966,5.531,5.531,0,0,0-.46.65c0,.531-4.146,5.2-6.109,6.877-.261.223-.758.672-1.106,1a37.792,37.792,0,0,1-6.425,4.63c-1.045.56-4.721,2.4-5.277,2.646-1.2.521-1.944.819-2.464.984-.319.1-.853.275-1.188.386a53.431,53.431,0,0,1-5.184,1.348c-4.347.862-11.806,1.115-14.482.491-.377-.088-1.111-.21-1.633-.271a25.985,25.985,0,0,1-3.423-.633c-.434-.114-1.027-.26-1.317-.325a13.432,13.432,0,0,1-2.212-.6c-.29-.115-.693-.267-.9-.337a34.266,34.266,0,0,1-4.786-2.058c-1.213-.614-2.284-1.185-2.378-1.271a.6.6,0,0,0-.259-.156,1.573,1.573,0,0,1-.432-.263,1.451,1.451,0,0,0-.45-.263A.464.464,0,0,1,76,102.42a6.922,6.922,0,0,0-.824-.528,18.889,18.889,0,0,1-2.151-1.459c-.084-.078-.325-.259-.534-.4a46.042,46.042,0,0,1-6.575-6.109l-1.049-1.211c-.151-.174-.417-.513-.591-.755s-.8-1.079-1.4-1.861-1.08-1.45-1.08-1.485a7.588,7.588,0,0,0-.493-.825c-.271-.419-.61-.952-.754-1.184s-.348-.55-.455-.706a1.6,1.6,0,0,1-.194-.337c0-.062-1.093-2.43-1.584-3.433a6.781,6.781,0,0,1-.312-.79,2.745,2.745,0,0,0-.21-.527,3.649,3.649,0,0,1-.242-.632c-.09-.29-.289-.858-.442-1.264A40.745,40.745,0,0,1,55.851,74.7c-.09-.348-.23-.845-.312-1.106a6.856,6.856,0,0,1-.215-1.106c-.036-.347-.157-1.106-.269-1.685s-.252-1.741-.311-2.58-.151-2.118-.205-2.839a19.735,19.735,0,0,1,0-2.633c.052-.727.145-2.056.207-2.954a26.051,26.051,0,0,1,.312-2.633c.11-.55.233-1.332.274-1.738a3.959,3.959,0,0,1,.208-1,3.258,3.258,0,0,0,.211-.79,3.5,3.5,0,0,1,.2-.789,5.342,5.342,0,0,0,.261-.9A23.366,23.366,0,0,1,57.1,49.1c.712-2.006.956-2.648,1.324-3.476a43.311,43.311,0,0,1,2.018-4.108c.545-.867.814-1.3,1.077-1.711a19.529,19.529,0,0,1,1.247-1.833c.132-.154.738-.933,1.347-1.733a38.259,38.259,0,0,1,4.529-5.031c.319-.282,1.011-.922,1.54-1.422a22.293,22.293,0,0,1,1.948-1.615c.544-.388,1.2-.861,1.462-1.051a9.573,9.573,0,0,1,1.217-.824,5.977,5.977,0,0,0,.654-.409c.332-.225.794-.51,1.026-.635s.563-.317.737-.427c.464-.3,1.631-.951,1.693-.951a7.405,7.405,0,0,0,.707-.306l1.76-.823c.608-.285,1.248-.569,1.422-.633s.743-.282,1.264-.486a17.643,17.643,0,0,1,2.686-.959c.2-.036.605-.132.9-.214a28.045,28.045,0,0,1,3.381-.734,6.871,6.871,0,0,0,1.07-.2,7.756,7.756,0,0,1,1.2-.178,13.832,13.832,0,0,0,1.51-.222,49.08,49.08,0,0,1,9.367-.044m-1.257,14.476a4.243,4.243,0,0,0-.972.15,6.723,6.723,0,0,1-1.148.236,5.018,5.018,0,0,0-1.146.259,3.412,3.412,0,0,1-.938.209,3.383,3.383,0,0,0-1.039.263.891.891,0,0,1-.389.161,2.764,2.764,0,0,0-.687.26,2.663,2.663,0,0,1-.737.263,1.3,1.3,0,0,0-.527.213,1.247,1.247,0,0,1-.489.21,10.509,10.509,0,0,0-2.039.941c-.29.157-.858.463-1.264.68a12.437,12.437,0,0,0-2.212,1.374,5.159,5.159,0,0,1-.579.426c-.26.172-.6.409-.744.526s-.4.308-.568.424a48.088,48.088,0,0,0-3.744,3.712.287.287,0,0,1-.143.206A10.082,10.082,0,0,0,81.916,46.2a.278.278,0,0,1-.131.189,3.422,3.422,0,0,0-.817,1.115.618.618,0,0,1-.21.339.665.665,0,0,0-.211.411c0,.468-.584.905-1.207.905a2.217,2.217,0,0,0-2.058,2.095,2.56,2.56,0,0,0,.937,1.731,1.769,1.769,0,0,1,.414.254,2.219,2.219,0,0,0,1.7-.023,1.246,1.246,0,0,1,.378-.2c1.1-.333,1.121-3.182.031-3.467-.308-.08-.266-.635.065-.852.145-.095.263-.232.263-.3a.919.919,0,0,1,.29-.4c.159-.147.574-.593.922-.99s.794-.868.992-1.046.455-.43.572-.56a.729.729,0,0,1,.316-.237A.562.562,0,0,0,84.436,45,20.647,20.647,0,0,1,86.5,43.364a2.142,2.142,0,0,0,.421-.254,18.833,18.833,0,0,1,1.991-1.276c.179-.083.4-.194.484-.247a4.468,4.468,0,0,1,.421-.212c.145-.064.334-.155.421-.2a5.545,5.545,0,0,1,1.475-.652,1.755,1.755,0,0,0,.6-.21,1.768,1.768,0,0,1,.636-.211,1.91,1.91,0,0,0,.655-.21,4.357,4.357,0,0,1,1.109-.309,2.859,2.859,0,0,0,.822-.2,6.443,6.443,0,0,1,1.388-.22c.695-.064,1.548-.17,1.895-.236a22.064,22.064,0,0,1,4.951.052,10.828,10.828,0,0,0,1.554.215,2.985,2.985,0,0,1,1.156.222,1.055,1.055,0,0,0,.5.167,3.581,3.581,0,0,1,.846.217,9.312,9.312,0,0,0,1.047.313,1.25,1.25,0,0,1,.532.2,1.231,1.231,0,0,0,.532.2,4.478,4.478,0,0,1,1.048.421c.319.179.7.378.843.443s.334.16.421.212.324.177.527.278a3.125,3.125,0,0,1,.573.368.735.735,0,0,0,.294.184,1.226,1.226,0,0,1,.375.2c.157.108.693.461,1.191.785a8.725,8.725,0,0,1,1.04.751.434.434,0,0,0,.227.162.693.693,0,0,1,.289.184c.108.1.448.4.756.658A16.514,16.514,0,0,1,120.255,48c.127.188.8,1.049,1.359,1.747a3.516,3.516,0,0,1,.255.429,1.758,1.758,0,0,0,.327.451.458.458,0,0,1,.165.289,1.306,1.306,0,0,0,.263.5,1.435,1.435,0,0,1,.264.454.421.421,0,0,0,.158.24.473.473,0,0,1,.161.3,3.51,3.51,0,0,0,.316.8,3.92,3.92,0,0,1,.313.751.423.423,0,0,0,.158.252.535.535,0,0,1,.161.355,2.612,2.612,0,0,0,.262.751,2.765,2.765,0,0,1,.26.687.873.873,0,0,0,.158.385,3.261,3.261,0,0,1,.266.99,3.086,3.086,0,0,0,.228.909,4.135,4.135,0,0,1,.2,1.154,15.364,15.364,0,0,0,.273,1.813,19.155,19.155,0,0,1,0,5.454,10.335,10.335,0,0,0-.241,1.632,4.069,4.069,0,0,1-.213,1.221,3.305,3.305,0,0,0-.241.948A4.981,4.981,0,0,1,124.8,71.7a2.546,2.546,0,0,0-.221.645.45.45,0,0,1-.149.294,1.021,1.021,0,0,0-.217.492,3.741,3.741,0,0,1-.327.854,2.509,2.509,0,0,0-.257.614.4.4,0,0,1-.145.25.833.833,0,0,0-.2.409,4.29,4.29,0,0,1-.432.919,9.752,9.752,0,0,0-.492.92c-.065.159-.153.29-.2.29s-.129.112-.192.249a11.485,11.485,0,0,1-.807,1.157,7.145,7.145,0,0,0-.694,1.007.153.153,0,0,1-.093.132,6.893,6.893,0,0,0-.73.8,7.442,7.442,0,0,1-1.4,1.454,8.409,8.409,0,0,0-.819.705,13.783,13.783,0,0,1-1.287,1.053l-1.054.736a2.159,2.159,0,0,1-.5.29.973.973,0,0,0-.33.263.95.95,0,0,1-.335.264,2.821,2.821,0,0,0-.587.35,9.9,9.9,0,0,1-1.236.692c-.405.188-.912.434-1.127.545a1.85,1.85,0,0,1-.531.2,1.89,1.89,0,0,0-.531.2,3.45,3.45,0,0,1-.786.271,2.093,2.093,0,0,0-.618.215,3.4,3.4,0,0,1-.884.263,3.5,3.5,0,0,0-.884.259,3.424,3.424,0,0,1-1.012.21,8.369,8.369,0,0,0-1.317.226,34.862,34.862,0,0,1-6.952-.007,7.656,7.656,0,0,0-1.317-.229,5.2,5.2,0,0,1-1.122-.2,7.041,7.041,0,0,0-.944-.261,3.357,3.357,0,0,1-.826-.265,2.169,2.169,0,0,0-.636-.214,2,2,0,0,1-.629-.219.8.8,0,0,0-.342-.143,4.2,4.2,0,0,1-.8-.316,4.429,4.429,0,0,0-.79-.316.11.11,0,0,1-.121-.093c0-.051-.154-.154-.342-.23a13.666,13.666,0,0,1-1.7-.942c-.129-.087-.4-.262-.6-.389s-.412-.274-.474-.328a2.532,2.532,0,0,0-.369-.233,10.113,10.113,0,0,1-1-.752,6.424,6.424,0,0,0-.818-.616,24.17,24.17,0,0,1-2.86-2.791A6.326,6.326,0,0,1,81.2,79.7c-.353-.553-.794-1.053-.929-1.053-.166,0-.195.586-.033.685a1.27,1.27,0,0,1,.258.429.893.893,0,0,0,.315.425.342.342,0,0,1,.162.309.537.537,0,0,0,.184.383,3.228,3.228,0,0,1,.5.612,16.342,16.342,0,0,0,1.37,1.738,5.084,5.084,0,0,1,.456.632,34.613,34.613,0,0,0,4.137,4.055.646.646,0,0,1,.265.184,3.312,3.312,0,0,0,.418.342,18.264,18.264,0,0,1,1.713,1.234,4.2,4.2,0,0,0,.8.505c.3.146.609.305.7.352l.474.259c.174.1.477.249.674.341a2.265,2.265,0,0,1,.508.318.558.558,0,0,0,.337.15.848.848,0,0,1,.43.21.844.844,0,0,0,.415.211,1.881,1.881,0,0,1,.573.2,3.784,3.784,0,0,0,.733.277,3.3,3.3,0,0,1,.7.27,1.662,1.662,0,0,0,.528.2,1.707,1.707,0,0,1,.537.2,3.179,3.179,0,0,0,.894.272,3.757,3.757,0,0,1,.835.213,3.831,3.831,0,0,0,.9.208,9.465,9.465,0,0,1,1.263.262,14.093,14.093,0,0,0,2.37.3c.927.059,2,.158,2.374.22a4.034,4.034,0,0,0,1.369,0c.374-.06,1.463-.172,2.42-.248a12.517,12.517,0,0,0,1.949-.249,6.007,6.007,0,0,1,1.2-.231,5.717,5.717,0,0,0,1.264-.263,3.488,3.488,0,0,1,.909-.218,2.927,2.927,0,0,0,.843-.2,3.7,3.7,0,0,1,.714-.267,1.652,1.652,0,0,0,.557-.226,1.337,1.337,0,0,1,.5-.2,19.391,19.391,0,0,0,2.919-1.3,10.011,10.011,0,0,0,1.858-1.089,3.776,3.776,0,0,1,.773-.448.234.234,0,0,0,.175-.158.247.247,0,0,1,.2-.158,1.34,1.34,0,0,0,.5-.316,1.42,1.42,0,0,1,.481-.316.236.236,0,0,0,.182-.158.237.237,0,0,1,.184-.158c.433,0,4.727-4.223,5.742-5.647.14-.2.294-.356.342-.356s.089-.054.089-.121a2.59,2.59,0,0,1,.459-.658,9.685,9.685,0,0,0,.816-1.148c.2-.335.464-.785.594-1s.333-.581.451-.812.257-.493.309-.579a18.587,18.587,0,0,0,1.057-2.3,2.266,2.266,0,0,1,.2-.588,11.153,11.153,0,0,0,.759-2.041,3.134,3.134,0,0,1,.2-.658,3.813,3.813,0,0,0,.219-.789,5.39,5.39,0,0,1,.31-1.027,2.791,2.791,0,0,0,.205-1.049,3.914,3.914,0,0,1,.187-1.106,56.677,56.677,0,0,0,.049-8.956,4.518,4.518,0,0,1-.22-1.16,5.21,5.21,0,0,0-.262-1.3,4.536,4.536,0,0,1-.276-.984,2.542,2.542,0,0,0-.2-.732,1.662,1.662,0,0,1-.178-.541,4.915,4.915,0,0,0-.325-.948,2.78,2.78,0,0,1-.247-.713,1.783,1.783,0,0,0-.211-.578,1.76,1.76,0,0,1-.211-.619.522.522,0,0,0-.157-.356,1.4,1.4,0,0,1-.28-.541,1.4,1.4,0,0,0-.264-.527.378.378,0,0,1-.141-.225,12.167,12.167,0,0,0-1.161-2.235c-.287-.464-.592-.985-.677-1.159a4.486,4.486,0,0,0-.554-.766c-.22-.247-.48-.555-.578-.685a38.526,38.526,0,0,0-5.026-5.295,20.8,20.8,0,0,0-2.488-1.733.614.614,0,0,1-.31-.208,1.106,1.106,0,0,0-.411-.276,1.276,1.276,0,0,1-.381-.2,6.99,6.99,0,0,0-.786-.466,5.88,5.88,0,0,1-.8-.486.605.605,0,0,0-.332-.154.909.909,0,0,1-.413-.2,1.962,1.962,0,0,0-.515-.278,1.948,1.948,0,0,1-.515-.278.916.916,0,0,0-.421-.2,1.248,1.248,0,0,1-.486-.21,1.3,1.3,0,0,0-.527-.213,2.663,2.663,0,0,1-.737-.263,2.582,2.582,0,0,0-.74-.26.941.941,0,0,1-.441-.16,2.535,2.535,0,0,0-.892-.226,5.473,5.473,0,0,1-1.181-.267,5.886,5.886,0,0,0-1.369-.262,4.876,4.876,0,0,1-1.222-.226,64.441,64.441,0,0,0-8.163-.137m6.478.113a35.3,35.3,0,0,1,3.739.587c.29.08.811.193,1.158.251a23.007,23.007,0,0,1,3.792,1.223,47.209,47.209,0,0,1,5.213,2.793c.154.089.537.349.851.578s.788.56,1.052.734a19.391,19.391,0,0,1,1.625,1.37,22.1,22.1,0,0,1,2.494,2.493c.363.425.713.82.777.878a7.327,7.327,0,0,1,.522.672c.223.312.613.809.867,1.106a29.422,29.422,0,0,1,3.034,5.334,6.692,6.692,0,0,1,.345.843c.06.2.235.7.388,1.1a29.5,29.5,0,0,1,.941,3,8.005,8.005,0,0,0,.247.849,7.977,7.977,0,0,1,.227,1.246c.065.537.188,1.269.272,1.626a40.387,40.387,0,0,1,.006,7.18c-.081.348-.2,1.106-.275,1.685a6.77,6.77,0,0,1-.238,1.264,4.693,4.693,0,0,0-.243.79,16.723,16.723,0,0,1-.717,2.409,3.145,3.145,0,0,0-.219.645,1.722,1.722,0,0,1-.157.474,4.089,4.089,0,0,0-.261.662,10.059,10.059,0,0,1-.541,1.245,5.368,5.368,0,0,0-.359.777c0,.087-1.011,1.919-1.454,2.635-.125.2-.271.463-.323.579a17.144,17.144,0,0,1-1.065,1.422,31.139,31.139,0,0,1-8.217,7.6c-.377.235-.818.519-.98.632a35.571,35.571,0,0,1-4.6,2.186c-.2.072-.7.252-1.106.4a21.424,21.424,0,0,1-3.107.775l-1.7.314a33.774,33.774,0,0,1-9.519.023c-.348-.09-.917-.2-1.264-.256a5.618,5.618,0,0,1-.79-.158c-.087-.036-.537-.148-1-.249a15.335,15.335,0,0,1-2.844-.955c-.464-.181-1.032-.4-1.264-.482a9.246,9.246,0,0,1-.948-.428l-1.474-.773a20.831,20.831,0,0,1-3.906-2.5,4.3,4.3,0,0,0-.632-.448c-.476,0-4.34-4.124-5.676-6.056-.28-.405-.621-.871-.757-1.035-.264-.317-.313-.544-.142-.65.057-.036.159.055.227.2a.663.663,0,0,0,.316.329c.107.034.195.112.195.173a15.325,15.325,0,0,0,2.107,2.105c.26.21.734.6,1.053.864A38.534,38.534,0,0,0,88.5,86.091a27.126,27.126,0,0,0,3.652,1.72,5.3,5.3,0,0,1,.822.246,10.417,10.417,0,0,0,2.282.658c.281.033.937.158,1.459.279a28.928,28.928,0,0,0,10.533-.47c1.131-.329,2.6-.815,2.965-.983a1.78,1.78,0,0,1,.436-.151,8.578,8.578,0,0,0,1.063-.474c.528-.261.986-.474,1.019-.474a1.95,1.95,0,0,0,.4-.263,1.844,1.844,0,0,1,.411-.263,2.894,2.894,0,0,0,.517-.318l2.171-1.526a21.285,21.285,0,0,0,4.211-4.054c.321-.434.759-1,.974-1.264a9.67,9.67,0,0,0,1.048-1.58c.119-.2.309-.511.423-.684a5.062,5.062,0,0,0,.323-.579c.064-.145.2-.453.311-.685.343-.742.692-1.56.989-2.317.159-.405.357-.879.439-1.053a4.335,4.335,0,0,0,.25-.9,9.958,9.958,0,0,1,.252-1.065,7.157,7.157,0,0,0,.222-1.106c.038-.341.147-1,.242-1.462a33.643,33.643,0,0,0,.045-6.426c-.067-.232-.191-.953-.276-1.6a8.281,8.281,0,0,0-.257-1.371,4.244,4.244,0,0,1-.217-.826,9.063,9.063,0,0,0-.492-1.525c-.207-.489-.415-1.007-.461-1.152-1.286-3.977-5.147-8.689-9.377-11.445a24.965,24.965,0,0,0-2.844-1.7c-.608-.32-1.153-.617-1.211-.66a2.208,2.208,0,0,0-.474-.188c-.2-.06-.8-.261-1.317-.447s-1.209-.4-1.527-.477-.84-.206-1.158-.289a25.846,25.846,0,0,0-14.64,1.1,33.772,33.772,0,0,0-3.851,1.942l-.843.554c-.389.253-.837.547-1.039.68-.179.119-.973.779-1.114.927a3.05,3.05,0,0,1-.33.231,18.712,18.712,0,0,0-3.146,3.16c0,.145-.216.087-.277-.075-.053-.137.108-.4.616-1.006.075-.089.392-.54.706-1a27.16,27.16,0,0,1,6.477-6.393c.11-.073.348-.254.527-.4a12.957,12.957,0,0,1,1.878-1.218c.189-.088.6-.3.923-.478a25.027,25.027,0,0,1,2.769-1.355c.3-.109.88-.322,1.286-.474a16.976,16.976,0,0,1,2.949-.942,8.416,8.416,0,0,0,1-.214,33.738,33.738,0,0,1,9.163-.586M142.457,49.4a1.477,1.477,0,0,0-.85,1.6,1.781,1.781,0,0,0,3.243,1.111c.491-.647.211-2.393-.418-2.6a1.059,1.059,0,0,1-.35-.213,1.84,1.84,0,0,0-1.626.1m-62.225-.034c0,.059.159.183.353.275,1.267.6,1.108,2.67-.258,3.362-2.2,1.114-3.95-2.1-1.871-3.435.477-.307,1.777-.455,1.777-.2m63.657.076a1.634,1.634,0,1,1-1.172.04c.565-.26.557-.259,1.172-.04m.047,6.129a1.408,1.408,0,1,0,2.236.387,1.371,1.371,0,0,0-2.236-.387m1.519-.049a1.187,1.187,0,0,1,.6,1.456,1.22,1.22,0,1,1-.6-1.456m-68.883.356a1.735,1.735,0,1,0,1.058,0c-.593-.225-.5-.225-1.058,0m1.524.332a2.951,2.951,0,0,1,.557,1.265,1.561,1.561,0,0,1-2.695,1A1.5,1.5,0,0,1,77.6,56.068c.26.079.484.144.5.144m-2.3,5.637a1.117,1.117,0,0,0-.027,1.938,1.14,1.14,0,0,0,1.726-.981,1.165,1.165,0,0,0-1.7-.957m1.2.319a.861.861,0,0,1,0,1.338c-.721.763-1.878-.114-1.462-1.109a.913.913,0,0,1,1.466-.23m3.975,17.644c0,.22-.155.274-.266.094-.1-.154.032-.444.16-.364a.352.352,0,0,1,.106.27" transform="translate(0 0)" fill="rgba(174,155,185,0)" fill-rule="evenodd"/>
      <path id="path4" d="M99.374,19.179c.449.02,1.183.02,1.632,0s.082-.036-.816-.036-1.265.016-.816.036m-3.713.14c-2.123.314-1.762.412.558.152.764-.085,1.6-.172,1.864-.192s-.048-.038-.685-.041a15.373,15.373,0,0,0-1.738.081m7.109-.005a12.03,12.03,0,0,1,1.422.192,6.333,6.333,0,0,0,1.264.1l.79-.011-.79-.09c-.434-.049-1.017-.138-1.3-.2a8.172,8.172,0,0,0-1.422-.091l-.917.016.948.076m-10.164.434c-.2.055-.8.164-1.317.243a31.348,31.348,0,0,0-3.37.745c-.29.082-.693.178-.9.214a17.644,17.644,0,0,0-2.686.959c-.522.2-1.09.422-1.264.486s-.813.348-1.422.633l-1.76.823a7.4,7.4,0,0,1-.707.306c-.062,0-1.229.656-1.693.951-.174.111-.506.3-.737.427s-.693.41-1.026.635a5.977,5.977,0,0,1-.654.409,9.573,9.573,0,0,0-1.217.824c-.261.19-.919.662-1.462,1.051a22.293,22.293,0,0,0-1.948,1.615c-.528.5-1.221,1.139-1.54,1.422a38.26,38.26,0,0,0-4.529,5.031c-.608.8-1.214,1.579-1.347,1.733a19.531,19.531,0,0,0-1.247,1.833c-.263.416-.533.844-1.077,1.711a43.311,43.311,0,0,0-2.018,4.108c-.368.828-.612,1.47-1.324,3.476a23.367,23.367,0,0,0-.892,2.844,5.15,5.15,0,0,1-.275.917,1.39,1.39,0,0,0-.136.527c.006.364.3-.338.464-1.127a21.95,21.95,0,0,1,.974-3.107c.143-.376.323-.912.4-1.191a2.618,2.618,0,0,1,.245-.632,2.322,2.322,0,0,0,.228-.6,2.122,2.122,0,0,1,.261-.632,1.329,1.329,0,0,0,.211-.421c.069-.241.609-1.441,1.114-2.475a2.493,2.493,0,0,0,.208-.527,1.963,1.963,0,0,1,.316-.519,1.683,1.683,0,0,0,.313-.553c0-.076.039-.139.086-.139s.167-.154.265-.342.318-.556.487-.816.46-.735.645-1.053a4.861,4.861,0,0,1,.453-.684c.064-.058.364-.437.667-.843s.643-.856.757-1a42.369,42.369,0,0,1,3.923-4.526c1.284-1.261,3.259-3.1,3.445-3.209.094-.054.556-.386,1.026-.737s.964-.71,1.1-.8.388-.282.567-.433a7.385,7.385,0,0,1,.923-.611,3.923,3.923,0,0,0,.724-.488.411.411,0,0,1,.248-.153,2.992,2.992,0,0,0,.7-.378c.316-.208.718-.451.893-.541a1.682,1.682,0,0,0,.371-.235,5.46,5.46,0,0,1,.79-.414c.405-.188.808-.386.9-.441a2.044,2.044,0,0,1,.316-.156c.087-.032.348-.145.579-.252l1.106-.508c.377-.173.9-.415,1.166-.537a3.165,3.165,0,0,1,.571-.224,12.264,12.264,0,0,0,1.755-.689,1.236,1.236,0,0,1,.452-.154,1.908,1.908,0,0,0,.578-.207,4.709,4.709,0,0,1,1.124-.322,3.2,3.2,0,0,0,.835-.211,2.387,2.387,0,0,1,.741-.167,5.334,5.334,0,0,0,1.1-.255,5.987,5.987,0,0,1,1.317-.255,9.057,9.057,0,0,0,1.368-.22,7.352,7.352,0,0,1,.843-.188c.2-.024.139-.041-.158-.044a3.8,3.8,0,0,0-.843.094m14.166-.018a4.222,4.222,0,0,1,.684.184,5.514,5.514,0,0,0,1.053.184,7.189,7.189,0,0,1,1.366.276,3.427,3.427,0,0,0,.843.195c.406-.007-1.254-.519-1.689-.521a6.264,6.264,0,0,1-1.158-.209,5.561,5.561,0,0,0-1.151-.2l-.369.011.422.077m4.371.915c.087.03.307.121.49.2a1.727,1.727,0,0,0,.555.149,5.069,5.069,0,0,1,.977.263,5.724,5.724,0,0,0,.92.264,1.351,1.351,0,0,1,.46.154,2.891,2.891,0,0,0,.684.223,2.725,2.725,0,0,1,.654.21,16.2,16.2,0,0,0,1.76.779c.046,0,.984.453,2.084,1.01a39.366,39.366,0,0,1,3.825,2.02.475.475,0,0,0,.24.132,28.292,28.292,0,0,1,3.238,2.317c.339.26.775.592.969.737a19.712,19.712,0,0,1,2,1.687,10.173,10.173,0,0,0,.948.828,2.712,2.712,0,0,1,.487.434c.123.145.431.481.684.748,1.037,1.092,1.641,1.755,2.041,2.237.231.28.5.588.59.684.174.181,1.184,1.5,1.463,1.915.087.128.383.538.658.91a3.521,3.521,0,0,1,.5.814.619.619,0,0,0,.21.328c.229.207.272.424.105.527-.058.036-.152-.056-.208-.2s-.175-.27-.263-.27-.161-.046-.161-.1a2.38,2.38,0,0,0-.448-.582c-.246-.264-.566-.614-.711-.777a23.966,23.966,0,0,0-1.926-1.963c-.67-.544-1.656-1.408-2.8-2.455a4.238,4.238,0,0,0-.682-.509c-.165-.088-.568-.346-.9-.573a3.147,3.147,0,0,0-.714-.413.434.434,0,0,1-.253-.162,4.735,4.735,0,0,0-.807-.553c-.37-.215-.849-.5-1.064-.627a7.892,7.892,0,0,0-.759-.4,5.223,5.223,0,0,1-.526-.261c-.087-.055-.537-.294-1-.53s-.914-.472-1-.523a16.089,16.089,0,0,0-2.686-1.011,6.842,6.842,0,0,1-.858-.306,1.621,1.621,0,0,0-.5-.157,4.777,4.777,0,0,1-.866-.264,4.118,4.118,0,0,0-1.006-.263,2.15,2.15,0,0,1-.679-.156,6.017,6.017,0,0,0-1.181-.258,7.47,7.47,0,0,1-1.283-.274,10.963,10.963,0,0,0-2.423-.266c-1.072-.051-2.375-.144-2.9-.205a38.333,38.333,0,0,0-7.952.576c-.519.129-.541.145-.21.153a2.906,2.906,0,0,0,.737-.1c1.774-.519,11.117-.6,12.375-.1a8.01,8.01,0,0,0,1.106.264,28.647,28.647,0,0,1,3.265.725c.2.079,1.151.391,2.106.694a16.046,16.046,0,0,1,2.686.972c.116.065.945.495,1.843.955a40.359,40.359,0,0,1,3.788,2.182c.228.145.758.476,1.177.735a11.131,11.131,0,0,1,1.348,1c.322.293.751.667.954.831.623.505,1.718,1.467,2.052,1.8.749.751,2.042,2.155,2.522,2.738.285.346.629.738.763.871a.8.8,0,0,1,.245.391.362.362,0,0,0,.2.256.65.65,0,0,1,.265.372c.037.146.132.266.211.266.338,0,.355.585.032,1.065a4.412,4.412,0,0,0-.726,1.9c.015,1.08,1.139,2.515,1.97,2.515.1,0-.084-.137-.4-.3-1.1-.578-1.805-2.131-1.311-2.885a2.117,2.117,0,0,0,.231-.584.639.639,0,0,1,.215-.4.713.713,0,0,0,.259-.345c.144-.348.792-.537,1.829-.534A2.472,2.472,0,0,1,143,45.353c-.189.633-.627,1.343-.829,1.343a.581.581,0,0,0-.264.144,1.805,1.805,0,0,1-.482.255c-.2.069-.243.114-.124.119.641.028,1.467-.782,1.815-1.779l.271-.774-.232-.641c-.244-.676-.694-1.432-.851-1.432a2.115,2.115,0,0,1-.512-.277c-.4-.264-.47-.275-1.468-.227-1.1.053-1.479-.1-1.479-.595a1.124,1.124,0,0,0-.263-.462,1.644,1.644,0,0,1-.264-.373,20.758,20.758,0,0,0-1.564-2.49c-1.1-1.508-1.275-1.738-1.409-1.891-.074-.084-.267-.321-.428-.527-.541-.686-1.174-1.414-1.879-2.161a24.841,24.841,0,0,0-2.3-2.321c-.261-.214-.722-.624-1.026-.912A14.955,14.955,0,0,0,128.1,29c-.129-.087-.512-.371-.851-.632a31.547,31.547,0,0,0-3.952-2.751l-1.153-.634a45.377,45.377,0,0,0-8.688-3.777c-.434-.128-1.078-.323-1.429-.432-.552-.172-1.359-.289-.888-.129M99.505,26.971a1.009,1.009,0,0,0-.321.141,1.792,1.792,0,0,1-.579.155,14.528,14.528,0,0,0-2.692.794,2.483,2.483,0,0,1-.54.2,13.563,13.563,0,0,0-1.777.745,2.342,2.342,0,0,1-.558.2,1.9,1.9,0,0,0-.515.206c-.215.113-.6.3-.863.409a24.08,24.08,0,0,0-2.738,1.382c-.087.059-.395.258-.685.442a26.394,26.394,0,0,0-2.264,1.518c-.145.127-.59.456-.988.732s-.808.577-.91.671-.5.454-.894.8-.938.845-1.219,1.106l-.883.819a2.949,2.949,0,0,0-.372.381c0,.02-.3.345-.658.722s-.872.933-1.132,1.236-.569.656-.685.785-.4.505-.632.836-.646.887-.922,1.236a3.119,3.119,0,0,0-.5.773.414.414,0,0,1-.148.261,1.823,1.823,0,0,0-.321.46c-.095.185-.382.717-.64,1.18a44.748,44.748,0,0,0-2.548,5.366,3.039,3.039,0,0,1-.256.689,1.654,1.654,0,0,0-.194.55,1.845,1.845,0,0,1-.209.583,4.245,4.245,0,0,0-.316.967,2.5,2.5,0,0,1-.2.682,2.034,2.034,0,0,0-.171.642,4.31,4.31,0,0,1-.263.948,4.357,4.357,0,0,0-.258,1.053,7.574,7.574,0,0,1-.215,1.106c-.612,2.022-.613,10.743,0,13.008a9.139,9.139,0,0,1,.209,1.09,4.642,4.642,0,0,0,.228.967,8.762,8.762,0,0,1,.3,1.017,14.1,14.1,0,0,0,.719,2.425,1.548,1.548,0,0,1,.175.528,1.761,1.761,0,0,0,.21.584,1.936,1.936,0,0,1,.211.512A15.647,15.647,0,0,0,73.5,80.242a7.71,7.71,0,0,1,.462,1.067.383.383,0,0,0,.141.236,1.454,1.454,0,0,1,.268.54c.07.232.165.423.211.423s.165.178.261.395a8.956,8.956,0,0,0,.432.816c.14.232.339.587.441.79a2.681,2.681,0,0,0,.322.508.48.48,0,0,1,.136.272,5.465,5.465,0,0,0,.685,1.02l1.5,1.939a46.751,46.751,0,0,0,6,5.927A33.776,33.776,0,0,0,87.7,96.514a6.817,6.817,0,0,1,.713.438c.364.241.78.515.925.609.465.3,4.171,2.112,4.326,2.113a1.373,1.373,0,0,1,.449.157,5.65,5.65,0,0,0,.8.305,5.316,5.316,0,0,1,.7.254,14.378,14.378,0,0,0,2.358.708,3.1,3.1,0,0,1,.737.207,3.386,3.386,0,0,0,.843.207,9.692,9.692,0,0,1,1.106.22,13.306,13.306,0,0,0,1.662.258,8.626,8.626,0,0,1,1.422.228,12.13,12.13,0,0,0,2.024.146l1.738.031-1.264-.089c-1.226-.086-3.237-.324-4.529-.536a18.177,18.177,0,0,1-2.633-.515,9.234,9.234,0,0,0-1.073-.28,20.866,20.866,0,0,1-2.106-.637c-.742-.264-1.594-.566-1.893-.67a35.7,35.7,0,0,1-5.2-2.649.793.793,0,0,0-.263-.159,20.063,20.063,0,0,1-2.511-1.632c-.529-.388-1.116-.815-1.3-.948a22.454,22.454,0,0,1-2.022-1.73c-.379-.355-.9-.829-1.164-1.053s-.924-.9-1.475-1.495a19.467,19.467,0,0,1-1.944-2.289c-.345-.461-.69-.909-.766-1a16.41,16.41,0,0,1-1.673-2.558c-.433-.766-.832-1.463-.888-1.55s-.272-.513-.48-.948l-.783-1.633a36.272,36.272,0,0,1-2.283-6.425,8.217,8.217,0,0,0-.295-.948,4.222,4.222,0,0,1-.209-.9c-.04-.319-.166-1.053-.278-1.633a51.335,51.335,0,0,1,.005-11.815c.114-.569.239-1.295.278-1.613a3.3,3.3,0,0,1,.208-.847,3.984,3.984,0,0,0,.246-.79,26.823,26.823,0,0,1,.911-3.05c.152-.405.364-.974.472-1.264s.289-.764.4-1.053c.266-.682,1.7-3.59,2.206-4.487l.918-1.612a11.462,11.462,0,0,1,.79-1.232c.147-.173.481-.6.742-.948a36.261,36.261,0,0,1,5-5.413c.395-.348.77-.693.834-.768A17.512,17.512,0,0,1,85.3,33.846a4.124,4.124,0,0,0,.619-.474,4.52,4.52,0,0,1,.612-.474,5.661,5.661,0,0,0,1.1-.759.186.186,0,0,1,.158-.086,5.115,5.115,0,0,0,.913-.527A21.3,21.3,0,0,1,91.606,30c.174-.076.636-.285,1.027-.464a8.133,8.133,0,0,1,.77-.325,3.707,3.707,0,0,0,.5-.195c.243-.107.774-.324,1.179-.483s.879-.352,1.053-.43c.4-.179,2.987-.887,4-1.1l.421-.087h-.421a3.451,3.451,0,0,0-.632.051m4.792,6.988a22.584,22.584,0,0,0-3.792.574,8.418,8.418,0,0,1-1,.214,16.976,16.976,0,0,0-2.949.942c-.405.151-.984.365-1.286.474A25.029,25.029,0,0,0,92.5,37.517c-.319.174-.734.39-.923.478A12.957,12.957,0,0,0,89.7,39.212c-.179.148-.416.329-.527.4A27.161,27.161,0,0,0,82.7,46.007c-.314.461-.631.911-.706,1-.508.607-.668.869-.616,1.006.062.162.277.22.277.075a18.712,18.712,0,0,1,3.146-3.16,3.05,3.05,0,0,0,.33-.231c.141-.147.935-.808,1.114-.927.2-.133.65-.427,1.039-.68l.843-.554a33.773,33.773,0,0,1,3.851-1.942,25.846,25.846,0,0,1,14.64-1.1c.319.082.84.212,1.158.289s1.006.291,1.527.477,1.114.387,1.317.447a2.207,2.207,0,0,1,.474.188c.058.044.6.341,1.211.66a24.966,24.966,0,0,1,2.844,1.7c4.23,2.756,8.091,7.468,9.377,11.445.047.145.254.663.461,1.152a9.06,9.06,0,0,1,.492,1.525,4.241,4.241,0,0,0,.217.826,8.284,8.284,0,0,1,.257,1.371c.085.649.21,1.37.276,1.6a33.645,33.645,0,0,1-.045,6.426c-.1.463-.2,1.122-.242,1.462a7.156,7.156,0,0,1-.222,1.106,9.958,9.958,0,0,0-.252,1.065,4.332,4.332,0,0,1-.25.9c-.082.174-.28.648-.439,1.053-.3.757-.646,1.575-.989,2.317-.107.232-.247.54-.311.685a5.066,5.066,0,0,1-.323.579c-.113.174-.3.482-.423.684a9.669,9.669,0,0,1-1.048,1.58c-.215.26-.653.829-.974,1.264a21.284,21.284,0,0,1-4.211,4.054l-2.171,1.526a2.9,2.9,0,0,1-.517.318,1.844,1.844,0,0,0-.411.263,1.95,1.95,0,0,1-.4.264c-.033,0-.492.213-1.019.474a8.576,8.576,0,0,1-1.063.474,1.78,1.78,0,0,0-.436.151c-.369.168-1.834.654-2.965.983a28.928,28.928,0,0,1-10.533.47c-.521-.121-1.178-.246-1.459-.279a10.417,10.417,0,0,1-2.282-.658,5.3,5.3,0,0,0-.822-.246,27.126,27.126,0,0,1-3.652-1.72,38.529,38.529,0,0,1-3.423-2.348c-.319-.265-.793-.654-1.053-.864a15.324,15.324,0,0,1-2.107-2.105c0-.061-.087-.139-.195-.173a.663.663,0,0,1-.316-.329c-.067-.147-.169-.238-.227-.2-.171.105-.121.333.142.65.136.164.477.63.757,1.035,1.335,1.933,5.2,6.056,5.676,6.056a4.3,4.3,0,0,1,.632.448,20.832,20.832,0,0,0,3.906,2.5l1.474.773a9.245,9.245,0,0,0,.948.428c.232.083.8.3,1.264.482a15.335,15.335,0,0,0,2.844.955c.464.1.914.214,1,.249a5.617,5.617,0,0,0,.79.158c.348.051.917.166,1.264.256a33.774,33.774,0,0,0,9.519-.023l1.7-.314a21.423,21.423,0,0,0,3.107-.775c.406-.148.9-.328,1.106-.4a35.57,35.57,0,0,0,4.6-2.186c.162-.112.6-.4.98-.632a31.139,31.139,0,0,0,8.217-7.6,17.141,17.141,0,0,0,1.064-1.422c.052-.116.2-.376.323-.579.443-.716,1.454-2.549,1.454-2.635a5.371,5.371,0,0,1,.359-.777,10.055,10.055,0,0,0,.541-1.245,4.089,4.089,0,0,1,.261-.662,1.722,1.722,0,0,0,.157-.474,3.144,3.144,0,0,1,.219-.645,16.724,16.724,0,0,0,.717-2.409,4.689,4.689,0,0,1,.243-.79,6.773,6.773,0,0,0,.238-1.264c.071-.579.195-1.338.275-1.685a40.386,40.386,0,0,0-.006-7.18c-.084-.358-.207-1.09-.272-1.626a7.981,7.981,0,0,0-.227-1.246,7.994,7.994,0,0,1-.247-.849,29.5,29.5,0,0,0-.941-3c-.153-.406-.328-.9-.388-1.1a6.692,6.692,0,0,0-.345-.843,29.421,29.421,0,0,0-3.034-5.334c-.254-.3-.644-.794-.867-1.106a7.33,7.33,0,0,0-.522-.672c-.065-.058-.414-.453-.777-.878a22.1,22.1,0,0,0-2.494-2.493,19.4,19.4,0,0,0-1.625-1.37c-.265-.174-.738-.5-1.052-.734s-.7-.49-.851-.578a47.212,47.212,0,0,0-5.213-2.793,23.008,23.008,0,0,0-3.792-1.223c-.347-.057-.869-.17-1.158-.251a35.3,35.3,0,0,0-3.739-.587,44.746,44.746,0,0,0-5.371.012m5.436.308a18.381,18.381,0,0,0,2.174.211,1.763,1.763,0,0,1,.817.1c0,.128.678.318,1.158.325a2.788,2.788,0,0,1,.79.168,6.224,6.224,0,0,0,1.046.26,2.113,2.113,0,0,1,.8.258,1.368,1.368,0,0,0,.586.223,1.459,1.459,0,0,1,.619.245,1.5,1.5,0,0,0,.631.247c.231.035.436.11.454.166a.889.889,0,0,0,.422.227,1.661,1.661,0,0,1,.577.322.644.644,0,0,0,.379.2.85.85,0,0,1,.433.211.852.852,0,0,0,.371.21.917.917,0,0,1,.379.2,1.932,1.932,0,0,0,.5.274,1.313,1.313,0,0,1,.448.278.7.7,0,0,0,.414.2.3.3,0,0,1,.27.145,1.124,1.124,0,0,0,.471.332c.228.1.415.224.415.27s.1.114.221.152a1.268,1.268,0,0,1,.406.244,4.067,4.067,0,0,0,.948.7c.176.091.321.212.321.269a.109.109,0,0,0,.115.1,4.151,4.151,0,0,1,.816.68,30.594,30.594,0,0,1,3.954,4.2,7.841,7.841,0,0,0,.739.93,1.689,1.689,0,0,1,.38.5.279.279,0,0,0,.147.19,1.246,1.246,0,0,1,.31.479c.09.217.209.395.263.395s.129.117.165.261a4.877,4.877,0,0,0,.747,1.261.778.778,0,0,1,.158.381.914.914,0,0,0,.195.426,1.783,1.783,0,0,1,.27.559,1.773,1.773,0,0,0,.279.567.94.94,0,0,1,.2.442.966.966,0,0,0,.21.45,1.042,1.042,0,0,1,.211.536c0,.3.2.8.326.8.045,0,.115.225.154.5a1.685,1.685,0,0,0,.229.68,1.547,1.547,0,0,1,.207.684,3.507,3.507,0,0,0,.242.926,5.448,5.448,0,0,1,.305,1.046,1.981,1.981,0,0,0,.205.685,4.793,4.793,0,0,1,.166,1.218c.041.637.142,1.585.225,2.107a22.747,22.747,0,0,1,0,5.161c-.084.522-.186,1.446-.226,2.054a4.538,4.538,0,0,1-.219,1.329,2.377,2.377,0,0,0-.208.79,2.7,2.7,0,0,1-.26.895,1.763,1.763,0,0,0-.2.768,1.37,1.37,0,0,1-.2.725,2.057,2.057,0,0,0-.272.706,1.465,1.465,0,0,1-.22.587,1.776,1.776,0,0,0-.242.662,1.764,1.764,0,0,1-.264.685.7.7,0,0,0-.171.4,1.323,1.323,0,0,1-.264.565,1.326,1.326,0,0,0-.263.576.625.625,0,0,1-.211.4.656.656,0,0,0-.21.432.57.57,0,0,1-.167.39c-.151.125-.247.284-.7,1.152a2.663,2.663,0,0,1-.321.467.709.709,0,0,0-.185.376.7.7,0,0,1-.237.386,3.779,3.779,0,0,0-.448.512c-.116.164-.317.426-.448.583a1.071,1.071,0,0,0-.237.4c0,.062-.095.164-.211.225s-.21.16-.21.217a2.156,2.156,0,0,1-.448.558c-.733.743-1.027,1.109-1.027,1.277a.16.16,0,0,1-.16.159c-.089,0-.2.115-.257.254a.591.591,0,0,1-.313.323c-.119.038-.217.137-.217.22a.138.138,0,0,1-.118.151c-.129,0-.543.343-1.541,1.279a3.934,3.934,0,0,1-.762.617c-.057,0-.164.095-.236.211a.439.439,0,0,1-.306.21.813.813,0,0,0-.422.261.86.86,0,0,1-.376.264c-.07,0-.179.1-.241.213a.4.4,0,0,1-.307.21.513.513,0,0,0-.339.174,1.512,1.512,0,0,1-.487.317c-.188.079-.342.187-.342.24s-.107.13-.237.171a1.992,1.992,0,0,0-.535.323,1.082,1.082,0,0,1-.435.249.417.417,0,0,0-.262.151.984.984,0,0,1-.46.225,1.723,1.723,0,0,0-.586.27.919.919,0,0,1-.448.2.688.688,0,0,0-.4.2,1.37,1.37,0,0,1-.626.271,1.149,1.149,0,0,0-.544.214,1.1,1.1,0,0,1-.53.211,1.749,1.749,0,0,0-.652.256,1.949,1.949,0,0,1-.759.255,1.723,1.723,0,0,0-.684.214,2.253,2.253,0,0,1-.877.2,2.585,2.585,0,0,0-.987.235,3.763,3.763,0,0,1-1.514.26,3.7,3.7,0,0,0-1.485.252,35.588,35.588,0,0,1-7.261.014,11.482,11.482,0,0,0-1.471-.255,4.893,4.893,0,0,1-1.243-.272,3.359,3.359,0,0,0-1-.23,3.849,3.849,0,0,1-1.081-.253,2.118,2.118,0,0,0-.668-.2.991.991,0,0,1-.5-.205,1.83,1.83,0,0,0-.721-.274c-.253-.038-.483-.13-.512-.206s-.257-.17-.507-.211a1.651,1.651,0,0,1-.613-.208,2.043,2.043,0,0,0-.544-.257,1.364,1.364,0,0,1-.5-.266.883.883,0,0,0-.4-.212,1.726,1.726,0,0,1-.536-.274,1,1,0,0,0-.377-.206,1.016,1.016,0,0,1-.381-.208.98.98,0,0,0-.4-.208,1,1,0,0,1-.409-.213.966.966,0,0,0-.452-.21.558.558,0,0,1-.357-.264c-.095-.145-.235-.263-.312-.263a.621.621,0,0,1-.33-.21.644.644,0,0,0-.291-.211,1.381,1.381,0,0,1-.431-.268c-.182-.147-.426-.337-.542-.422s-.359-.273-.542-.417a1.4,1.4,0,0,0-.428-.262.827.827,0,0,1-.327-.263.8.8,0,0,0-.335-.264.1.1,0,0,1-.106-.1,2.106,2.106,0,0,0-.745-.745.092.092,0,0,1-.1-.085,2.593,2.593,0,0,0-.83-.863.107.107,0,0,1-.118-.089,5,5,0,0,0-.685-.794,3.448,3.448,0,0,1-.684-.859c0-.084-.05-.154-.111-.154s-.081-.049-.044-.109c.09-.145.481-.016.694.23a.555.555,0,0,0,.286.2c.064,0,.166.095.228.21s.162.211.223.211a2.162,2.162,0,0,1,.575.448c.633.61,1.05.922,1.231.922a.964.964,0,0,1,.428.237c.576.495.9.711,1.065.711a.266.266,0,0,1,.231.157.834.834,0,0,0,.476.269,1.65,1.65,0,0,1,.621.317.744.744,0,0,0,.445.205.645.645,0,0,1,.42.211.635.635,0,0,0,.411.211.8.8,0,0,1,.455.21,1.592,1.592,0,0,0,.744.281,1.249,1.249,0,0,1,.632.222,1.2,1.2,0,0,0,.632.21,2.018,2.018,0,0,1,.783.249,2.551,2.551,0,0,0,1.106.263,3.415,3.415,0,0,1,1.094.236c.665.432,9.292.421,9.786-.014a2.276,2.276,0,0,1,.886-.23,2.087,2.087,0,0,0,.964-.276,1.165,1.165,0,0,1,.674-.2,1.155,1.155,0,0,0,.685-.21,1.028,1.028,0,0,1,.525-.211c.333,0,.921-.205.921-.321,0-.05.178-.123.395-.163a1.769,1.769,0,0,0,.646-.268.918.918,0,0,1,.433-.2.915.915,0,0,0,.433-.2,1.859,1.859,0,0,1,.474-.266,1.124,1.124,0,0,0,.411-.278.612.612,0,0,1,.341-.208c.134,0,.368-.156.982-.655a4.579,4.579,0,0,1,.429-.293c.738-.444.93-.591.93-.711a.133.133,0,0,1,.132-.132,5.312,5.312,0,0,0,1.711-1.247,4.22,4.22,0,0,1,.78-.649c.056,0,.131-.093.167-.205a.469.469,0,0,1,.271-.27.282.282,0,0,0,.205-.226.267.267,0,0,1,.21-.216c.116-.03.211-.094.211-.141a2.407,2.407,0,0,1,.416-.543,6.92,6.92,0,0,0,1.048-1.412.6.6,0,0,1,.266-.286.26.26,0,0,0,.166-.214.256.256,0,0,1,.163-.212.865.865,0,0,0,.31-.415,1.55,1.55,0,0,1,.311-.488.442.442,0,0,0,.164-.265.621.621,0,0,1,.211-.319.65.65,0,0,0,.21-.4.8.8,0,0,1,.264-.452.819.819,0,0,0,.263-.516.37.37,0,0,1,.159-.332c.087-.033.188-.244.224-.469a1.073,1.073,0,0,1,.209-.528,1.392,1.392,0,0,0,.26-.555,1.874,1.874,0,0,1,.273-.611,1.4,1.4,0,0,0,.215-.606c.032-.236.093-.429.136-.429.112,0,.287-.5.361-1.034a2.1,2.1,0,0,1,.212-.684,3.263,3.263,0,0,0,.217-1.02,4.667,4.667,0,0,1,.225-1.135c.444-.988.443-7.912,0-8.9a4.88,4.88,0,0,1-.225-1.186,3.479,3.479,0,0,0-.226-1.086,2.867,2.867,0,0,1-.251-.831,2.061,2.061,0,0,0-.245-.757,1.529,1.529,0,0,1-.222-.609c-.04-.242-.135-.464-.212-.493s-.172-.245-.211-.479a1.8,1.8,0,0,0-.274-.682.956.956,0,0,1-.2-.477.737.737,0,0,0-.21-.431.7.7,0,0,1-.211-.376,1.068,1.068,0,0,0-.384-.709.319.319,0,0,1-.143-.247.962.962,0,0,0-.21-.43.974.974,0,0,1-.211-.406.442.442,0,0,0-.19-.275,1.284,1.284,0,0,1-.326-.472.809.809,0,0,0-.284-.392.237.237,0,0,1-.149-.2.712.712,0,0,0-.237-.36,4.092,4.092,0,0,1-.423-.467,16.345,16.345,0,0,0-1.613-1.938,25.909,25.909,0,0,0-2.532-2.26.589.589,0,0,1-.242-.16,4.373,4.373,0,0,0-1.106-.787.587.587,0,0,1-.3-.211.584.584,0,0,0-.34-.21c-.087,0-.159-.049-.159-.109s-.208-.2-.462-.307a1.612,1.612,0,0,1-.5-.286,3.741,3.741,0,0,0-1.106-.656,1.741,1.741,0,0,1-.507-.319.335.335,0,0,0-.26-.114.927.927,0,0,1-.445-.2,2.327,2.327,0,0,0-.673-.318,2.282,2.282,0,0,1-.622-.274.915.915,0,0,0-.476-.156,1.7,1.7,0,0,1-.639-.2,3.393,3.393,0,0,0-.947-.275,1.9,1.9,0,0,1-.763-.241,2.308,2.308,0,0,0-.948-.24,5.632,5.632,0,0,1-1.184-.242A43,43,0,0,0,96.944,39a4.631,4.631,0,0,1-1.361.246,1.924,1.924,0,0,0-1.061.218,1.639,1.639,0,0,1-.712.242,1.709,1.709,0,0,0-.695.22,1.518,1.518,0,0,1-.632.214,3.3,3.3,0,0,0-.919.307,2.353,2.353,0,0,1-.593.246.42.42,0,0,0-.258.155.991.991,0,0,1-.487.222c-.2.037-.358.1-.358.147a1.364,1.364,0,0,1-.5.306,4.9,4.9,0,0,0-1.308.776.651.651,0,0,1-.335.184.593.593,0,0,0-.324.2,1.038,1.038,0,0,1-.437.266c-.141.035-.256.128-.256.207s-.13.171-.29.205a2.6,2.6,0,0,0-.816.551c-1.2,1.117-1.424,1.308-1.5,1.308a.6.6,0,0,0-.257.184c-.369.391-.482.449-.546.281a.169.169,0,0,1,.1-.219,1.2,1.2,0,0,0,.369-.47c.115-.225.255-.408.311-.408s.1-.068.1-.15a1.921,1.921,0,0,1,.785-.834.259.259,0,0,0,.163-.217.279.279,0,0,1,.205-.22.467.467,0,0,0,.27-.27.282.282,0,0,1,.226-.205.267.267,0,0,0,.216-.21c.03-.116.107-.211.171-.211a.73.73,0,0,0,.33-.21A9.722,9.722,0,0,1,87.9,40.884a1.244,1.244,0,0,0,.364-.314.447.447,0,0,1,.286-.194.38.38,0,0,0,.261-.21.38.38,0,0,1,.261-.211.979.979,0,0,0,.433-.263,1.166,1.166,0,0,1,.369-.264,1.016,1.016,0,0,0,.343-.237,2.585,2.585,0,0,1,.952-.647c.208-.087.379-.208.379-.269s.116-.111.258-.111a.993.993,0,0,0,.542-.263.961.961,0,0,1,.479-.264.716.716,0,0,0,.406-.21.724.724,0,0,1,.416-.211.963.963,0,0,0,.49-.263,1,1,0,0,1,.55-.264.766.766,0,0,0,.446-.162,1.369,1.369,0,0,1,.587-.225,1.421,1.421,0,0,0,.585-.216,1.835,1.835,0,0,1,.63-.255,1.741,1.741,0,0,0,.621-.253,1.642,1.642,0,0,1,.686-.217,2.389,2.389,0,0,0,.775-.227,3.644,3.644,0,0,1,1.091-.245,2.749,2.749,0,0,0,1.007-.237,6.424,6.424,0,0,1,2.121-.267,20.769,20.769,0,0,0,2.264-.212,15.366,15.366,0,0,1,4.225.093m28.9,7.169c0,.119-.048.188-.105.152a.279.279,0,0,1-.105-.217c0-.083.048-.152.105-.152s.105.1.105.217m1.713,5.862a1.878,1.878,0,0,0,.527,0c.13-.025,0-.045-.291-.044s-.4.021-.235.046M78.717,49.849c-2.078,1.336-.328,4.549,1.871,3.435,1.367-.693,1.525-2.758.258-3.362-.194-.093-.353-.217-.353-.275,0-.252-1.3-.1-1.777.2m64.263-.087a1.634,1.634,0,1,0,1.172-.04c-.614-.22-.607-.22-1.172.04m-62.687.157a.411.411,0,0,0,.262.146,1.2,1.2,0,0,1,.676.677.435.435,0,0,0,.158.271.956.956,0,0,1,0,1.053.438.438,0,0,0-.158.277c0,.436-1.376,1.055-1.809.814a1.211,1.211,0,0,0-.455-.141c-1.057-.028-1.1-2.951-.04-2.951a.328.328,0,0,0,.255-.113.819.819,0,0,1,1.111-.033m63.828-.05a1.529,1.529,0,0,1,.753,2.276.876.876,0,0,0-.237.328c0,.39-1.914.268-2.13-.134a1.811,1.811,0,0,0-.256-.357,1.191,1.191,0,0,1-.142-.653,1.487,1.487,0,0,1,2.012-1.46m-88.155,4.3a1.5,1.5,0,0,1-.17.527,1.428,1.428,0,0,0-.14.632c.008.275.022.3.055.105a3.032,3.032,0,0,1,.2-.609,1.344,1.344,0,0,0,.115-.632c-.043-.28-.044-.281-.063-.023m88.691,1.586a1.177,1.177,0,0,0-.544,1.765,1.222,1.222,0,1,0,.544-1.765m-89.105.29c-.01.192-.113.808-.227,1.369A25.52,25.52,0,0,0,55,60.072c-.062.9-.155,2.227-.207,2.954a19.736,19.736,0,0,0,0,2.633c.054.722.147,2,.205,2.839s.2,2,.311,2.58.223,1.2.246,1.369c.026.2.047.115.055-.21a7.322,7.322,0,0,0-.194-1.422,20.315,20.315,0,0,1-.317-3.107c-.061-1.216-.145-2.449-.187-2.738a6.141,6.141,0,0,1,0-1.264c.044-.405.127-1.72.183-2.922a17.444,17.444,0,0,1,.322-3.09,5.675,5.675,0,0,0,.181-1.449c-.023-.322-.046-.4-.058-.2m90.433.1a1.321,1.321,0,0,1-.033,1.5,1.1,1.1,0,0,1-1.732-1.325,1.189,1.189,0,0,1,1.765-.174m-69.057.186a1.471,1.471,0,0,0-.707,2.414,1.561,1.561,0,0,0,2.695-1,2.951,2.951,0,0,0-.557-1.265c-.012,0-.235-.066-.5-.144a1.3,1.3,0,0,0-.934-.006m1.181.368a1.314,1.314,0,0,1-.656,2.31,1.524,1.524,0,0,1-1.487-1.3,1.5,1.5,0,0,1,2.143-1.014m-1.914,5.547c-.893.17-.483,1.82.452,1.82a.947.947,0,0,0,.611-1.628c-.277-.257-.5-.3-1.063-.192m1,.509c.3.328.3.314.012.628-.239.257-.416.309-.948.279-.32-.019-.458-.984-.158-1.106a1.052,1.052,0,0,1,1.094.2M55.648,73.133a2.714,2.714,0,0,0,.146.737c.086.261.23.758.32,1.106a40.747,40.747,0,0,0,1.261,4.213c.153.406.352.974.442,1.264a3.648,3.648,0,0,0,.242.632,2.745,2.745,0,0,1,.21.527,6.78,6.78,0,0,0,.312.79c.492,1,1.584,3.37,1.584,3.433a1.6,1.6,0,0,0,.194.337c.107.157.312.475.455.706s.483.764.754,1.184a7.59,7.59,0,0,1,.493.825c0,.034.486.7,1.08,1.485s1.222,1.62,1.4,1.861.441.581.591.755L66.179,94.2a46.042,46.042,0,0,0,6.575,6.109c.209.145.449.327.534.4a18.889,18.889,0,0,0,2.151,1.459,6.922,6.922,0,0,1,.824.528.464.464,0,0,0,.244.136,1.451,1.451,0,0,1,.45.263,1.573,1.573,0,0,0,.432.263.6.6,0,0,1,.259.156c.095.085,1.165.657,2.378,1.271a34.266,34.266,0,0,0,4.786,2.058c.2.071.605.222.9.337a13.432,13.432,0,0,0,2.212.6c.29.065.882.211,1.317.325a26.417,26.417,0,0,0,3,.583l.421.041-.449-.147a10.471,10.471,0,0,0-1.369-.275,7.485,7.485,0,0,1-1.246-.262,4.6,4.6,0,0,0-.9-.211,5.229,5.229,0,0,1-.938-.218,6.639,6.639,0,0,0-.972-.247,3.083,3.083,0,0,1-.843-.258,2.188,2.188,0,0,0-.608-.227,1.554,1.554,0,0,1-.481-.165,4.248,4.248,0,0,0-.737-.3,19.93,19.93,0,0,1-3.416-1.458,43.4,43.4,0,0,1-4.371-2.406c-.405-.259-.856-.529-1-.6a24.6,24.6,0,0,1-2.212-1.548c-.319-.238-.827-.613-1.13-.833s-.947-.776-1.433-1.233-1.082-1-1.327-1.2a23.274,23.274,0,0,1-2.325-2.32c-.377-.428-.96-1.085-1.3-1.459a7.256,7.256,0,0,1-.766-.979c-.085-.164-.2-.3-.257-.3s-.1-.065-.1-.145a.444.444,0,0,0-.161-.279,30.734,30.734,0,0,1-1.987-2.63c-.168-.261-.413-.64-.545-.843-.685-1.057-1.441-2.327-1.676-2.817-.257-.537-.458-.974-1.051-2.291-.157-.348-.351-.774-.431-.948a17.032,17.032,0,0,1-.739-2,1.457,1.457,0,0,0-.166-.434,3.433,3.433,0,0,1-.259-.684,3.3,3.3,0,0,0-.259-.679A2.69,2.69,0,0,1,57,77.654a2.664,2.664,0,0,0-.218-.693,2.883,2.883,0,0,1-.2-.778,4.136,4.136,0,0,0-.261-.956,3,3,0,0,1-.221-.8,2.885,2.885,0,0,0-.174-.713,2.841,2.841,0,0,1-.185-.527c-.07-.29-.077-.294-.088-.052m25.31,6.782c-.069.179.024.38.174.38.133,0,.127-.392-.007-.474-.058-.036-.134.006-.168.094m2.571,3.007c.026.079-.013.118-.092.092a.329.329,0,0,1-.184-.184c-.026-.079.013-.119.092-.092a.33.33,0,0,1,.184.184m55.8,2.9c-.036.145-.128.263-.2.263s-.205.13-.288.29a1.476,1.476,0,0,1-.334.427.443.443,0,0,0-.184.271.831.831,0,0,1-.263.381.906.906,0,0,0-.263.346,1.389,1.389,0,0,1-.277.429c-.288.345-1.45,1.67-1.725,1.966a20.858,20.858,0,0,1-2.054,2.04c-.347.287-.871.738-1.164,1a18.86,18.86,0,0,1-3.891,2.9c-.348.21-.845.52-1.106.688-.465.3-1.749.975-4.055,2.13a14.907,14.907,0,0,1-2.844,1.136c-1.148.366-1.681.543-2.054.684a31.042,31.042,0,0,1-3.265.746,2.8,2.8,0,0,0-.657.165c-.189.1-3.053.449-5.018.614l-1.119.093,1.474-.032a25.357,25.357,0,0,0,4.687-.551c.319-.085.96-.212,1.425-.284a5.926,5.926,0,0,0,.955-.2,5.935,5.935,0,0,1,.878-.228,3.906,3.906,0,0,0,.888-.259,3.13,3.13,0,0,1,.7-.261,21.846,21.846,0,0,0,2.106-.7,6.255,6.255,0,0,1,.816-.261c.188-.04.342-.116.342-.17s.059-.1.132-.1a5.946,5.946,0,0,0,.922-.413c.434-.223,1.146-.578,1.58-.788s.861-.426.948-.479.31-.175.5-.269a1.8,1.8,0,0,0,.46-.319.4.4,0,0,1,.234-.148,14.045,14.045,0,0,0,1.886-1.174,1.506,1.506,0,0,1,.343-.2,12.9,12.9,0,0,0,2.032-1.553.905.905,0,0,1,.341-.237.276.276,0,0,0,.179-.143,8.308,8.308,0,0,1,.878-.817l.98-.831c.2-.169.444-.425,1.6-1.675.405-.44.934-1,1.175-1.251a3.38,3.38,0,0,0,.5-.606.227.227,0,0,1,.17-.154c.152,0,.008.557-.173.663a.3.3,0,0,0-.142.223,1.447,1.447,0,0,1-.29.509c-.159.2-.361.477-.448.606-.139.206-.476.655-.873,1.163-.07.09-.291.4-.491.685a35.334,35.334,0,0,1-5.022,5.367c-.216.174-.585.5-.821.729-.47.452-3.19,2.695-3.269,2.695a3.554,3.554,0,0,0-.5.318c-.248.175-.712.489-1.031.7s-.7.463-.845.562a2.385,2.385,0,0,1-.511.26,3.074,3.074,0,0,0-.61.325c-.321.218-4.238,2.181-5.355,2.684a11.481,11.481,0,0,1-1.859.734.8.8,0,0,0-.355.145,2.109,2.109,0,0,1-.682.223,2.973,2.973,0,0,0-.674.183,21.063,21.063,0,0,1-2.644.751,4.469,4.469,0,0,0-.852.253,4.915,4.915,0,0,1-1.085.228,8.84,8.84,0,0,0-1.307.256,8.249,8.249,0,0,1-1.48.224,9.316,9.316,0,0,0-1.369.179,58.127,58.127,0,0,1-10.112-.008,5.856,5.856,0,0,0-1.264-.166c-.955-.045-.956-.045-.225.048a8.243,8.243,0,0,1,1.106.21,54.51,54.51,0,0,0,7.32.274,42.273,42.273,0,0,0,8.215-1.077c2.035-.494,2.909-.732,3.921-1.069.335-.111.869-.285,1.188-.386.521-.165,1.268-.464,2.464-.984.556-.242,4.233-2.086,5.277-2.646a37.791,37.791,0,0,0,6.425-4.63c.348-.326.845-.774,1.106-1,1.963-1.679,6.109-6.346,6.109-6.877a5.535,5.535,0,0,1,.46-.65,9.378,9.378,0,0,0,.658-.966,6.749,6.749,0,0,1,.488-.747,1.563,1.563,0,0,0,.29-.5.111.111,0,0,1,.095-.122c.052,0,.145-.142.205-.316s.156-.316.213-.316.16-.178.231-.395a1.082,1.082,0,0,1,.271-.479c.158-.093.2-.6.049-.6-.052,0-.124.119-.16.264m-1.115,2.048c0,.241-.166.374-.266.214-.089-.143.015-.418.157-.418.06,0,.109.092.109.2" transform="translate(-0.263 -0.278)" fill="rgba(172,116,164,0)" fill-rule="evenodd"/>
    </g>
  </g>
</svg>
