<svg xmlns="http://www.w3.org/2000/svg" width="6808" height="6586" viewBox="0 0 5000 5000">
  <g id="Group_130" data-name="Group 130" transform="translate(16832 9131)">
    <g id="Group_129" data-name="Group 129" transform="translate(-2355 -687)">
      <g id="Ellipse_205" data-name="Ellipse 205" transform="translate(-14477 -8444)" fill="#e7eefa" stroke="#e7eefa"
        stroke-width="1">
        <ellipse cx="3404" cy="3293" rx="3404" ry="3293" stroke="none" />
        <ellipse cx="3404" cy="3293" rx="3403.5" ry="3292.5" fill="none" />
      </g>
      <g id="Rectangle_145" data-name="Rectangle 145" transform="translate(-11242 -7550)" fill="#d4d5dc"
        stroke="#eff7ff" stroke-width="1">
        <rect width="2693" height="819" rx="409.5" stroke="none" />
        <rect x="0.5" y="0.5" width="2692" height="818" rx="409" fill="none" />
      </g>
      <g id="Rectangle_151" data-name="Rectangle 151" transform="translate(-10625 -8073)" fill="#d4d5dc"
        stroke="#eff7ff" stroke-width="1">
        <rect width="1189" height="361" rx="180.5" stroke="none" />
        <rect x="0.5" y="0.5" width="1188" height="360" rx="180" fill="none" />
      </g>
      <g id="Rectangle_150" data-name="Rectangle 150" transform="translate(-14171 -5897)" fill="#d4d5dc"
        stroke="#eff7ff" stroke-width="1">
        <rect width="1699" height="517" rx="258.5" stroke="none" />
        <rect x="0.5" y="0.5" width="1698" height="516" rx="258" fill="none" />
      </g>
      <g id="Rectangle_149" data-name="Rectangle 149" transform="translate(-10413 -5970)" fill="#d4d5dc"
        stroke="#eff7ff" stroke-width="1">
        <rect width="2693" height="819" rx="409.5" stroke="none" />
        <rect x="0.5" y="0.5" width="2692" height="818" rx="409" fill="none" />
      </g>
      <g id="Rectangle_146" data-name="Rectangle 146" transform="translate(-13819 -6991)" fill="#d4d5dc"
        stroke="#eff7ff" stroke-width="1">
        <rect width="2693" height="819" rx="409.5" stroke="none" />
        <rect x="0.5" y="0.5" width="2692" height="818" rx="409" fill="none" />
      </g>
      <g id="Rectangle_148" data-name="Rectangle 148" transform="translate(-12410 -5764)" fill="#d4d5dc"
        stroke="#eff7ff" stroke-width="1">
        <rect width="2693" height="819" rx="409.5" stroke="none" />
        <rect x="0.5" y="0.5" width="2692" height="818" rx="409" fill="none" />
      </g>
      <g id="Rectangle_147" data-name="Rectangle 147" transform="matrix(0.017, 1, -1, 0.017, -11521.077, -6620.653)"
        fill="#d4d5dc" stroke="#eff7ff" stroke-width="1" opacity="0.9">
        <rect width="1667" height="507" rx="253.5" stroke="none" />
        <rect x="0.5" y="0.5" width="1666" height="506" rx="253" fill="none" />
      </g>
      <g id="Ellipse_206" data-name="Ellipse 206" transform="translate(-11639 -8384)" fill="#d4d5dc" stroke="#eff7ff"
        stroke-width="1">
        <ellipse cx="439" cy="417" rx="439" ry="417" stroke="none" />
        <ellipse cx="439" cy="417" rx="438.5" ry="416.5" fill="none" />
      </g>
      <g id="Ellipse_207" data-name="Ellipse 207" transform="translate(-10498 -7967)" fill="#d4d5dc" stroke="#d4d5dc"
        stroke-width="1">
        <ellipse cx="192" cy="182" rx="192" ry="182" stroke="none" />
        <ellipse cx="192" cy="182" rx="191.5" ry="181.5" fill="none" />
      </g>
      <g id="Ellipse_211" data-name="Ellipse 211" transform="translate(-11792 -7494)" fill="#d4d5dc" stroke="#eff7ff"
        stroke-width="1">
        <ellipse cx="150" cy="142" rx="150" ry="142" stroke="none" />
        <ellipse cx="150" cy="142" rx="149.5" ry="141.5" fill="none" />
      </g>
      <g id="Ellipse_212" data-name="Ellipse 212" transform="translate(-11695 -7997)" fill="#d4d5dc" stroke="#d4d5dc"
        stroke-width="1">
        <ellipse cx="150" cy="142" rx="150" ry="142" stroke="none" />
        <ellipse cx="150" cy="142" rx="149.5" ry="141.5" fill="none" />
      </g>
      <g id="Ellipse_213" data-name="Ellipse 213" transform="translate(-11732 -7967)" fill="#d4d5dc" stroke="#d4d5dc"
        stroke-width="1">
        <ellipse cx="150" cy="142" rx="150" ry="142" stroke="none" />
        <ellipse cx="150" cy="142" rx="149.5" ry="141.5" fill="none" />
      </g>
      <g id="Ellipse_214" data-name="Ellipse 214" transform="translate(-11820 -8176)" fill="#d4d5dc" stroke="#d4d5dc"
        stroke-width="1">
        <ellipse cx="150" cy="142" rx="150" ry="142" stroke="none" />
        <ellipse cx="150" cy="142" rx="149.5" ry="141.5" fill="none" />
      </g>
      <g id="Ellipse_210" data-name="Ellipse 210" transform="translate(-9628 -6623)" fill="#d4d5dc" stroke="#eff7ff"
        stroke-width="1">
        <ellipse cx="192" cy="182" rx="192" ry="182" stroke="none" />
        <ellipse cx="192" cy="182" rx="191.5" ry="181.5" fill="none" />
      </g>
      <g id="Ellipse_208" data-name="Ellipse 208" transform="translate(-12792 -7829)" fill="#d4d5dc" stroke="#eff7ff"
        stroke-width="1">
        <ellipse cx="382" cy="362" rx="382" ry="362" stroke="none" />
        <ellipse cx="382" cy="362" rx="381.5" ry="361.5" fill="none" />
      </g>
      <g id="Ellipse_209" data-name="Ellipse 209" transform="translate(-10942 -6621)" fill="#d4d5dc" stroke="#eff7ff"
        stroke-width="1">
        <ellipse cx="382" cy="362" rx="382" ry="362" stroke="none" />
        <ellipse cx="382" cy="362" rx="381.5" ry="361.5" fill="none" />
      </g>
    </g>
  </g>
</svg>