<svg xmlns="http://www.w3.org/2000/svg" xmlns:xlink="http://www.w3.org/1999/xlink" width="80" height="69" viewBox="0 0 80 69">
  <defs>
    <filter id="Path_51" x="4" y="2" width="109" height="103" filterUnits="userSpaceOnUse">
      <feOffset dx="20" dy="20" input="SourceAlpha"/>
      <feGaussianBlur stdDeviation="10" result="blur"/>
      <feFlood flood-opacity="0"/>
      <feComposite operator="in" in2="blur"/>
      <feComposite in="SourceGraphic"/>
    </filter>
    <clipPath id="clip-path">
      <rect id="Rectangle_16" data-name="Rectangle 16" width="80" height="69" transform="translate(7445 -882)" stroke="#707070" stroke-width="1" opacity="0.14"/>
    </clipPath>
    <filter id="Path_45" x="2" y="0" width="113" height="107" filterUnits="userSpaceOnUse">
      <feOffset dx="20" dy="20" input="SourceAlpha"/>
      <feGaussianBlur stdDeviation="10" result="blur-2"/>
      <feFlood flood-opacity="0"/>
      <feComposite operator="in" in2="blur-2"/>
      <feComposite in="SourceGraphic"/>
    </filter>
    <filter id="Path_46" x="0" y="-2" width="117" height="111" filterUnits="userSpaceOnUse">
      <feOffset dx="20" dy="20" input="SourceAlpha"/>
      <feGaussianBlur stdDeviation="10" result="blur-3"/>
      <feFlood flood-opacity="0"/>
      <feComposite operator="in" in2="blur-3"/>
      <feComposite in="SourceGraphic"/>
    </filter>
    <filter id="Path_47" x="-2" y="-4" width="121" height="115" filterUnits="userSpaceOnUse">
      <feOffset dx="20" dy="20" input="SourceAlpha"/>
      <feGaussianBlur stdDeviation="10" result="blur-4"/>
      <feFlood flood-opacity="0"/>
      <feComposite operator="in" in2="blur-4"/>
      <feComposite in="SourceGraphic"/>
    </filter>
    <filter id="Path_48" x="4" y="2" width="109" height="103" filterUnits="userSpaceOnUse">
      <feOffset dx="20" dy="20" input="SourceAlpha"/>
      <feGaussianBlur stdDeviation="10" result="blur-5"/>
      <feFlood flood-opacity="0"/>
      <feComposite operator="in" in2="blur-5"/>
      <feComposite in="SourceGraphic"/>
    </filter>
    <clipPath id="clip-path-2">
      <g transform="matrix(1, 0, 0, 1, 0, 0)" filter="url(#Path_51)">
        <path id="Path_51-2" data-name="Path 51" d="M24.5,0C38.031,0,49,9.626,49,21.5S38.031,43,24.5,43,0,33.374,0,21.5,10.969,0,24.5,0Z" transform="translate(7474 -885)" fill="#00e3be" stroke="rgba(112,112,112,0)" stroke-width="1"/>
      </g>
    </clipPath>
  </defs>
  <g id="Mask_Group_14" data-name="Mask Group 14" transform="translate(-7445 882)" clip-path="url(#clip-path)">
    <g id="Group_28" data-name="Group 28" transform="translate(-67 39)">
      <g id="Group_25" data-name="Group 25" transform="translate(9 -9)">
        <g id="Group_24" data-name="Group 24" transform="translate(0 4)">
          <g transform="matrix(1, 0, 0, 1, 7503, -916)" filter="url(#Path_45)">
            <g id="Path_45-2" data-name="Path 45" transform="translate(12 10)" opacity="0.1">
              <path d="M26.5,0C41.136,0,53,10.521,53,23.5S41.136,47,26.5,47,0,36.479,0,23.5,11.864,0,26.5,0Z" stroke="none"/>
              <path d="M 26.5 1 C 23.04286956787109 1 19.69057083129883 1.599899291992188 16.53620147705078 2.783050537109375 C 13.49578094482422 3.923458099365234 10.76683044433594 5.554599761962891 8.425159454345703 7.631179809570313 C 6.092159271240234 9.700069427490234 4.261848449707031 12.10636901855469 2.985088348388672 14.78324127197266 C 1.667881011962891 17.54491996765137 1 20.47765922546387 1 23.5 C 1 26.52234077453613 1.667881011962891 29.45508003234863 2.985088348388672 32.21675872802734 C 4.261848449707031 34.89363098144531 6.092159271240234 37.29993057250977 8.425159454345703 39.36882019042969 C 10.76683044433594 41.44540023803711 13.49578094482422 43.0765380859375 16.53620147705078 44.21694946289063 C 19.69057083129883 45.40010070800781 23.04286956787109 46 26.5 46 C 29.95713043212891 46 33.30942916870117 45.40010070800781 36.46379852294922 44.21694946289063 C 39.50421905517578 43.0765380859375 42.23316955566406 41.44540023803711 44.5748405456543 39.36882019042969 C 46.90784072875977 37.29993057250977 48.73815155029297 34.89363098144531 50.01491165161133 32.21675872802734 C 51.33211898803711 29.45508003234863 52 26.52234077453613 52 23.5 C 52 20.47765922546387 51.33211898803711 17.54491996765137 50.01491165161133 14.78324127197266 C 48.73815155029297 12.10636901855469 46.90784072875977 9.700069427490234 44.5748405456543 7.631179809570313 C 42.23316955566406 5.554599761962891 39.50421905517578 3.923458099365234 36.46379852294922 2.783050537109375 C 33.30942916870117 1.599899291992188 29.95713043212891 1 26.5 1 M 26.5 0 C 41.13554000854492 0 53 10.52130889892578 53 23.5 C 53 36.47869110107422 41.13554000854492 47 26.5 47 C 11.86445999145508 47 0 36.47869110107422 0 23.5 C 0 10.52130889892578 11.86445999145508 0 26.5 0 Z" stroke="none" fill="rgba(112,112,112,0)"/>
            </g>
          </g>
        </g>
      </g>
      <g id="Group_27" data-name="Group 27" transform="translate(31 -9)">
        <g id="Group_26" data-name="Group 26">
          <g transform="matrix(1, 0, 0, 1, 7481, -912)" filter="url(#Path_46)">
            <g id="Path_46-2" data-name="Path 46" transform="translate(10 8)" fill="rgba(0,0,0,0.33)" opacity="0.1">
              <path d="M28.5,0C44.24,0,57,11.417,57,25.5S44.24,51,28.5,51,0,39.583,0,25.5,12.76,0,28.5,0Z" stroke="none"/>
              <path d="M 28.49999809265137 1 C 24.77387619018555 1 21.16057968139648 1.652439117431641 17.76045989990234 2.939178466796875 C 14.48222732543945 4.179798126220703 11.53957748413086 5.954509735107422 9.014247894287109 8.214019775390625 C 6.496929168701172 10.46635818481445 4.521797180175781 13.08649063110352 3.143749237060547 16.00162887573242 C 1.721256256103516 19.01074981689453 0.9999961853027344 22.20646095275879 0.9999961853027344 25.5 C 0.9999961853027344 28.79353904724121 1.721256256103516 31.98925018310547 3.143749237060547 34.99836730957031 C 4.521797180175781 37.91350936889648 6.496929168701172 40.53363800048828 9.014247894287109 42.78598022460938 C 11.53957748413086 45.04549026489258 14.48222732543945 46.82019805908203 17.76045989990234 48.06082153320313 C 21.16057968139648 49.34756088256836 24.77387619018555 50 28.49999809265137 50 C 32.22611999511719 50 35.83941650390625 49.34756088256836 39.23954010009766 48.06082153320313 C 42.51776885986328 46.82019805908203 45.46041870117188 45.04549026489258 47.98574829101563 42.78598022460938 C 50.50306701660156 40.53363800048828 52.47819900512695 37.91350936889648 53.85624694824219 34.99836730957031 C 55.27873992919922 31.98925018310547 56 28.79353904724121 56 25.5 C 56 22.20646095275879 55.27873992919922 19.01074981689453 53.85624694824219 16.00162887573242 C 52.47819900512695 13.08649063110352 50.50306701660156 10.46635818481445 47.98574829101563 8.214019775390625 C 45.46041870117188 5.954509735107422 42.51776885986328 4.179798126220703 39.23954010009766 2.939178466796875 C 35.83941650390625 1.652439117431641 32.22611999511719 1 28.49999809265137 1 M 28.49999809265137 0 C 44.24010848999023 0 57 11.41674041748047 57 25.5 C 57 39.58325958251953 44.24010848999023 51 28.49999809265137 51 C 12.7598876953125 51 -3.814697265625e-06 39.58325958251953 -3.814697265625e-06 25.5 C -3.814697265625e-06 11.41674041748047 12.7598876953125 0 28.49999809265137 0 Z" stroke="none" fill="rgba(112,112,112,0)"/>
            </g>
          </g>
        </g>
        <g transform="matrix(1, 0, 0, 1, 7481, -912)" filter="url(#Path_47)">
          <g id="Path_47-2" data-name="Path 47" transform="translate(8 6)" fill="rgba(0,0,0,0.33)" opacity="0.1">
            <path d="M30.5,0C47.345,0,61,12.312,61,27.5S47.345,55,30.5,55,0,42.688,0,27.5,13.655,0,30.5,0Z" stroke="none"/>
            <path d="M 30.49999618530273 1 C 26.50475692749023 1 22.63033676147461 1.705009460449219 18.98434448242188 3.095451354980469 C 15.46825790405273 4.436351776123047 12.31187438964844 6.354709625244141 9.602874755859375 8.797248840332031 C 6.90130615234375 11.23308944702148 4.781444549560547 14.06707000732422 3.302177429199219 17.220458984375 C 1.774555206298828 20.47689056396484 0.9999961853027344 23.9354305267334 0.9999961853027344 27.5 C 0.9999961853027344 31.0645694732666 1.774555206298828 34.52310943603516 3.302177429199219 37.779541015625 C 4.781444549560547 40.93292999267578 6.90130615234375 43.76691055297852 9.602874755859375 46.20275115966797 C 12.31187438964844 48.64529037475586 15.46825790405273 50.56365203857422 18.98434448242188 51.90454864501953 C 22.63033676147461 53.29499053955078 26.50475692749023 54 30.49999618530273 54 C 34.49523544311523 54 38.36965560913086 53.29499053955078 42.0156364440918 51.90454864501953 C 45.5317268371582 50.56365203857422 48.68810653686523 48.64529037475586 51.3971061706543 46.20275115966797 C 54.09867477416992 43.76691055297852 56.21853637695313 40.93292999267578 57.69780731201172 37.779541015625 C 59.22542572021484 34.52310943603516 59.99998474121094 31.0645694732666 59.99998474121094 27.5 C 59.99998474121094 23.9354305267334 59.22542572021484 20.47689056396484 57.69780731201172 17.220458984375 C 56.21853637695313 14.06707000732422 54.09867477416992 11.23308944702148 51.3971061706543 8.797248840332031 C 48.68810653686523 6.354709625244141 45.5317268371582 4.436351776123047 42.0156364440918 3.095451354980469 C 38.36965560913086 1.705009460449219 34.49523544311523 1 30.49999618530273 1 M 30.49999618530273 0 C 47.34467697143555 0 60.99998474121094 12.31216812133789 60.99998474121094 27.5 C 60.99998474121094 42.68782806396484 47.34467697143555 55 30.49999618530273 55 C 13.65531539916992 55 -3.814697265625e-06 42.68782806396484 -3.814697265625e-06 27.5 C -3.814697265625e-06 12.31216812133789 13.65531539916992 0 30.49999618530273 0 Z" stroke="none" fill="rgba(112,112,112,0)"/>
          </g>
        </g>
      </g>
    </g>
    <g transform="matrix(1, 0, 0, 1, 7445, -882)" filter="url(#Path_48)">
      <g id="Path_48-2" data-name="Path 48" transform="translate(14 12)" fill="#00e3be">
        <path d="M24.5,0C38.031,0,49,9.626,49,21.5S38.031,43,24.5,43,0,33.374,0,21.5,10.969,0,24.5,0Z" stroke="none"/>
        <path d="M 24.5 1 C 21.31168937683105 1 18.22023010253906 1.547428131103516 15.31147003173828 2.627079010009766 C 12.5087890625 3.6673583984375 9.993499755859375 5.155048370361328 7.835468292236328 7.048828125 C 5.686901092529297 8.934318542480469 4.001518249511719 11.12681007385254 2.826160430908203 13.56541061401367 C 1.614410400390625 16.07950019836426 1 18.74909019470215 1 21.5 C 1 24.25090980529785 1.614410400390625 26.92049980163574 2.826160430908203 29.43458938598633 C 4.001518249511719 31.87318992614746 5.686901092529297 34.06568145751953 7.835468292236328 35.951171875 C 9.993499755859375 37.84495162963867 12.5087890625 39.3326416015625 15.31147003173828 40.37292098999023 C 18.22023010253906 41.45256805419922 21.31168937683105 42 24.5 42 C 27.68829917907715 42 30.77976989746094 41.45256805419922 33.68852996826172 40.37292098999023 C 36.4912109375 39.3326416015625 39.00650024414063 37.84495162963867 41.16452026367188 35.951171875 C 43.3130989074707 34.06568145751953 44.99848175048828 31.87318992614746 46.1738395690918 29.43458938598633 C 47.38558959960938 26.92049026489258 48 24.25090980529785 48 21.5 C 48 18.74909019470215 47.38558959960938 16.07950973510742 46.1738395690918 13.56541061401367 C 44.99848175048828 11.12681007385254 43.3130989074707 8.934318542480469 41.16452026367188 7.048828125 C 39.00650024414063 5.155048370361328 36.4912109375 3.6673583984375 33.68852996826172 2.627079010009766 C 30.77976989746094 1.547428131103516 27.68829917907715 1 24.5 1 M 24.5 0 C 38.03096771240234 0 49 9.625881195068359 49 21.5 C 49 33.37411880493164 38.03096771240234 43 24.5 43 C 10.96902084350586 43 0 33.37411880493164 0 21.5 C 0 9.625881195068359 10.96902084350586 0 24.5 0 Z" stroke="none" fill="rgba(112,112,112,0)"/>
      </g>
    </g>
    <g id="Group_29" data-name="Group 29" transform="translate(-15 15)" clip-path="url(#clip-path-2)">
      <path id="Path_49" data-name="Path 49" d="M7494.442-878.5c17.036,8.021,49.652-5.208,49.652-5.208l2.8-3.871-.836,21.471s-5.528,3.407-24.235,2.507-28.35-1.479-28.35-1.479Z" transform="translate(-21 15)" fill="#0090c3" stroke="rgba(112,112,112,0)" stroke-width="1"/>
      <path id="Path_50" data-name="Path 50" d="M7493-872.151c25.613,5.336,33.2,4.05,33.2,4.05s10.543-.964,13.821-3.729a39.166,39.166,0,0,1,7.328-4.693l-.386,12.921L7493-865.015Z" transform="translate(-21 15)" fill="#003c86" stroke="rgba(0,60,134,0)" stroke-width="1"/>
    </g>
    <g id="Ellipse_38" data-name="Ellipse 38" transform="translate(7471 -860)" fill="#0066ad" stroke="rgba(0,102,173,0)" stroke-width="1">
      <ellipse cx="2" cy="1" rx="2" ry="1" stroke="none"/>
      <ellipse cx="2" cy="1" rx="1.5" ry="0.5" fill="none"/>
    </g>
    <g id="Ellipse_39" data-name="Ellipse 39" transform="translate(7488 -842)" fill="#0066ad" stroke="rgba(0,102,173,0)" stroke-width="1">
      <ellipse cx="2" cy="1" rx="2" ry="1" stroke="none"/>
      <ellipse cx="2" cy="1" rx="1.5" ry="0.5" fill="none"/>
    </g>
    <g id="Ellipse_40" data-name="Ellipse 40" transform="translate(7500 -847)" fill="#0066ad" stroke="rgba(0,102,173,0)" stroke-width="1">
      <ellipse cx="1" cy="0.5" rx="1" ry="0.5" stroke="none"/>
      <ellipse cx="1" cy="0.5" rx="0.5" fill="none"/>
    </g>
    <g id="Ellipse_41" data-name="Ellipse 41" transform="translate(7477 -845)" fill="#0066ad" stroke="rgba(0,102,173,0)" stroke-width="1">
      <ellipse cx="3.5" cy="1.5" rx="3.5" ry="1.5" stroke="none"/>
      <ellipse cx="3.5" cy="1.5" rx="3" ry="1" fill="none"/>
    </g>
  </g>
</svg>
