<svg xmlns="http://www.w3.org/2000/svg" width="1002" height="399" viewBox="0 0 1002 399">
  <g id="Group_123" data-name="Group 123" transform="translate(-7515 452)">
    <g id="Group_11" data-name="Group 11" transform="translate(3377.75 108)">
      <g id="Rectangle_1" data-name="Rectangle 1" transform="translate(4137.25 -560)" fill="#4ab4c9">
        <path d="M 1001.5 398.5 L 0.500030517578125 398.5 L 0.500030517578125 0.5 L 1001.5 0.5 L 1001.5 398.5 Z" stroke="none"/>
        <path d="M 1.00006103515625 1 L 1.00006103515625 398 L 1001 398 L 1001 1 L 1.00006103515625 1 M 6.103515625e-05 0 L 1002 0 L 1002 399 L 6.103515625e-05 399 L 6.103515625e-05 0 Z" stroke="none" fill="#4ab4c9"/>
      </g>
    </g>
    <g id="Group_11-2" data-name="Group 11" transform="translate(3377.75 108)" opacity="0.34">
      <g id="Rectangle_1-2" data-name="Rectangle 1" transform="translate(4137.25 -560)">
        <path d="M 1001.5 398.5 L 0.500030517578125 398.5 L 0.500030517578125 0.5 L 1001.5 0.5 L 1001.5 398.5 Z" stroke="none"/>
        <path d="M 1.00006103515625 1 L 1.00006103515625 398 L 1001 398 L 1001 1 L 1.00006103515625 1 M 6.103515625e-05 0 L 1002 0 L 1002 399 L 6.103515625e-05 399 L 6.103515625e-05 0 Z" stroke="none" fill="#000"/>
      </g>
    </g>
    <path id="Union_8" data-name="Union 8" d="M277.49,353.944S378.469,210.421,42.727,266.418c-.435-.163-3.815-1.149-23.225-6.3-26.349-6.99,13.117-32.1,36.67-59.818,10.686-12.575,32.592-16.1,55.342-16.044,21.107-15.116,46.845-30.052,46.892-34.482.054-5.26-31.864,5.285-64.2,15.829C63.176,175.722,31.76,185.839,27.822,182c-7.605-7.418-60.035-78.356,54.921-107.706,16.212-14.975,36.624-32.049,52.935-49.939,41.9-45.956,174.362-13.516,210.857-9.461s255.46,63.526,431.174,37.846S726.346,162.221,727.7,179.792c.691,8.985,53.692-13.839,107.311-36.664,51.236-21.811,103.037-43.62,110.3-37.676,14.868,12.164,125.7,137.867-113.538,202.747q-9.988,2.709-19.637,5.1c-10.718,8.686-25.671,18.746-37.565,29.7-26.758,24.641-102.284-1.013-123.341-5.235-2.351-.471-5.992-1.461-10.749-2.84-47.658-1.2-81.317-9.665-103.2-17.95-13.127,12.47-34.658,24.593-68.434,35.031-47.616,14.715-85.094,19.542-113.8,19.54C300.262,371.546,277.49,353.944,277.49,353.944Zm22.775-175.308c12.85-14.884,37.907-28.377,83.19-36.5a489.06,489.06,0,0,1,54.15-6.793c-37.839-9.835-89.821-15.138-160.467-13.21C271.952,139.669,273.493,161.441,300.265,178.636Zm-257.6,87.793.066-.011c.059.022.064.029.047.029A.95.95,0,0,1,42.661,266.429Z" transform="translate(7525.594 -436.572)" fill="#fbe83d" stroke="#707070" stroke-width="1"/>
    <path id="Union_9" data-name="Union 9" d="M191.006,142.616c-56.081,2.916-63.857-35.988-58.918-72.907C107.256,74.268,73.537,92.3,35.1,142.925c0,0,3.533,4.159-27.658-19.755S53.19,44.151,53.19,44.151s36.957-3.665,87.2-10.5A258.164,258.164,0,0,1,150.424,6.708s16.185,8.4,38.118,19.954c30.572-4.737,62.974-10.37,93.387-16.821,72.576-15.395,73.3,54.492,67.42,97.056,25.191-.914,60.97-13.683,106.267-57.115,0,0-2.839-4.66,24.227,23.838S422.3,144.51,422.3,144.51,296.087,137.153,191.006,142.616Z" transform="translate(7884.9 -293.559)" fill="#d78e3d" stroke="#d78e3d" stroke-width="1"/>
    <g id="Union_10" data-name="Union 10" transform="translate(8131 -396)" fill="#116ce2" opacity="0.8">
      <path d="M -329.4998779296875 331.5001831054688 L -537.499755859375 331.5001831054688 C -543.574951171875 331.5001831054688 -549.4681396484375 330.3104248046875 -555.0157470703125 327.9639282226563 C -560.3742065429688 325.6974792480469 -565.1868286132813 322.45263671875 -569.3197631835938 318.3197021484375 C -573.4526977539063 314.186767578125 -576.697509765625 309.3741760253906 -578.9639892578125 304.0157165527344 C -581.3104858398438 298.4680480957031 -582.500244140625 292.5748901367188 -582.500244140625 286.4996948242188 C -582.500244140625 280.4245300292969 -581.3104858398438 274.5313415527344 -578.9639892578125 268.9839477539063 C -576.697509765625 263.6254577636719 -573.4526977539063 258.81298828125 -569.3197631835938 254.68017578125 C -565.1868286132813 250.5473480224609 -560.3742065429688 247.3026428222656 -555.0157470703125 245.0361785888672 C -549.4681396484375 242.6898193359375 -543.574951171875 241.5001831054688 -537.499755859375 241.5001831054688 L -329.4998779296875 241.5001831054688 C -323.4247131347656 241.5001831054688 -317.5315246582031 242.6898193359375 -311.984130859375 245.0361785888672 C -306.6256408691406 247.3026428222656 -301.8131713867188 250.5473480224609 -297.6803588867188 254.68017578125 C -293.5475158691406 258.81298828125 -290.3028259277344 263.6254577636719 -288.0363464355469 268.9839477539063 C -285.6900024414063 274.5313415527344 -284.5003662109375 280.4245300292969 -284.5003662109375 286.4996948242188 C -284.5003662109375 292.5748901367188 -285.6900024414063 298.4680480957031 -288.0363464355469 304.0157165527344 C -290.3028259277344 309.3741760253906 -293.5475158691406 314.186767578125 -297.6803588867188 318.3197021484375 C -301.8131713867188 322.45263671875 -306.6256408691406 325.6974792480469 -311.984130859375 327.9639282226563 C -317.5315246582031 330.3104248046875 -323.4247131347656 331.5001831054688 -329.4998779296875 331.5001831054688 Z M 268.499755859375 317.4996948242188 L 60.49976348876953 317.4996948242188 C 54.42458724975586 317.4996948242188 48.53141021728516 316.31005859375 42.98400115966797 313.9637145996094 C 37.62553024291992 311.6972351074219 32.81305694580078 308.4525451660156 28.68035316467285 304.3197021484375 C 24.54752922058105 300.1868896484375 21.30282402038574 295.3744201660156 19.03635215759277 290.0159301757813 C 16.69000053405762 284.4685363769531 15.50035285949707 278.5753479003906 15.50035285949707 272.5001831054688 C 15.50035285949707 266.5459289550781 16.64458847045898 260.761474609375 18.90117645263672 255.3072357177734 C 21.08094024658203 250.0390014648438 24.2081184387207 245.2830047607422 28.19611740112305 241.1715850830078 C 32.17847061157227 237.0659484863281 36.83023452758789 233.797119140625 42.02235412597656 231.4559478759766 C 47.38435363769531 229.0381774902344 53.10200119018555 227.7152404785156 59.01647186279297 227.5238189697266 L 59.5003547668457 227.5081787109375 L 59.5003547668457 227.0240631103516 L 59.5003547668457 161.4995880126953 L 59.5003547668457 96.00029754638672 L 59.5003547668457 95.50029754638672 L 59.0003547668457 95.50029754638672 L 45.5003547668457 95.50029754638672 C 39.42494201660156 95.50029754638672 33.53164672851563 94.31053161621094 27.98411750793457 91.96405792236328 C 22.62553024291992 89.69759368896484 17.81294059753418 86.452880859375 13.6801176071167 82.31982421875 C 9.547176361083984 78.18700408935547 6.302470684051514 73.37441253662109 4.036117553710938 68.01582336425781 C 1.689647078514099 62.46829605102539 0.5 56.57511901855469 0.5 50.49994277954102 C 0.5 44.42476654052734 1.689647078514099 38.53158950805664 4.036117553710938 32.98418045043945 C 6.302470684051514 27.62570762634277 9.547176361083984 22.8132381439209 13.6801176071167 18.6804141998291 C 17.81294059753418 14.5475902557373 22.62553024291992 11.30288410186768 27.98411750793457 9.03641414642334 C 33.53164672851563 6.690061092376709 39.42494201660156 5.50041389465332 45.5003547668457 5.50041389465332 L 83.74176788330078 5.50041389465332 L 83.86270904541016 5.50041389465332 L 83.97023773193359 5.445119857788086 C 87.08070373535156 3.847472906112671 90.37764739990234 2.616766929626465 93.76929473876953 1.78711986541748 C 97.26035308837891 0.9331198334693909 100.8707046508789 0.50006103515625 104.499885559082 0.50006103515625 C 108.1291732788086 0.50006103515625 111.7395324707031 0.9331198334693909 115.2305908203125 1.78711986541748 C 118.6222381591797 2.616766929626465 121.9191741943359 3.847472906112671 125.0297622680664 5.445119857788086 L 125.1372909545898 5.50041389465332 L 125.2582321166992 5.50041389465332 L 253.5003509521484 5.50041389465332 C 259.5755310058594 5.50041389465332 265.4687194824219 6.690061092376709 271.01611328125 9.03641414642334 C 276.3746032714844 11.30288410186768 281.1870727539063 14.5475902557373 285.3198852539063 18.6804141998291 C 289.4526977539063 22.8132381439209 292.6974182128906 27.62570762634277 294.9637756347656 32.98418045043945 C 297.3102416992188 38.53158950805664 298.4998779296875 44.42476654052734 298.4998779296875 50.49994277954102 C 298.4998779296875 56.57511901855469 297.3102416992188 62.46829605102539 294.9637756347656 68.01582336425781 C 292.6974182128906 73.37441253662109 289.4526977539063 78.18700408935547 285.3198852539063 82.31982421875 C 281.1870727539063 86.45276641845703 276.3746032714844 89.69759368896484 271.01611328125 91.96405792236328 C 265.4685974121094 94.31053161621094 259.5755310058594 95.50029754638672 253.5003509521484 95.50029754638672 L 150.0003509521484 95.50029754638672 L 149.5003509521484 95.50029754638672 L 149.5003509521484 96.00029754638672 L 149.5003509521484 116.0000610351563 L 149.5003509521484 116.5000610351563 L 150.0003509521484 116.5000610351563 L 312.4998779296875 116.5000610351563 C 318.5750732421875 116.5000610351563 324.4682312011719 117.6897048950195 330.0157775878906 120.0360641479492 C 335.3743591308594 122.3025283813477 340.1869506835938 125.5472412109375 344.3197631835938 129.6800537109375 C 348.4528198242188 133.8128814697266 351.6975402832031 138.6253509521484 353.9639892578125 143.9838256835938 C 356.3104858398438 149.5312347412109 357.500244140625 155.4244079589844 357.500244140625 161.4995880126953 C 357.500244140625 167.5749969482422 356.3104858398438 173.4682922363281 353.9639892578125 179.0158233642578 C 351.6975402832031 184.3744201660156 348.4528198242188 189.1869964599609 344.3197631835938 193.31982421875 C 340.1869506835938 197.4527740478516 335.3743591308594 200.6974792480469 330.0157775878906 202.9638214111328 C 324.4682312011719 205.310302734375 318.5750732421875 206.4999389648438 312.4998779296875 206.4999389648438 L 150.0003509521484 206.4999389648438 L 149.5003509521484 206.4999389648438 L 149.5003509521484 206.9999389648438 L 149.5003509521484 226.9998321533203 L 149.5003509521484 227.4998321533203 L 150.0003509521484 227.4998321533203 L 268.499755859375 227.4998321533203 C 274.574951171875 227.4998321533203 280.4681091308594 228.6895904541016 286.0156555175781 231.0360565185547 C 291.3741149902344 233.3025360107422 296.1867065429688 236.5473480224609 300.3196411132813 240.6802978515625 C 304.4525756835938 244.813232421875 307.6974182128906 249.6258239746094 309.9638671875 254.9842987060547 C 312.3103637695313 260.5318298339844 313.5001220703125 266.4249877929688 313.5001220703125 272.5001831054688 C 313.5001220703125 278.5753479003906 312.3103637695313 284.4685363769531 309.9638671875 290.0159301757813 C 307.6974182128906 295.3744201660156 304.4526977539063 300.1868896484375 300.3196411132813 304.3197021484375 C 296.1868286132813 308.4525451660156 291.3742370605469 311.6972351074219 286.0156555175781 313.9637145996094 C 280.4681091308594 316.31005859375 274.574951171875 317.4996948242188 268.499755859375 317.4996948242188 Z M -140.4998779296875 226.4998321533203 L -348.499755859375 226.4998321533203 C -354.574951171875 226.4998321533203 -360.4681091308594 225.3101806640625 -366.0157775878906 222.9638214111328 C -371.3742370605469 220.6973571777344 -376.1868286132813 217.4526519775391 -380.3197631835938 213.31982421875 C -384.4526977539063 209.1869964599609 -387.6975402832031 204.3745269775391 -389.9639892578125 199.0160675048828 C -392.3104858398438 193.4686431884766 -393.500244140625 187.5754699707031 -393.500244140625 181.5002899169922 C -393.500244140625 175.4251251220703 -392.3104858398438 169.5319366455078 -389.9639892578125 163.9844207763672 C -387.6975402832031 158.6258239746094 -384.4526977539063 153.813232421875 -380.3197631835938 149.6802978515625 C -376.1868286132813 145.5473480224609 -371.3742370605469 142.3026428222656 -366.0157775878906 140.0360565185547 C -360.4681091308594 137.6897125244141 -354.574951171875 136.4999389648438 -348.499755859375 136.4999389648438 L -140.4998779296875 136.4999389648438 C -134.4247131347656 136.4999389648438 -128.5316467285156 137.6897125244141 -122.9841156005859 140.0360565185547 C -117.6256484985352 142.3026428222656 -112.8131790161133 145.5473480224609 -108.6803512573242 149.6802978515625 C -104.5475311279297 153.813232421875 -101.3028259277344 158.6258239746094 -99.03646850585938 163.9844207763672 C -96.69000244140625 169.5319366455078 -95.50035095214844 175.4251251220703 -95.50035095214844 181.5002899169922 C -95.50035095214844 187.5754699707031 -96.69000244140625 193.4686431884766 -99.03646850585938 199.0160675048828 C -101.3028259277344 204.3745269775391 -104.5475311279297 209.1869964599609 -108.6803512573242 213.31982421875 C -112.8131790161133 217.4526519775391 -117.6256484985352 220.6973571777344 -122.9841156005859 222.9638214111328 C -128.5315246582031 225.3101806640625 -134.4247131347656 226.4998321533203 -140.4998779296875 226.4998321533203 Z M -315.5003662109375 90.49994659423828 L -523.500244140625 90.49994659423828 C -529.575439453125 90.49994659423828 -535.4685668945313 89.31029510498047 -541.0159912109375 86.96394348144531 C -546.3744506835938 84.69747161865234 -551.1869506835938 81.45276641845703 -555.3197631835938 77.3199462890625 C -559.4525756835938 73.18711853027344 -562.697265625 68.37464904785156 -564.9637451171875 63.01617813110352 C -567.3101196289063 57.46876525878906 -568.499755859375 51.57559204101563 -568.499755859375 45.50041580200195 C -568.499755859375 39.42500305175781 -567.3101196289063 33.53170776367188 -564.9637451171875 27.98417854309082 C -562.697265625 22.62559127807617 -559.4525756835938 17.81300163269043 -555.3197631835938 13.68017864227295 C -551.1869506835938 9.547237396240234 -546.3744506835938 6.302531719207764 -541.0159912109375 4.036178588867188 C -535.4685668945313 1.689708113670349 -529.575439453125 0.50006103515625 -523.500244140625 0.50006103515625 L -315.5003662109375 0.50006103515625 C -309.4249267578125 0.50006103515625 -303.5316467285156 1.689708113670349 -297.984130859375 4.036178588867188 C -292.6255187988281 6.302531719207764 -287.8129272460938 9.547237396240234 -283.6801147460938 13.68017864227295 C -279.5471801757813 17.81300163269043 -276.3024597167969 22.62559127807617 -274.0361328125 27.98417854309082 C -271.6896362304688 33.53170776367188 -270.5 39.42500305175781 -270.5 45.50041580200195 C -270.5 51.57559204101563 -271.6896362304688 57.46876525878906 -274.0361328125 63.01617813110352 C -276.3024597167969 68.37464904785156 -279.5471801757813 73.18711853027344 -283.6801147460938 77.3199462890625 C -287.8129272460938 81.45276641845703 -292.6255187988281 84.69747161865234 -297.984130859375 86.96394348144531 C -303.5316467285156 89.31029510498047 -309.4249267578125 90.49994659423828 -315.5003662109375 90.49994659423828 Z" stroke="none"/>
      <path d="M -329.4998779296875 331.0001831054688 C -323.4920043945313 331.0001831054688 -317.6643676757813 329.8236999511719 -312.1788330078125 327.5034790039063 C -306.8800048828125 325.2621765136719 -302.1209411621094 322.0533447265625 -298.0338745117188 317.9661865234375 C -293.9468383789063 313.8789978027344 -290.7381286621094 309.1198120117188 -288.4969482421875 303.8208923339844 C -286.1766967773438 298.3353576660156 -285.0003662109375 292.5075988769531 -285.0003662109375 286.4996948242188 C -285.0003662109375 280.4918212890625 -286.1766967773438 274.6641845703125 -288.4969482421875 269.1786499023438 C -290.7381286621094 263.8798217773438 -293.9468383789063 259.1207580566406 -298.0338745117188 255.0337066650391 C -302.1209411621094 250.9466552734375 -306.8800048828125 247.7379455566406 -312.1788330078125 245.4967651367188 C -317.6643676757813 243.1765289306641 -323.4920043945313 242.0001831054688 -329.4998779296875 242.0001831054688 L -537.499755859375 242.0001831054688 C -543.5076293945313 242.0001831054688 -549.3353881835938 243.1765289306641 -554.8209228515625 245.4967651367188 C -560.119873046875 247.7379455566406 -564.8790283203125 250.9466552734375 -568.9662475585938 255.0337066650391 C -573.0534057617188 259.1207580566406 -576.26220703125 263.8798217773438 -578.5035400390625 269.1786499023438 C -580.8237915039063 274.6641845703125 -582.000244140625 280.4918212890625 -582.000244140625 286.4996948242188 C -582.000244140625 292.5075988769531 -580.8237915039063 298.3352355957031 -578.5035400390625 303.8208923339844 C -576.26220703125 309.1198120117188 -573.0534057617188 313.8789978027344 -568.9662475585938 317.9661865234375 C -564.8790283203125 322.0533447265625 -560.119873046875 325.2621765136719 -554.8209228515625 327.5034790039063 C -549.3352661132813 329.8236999511719 -543.5076293945313 331.0001831054688 -537.499755859375 331.0001831054688 L -329.4998779296875 331.0001831054688 M 268.499755859375 316.9996948242188 C 274.5076599121094 316.9996948242188 280.3352966308594 315.8233642578125 285.8208312988281 313.5031127929688 C 291.119873046875 311.2619323730469 295.8789367675781 308.05322265625 299.9661254882813 303.9661865234375 C 304.0532836914063 299.8791198730469 307.2621154785156 295.1200561523438 309.50341796875 289.8212280273438 C 311.8236389160156 284.335693359375 313.0001220703125 278.508056640625 313.0001220703125 272.5001831054688 C 313.0001220703125 266.4923095703125 311.8236389160156 260.6646423339844 309.50341796875 255.1791229248047 C 307.2621154785156 249.8801727294922 304.0532836914063 245.1210021972656 299.9661254882813 241.0338287353516 C 295.8789367675781 236.9466552734375 291.1197509765625 233.7378234863281 285.8208312988281 231.4965362548828 C 280.3352966308594 229.1763000488281 274.5076599121094 227.9998321533203 268.499755859375 227.9998321533203 L 150.0003509521484 227.9998321533203 L 149.0003509521484 227.9998321533203 L 149.0003509521484 226.9998321533203 L 149.0003509521484 206.9999389648438 L 149.0003509521484 205.9999389648438 L 150.0003509521484 205.9999389648438 L 312.4998779296875 205.9999389648438 C 318.5077514648438 205.9999389648438 324.3354187011719 204.8234710693359 329.8209533691406 202.5033569335938 C 335.1199951171875 200.2621765136719 339.8790588378906 197.053466796875 343.9662475585938 192.9662933349609 C 348.0534057617188 188.8792419433594 351.2622375488281 184.1200561523438 353.5035400390625 178.8211212158203 C 355.8237609863281 173.3354797363281 357.000244140625 167.5077056884766 357.000244140625 161.4995880126953 C 357.000244140625 155.4917144775391 355.8237609863281 149.6640625 353.5035400390625 144.1785278320313 C 351.2622375488281 138.8797149658203 348.0534057617188 134.1206512451172 343.9662475585938 130.0335845947266 C 339.8790588378906 125.946533203125 335.1199951171875 122.7378234863281 329.8209533691406 120.4966506958008 C 324.3354187011719 118.1764144897461 318.5077514648438 117.0000610351563 312.4998779296875 117.0000610351563 L 150.0003509521484 117.0000610351563 L 149.0003509521484 117.0000610351563 L 149.0003509521484 116.0000610351563 L 149.0003509521484 96.00029754638672 L 149.0003509521484 95.00029754638672 L 150.0003509521484 95.00029754638672 L 253.5003509521484 95.00029754638672 C 259.5082397460938 95.00029754638672 265.3357543945313 93.82382202148438 270.8212890625 91.50359344482422 C 276.1201171875 89.26229858398438 280.8791809082031 86.05347442626953 284.9663391113281 81.96629333496094 C 289.0534057617188 77.87911987304688 292.2621154785156 73.11994171142578 294.5032958984375 67.82099914550781 C 296.8234252929688 62.33547210693359 297.9998779296875 56.5078239440918 297.9998779296875 50.49994277954102 C 297.9998779296875 44.49206161499023 296.8234252929688 38.66441345214844 294.5032958984375 33.17888641357422 C 292.2621154785156 27.88006019592285 289.0534057617188 23.12100219726563 284.9663391113281 19.03394317626953 C 280.8793029785156 14.94688415527344 276.1202392578125 11.73817825317383 270.8212890625 9.497002601623535 C 265.3358764648438 7.176766872406006 259.5082397460938 6.00041389465332 253.5003509521484 6.00041389465332 L 125.2582321166992 6.00041389465332 L 125.016471862793 6.00041389465332 L 124.8012924194336 5.889943599700928 C 121.7255325317383 4.310060977935791 118.4655303955078 3.093119859695435 115.1118850708008 2.272766828536987 C 111.6595306396484 1.428296327590942 108.0891799926758 1.00006103515625 104.499885559082 1.00006103515625 C 100.9107055664063 1.00006103515625 97.34035491943359 1.428296327590942 93.88800048828125 2.272766828536987 C 90.53435516357422 3.093119859695435 87.27435302734375 4.310060977935791 84.19870758056641 5.889943599700928 L 83.98352813720703 6.00041389465332 L 83.74176788330078 6.00041389465332 L 45.5003547668457 6.00041389465332 C 39.49223709106445 6.00041389465332 33.66447067260742 7.176766872406006 28.17882347106934 9.497002601623535 C 22.8798828125 11.73817825317383 18.12070655822754 14.94688415527344 14.03364658355713 19.03394317626953 C 9.946470260620117 23.12100219726563 6.737764835357666 27.88006019592285 4.496588230133057 33.17888641357422 C 2.176470518112183 38.66441345214844 1 44.49206161499023 1 50.49994277954102 C 1 56.5078239440918 2.176470518112183 62.33547210693359 4.496588230133057 67.82099914550781 C 6.737764835357666 73.12006378173828 9.946470260620117 77.87911987304688 14.03364658355713 81.96629333496094 C 18.12070655822754 86.05347442626953 22.8798828125 89.26229858398438 28.17882347106934 91.50359344482422 C 33.66447067260742 93.82382202148438 39.49223709106445 95.00029754638672 45.5003547668457 95.00029754638672 L 59.0003547668457 95.00029754638672 L 60.0003547668457 95.00029754638672 L 60.0003547668457 96.00029754638672 L 60.0003547668457 161.4995880126953 L 60.0003547668457 227.0240631103516 L 60.0003547668457 227.9921722412109 L 59.03270721435547 228.0235900878906 C 53.18388366699219 228.212890625 47.52988052368164 229.52099609375 42.22788238525391 231.9117126464844 C 37.09341049194336 234.2268829345703 32.49329376220703 237.45947265625 28.5550594329834 241.5197143554688 C 24.61129379272461 245.5855865478516 21.51870536804199 250.2887725830078 19.3631763458252 255.4984130859375 C 17.13176536560059 260.8916931152344 16.00035285949707 266.6119384765625 16.00035285949707 272.5001831054688 C 16.00035285949707 278.508056640625 17.17670631408691 284.335693359375 19.49694061279297 289.8212280273438 C 21.73811721801758 295.1200561523438 24.94682312011719 299.8791198730469 29.03388214111328 303.9661865234375 C 33.12094116210938 308.05322265625 37.88000106811523 311.2619323730469 43.17882537841797 313.5031127929688 C 48.66423416137695 315.8233642578125 54.49188232421875 316.9996948242188 60.49976348876953 316.9996948242188 L 268.499755859375 316.9996948242188 M -140.4998779296875 225.9998321533203 C -134.4920043945313 225.9998321533203 -128.6643524169922 224.8234710693359 -123.1789398193359 222.5032348632813 C -117.879997253418 220.2620544433594 -113.1209411621094 217.0533599853516 -109.0338821411133 212.9662933349609 C -104.9468231201172 208.8792419433594 -101.7381210327148 204.1201782226563 -99.49694061279297 198.8213500976563 C -97.17682647705078 193.3358306884766 -96.00035095214844 187.5081787109375 -96.00035095214844 181.5002899169922 C -96.00035095214844 175.4924163818359 -97.17682647705078 169.6647644042969 -99.49694061279297 164.1791229248047 C -101.7381210327148 158.8801727294922 -104.9468231201172 154.1210021972656 -109.0338821411133 150.0338287353516 C -113.1210556030273 145.9466552734375 -117.8801193237305 142.7379455566406 -123.1789398193359 140.4966430664063 C -128.6643524169922 138.1764068603516 -134.4920043945313 136.9999389648438 -140.4998779296875 136.9999389648438 L -348.499755859375 136.9999389648438 C -354.5076599121094 136.9999389648438 -360.3352966308594 138.1764068603516 -365.8209533691406 140.4966430664063 C -371.119873046875 142.7379455566406 -375.8790588378906 145.9466552734375 -379.9662475585938 150.0338287353516 C -384.0534057617188 154.1210021972656 -387.2622375488281 158.8801727294922 -389.5035400390625 164.1791229248047 C -391.8237609863281 169.6647644042969 -393.000244140625 175.4924163818359 -393.000244140625 181.5002899169922 C -393.000244140625 187.5081787109375 -391.8237609863281 193.3358306884766 -389.5035400390625 198.8213500976563 C -387.2622375488281 204.1201782226563 -384.0534057617188 208.8792419433594 -379.9662475585938 212.9662933349609 C -375.8790588378906 217.0533599853516 -371.119873046875 220.2620544433594 -365.8209533691406 222.5032348632813 C -360.3354187011719 224.8234710693359 -354.5076599121094 225.9998321533203 -348.499755859375 225.9998321533203 L -140.4998779296875 225.9998321533203 M -315.5003662109375 89.99994659423828 C -309.4922485351563 89.99994659423828 -303.6644592285156 88.82359313964844 -298.1788330078125 86.50335693359375 C -292.8798828125 84.26217651367188 -288.1206970214844 81.05347442626953 -284.0336608886719 76.96641540527344 C -279.9464721679688 72.87935638427734 -276.7377624511719 68.12029266357422 -274.49658203125 62.82147216796875 C -272.1764831542969 57.33594512939453 -271 51.50829696655273 -271 45.50041580200195 C -271 39.4922981262207 -272.1764831542969 33.66453170776367 -274.49658203125 28.17888450622559 C -276.7377624511719 22.87994384765625 -279.9464721679688 18.12076759338379 -284.0336608886719 14.03370761871338 C -288.1206970214844 9.946531295776367 -292.8798828125 6.737825870513916 -298.1788330078125 4.496649265289307 C -303.6644592285156 2.176531553268433 -309.4922485351563 1.00006103515625 -315.5003662109375 1.00006103515625 L -523.500244140625 1.00006103515625 C -529.5081176757813 1.00006103515625 -535.3357543945313 2.176531553268433 -540.8212890625 4.496649265289307 C -546.1201171875 6.737825870513916 -550.879150390625 9.946531295776367 -554.9662475585938 14.03370761871338 C -559.0532836914063 18.12076759338379 -562.2620239257813 22.87994384765625 -564.503173828125 28.17888450622559 C -566.8234252929688 33.66453170776367 -567.999755859375 39.4922981262207 -567.999755859375 45.50041580200195 C -567.999755859375 51.50829696655273 -566.8234252929688 57.33594512939453 -564.503173828125 62.82147216796875 C -562.2620239257813 68.12029266357422 -559.0532836914063 72.87935638427734 -554.9662475585938 76.96641540527344 C -550.879150390625 81.05347442626953 -546.1201171875 84.26217651367188 -540.8212890625 86.50335693359375 C -535.3357543945313 88.82359313964844 -529.5081176757813 89.99994659423828 -523.500244140625 89.99994659423828 L -315.5003662109375 89.99994659423828 M -329.4998779296875 332.0001831054688 L -537.499755859375 332.0001831054688 C -562.6287231445313 332.0001831054688 -583.000244140625 311.628662109375 -583.000244140625 286.4996948242188 C -583.000244140625 261.3707580566406 -562.6287231445313 241.0001831054688 -537.499755859375 241.0001831054688 L -329.4998779296875 241.0001831054688 C -304.3709411621094 241.0001831054688 -284.0003662109375 261.3707580566406 -284.0003662109375 286.4996948242188 C -284.0003662109375 311.628662109375 -304.3709411621094 332.0001831054688 -329.4998779296875 332.0001831054688 Z M 268.499755859375 317.9996948242188 L 60.49976348876953 317.9996948242188 C 35.37094116210938 317.9996948242188 15.00035285949707 297.6291198730469 15.00035285949707 272.5001831054688 C 15.00035285949707 247.8728790283203 34.56529235839844 227.8148803710938 59.0003547668457 227.0240631103516 L 59.0003547668457 161.4995880126953 L 59.0003547668457 96.00029754638672 L 45.5003547668457 96.00029754638672 C 20.3705883026123 96.00029754638672 0 75.62876892089844 0 50.49994277954102 C 0 25.37100219726563 20.3705883026123 5.00041389465332 45.5003547668457 5.00041389465332 L 83.74176788330078 5.00041389465332 C 89.96588134765625 1.803472757339478 97.02140808105469 6.103515625e-05 104.499885559082 6.103515625e-05 C 111.9784698486328 6.103515625e-05 119.0339965820313 1.803472757339478 125.2582321166992 5.00041389465332 L 253.5003509521484 5.00041389465332 C 278.6291809082031 5.00041389465332 298.9998779296875 25.37100219726563 298.9998779296875 50.49994277954102 C 298.9998779296875 75.62876892089844 278.6291809082031 96.00029754638672 253.5003509521484 96.00029754638672 L 150.0003509521484 96.00029754638672 L 150.0003509521484 116.0000610351563 L 312.4998779296875 116.0000610351563 C 337.6286926269531 116.0000610351563 358.000244140625 136.3706512451172 358.000244140625 161.4995880126953 C 358.000244140625 186.6293487548828 337.6286926269531 206.9999389648438 312.4998779296875 206.9999389648438 L 150.0003509521484 206.9999389648438 L 150.0003509521484 226.9998321533203 L 268.499755859375 226.9998321533203 C 293.6286010742188 226.9998321533203 314.0001220703125 247.3713531494141 314.0001220703125 272.5001831054688 C 314.0001220703125 297.6291198730469 293.6286010742188 317.9996948242188 268.499755859375 317.9996948242188 Z M -140.4998779296875 226.9998321533203 L -348.499755859375 226.9998321533203 C -373.6286926269531 226.9998321533203 -394.000244140625 206.6292419433594 -394.000244140625 181.5002899169922 C -394.000244140625 156.3713531494141 -373.6286926269531 135.9999389648438 -348.499755859375 135.9999389648438 L -140.4998779296875 135.9999389648438 C -115.3710556030273 135.9999389648438 -95.00035095214844 156.3713531494141 -95.00035095214844 181.5002899169922 C -95.00035095214844 206.6292419433594 -115.3710556030273 226.9998321533203 -140.4998779296875 226.9998321533203 Z M -315.5003662109375 90.99994659423828 L -523.500244140625 90.99994659423828 C -548.629150390625 90.99994659423828 -568.999755859375 70.62935638427734 -568.999755859375 45.50041580200195 C -568.999755859375 20.37064933776855 -548.629150390625 6.103515625e-05 -523.500244140625 6.103515625e-05 L -315.5003662109375 6.103515625e-05 C -290.3705749511719 6.103515625e-05 -270 20.37064933776855 -270 45.50041580200195 C -270 70.62935638427734 -290.3705749511719 90.99994659423828 -315.5003662109375 90.99994659423828 Z" stroke="none" fill="#3872c1"/>
    </g>
    <g id="Union_11" data-name="Union 11" transform="translate(8135 -97) rotate(180)" fill="#116ce2" opacity="0.8">
      <path d="M 268.4996948242188 317.4997253417969 L 60.49979019165039 317.4997253417969 C 54.42460632324219 317.4997253417969 48.53147125244141 316.3100280761719 42.98401641845703 313.9636535644531 C 37.62556076049805 311.697265625 32.81306076049805 308.4525756835938 28.68024253845215 304.3197631835938 C 24.54742431640625 300.1869506835938 21.30274391174316 295.3744506835938 19.03633499145508 290.0159912109375 C 16.68997001647949 284.4685363769531 15.50028896331787 278.5753784179688 15.50028896331787 272.5002136230469 C 15.50028896331787 266.5459899902344 16.64451599121094 260.7614440917969 18.90115165710449 255.3072509765625 C 21.08083343505859 250.0389862060547 24.20810699462891 245.2830810546875 28.19610595703125 241.1715698242188 C 32.17842483520508 237.0658874511719 36.83024215698242 233.7970733642578 42.02233505249023 231.4559326171875 C 47.38433456420898 229.0382080078125 53.1020622253418 227.7152557373047 59.01660537719727 227.5238037109375 L 59.50042343139648 227.5081634521484 L 59.50042343139648 227.0240783691406 L 59.50042343139648 161.4996185302734 L 59.50042343139648 96.00030517578125 L 59.50042343139648 95.50030517578125 L 59.00042343139648 95.50030517578125 L 45.50042343139648 95.50030517578125 C 39.4250602722168 95.50030517578125 33.53169631958008 94.31057739257813 27.98410606384277 91.96411895751953 C 22.62556076049805 89.69761657714844 17.8129711151123 86.45285034179688 13.68010711669922 82.31989288330078 C 9.547243118286133 78.18698120117188 6.302515983581543 73.3743896484375 4.03606128692627 68.01580047607422 C 1.689697742462158 62.46830368041992 0.500015914440155 56.5750732421875 0.500015914440155 50.49989318847656 C 0.500015914440155 44.42470932006836 1.689697742462158 38.53157424926758 4.03606128692627 32.9841194152832 C 6.302515983581543 27.62566566467285 9.547243118286133 22.81316566467285 13.68010711669922 18.68039321899414 C 17.8129711151123 14.54752922058105 22.62556076049805 11.30284786224365 27.98410606384277 9.03643798828125 C 33.53169631958008 6.690074920654297 39.42501449584961 5.500392913818359 45.50042343139648 5.500392913818359 L 83.74174499511719 5.500392913818359 L 83.86265563964844 5.500392913818359 L 83.97019958496094 5.445165634155273 C 87.08069610595703 3.847438335418701 90.3775634765625 2.616665601730347 93.76924133300781 1.787029266357422 C 97.26033782958984 0.9329837560653687 100.8706970214844 0.4999837875366211 104.4999237060547 0.4999837875366211 C 108.129150390625 0.4999837875366211 111.7395172119141 0.9329837560653687 115.2306518554688 1.787029266357422 C 118.6222915649414 2.616665601730347 121.9191970825195 3.847438335418701 125.02978515625 5.445165634155273 L 125.137336730957 5.500392913818359 L 125.2582397460938 5.500392913818359 L 253.5002899169922 5.500392913818359 C 259.5754699707031 5.500392913818359 265.4685974121094 6.690074920654297 271.0160522460938 9.03643798828125 C 276.3745727539063 11.30284786224365 281.18701171875 14.54752922058105 285.31982421875 18.68039321899414 C 289.4526672363281 22.81321144104004 292.6973876953125 27.62566566467285 294.9637756347656 32.9841194152832 C 297.3101501464844 38.53157424926758 298.4998474121094 44.42470932006836 298.4998474121094 50.49989318847656 C 298.4998474121094 56.5750732421875 297.3101501464844 62.46830368041992 294.9637756347656 68.01580047607422 C 292.6973266601563 73.3743896484375 289.4526672363281 78.18693542480469 285.31982421875 82.31989288330078 C 281.18701171875 86.45285034179688 276.37451171875 89.69761657714844 271.0160522460938 91.96411895751953 C 265.4685974121094 94.31057739257813 259.575439453125 95.50030517578125 253.5002899169922 95.50030517578125 L 150.0002899169922 95.50030517578125 L 149.5002899169922 95.50030517578125 L 149.5002899169922 96.00030517578125 L 149.5002899169922 116.0001220703125 L 149.5002899169922 116.5001220703125 L 150.0002899169922 116.5001220703125 L 312.4998474121094 116.5001220703125 C 318.5750122070313 116.5001220703125 324.4682312011719 117.6898040771484 330.0157470703125 120.0361633300781 C 335.3742980957031 122.3025741577148 340.1868896484375 125.5472564697266 344.3197937011719 129.6800689697266 C 348.4527282714844 133.8129425048828 351.697509765625 138.6253967285156 353.9640197753906 143.9838409423828 C 356.3104553222656 149.5312957763672 357.5001831054688 155.4244842529297 357.5001831054688 161.4996185302734 C 357.5001831054688 167.5749816894531 356.3104553222656 173.4683074951172 353.9640197753906 179.0158996582031 C 351.697509765625 184.3744354248047 348.4527282714844 189.1870269775391 344.3197937011719 193.3198852539063 C 340.1868896484375 197.4527587890625 335.3743286132813 200.6974792480469 330.0157470703125 202.9639434814453 C 324.4682312011719 205.310302734375 318.5750122070313 206.4999847412109 312.4998474121094 206.4999847412109 L 150.0002899169922 206.4999847412109 L 149.5002899169922 206.4999847412109 L 149.5002899169922 206.9999847412109 L 149.5002899169922 226.9998016357422 L 149.5002899169922 227.4998016357422 L 150.0002899169922 227.4998016357422 L 268.4996948242188 227.4998016357422 C 274.5748901367188 227.4998016357422 280.4680480957031 228.6895294189453 286.0155944824219 231.0359802246094 C 291.3741455078125 233.302490234375 296.1867370605469 236.5472564697266 300.3197021484375 240.6802062988281 C 304.4526672363281 244.8131713867188 307.6974182128906 249.6257629394531 309.9639282226563 254.9842987060547 C 312.3103942871094 260.5318603515625 313.5001220703125 266.4250183105469 313.5001220703125 272.5002136230469 C 313.5001220703125 278.5753479003906 312.3103942871094 284.4685363769531 309.9639282226563 290.0159912109375 C 307.6974182128906 295.3744506835938 304.4526672363281 300.1868896484375 300.3197021484375 304.3197631835938 C 296.1867370605469 308.4525756835938 291.3742065429688 311.697265625 286.0155944824219 313.9636535644531 C 280.4681091308594 316.3100280761719 274.5748901367188 317.4997253417969 268.4996948242188 317.4997253417969 Z" stroke="none"/>
      <path d="M 268.4996948242188 316.9997253417969 C 274.5075988769531 316.9997253417969 280.3352966308594 315.8233032226563 285.8208312988281 313.503173828125 C 291.1197814941406 311.2619323730469 295.8789672851563 308.0532531738281 299.9661560058594 303.9661560058594 C 304.0533447265625 299.8791198730469 307.2621459960938 295.1200866699219 309.50341796875 289.8211975097656 C 311.8236389160156 284.3357238769531 313.0001220703125 278.5080871582031 313.0001220703125 272.5002136230469 C 313.0001220703125 266.4923400878906 311.8236389160156 260.6646728515625 309.50341796875 255.1790771484375 C 307.2621154785156 249.880126953125 304.0533447265625 245.1209411621094 299.9661560058594 241.0337524414063 C 295.8789672851563 236.9465789794922 291.1197814941406 233.7378082275391 285.8208312988281 231.4964904785156 C 280.3352355957031 229.1762542724609 274.507568359375 227.9998016357422 268.4996948242188 227.9998016357422 L 150.0002899169922 227.9998016357422 L 149.0002899169922 227.9998016357422 L 149.0002899169922 226.9998016357422 L 149.0002899169922 206.9999847412109 L 149.0002899169922 205.9999847412109 L 150.0002899169922 205.9999847412109 L 312.4998474121094 205.9999847412109 C 318.5077514648438 205.9999847412109 324.3354187011719 204.8235778808594 329.8209838867188 202.5034332275391 C 335.1199340820313 200.26220703125 339.8791198730469 197.0534362792969 343.9662475585938 192.9663543701172 C 348.0534362792969 188.8792114257813 351.2622375488281 184.1200714111328 353.5035095214844 178.8211212158203 C 355.82373046875 173.3354797363281 357.0001831054688 167.5077056884766 357.0001831054688 161.4996185302734 C 357.0001831054688 155.4917602539063 355.82373046875 149.6641235351563 353.5035095214844 144.1786193847656 C 351.2622375488281 138.8797607421875 348.0534362792969 134.1207122802734 343.9662475585938 130.0336608886719 C 339.8791198730469 125.9465713500977 335.1199340820313 122.7378921508789 329.8209838867188 120.4966659545898 C 324.3354187011719 118.1765289306641 318.5077514648438 117.0001220703125 312.4998474121094 117.0001220703125 L 150.0002899169922 117.0001220703125 L 149.0002899169922 117.0001220703125 L 149.0002899169922 116.0001220703125 L 149.0002899169922 96.00030517578125 L 149.0002899169922 95.00030517578125 L 150.0002899169922 95.00030517578125 L 253.5002899169922 95.00030517578125 C 259.5081481933594 95.00030517578125 265.3357849121094 93.82384490966797 270.8212890625 91.50361633300781 C 276.1201477050781 89.26234436035156 280.8792114257813 86.05352783203125 284.9662780761719 81.96634674072266 C 289.0533447265625 77.87916564941406 292.2620544433594 73.11998748779297 294.5032958984375 67.82102966308594 C 296.8234252929688 62.33548355102539 297.9998474121094 56.5078010559082 297.9998474121094 50.49989318847656 C 297.9998474121094 44.49203109741211 296.8234252929688 38.66439437866211 294.5032958984375 33.17889404296875 C 292.2620544433594 27.88002967834473 289.0533752441406 23.1209831237793 284.9662780761719 19.03393745422363 C 280.8792419433594 14.9468469619751 276.1201477050781 11.73816585540771 270.8212890625 9.496938705444336 C 265.3358459472656 7.176802158355713 259.5082092285156 6.000392913818359 253.5002899169922 6.000392913818359 L 125.2582397460938 6.000392913818359 L 125.0164260864258 6.000392913818359 L 124.8013305664063 5.889938354492188 C 121.7255172729492 4.310074806213379 118.4655151367188 3.093074798583984 115.1118316650391 2.272711038589478 C 111.6595611572266 1.428165555000305 108.0891952514648 0.9999837875366211 104.4999237060547 0.9999837875366211 C 100.9106521606445 0.9999837875366211 97.34028625488281 1.428165555000305 93.88801574707031 2.272711038589478 C 90.53437805175781 3.093074798583984 87.27437591552734 4.310074806213379 84.19865417480469 5.889893054962158 L 83.98355865478516 6.000392913818359 L 83.74174499511719 6.000392913818359 L 45.50042343139648 6.000392913818359 C 39.49229049682617 6.000392913818359 33.66451644897461 7.176802158355713 28.17887878417969 9.496938705444336 C 22.87992477416992 11.73816585540771 18.12074279785156 14.9468469619751 14.03365230560303 19.03393745422363 C 9.946516036987305 23.1209831237793 6.737788677215576 27.88002967834473 4.496561527252197 33.17889404296875 C 2.176424980163574 38.66439437866211 1.00001585483551 44.49198532104492 1.00001585483551 50.49989318847656 C 1.00001585483551 56.5078010559082 2.176424980163574 62.33548355102539 4.496561527252197 67.82102966308594 C 6.737833976745605 73.12002563476563 9.946561813354492 77.87916564941406 14.03365230560303 81.96634674072266 C 18.12078857421875 86.05352783203125 22.87992477416992 89.26234436035156 28.17887878417969 91.50361633300781 C 33.66451644897461 93.82384490966797 39.49233245849609 95.00030517578125 45.50042343139648 95.00030517578125 L 59.00042343139648 95.00030517578125 L 60.00042343139648 95.00030517578125 L 60.00042343139648 96.00030517578125 L 60.00042343139648 161.4996185302734 L 60.00042343139648 227.0240783691406 L 60.00042343139648 227.9922180175781 L 59.03278732299805 228.0235290527344 C 53.18392562866211 228.2128448486328 47.52992630004883 229.5210266113281 42.22787857055664 231.9117584228516 C 37.09347152709961 234.2268981933594 32.49324417114258 237.4594879150391 28.55496978759766 241.5197143554688 C 24.61119842529297 245.5856628417969 21.51860618591309 250.2887573242188 19.36315155029297 255.4984436035156 C 17.13169860839844 260.8917236328125 16.00028800964355 266.6119384765625 16.00028800964355 272.5002136230469 C 16.00028800964355 278.5081176757813 17.17669677734375 284.3357543945313 19.49683380126953 289.8211975097656 C 21.73806190490723 295.1200866699219 24.94674301147461 299.8791198730469 29.03378868103027 303.9662170410156 C 33.12088012695313 308.0532531738281 37.87992477416992 311.2619323730469 43.17878723144531 313.503173828125 C 48.66424179077148 315.8233032226563 54.49187850952148 316.9997253417969 60.49979019165039 316.9997253417969 L 268.4996948242188 316.9997253417969 M 268.4996948242188 317.9997253417969 L 60.49979019165039 317.9997253417969 C 35.37088012695313 317.9997253417969 15.00028896331787 297.6291198730469 15.00028896331787 272.5002136230469 C 15.00028896331787 247.8728485107422 34.56528854370117 227.81494140625 59.00042343139648 227.0240783691406 L 59.00042343139648 161.4996185302734 L 59.00042343139648 96.00030517578125 L 45.50042343139648 96.00030517578125 C 20.37060737609863 96.00030517578125 1.590243300597649e-05 75.62879943847656 1.590243300597649e-05 50.49989318847656 C 1.590243300597649e-05 25.37102890014648 20.37060737609863 5.000392913818359 45.50042343139648 5.000392913818359 L 83.74174499511719 5.000392913818359 C 89.96583557128906 1.803438305854797 97.02137756347656 -1.622425406822003e-05 104.4999237060547 -1.622425406822003e-05 C 111.9784698486328 -1.622425406822003e-05 119.0340194702148 1.803438305854797 125.2582397460938 5.000392913818359 L 253.5002899169922 5.000392913818359 C 278.6292114257813 5.000392913818359 298.9998474121094 25.37102890014648 298.9998474121094 50.49989318847656 C 298.9998474121094 75.62879943847656 278.6292114257813 96.00030517578125 253.5002899169922 96.00030517578125 L 150.0002899169922 96.00030517578125 L 150.0002899169922 116.0001220703125 L 312.4998474121094 116.0001220703125 C 337.6287536621094 116.0001220703125 358.0001831054688 136.3707122802734 358.0001831054688 161.4996185302734 C 358.0001831054688 186.62939453125 337.6287536621094 206.9999847412109 312.4998474121094 206.9999847412109 L 150.0002899169922 206.9999847412109 L 150.0002899169922 226.9998016357422 L 268.4996948242188 226.9998016357422 C 293.6286010742188 226.9998016357422 314.0001220703125 247.3713073730469 314.0001220703125 272.5002136230469 C 314.0001220703125 297.6291198730469 293.6286010742188 317.9997253417969 268.4996948242188 317.9997253417969 Z" stroke="none" fill="#3f84c1"/>
    </g>
  </g>
</svg>
