<svg xmlns="http://www.w3.org/2000/svg" width="1002.861" height="400" viewBox="0 0 1002.861 400">
  <g id="Group_121" data-name="Group 121" transform="translate(-7519.139 1402)">
    <g id="Group_11" data-name="Group 11" transform="translate(3382.75 -842)">
      <g id="Rectangle_1" data-name="Rectangle 1" transform="translate(4137.25 -560)" fill="#c4e903" stroke="#c4e903" stroke-width="1">
        <rect width="1002" height="400" stroke="none"/>
        <rect x="0.5" y="0.5" width="1001" height="399" fill="none"/>
      </g>
    </g>
    <path id="Path_398" data-name="Path 398" d="M7518-1066.755" transform="translate(3 -78)" fill="none" stroke="#707070" stroke-width="1"/>
    <path id="Path_399" data-name="Path 399" d="M7518-1050.168s1273.309,186.745,940.463-32.955S7518-1050.168,7518-1050.168Z" transform="translate(3 -78)" fill="#840a0a" stroke="#840a0a" stroke-width="1"/>
    <path id="Subtraction_2" data-name="Subtraction 2" d="M790.171,223.007h-.081c-104.906,0-245.339-8.591-417.4-25.522C227.55,183.2,89.909,165.9,0,153.906V100.289c35.781-11.84,72.456-22.953,109.006-33.033,45.256-12.479,90.546-23.429,134.613-32.545C354.96,11.678,459.608,0,554.656,0c18.107,0,36.106.43,53.5,1.277,18.008.878,35.873,2.227,53.1,4.01,17.793,1.842,35.415,4.2,52.377,7.01,17.49,2.9,34.76,6.357,51.331,10.281C782.03,26.62,798.84,31.269,814.919,36.4c16.552,5.277,32.792,11.206,48.27,17.622,15.918,6.6,31.479,13.9,46.253,21.7,15.165,8,29.939,16.764,43.912,26.037a342.731,342.731,0,0,1,31.072,22.94A163.4,163.4,0,0,1,1001,140.564V194.03a71.535,71.535,0,0,1-7.892,4.535,130.371,130.371,0,0,1-20.821,7.921,263.144,263.144,0,0,1-26.719,6.238c-19.045,3.507-42.274,6.151-69.042,7.858C851.269,222.191,822.215,223.007,790.171,223.007Z" transform="translate(7520.5 -1322.508)" fill="#840a0a" stroke="#840a0a" stroke-width="1"/>
    <path id="Path_400" data-name="Path 400" d="M7518-1121.635s531.85,78,392.823-13.765S7518-1121.635,7518-1121.635Z" transform="translate(392 -20.711)" fill="#640d0d" stroke="#840a0a" stroke-width="1"/>
    <path id="Path_401" data-name="Path 401" d="M7518-1150.444s232.965,34.167,172.067-6.03S7518-1150.444,7518-1150.444Z" transform="translate(529.39 2.382)" fill="#ab1a1a" stroke="#ab1a1a" stroke-width="1"/>
    <g id="Rectangle_93" data-name="Rectangle 93" transform="translate(8150 -1345)" fill="#fff" stroke="#fff" stroke-width="1" opacity="0.47">
      <rect width="299" height="91" rx="45.5" stroke="none"/>
      <rect x="0.5" y="0.5" width="298" height="90" rx="45" fill="none"/>
    </g>
    <g id="Subtraction_3" data-name="Subtraction 3" transform="translate(8229 -1274)" fill="#fff" opacity="0.47">
      <path d="M 253.5003051757813 90.49990844726563 L 45.50041961669922 90.49990844726563 C 39.42507553100586 90.49990844726563 33.53173065185547 89.31021881103516 27.9841136932373 86.96387481689453 C 22.62553596496582 84.69744873046875 17.81295967102051 81.4527587890625 13.68007469177246 77.31999206542969 C 9.547228813171387 73.18717956542969 6.302536487579346 68.37467956542969 4.036075115203857 63.01618194580078 C 1.689728856086731 57.46871948242188 0.5000365972518921 51.57556533813477 0.5000365972518921 45.50041198730469 C 0.5000365972518921 39.42506408691406 1.689728856086731 33.53171920776367 4.036075115203857 27.98410415649414 C 6.302498340606689 22.62556648254395 9.547228813171387 17.81298828125 13.68007469177246 13.68006610870361 C 17.81299781799316 9.547181129455566 22.62557411193848 6.302450180053711 27.9841136932373 4.036027431488037 C 33.53173065185547 1.689681172370911 39.42507553100586 0.4999888837337494 45.50041961669922 0.4999888837337494 L 253.5003051757813 0.4999888837337494 C 257.5970764160156 0.4999888837337494 261.6566467285156 1.050450444221497 265.5663146972656 2.136027336120605 C 269.3563842773438 3.188450336456299 272.9988098144531 4.740873336791992 276.3923950195313 6.750142574310303 C 283.0602416992188 10.69802856445313 288.6276550292969 16.32734680175781 292.5004272460938 23.03568267822266 L 292.5004272460938 67.96448516845703 C 288.6277160644531 74.67266845703125 283.0602722167969 80.30191040039063 276.3923950195313 84.24979400634766 C 272.9988708496094 86.25902557373047 269.3564453125 87.81140899658203 265.5663146972656 88.86387634277344 C 261.6566467285156 89.94944763183594 257.5970764160156 90.49990844726563 253.5003051757813 90.49990844726563 Z" stroke="none"/>
      <path d="M 253.5003051757813 89.99990844726563 C 257.5518798828125 89.99990844726563 261.5664672851563 89.45560455322266 265.4325256347656 88.38210296630859 C 269.1802673339844 87.34141540527344 272.7820129394531 85.80637359619141 276.1376647949219 83.81952667236328 C 282.6932983398438 79.93811798095703 288.1734924316406 74.41299438476563 292.0004272460938 67.83013916015625 L 292.0004272460938 23.17003059387207 C 288.1734313964844 16.58702087402344 282.6932373046875 11.06181907653809 276.1376647949219 7.180411815643311 C 272.7819213867188 5.193527221679688 269.18017578125 3.658450365066528 265.4325256347656 2.617796659469604 C 261.5664672851563 1.544296622276306 257.5518798828125 0.999988853931427 253.5003051757813 0.999988853931427 L 45.50041961669922 0.999988853931427 C 39.49234390258789 0.999988853931427 33.66453552246094 2.176411867141724 28.17888259887695 4.496527194976807 C 22.87995910644531 6.737758159637451 18.12080574035645 9.946489334106445 14.03365230560303 14.03364276885986 C 9.946537017822266 18.12079620361328 6.737805843353271 22.87991142272949 4.496574878692627 28.17887306213379 C 2.176459550857544 33.66452789306641 1.000036597251892 39.49233627319336 1.000036597251892 45.50041198730469 C 1.000036597251892 51.50829696655273 2.176459550857544 57.33591079711914 4.496574878692627 62.8214111328125 C 6.737844467163086 68.12030029296875 9.946575164794922 72.87937164306641 14.03365230560303 76.96641540527344 C 18.12076759338379 81.05345153808594 22.87992095947266 84.26214599609375 28.17888259887695 86.50337219238281 C 33.66453552246094 88.823486328125 39.49234390258789 89.99990844726563 45.50041961669922 89.99990844726563 L 253.5003051757813 89.99990844726563 M 253.5003051757813 90.99990844726563 L 45.50041961669922 90.99990844726563 C 39.35772705078125 90.99990844726563 33.39888381958008 89.79691314697266 27.78934478759766 87.42436981201172 C 22.37119102478027 85.13275909423828 17.50518989562988 81.85210418701172 13.32653617858887 77.67353057861328 C 9.147921562194824 73.49494934082031 5.867228984832764 68.6290283203125 3.575575113296509 63.2109489440918 C 1.203036546707153 57.60156631469727 3.65741434507072e-05 51.64287185668945 3.65741434507072e-05 45.50041198730469 C 3.65741434507072e-05 39.35771942138672 1.203036546707153 33.39887237548828 3.575575113296509 27.78933525085449 C 5.867228984832764 22.37114334106445 9.14795970916748 17.50514221191406 13.32653617858887 13.32652759552002 C 17.50518989562988 9.14791202545166 22.37119102478027 5.867181301116943 27.78934478759766 3.575527429580688 C 33.39888381958008 1.202988862991333 39.35772705078125 -1.11295257738675e-05 45.50041961669922 -1.11295257738675e-05 L 253.5003051757813 -1.11295257738675e-05 C 257.6422729492188 -1.11295257738675e-05 261.7468872070313 0.5565658211708069 265.7000732421875 1.654258131980896 C 269.5325317382813 2.718450307846069 273.2156982421875 4.288219451904297 276.6471252441406 6.319911956787109 C 283.4273071289063 10.33429622650146 289.0821533203125 16.06833457946777 293.0004272460938 22.90210342407227 L 293.0004272460938 68.09806823730469 C 289.0820617675781 74.93191528320313 283.4272155761719 80.66571807861328 276.6471252441406 84.68003082275391 C 273.2156982421875 86.71172332763672 269.5325317382813 88.28144836425781 265.7000732421875 89.34564208984375 C 261.7468872070313 90.44333648681641 257.6422729492188 90.99990844726563 253.5003051757813 90.99990844726563 Z" stroke="none" fill="#fff"/>
    </g>
    <g id="Rectangle_94" data-name="Rectangle 94" transform="translate(8014 -1289)" fill="#fff" stroke="#fff" stroke-width="1" opacity="0.47">
      <rect width="299" height="91" rx="45.5" stroke="none"/>
      <rect x="0.5" y="0.5" width="298" height="90" rx="45" fill="none"/>
    </g>
    <g id="Rectangle_95" data-name="Rectangle 95" transform="translate(7873 -1145)" fill="#fff" stroke="#fff" stroke-width="1" opacity="0.47">
      <rect width="299" height="91" rx="45.5" stroke="none"/>
      <rect x="0.5" y="0.5" width="298" height="90" rx="45" fill="none"/>
    </g>
    <g id="Rectangle_96" data-name="Rectangle 96" transform="translate(7673 -1198)" fill="#fff" stroke="#fff" stroke-width="1" opacity="0.47">
      <rect width="299" height="91" rx="45.5" stroke="none"/>
      <rect x="0.5" y="0.5" width="298" height="90" rx="45" fill="none"/>
    </g>
    <g id="Rectangle_97" data-name="Rectangle 97" transform="translate(7707 -1262)" fill="#fff" stroke="#fff" stroke-width="1" opacity="0.47">
      <rect width="299" height="91" rx="45.5" stroke="none"/>
      <rect x="0.5" y="0.5" width="298" height="90" rx="45" fill="none"/>
    </g>
    <g id="Rectangle_98" data-name="Rectangle 98" transform="translate(7564 -1385)" fill="#fff" stroke="#fff" stroke-width="1" opacity="0.47">
      <rect width="299" height="91" rx="45.5" stroke="none"/>
      <rect x="0.5" y="0.5" width="298" height="90" rx="45" fill="none"/>
    </g>
    <g id="Group_11-2" data-name="Group 11" transform="translate(3382.635 -842)" opacity="0.26">
      <g id="Rectangle_1-2" data-name="Rectangle 1" transform="translate(4137.365 -560)" stroke="#000" stroke-width="1">
        <rect width="1002" height="400" stroke="none"/>
        <rect x="0.5" y="0.5" width="1001" height="399" fill="none"/>
      </g>
    </g>
  </g>
</svg>
