<svg xmlns="http://www.w3.org/2000/svg" width="1000" height="400" viewBox="0 0 1000 400">
  <g id="Group_120" data-name="Group 120" transform="translate(-7518 1868)">
    <g id="Group_11" data-name="Group 11" transform="translate(3381 -1308)">
      <g id="Rectangle_1" data-name="Rectangle 1" transform="translate(4137 -560)" fill="#e90303" stroke="#e90303" stroke-width="1">
        <rect width="1000" height="400" stroke="none"/>
        <rect x="0.5" y="0.5" width="999" height="399" fill="none"/>
      </g>
    </g>
    <g id="Group_11-2" data-name="Group 11" transform="translate(3381 -1308)" opacity="0.27">
      <g id="Rectangle_1-2" data-name="Rectangle 1" transform="translate(4137 -560)" stroke="#000" stroke-width="1">
        <rect width="1000" height="400" stroke="none"/>
        <rect x="0.5" y="0.5" width="999" height="399" fill="none"/>
      </g>
    </g>
    <g id="Path_393" data-name="Path 393" transform="translate(7518 -1820)" fill="#c215eb">
      <path d="M 999.5 45.5 L 0.5 45.5 L 0.5 0.5 L 999.5 0.5 L 999.5 45.5 Z" stroke="none"/>
      <path d="M 1 1 L 1 45 L 999 45 L 999 1 L 1 1 M 0 0 L 1000 0 L 1000 46 L 0 46 L 0 0 Z" stroke="none" fill="#c215eb"/>
    </g>
    <g id="Rectangle_84" data-name="Rectangle 84" transform="translate(7518 -1743)" fill="#aa1fb4" stroke="#aa1fb4" stroke-width="1">
      <rect width="1000" height="46" stroke="none"/>
      <rect x="0.5" y="0.5" width="999" height="45" fill="none"/>
    </g>
    <g id="Rectangle_85" data-name="Rectangle 85" transform="translate(7518 -1652)" fill="#dc14fb" stroke="#dc14fb" stroke-width="1">
      <rect width="1000" height="46" stroke="none"/>
      <rect x="0.5" y="0.5" width="999" height="45" fill="none"/>
    </g>
    <g id="Path_394" data-name="Path 394" transform="translate(7518 -1561)" fill="#c215eb">
      <path d="M 999.5 45.5 L 0.5 45.5 L 0.5 0.5 L 999.5 0.5 L 999.5 45.5 Z" stroke="none"/>
      <path d="M 1 1 L 1 45 L 999 45 L 999 1 L 1 1 M 0 0 L 1000 0 L 1000 46 L 0 46 L 0 0 Z" stroke="none" fill="#c215eb"/>
    </g>
    <g id="Group_11-3" data-name="Group 11" transform="translate(2413 -824)">
      <g id="Group_3" data-name="Group 3" transform="translate(206 135)">
        <g id="Group_119" data-name="Group 119" transform="translate(698 -471)">
          <rect id="Rectangle_7" data-name="Rectangle 7" width="261" height="64" rx="32" transform="translate(4306 -531)" fill="#4d0fcc"/>
          <rect id="Rectangle_8" data-name="Rectangle 8" width="151" height="43" rx="21.5" transform="translate(4369 -444)" fill="#4d0fcc"/>
          <rect id="Rectangle_9" data-name="Rectangle 9" width="94" height="33" rx="16.5" transform="translate(4428 -411) rotate(-90)" fill="#4d0fcc"/>
        </g>
      </g>
    </g>
    <g id="Group_11-4" data-name="Group 11" transform="translate(2618 -869)">
      <g id="Group_3-2" data-name="Group 3" transform="translate(10559 -1762) rotate(180)">
        <g id="Group_119-2" data-name="Group 119" transform="translate(698 -471)">
          <rect id="Rectangle_7-2" data-name="Rectangle 7" width="261" height="64" rx="32" transform="translate(4306 -531)" fill="#4d0fcc"/>
          <rect id="Rectangle_8-2" data-name="Rectangle 8" width="151" height="43" rx="21.5" transform="translate(4369 -444)" fill="#4d0fcc"/>
          <rect id="Rectangle_9-2" data-name="Rectangle 9" width="94" height="33" rx="16.5" transform="translate(4428 -411) rotate(-90)" fill="#4d0fcc"/>
        </g>
      </g>
    </g>
    <g id="Union_5" data-name="Union 5" transform="translate(7576 -1834)" fill="#4d0fcc">
      <path d="M 684.50048828125 348.5002136230469 L 476.4996643066406 348.5002136230469 C 470.4244689941406 348.5002136230469 464.5313110351563 347.3104553222656 458.98388671875 344.9639892578125 C 453.6254272460938 342.697509765625 448.8129577636719 339.4528198242188 444.6801147460938 335.3197631835938 C 440.5473022460938 331.1869201660156 437.3025817871094 326.3743286132813 435.0361328125 321.0157470703125 C 432.6897583007813 315.4682312011719 431.5001220703125 309.5750427246094 431.5001220703125 303.4998779296875 C 431.5001220703125 298.2329406738281 432.4013061523438 293.0752868652344 434.178466796875 288.1703491210938 L 434.4212951660156 287.5 L 433.7083435058594 287.5 L 367.4996643066406 287.5 C 361.4244689941406 287.5 355.5313110351563 286.3103332519531 349.98388671875 283.9638671875 C 344.6254272460938 281.697509765625 339.8129577636719 278.4528198242188 335.6802368164063 274.3198852539063 C 331.5474243164063 270.1870422363281 328.3027038574219 265.3744506835938 326.0362548828125 260.015869140625 C 323.6898803710938 254.4683380126953 322.500244140625 248.5750427246094 322.500244140625 242.4996337890625 C 322.500244140625 236.4244537353516 323.6898803710938 230.5312805175781 326.0362548828125 224.9838714599609 C 328.3027038574219 219.6253967285156 331.5474243164063 214.8129272460938 335.6802368164063 210.6800994873047 C 339.8129577636719 206.5472869873047 344.6254272460938 203.3025817871094 349.98388671875 201.0361022949219 C 355.5313110351563 198.6897583007813 361.4244689941406 197.5001068115234 367.4996643066406 197.5001068115234 L 575.4996337890625 197.5001068115234 C 581.5750732421875 197.5001068115234 587.4683837890625 198.6897583007813 593.015869140625 201.0361022949219 C 598.3744506835938 203.3025817871094 603.1870727539063 206.5472869873047 607.3198852539063 210.6800994873047 C 611.4528198242188 214.8129272460938 614.697509765625 219.6253967285156 616.9638671875 224.9838714599609 C 619.3103637695313 230.5312805175781 620.5 236.4244537353516 620.5 242.4996337890625 C 620.5 247.7668151855469 619.5988159179688 252.9246978759766 617.8214111328125 257.8299865722656 L 617.57861328125 258.5003356933594 L 618.29150390625 258.5003356933594 L 684.50048828125 258.5003356933594 C 690.5756225585938 258.5003356933594 696.4688110351563 259.6900024414063 702.0162353515625 262.0363464355469 C 707.3746948242188 264.3028259277344 712.1871948242188 267.5475158691406 716.3200073242188 271.6803283691406 C 720.4528198242188 275.8131713867188 723.697509765625 280.6256408691406 725.9638671875 285.9841003417969 C 728.3103637695313 291.5315246582031 729.5 297.4246826171875 729.5 303.4998779296875 C 729.5 309.5750427246094 728.3103637695313 315.4682312011719 725.9638671875 321.0157470703125 C 723.697509765625 326.3743286132813 720.4528198242188 331.1869201660156 716.3200073242188 335.3197631835938 C 712.1871948242188 339.4526977539063 707.3746948242188 342.697509765625 702.0162353515625 344.9639892578125 C 696.4686889648438 347.3104553222656 690.5756225585938 348.5002136230469 684.50048828125 348.5002136230469 Z M 888.4998779296875 211.5004577636719 L 680.5 211.5004577636719 C 674.4248046875 211.5004577636719 668.5316772460938 210.3106994628906 662.9842529296875 207.9642181396484 C 657.6257934570313 205.69775390625 652.8132934570313 202.4529266357422 648.6804809570313 198.3199920654297 C 644.5476684570313 194.1870422363281 641.3029174804688 189.3744659423828 639.0364990234375 184.0159912109375 C 636.6901245117188 178.4683380126953 635.50048828125 172.5751647949219 635.50048828125 166.4999847412109 C 635.50048828125 161.2330474853516 636.4015502929688 156.0753936767578 638.1787109375 151.1705780029297 L 638.4215087890625 150.5002288818359 L 637.7086181640625 150.5002288818359 L 571.5 150.5002288818359 C 565.4248046875 150.5002288818359 559.5316772460938 149.3104553222656 553.984130859375 146.9639892578125 C 548.6255493164063 144.6975250244141 543.8129272460938 141.4526977539063 539.6799926757813 137.3197479248047 C 535.5470581054688 133.1868133544922 532.3023681640625 128.3742218017578 530.0357666015625 123.015754699707 C 527.6893920898438 117.4681091308594 526.4996337890625 111.5749282836914 526.4996337890625 105.499755859375 C 526.4996337890625 99.42457580566406 527.6893920898438 93.53151702880859 530.0357666015625 87.98398590087891 C 532.3023681640625 82.62563323974609 535.5470581054688 77.81316375732422 539.6799926757813 73.68034362792969 C 543.8129272460938 69.54751586914063 548.6255493164063 66.30281066894531 553.984130859375 64.03633880615234 C 559.5316772460938 61.68999099731445 565.4248046875 60.50034332275391 571.5 60.50034332275391 L 779.5 60.50034332275391 C 785.5751953125 60.50034332275391 791.4683837890625 61.68999099731445 797.015869140625 64.03633880615234 C 802.3744506835938 66.30281066894531 807.1870727539063 69.54751586914063 811.3198852539063 73.68034362792969 C 815.4528198242188 77.81316375732422 818.6976318359375 82.62563323974609 820.964111328125 87.98398590087891 C 823.3106079101563 93.53151702880859 824.5003662109375 99.42457580566406 824.5003662109375 105.499755859375 C 824.5003662109375 110.7666931152344 823.5991821289063 115.9243392944336 821.8218994140625 120.8292846679688 L 821.5790405273438 121.4996337890625 L 822.2919921875 121.4996337890625 L 888.4998779296875 121.4996337890625 C 894.5750732421875 121.4996337890625 900.46826171875 122.6893997192383 906.0157470703125 125.0358734130859 C 911.374267578125 127.3023452758789 916.1868286132813 130.5471649169922 920.3197631835938 134.6800994873047 C 924.4526977539063 138.8130493164063 927.697509765625 143.6256408691406 929.9639892578125 148.9841003417969 C 932.3104858398438 154.5316314697266 933.500244140625 160.4248199462891 933.500244140625 166.4999847412109 C 933.500244140625 172.5751647949219 932.3104858398438 178.4683380126953 929.9639892578125 184.0159912109375 C 927.697509765625 189.3744659423828 924.4526977539063 194.1870422363281 920.3197631835938 198.3199920654297 C 916.1868286132813 202.4529266357422 911.374267578125 205.69775390625 906.0157470703125 207.9642181396484 C 900.46826171875 210.3106994628906 894.5750732421875 211.5004577636719 888.4998779296875 211.5004577636719 Z M 253.5003509521484 90.49987030029297 L 45.50035858154297 90.49987030029297 C 39.42494583129883 90.49987030029297 33.53165054321289 89.31022644042969 27.98412132263184 86.96387481689453 C 22.62553405761719 84.69740295410156 17.81294631958008 81.45269775390625 13.68012237548828 77.31986999511719 C 9.547181129455566 73.18716430664063 6.302474975585938 68.37469482421875 4.036121845245361 63.0162239074707 C 1.689651489257813 57.46881103515625 0.5000044107437134 51.57563781738281 0.5000044107437134 45.50046157836914 C 0.5000044107437134 39.425048828125 1.689651489257813 33.53163528442383 4.036121845245361 27.98410606384277 C 6.302474975585938 22.62551879882813 9.547181129455566 17.81293106079102 13.68012237548828 13.68010711669922 C 17.81294631958008 9.547165870666504 22.62553405761719 6.302459716796875 27.98412132263184 4.036106586456299 C 33.53165054321289 1.68963623046875 39.42494583129883 0.4999891519546509 45.50035858154297 0.4999891519546509 L 253.5003509521484 0.4999891519546509 C 259.5755310058594 0.4999891519546509 265.4687194824219 1.68963623046875 271.01611328125 4.036106586456299 C 276.3746032714844 6.302459716796875 281.1870727539063 9.547165870666504 285.3197631835938 13.68010711669922 C 289.4526062011719 17.81293106079102 292.6972961425781 22.62551879882813 294.9637756347656 27.98410606384277 C 297.3101196289063 33.53175354003906 298.499755859375 39.425048828125 298.499755859375 45.50046157836914 C 298.499755859375 51.57563781738281 297.3101196289063 57.46881103515625 294.9637756347656 63.0162239074707 C 292.6972961425781 68.37469482421875 289.4526062011719 73.18716430664063 285.3197631835938 77.31986999511719 C 281.1870727539063 81.45269775390625 276.3746032714844 84.69740295410156 271.01611328125 86.96387481689453 C 265.4687194824219 89.31022644042969 259.5755310058594 90.49987030029297 253.5003509521484 90.49987030029297 Z" stroke="none"/>
      <path d="M 684.50048828125 348.0002136230469 C 690.5083618164063 348.0002136230469 696.3358764648438 346.8237609863281 701.8214111328125 344.5035095214844 C 707.1202392578125 342.2622375488281 711.8792724609375 339.0534057617188 715.9664916992188 334.9662170410156 C 720.0535278320313 330.8790588378906 723.2622680664063 326.119873046875 725.50341796875 320.8209228515625 C 727.8235473632813 315.3353881835938 729 309.5077514648438 729 303.4998779296875 C 729 297.4920043945313 727.8235473632813 291.6643371582031 725.50341796875 286.1788024902344 C 723.2622680664063 280.8799743652344 720.0535278320313 276.1209411621094 715.9664916992188 272.0338745117188 C 711.87939453125 267.9468078613281 707.120361328125 264.7380981445313 701.8214111328125 262.4969177246094 C 696.3359985351563 260.1766967773438 690.5083618164063 259.0003356933594 684.50048828125 259.0003356933594 L 618.29150390625 259.0003356933594 L 616.8655395507813 259.0003356933594 L 617.351318359375 257.6596374511719 C 619.1088256835938 252.8091583251953 620 247.7085723876953 620 242.4996337890625 C 620 236.4917602539063 618.8235473632813 230.6641082763672 616.50341796875 225.1785736083984 C 614.2622680664063 219.8797607421875 611.0535278320313 215.1206970214844 606.9663696289063 211.0336303710938 C 602.8792724609375 206.9465789794922 598.1201171875 203.7378692626953 592.8211669921875 201.4966888427734 C 587.3355102539063 199.1764526367188 581.5077514648438 198.0001068115234 575.4996337890625 198.0001068115234 L 367.4996643066406 198.0001068115234 C 361.4917602539063 198.0001068115234 355.6641235351563 199.1764526367188 350.1787109375 201.4966888427734 C 344.8798828125 203.7378692626953 340.1208190917969 206.9465789794922 336.0337829589844 211.0336303710938 C 331.9467163085938 215.1206970214844 328.7380065917969 219.8797607421875 326.496826171875 225.1785736083984 C 324.1766052246094 230.6641082763672 323.000244140625 236.4917602539063 323.000244140625 242.4996337890625 C 323.000244140625 248.5077514648438 324.1766052246094 254.3355255126953 326.496826171875 259.8211669921875 C 328.7380065917969 265.1201171875 331.9467163085938 269.8792724609375 336.0337829589844 273.9663391113281 C 340.1208190917969 278.0535278320313 344.8798828125 281.2622375488281 350.1787109375 283.5033874511719 C 355.6641235351563 285.8235168457031 361.4917602539063 287 367.4996643066406 287 L 433.7083435058594 287 L 435.1343688964844 287 L 434.6485900878906 288.3406982421875 C 432.8911743164063 293.1908264160156 432.0001220703125 298.2911682128906 432.0001220703125 303.4998779296875 C 432.0001220703125 309.5077514648438 433.1764831542969 315.3353881835938 435.4967041015625 320.8209228515625 C 437.7378845214844 326.1199951171875 440.9465942382813 330.8790588378906 445.0336608886719 334.9662170410156 C 449.1206970214844 339.0534057617188 453.8797607421875 342.2622375488281 459.1785888671875 344.5035095214844 C 464.6641235351563 346.8237609863281 470.4917602539063 348.0002136230469 476.4996643066406 348.0002136230469 L 684.50048828125 348.0002136230469 M 888.4998779296875 211.0004577636719 C 894.5077514648438 211.0004577636719 900.3353881835938 209.8239898681641 905.8209228515625 207.5037536621094 C 911.119873046875 205.2624664306641 915.8790893554688 202.0536346435547 919.9662475585938 197.9664611816406 C 924.0534057617188 193.8792877197266 927.2622680664063 189.1201019287109 929.5035400390625 183.8211669921875 C 931.8237915039063 178.3355255126953 933.000244140625 172.5078735351563 933.000244140625 166.4999847412109 C 933.000244140625 160.4921112060547 931.8237915039063 154.6644592285156 929.5035400390625 149.1789245605469 C 927.2622680664063 143.8799896240234 924.0534057617188 139.1208190917969 919.9662475585938 135.0336303710938 C 915.8790893554688 130.9464569091797 911.119873046875 127.7376327514648 905.8209228515625 125.4963455200195 C 900.3353881835938 123.1761093139648 894.5077514648438 121.9996337890625 888.4998779296875 121.9996337890625 L 822.2919921875 121.9996337890625 L 820.8660278320313 121.9996337890625 L 821.3517456054688 120.6589279174805 C 823.1093139648438 115.8088150024414 824.0003662109375 110.7084579467773 824.0003662109375 105.499755859375 C 824.0003662109375 99.49187469482422 822.8239135742188 93.66434478759766 820.503662109375 88.17881011962891 C 818.2623291015625 82.87998962402344 815.0535278320313 78.12093353271484 810.9663696289063 74.03387451171875 C 806.879150390625 69.94681549072266 802.1199951171875 66.73810577392578 796.821044921875 64.49693298339844 C 791.3355102539063 62.17669677734375 785.5078735351563 61.00034332275391 779.5 61.00034332275391 L 571.5 61.00034332275391 C 565.4921264648438 61.00034332275391 559.6643676757813 62.17669677734375 554.1788330078125 64.49693298339844 C 548.8798828125 66.73810577392578 544.1207275390625 69.94681549072266 540.0335083007813 74.03387451171875 C 535.9463500976563 78.12093353271484 532.7376708984375 82.87998962402344 530.496337890625 88.17881011962891 C 528.1761474609375 93.66434478759766 526.9996337890625 99.49187469482422 526.9996337890625 105.499755859375 C 526.9996337890625 111.5076370239258 528.1761474609375 117.3352813720703 530.496337890625 122.820930480957 C 532.7376708984375 128.119873046875 535.9463500976563 132.8790435791016 540.0335083007813 136.9662170410156 C 544.1207275390625 141.0534057617188 548.8798828125 144.2622222900391 554.1788330078125 146.5035247802734 C 559.6644897460938 148.8237609863281 565.4921264648438 150.0002288818359 571.5 150.0002288818359 L 637.7086181640625 150.0002288818359 L 639.1344604492188 150.0002288818359 L 638.6488037109375 151.3409271240234 C 636.8915405273438 156.1910552978516 636.00048828125 161.2912902832031 636.00048828125 166.4999847412109 C 636.00048828125 172.5078735351563 637.1768188476563 178.3356323242188 639.4970703125 183.8211669921875 C 641.7382202148438 189.1201019287109 644.9469604492188 193.8792877197266 649.0339965820313 197.9664611816406 C 653.12109375 202.0536346435547 657.880126953125 205.2624664306641 663.178955078125 207.5037536621094 C 668.6644897460938 209.8239898681641 674.4921264648438 211.0004577636719 680.5 211.0004577636719 L 888.4998779296875 211.0004577636719 M 253.5003509521484 89.99987030029297 C 259.5082397460938 89.99987030029297 265.3358764648438 88.82351684570313 270.8212890625 86.50328063964844 C 276.1201171875 84.26210784912109 280.8791809082031 81.05339813232422 284.9662475585938 76.96633911132813 C 289.0532836914063 72.87928009033203 292.2619934082031 68.12022399902344 294.503173828125 62.8213996887207 C 296.8234252929688 57.33599090576172 297.999755859375 51.50834274291992 297.999755859375 45.50046157836914 C 297.999755859375 39.49234390258789 296.8234252929688 33.66445922851563 294.503173828125 28.17893028259277 C 292.2619934082031 22.8798713684082 289.0532836914063 18.12069511413574 284.9662475585938 14.03363609313965 C 280.8791809082031 9.946459770202637 276.1201171875 6.737753868103027 270.8212890625 4.496577262878418 C 265.3358764648438 2.176459789276123 259.5082397460938 0.9999891519546509 253.5003509521484 0.9999891519546509 L 45.50035858154297 0.9999891519546509 C 39.49224090576172 0.9999891519546509 33.66447448730469 2.176459789276123 28.1788272857666 4.496577262878418 C 22.87988662719727 6.737753868103027 18.1207103729248 9.946459770202637 14.03365135192871 14.03363609313965 C 9.946475028991699 18.12069511413574 6.73776912689209 22.8798713684082 4.49659252166748 28.17893028259277 C 2.176475048065186 33.66445922851563 1.000004410743713 39.49234390258789 1.000004410743713 45.50046157836914 C 1.000004410743713 51.50834274291992 2.176475048065186 57.33599090576172 4.49659252166748 62.8213996887207 C 6.73776912689209 68.12022399902344 9.946475028991699 72.87928009033203 14.03365135192871 76.96633911132813 C 18.1207103729248 81.05339813232422 22.87988662719727 84.26210784912109 28.1788272857666 86.50328063964844 C 33.66447448730469 88.82351684570313 39.49224090576172 89.99987030029297 45.50035858154297 89.99987030029297 L 253.5003509521484 89.99987030029297 M 684.50048828125 349.0002136230469 L 476.4996643066406 349.0002136230469 C 451.3706970214844 349.0002136230469 431.0001220703125 328.6286926269531 431.0001220703125 303.4998779296875 C 431.0001220703125 298.0565795898438 431.9554138183594 292.8379821777344 433.7083435058594 288 L 367.4996643066406 288 C 342.3708190917969 288 322.000244140625 267.62939453125 322.000244140625 242.4996337890625 C 322.000244140625 217.3706970214844 342.3708190917969 197.0001068115234 367.4996643066406 197.0001068115234 L 575.4996337890625 197.0001068115234 C 600.62939453125 197.0001068115234 621 217.3706970214844 621 242.4996337890625 C 621 247.9430541992188 620.0446166992188 253.162109375 618.29150390625 258.0003356933594 L 684.50048828125 258.0003356933594 C 709.6292724609375 258.0003356933594 730 278.3709411621094 730 303.4998779296875 C 730 328.6286926269531 709.6292724609375 349.0002136230469 684.50048828125 349.0002136230469 Z M 888.4998779296875 212.0004577636719 L 680.5 212.0004577636719 C 655.37109375 212.0004577636719 635.00048828125 191.6289367675781 635.00048828125 166.4999847412109 C 635.00048828125 161.0567016601563 635.9556274414063 155.8383483886719 637.7086181640625 151.0002288818359 L 571.5 151.0002288818359 C 546.37109375 151.0002288818359 525.9996337890625 130.6286926269531 525.9996337890625 105.499755859375 C 525.9996337890625 80.37093353271484 546.37109375 60.00034332275391 571.5 60.00034332275391 L 779.5 60.00034332275391 C 804.6288452148438 60.00034332275391 825.0003662109375 80.37093353271484 825.0003662109375 105.499755859375 C 825.0003662109375 110.9430465698242 824.0450439453125 116.1615219116211 822.2919921875 120.9996337890625 L 888.4998779296875 120.9996337890625 C 913.6287231445313 120.9996337890625 934.000244140625 141.3711700439453 934.000244140625 166.4999847412109 C 934.000244140625 191.6289367675781 913.6287231445313 212.0004577636719 888.4998779296875 212.0004577636719 Z M 253.5003509521484 90.99987030029297 L 45.50035858154297 90.99987030029297 C 20.37059211730957 90.99987030029297 4.423253813001793e-06 70.62928009033203 4.423253813001793e-06 45.50046157836914 C 4.423253813001793e-06 20.37057685852051 20.37059211730957 -1.083553524949821e-05 45.50035858154297 -1.083553524949821e-05 L 253.5003509521484 -1.083553524949821e-05 C 278.6291809082031 -1.083553524949821e-05 298.999755859375 20.37057685852051 298.999755859375 45.50046157836914 C 298.999755859375 70.62928009033203 278.6291809082031 90.99987030029297 253.5003509521484 90.99987030029297 Z" stroke="none" fill="#4d0fcc"/>
    </g>
  </g>
</svg>
