<svg xmlns="http://www.w3.org/2000/svg" xmlns:xlink="http://www.w3.org/1999/xlink" width="613.447" height="402.134" viewBox="0 0 613.447 402.134">
  <defs>
    <filter id="Path_27" x="144.847" y="38.39" width="363.744" height="326.55" filterUnits="userSpaceOnUse">
      <feOffset dx="20" dy="20" input="SourceAlpha"/>
      <feGaussianBlur stdDeviation="10" result="blur"/>
      <feFlood flood-opacity="0"/>
      <feComposite operator="in" in2="blur"/>
      <feComposite in="SourceGraphic"/>
    </filter>
    <filter id="Path_7" x="132.449" y="25.992" width="388.539" height="351.346" filterUnits="userSpaceOnUse">
      <feOffset dx="20" dy="20" input="SourceAlpha"/>
      <feGaussianBlur stdDeviation="10" result="blur-2"/>
      <feFlood flood-opacity="0"/>
      <feComposite operator="in" in2="blur-2"/>
      <feComposite in="SourceGraphic"/>
    </filter>
    <filter id="Path_8" x="120.052" y="13.595" width="413.335" height="376.141" filterUnits="userSpaceOnUse">
      <feOffset dx="20" dy="20" input="SourceAlpha"/>
      <feGaussianBlur stdDeviation="10" result="blur-3"/>
      <feFlood flood-opacity="0"/>
      <feComposite operator="in" in2="blur-3"/>
      <feComposite in="SourceGraphic"/>
    </filter>
    <filter id="Path_9" x="107.654" y="1.197" width="438.13" height="400.937" filterUnits="userSpaceOnUse">
      <feOffset dx="20" dy="20" input="SourceAlpha"/>
      <feGaussianBlur stdDeviation="10" result="blur-4"/>
      <feFlood flood-opacity="0"/>
      <feComposite operator="in" in2="blur-4"/>
      <feComposite in="SourceGraphic"/>
    </filter>
    <filter id="Path_29" x="144.847" y="38.39" width="363.744" height="326.55" filterUnits="userSpaceOnUse">
      <feOffset dx="20" dy="20" input="SourceAlpha"/>
      <feGaussianBlur stdDeviation="10" result="blur-5"/>
      <feFlood flood-opacity="0"/>
      <feComposite operator="in" in2="blur-5"/>
      <feComposite in="SourceGraphic"/>
    </filter>
    <clipPath id="clip-path">
      <g transform="matrix(1, 0, 0, 1, 0, 0)" filter="url(#Path_27)">
        <path id="Path_27-2" data-name="Path 27" d="M151.872,0c83.877,0,151.872,59.669,151.872,133.275s-68,133.275-151.872,133.275S0,206.881,0,133.275,68,0,151.872,0Z" fill="#6200e3" stroke="rgba(112,112,112,0)" stroke-width="1"/>
      </g>
    </clipPath>
  </defs>
  <g id="Group_75" data-name="Group 75" transform="translate(-596.276 -261.783)">
    <g id="Group_33" data-name="Group 33" transform="translate(713.93 272.98)">
      <g transform="matrix(1, 0, 0, 1, -117.65, -11.2)" filter="url(#Path_7)">
        <g id="Path_7-2" data-name="Path 7" transform="translate(142.45 35.99)" opacity="0.1">
          <path d="M164.27,0c90.724,0,164.27,65.22,164.27,145.673S254.993,291.346,164.27,291.346,0,226.126,0,145.673,73.546,0,164.27,0Z" stroke="none"/>
          <path d="M 164.2696228027344 1 C 153.1838684082031 1 142.1054534912109 1.990325927734375 131.3421173095703 3.943511962890625 C 120.8537445068359 5.84674072265625 110.5374145507813 8.686553955078125 100.6796569824219 12.38400268554688 C 91.00238037109375 16.0137939453125 81.66899108886719 20.50619506835938 72.93882751464844 25.73651123046875 C 64.29348754882813 30.91595458984375 56.16424560546875 36.86378479003906 48.77694702148438 43.414794921875 C 41.39178466796875 49.96391296386719 34.68740844726563 57.16963195800781 28.85012817382813 64.83183288574219 C 22.95883178710938 72.56491088867188 17.899169921875 80.83116149902344 13.81170654296875 89.40095520019531 C 9.64990234375 98.12666320800781 6.45367431640625 107.2574157714844 4.311737060546875 116.5396270751953 C 2.1142578125 126.0629119873047 1 135.8647918701172 1 145.6729583740234 C 1 155.4811248779297 2.1142578125 165.2829895019531 4.311737060546875 174.8062896728516 C 6.45367431640625 184.0885009765625 9.64990234375 193.2192535400391 13.81170654296875 201.9449615478516 C 17.899169921875 210.5147399902344 22.95883178710938 218.781005859375 28.85012817382813 226.5140838623047 C 34.68740844726563 234.1763000488281 41.39178466796875 241.3820037841797 48.77694702148438 247.9311218261719 C 56.16424560546875 254.4821166992188 64.29348754882813 260.4299621582031 72.93882751464844 265.6094055175781 C 81.66899108886719 270.8397216796875 91.00238037109375 275.3321228027344 100.6796569824219 278.9619140625 C 110.5374145507813 282.6593627929688 120.8537445068359 285.4991760253906 131.3421173095703 287.4024047851563 C 142.1054534912109 289.3555908203125 153.1838684082031 290.3459167480469 164.2696228027344 290.3459167480469 C 175.3553771972656 290.3459167480469 186.4337921142578 289.3555908203125 197.1971282958984 287.4024047851563 C 207.6854553222656 285.4991760253906 218.0018310546875 282.6593627929688 227.8595886230469 278.9619140625 C 237.536865234375 275.3321228027344 246.8702087402344 270.8397216796875 255.6003723144531 265.6094055175781 C 264.2457580566406 260.4299621582031 272.375 254.4821166992188 279.7622985839844 247.9311218261719 C 287.1474609375 241.3820037841797 293.8517761230469 234.1763000488281 299.6891174316406 226.5140838623047 C 305.5804138183594 218.781005859375 310.6400756835938 210.5147399902344 314.7275390625 201.9449615478516 C 318.8893432617188 193.2192535400391 322.0855712890625 184.0885009765625 324.2275085449219 174.8062896728516 C 326.4249877929688 165.2829895019531 327.5392456054688 155.4811248779297 327.5392456054688 145.6729583740234 C 327.5392456054688 135.8647918701172 326.4249877929688 126.0629119873047 324.2275085449219 116.5396270751953 C 322.0855712890625 107.2574157714844 318.8893432617188 98.12666320800781 314.7275390625 89.40095520019531 C 310.6400756835938 80.83116149902344 305.5804138183594 72.56491088867188 299.6891174316406 64.83183288574219 C 293.8517761230469 57.16963195800781 287.1474609375 49.96391296386719 279.7622985839844 43.414794921875 C 272.375 36.86378479003906 264.2457580566406 30.91595458984375 255.6003723144531 25.73651123046875 C 246.8702087402344 20.50619506835938 237.536865234375 16.0137939453125 227.8595886230469 12.38400268554688 C 218.0018310546875 8.686553955078125 207.6854553222656 5.84674072265625 197.1971282958984 3.943511962890625 C 186.4337921142578 1.990325927734375 175.3553771972656 1 164.2696228027344 1 M 164.2696228027344 0 C 254.9932098388672 0 328.5392456054688 65.22000122070313 328.5392456054688 145.6729583740234 C 328.5392456054688 226.1259155273438 254.9932098388672 291.3459167480469 164.2696228027344 291.3459167480469 C 73.54600524902344 291.3459167480469 0 226.1259155273438 0 145.6729583740234 C 0 65.22000122070313 73.54600524902344 0 164.2696228027344 0 Z" stroke="none" fill="rgba(112,112,112,0)"/>
        </g>
      </g>
      <g transform="matrix(1, 0, 0, 1, -117.65, -11.2)" filter="url(#Path_8)">
        <g id="Path_8-2" data-name="Path 8" transform="translate(130.05 23.59)" fill="rgba(0,0,0,0.33)" opacity="0.1">
          <path d="M176.667,0c97.571,0,176.667,70.771,176.667,158.071s-79.1,158.071-176.667,158.071S0,245.371,0,158.071,79.1,0,176.667,0Z" stroke="none"/>
          <path d="M 176.6673126220703 0.999969482421875 C 164.7409057617188 0.999969482421875 152.8223571777344 2.074981689453125 141.2427673339844 4.195068359375 C 129.9588623046875 6.261016845703125 118.8599548339844 9.3436279296875 108.2543640136719 13.35720825195313 C 97.84268188476563 17.29742431640625 87.80099487304688 22.17410278320313 78.40823364257813 27.85174560546875 C 69.10641479492188 33.47442626953125 60.35980224609375 39.93133544921875 52.41143798828125 47.04302978515625 C 44.46502685546875 54.15298461914063 37.25112915039063 61.97589111328125 30.97003173828125 70.29443359375 C 24.63058471679688 78.69029235839844 19.18594360351563 87.66520690917969 14.78744506835938 96.96980285644531 C 10.30877685546875 106.4440307617188 6.86907958984375 116.3581695556641 4.5640869140625 126.4368438720703 C 2.199127197265625 136.7775268554688 1 147.4206695556641 1 158.0706634521484 C 1 168.7206573486328 2.199127197265625 179.3638000488281 4.5640869140625 189.7044830322266 C 6.86907958984375 199.7831115722656 10.30877685546875 209.697265625 14.78744506835938 219.1715240478516 C 19.18594360351563 228.47607421875 24.63058471679688 237.4509887695313 30.97003173828125 245.8468933105469 C 37.25112915039063 254.1654357910156 44.46502685546875 261.9883117675781 52.41143798828125 269.0982666015625 C 60.35980224609375 276.2099304199219 69.10641479492188 282.6668395996094 78.40823364257813 288.2895202636719 C 87.80099487304688 293.9672241210938 97.84268188476563 298.8438415527344 108.2543640136719 302.7840576171875 C 118.8599548339844 306.7976684570313 129.9588623046875 309.8802490234375 141.2427673339844 311.9461975097656 C 152.8223571777344 314.0663146972656 164.7409057617188 315.1412963867188 176.6673126220703 315.1412963867188 C 188.5937194824219 315.1412963867188 200.5122680664063 314.0663146972656 212.0918121337891 311.9461975097656 C 223.3757629394531 309.8802490234375 234.4746704101563 306.7976684570313 245.0802612304688 302.7840576171875 C 255.4919128417969 298.8438415527344 265.5335693359375 293.9672241210938 274.9263610839844 288.2895202636719 C 284.2281799316406 282.6668395996094 292.9747619628906 276.2099304199219 300.9231872558594 269.0982666015625 C 308.8695983886719 261.9883117675781 316.08349609375 254.1654357910156 322.3645935058594 245.8468933105469 C 328.7040405273438 237.4509887695313 334.1486206054688 228.47607421875 338.5471801757813 219.1715240478516 C 343.0258483886719 209.697265625 346.4655456542969 199.7831115722656 348.7705383300781 189.7044830322266 C 351.135498046875 179.3638000488281 352.3346252441406 168.7206573486328 352.3346252441406 158.0706634521484 C 352.3346252441406 147.4206695556641 351.135498046875 136.7775268554688 348.7705383300781 126.4368438720703 C 346.4655456542969 116.3581695556641 343.0258483886719 106.4440307617188 338.5471801757813 96.96980285644531 C 334.1486206054688 87.66520690917969 328.7040405273438 78.69029235839844 322.3645935058594 70.29443359375 C 316.08349609375 61.97589111328125 308.8695983886719 54.15298461914063 300.9231872558594 47.04302978515625 C 292.9747619628906 39.93133544921875 284.2281799316406 33.47442626953125 274.9263610839844 27.85174560546875 C 265.5335693359375 22.17410278320313 255.4919128417969 17.29742431640625 245.0802612304688 13.35720825195313 C 234.4746704101563 9.3436279296875 223.3757629394531 6.261016845703125 212.0918121337891 4.195068359375 C 200.5122680664063 2.074981689453125 188.5937194824219 0.999969482421875 176.6673126220703 0.999969482421875 M 176.6673126220703 -3.0517578125e-05 C 274.2379455566406 -3.0517578125e-05 353.3346252441406 70.77061462402344 353.3346252441406 158.0706634521484 C 353.3346252441406 245.3706665039063 274.2379455566406 316.1412963867188 176.6673126220703 316.1412963867188 C 79.09661865234375 316.1412963867188 0 245.3706665039063 0 158.0706634521484 C 0 70.77061462402344 79.09661865234375 -3.0517578125e-05 176.6673126220703 -3.0517578125e-05 Z" stroke="none" fill="rgba(112,112,112,0)"/>
        </g>
      </g>
      <g transform="matrix(1, 0, 0, 1, -117.65, -11.2)" filter="url(#Path_9)">
        <g id="Path_9-2" data-name="Path 9" transform="translate(117.65 11.2)" fill="rgba(0,0,0,0.33)" opacity="0.1">
          <path d="M189.065,0C293.483,0,378.13,76.321,378.13,170.468S293.483,340.937,189.065,340.937,0,264.615,0,170.468,84.647,0,189.065,0Z" stroke="none"/>
          <path d="M 189.0650177001953 1 C 176.2979125976563 1 163.5391693115234 2.15966796875 151.1432647705078 4.44671630859375 C 139.063720703125 6.6754150390625 127.1822204589844 10.0008544921875 115.8287048339844 14.33059692382813 C 104.6826782226563 18.581298828125 93.9326171875 23.84225463867188 83.87722778320313 29.96734619140625 C 73.91891479492188 36.03329467773438 64.55496215820313 42.999267578125 56.0455322265625 50.67169189453125 C 47.53790283203125 58.34249877929688 39.81442260742188 66.7825927734375 33.08963012695313 75.75750732421875 C 26.30206298828125 84.81625366210938 20.47250366210938 94.499755859375 15.76303100585938 104.5391082763672 C 10.96746826171875 114.7618103027344 7.284454345703125 125.4593048095703 4.816375732421875 136.3343505859375 C 2.284027099609375 147.4923095703125 1.000030517578125 158.9766540527344 1.000030517578125 170.4683532714844 C 1.000030517578125 181.9600524902344 2.284027099609375 193.4443969726563 4.816375732421875 204.6023559570313 C 7.284454345703125 215.4774017333984 10.96746826171875 226.1748962402344 15.76303100585938 236.3976135253906 C 20.47250366210938 246.4369506835938 26.30206298828125 256.1204528808594 33.08963012695313 265.17919921875 C 39.81442260742188 274.1541137695313 47.53790283203125 282.5942077636719 56.0455322265625 290.2650146484375 C 64.55496215820313 297.9374389648438 73.91891479492188 304.9034118652344 83.87722778320313 310.9693603515625 C 93.9326171875 317.0944519042969 104.6826782226563 322.3554077148438 115.8287048339844 326.6061096191406 C 127.1822204589844 330.9358520507813 139.063720703125 334.2612915039063 151.1432647705078 336.489990234375 C 163.5391693115234 338.7770385742188 176.2979125976563 339.9367065429688 189.0650177001953 339.9367065429688 C 201.8321228027344 339.9367065429688 214.5908660888672 338.7770385742188 226.9867706298828 336.489990234375 C 239.0663146972656 334.2612915039063 250.9478149414063 330.9358520507813 262.3013305664063 326.6061096191406 C 273.4473571777344 322.3554077148438 284.1974182128906 317.0944519042969 294.2528076171875 310.9693603515625 C 304.2111206054688 304.9034118652344 313.5750732421875 297.9374389648438 322.0845336914063 290.2650146484375 C 330.5921020507813 282.5942077636719 338.3156127929688 274.1541137695313 345.0404052734375 265.17919921875 C 351.8279724121094 256.1204528808594 357.6575317382813 246.4369506835938 362.3670043945313 236.3976135253906 C 367.1625671386719 226.1748962402344 370.8455810546875 215.4774017333984 373.3136596679688 204.6023559570313 C 375.8460083007813 193.4443969726563 377.1300048828125 181.9600524902344 377.1300048828125 170.4683532714844 C 377.1300048828125 158.9766540527344 375.8460083007813 147.4923095703125 373.3136596679688 136.3343505859375 C 370.8455810546875 125.4593048095703 367.1625671386719 114.7618103027344 362.3670043945313 104.5391082763672 C 357.6575317382813 94.499755859375 351.8279724121094 84.81625366210938 345.0404052734375 75.75750732421875 C 338.3156127929688 66.7825927734375 330.5921020507813 58.34249877929688 322.0845336914063 50.67169189453125 C 313.5750732421875 42.999267578125 304.2111206054688 36.03329467773438 294.2528076171875 29.96734619140625 C 284.1974182128906 23.84225463867188 273.4473571777344 18.581298828125 262.3013305664063 14.33059692382813 C 250.9478149414063 10.0008544921875 239.0663146972656 6.6754150390625 226.9867706298828 4.44671630859375 C 214.5908660888672 2.15966796875 201.8321228027344 1 189.0650177001953 1 M 189.0650177001953 0 C 293.4827270507813 0 378.1300048828125 76.3212890625 378.1300048828125 170.4683532714844 C 378.1300048828125 264.6154174804688 293.4827270507813 340.9367065429688 189.0650177001953 340.9367065429688 C 84.64730834960938 340.9367065429688 3.0517578125e-05 264.6154174804688 3.0517578125e-05 170.4683532714844 C 3.0517578125e-05 76.3212890625 84.64730834960938 0 189.0650177001953 0 Z" stroke="none" fill="rgba(112,112,112,0)"/>
        </g>
      </g>
    </g>
    <g id="Group_34" data-name="Group 34" transform="translate(751.124 310.173)">
      <g transform="matrix(1, 0, 0, 1, -154.85, -48.39)" filter="url(#Path_29)">
        <g id="Path_29-2" data-name="Path 29" transform="translate(154.85 48.39)" fill="#6200e3">
          <path d="M151.872,0c83.877,0,151.872,59.669,151.872,133.275s-68,133.275-151.872,133.275S0,206.881,0,133.275,68,0,151.872,0Z" stroke="none"/>
          <path d="M 151.8719024658203 0.999969482421875 C 141.626708984375 0.999969482421875 131.3883209228516 1.905670166015625 121.4411773681641 3.69189453125 C 111.7483215332031 5.4324951171875 102.2144775390625 8.029510498046875 93.10447692871094 11.41090393066406 C 84.16151428222656 14.73028564453125 75.53643798828125 18.83851623535156 67.46882629394531 23.62149047851563 C 59.47993469238281 28.35783386230469 51.96806335449219 33.79667663574219 45.14181518554688 39.78701782226563 C 38.31793212890625 45.77532958984375 32.12319946289063 52.36395263671875 26.72970581054688 59.36979675292969 C 21.28662109375 66.4400634765625 16.61203002929688 73.9976806640625 12.83566284179688 81.83267211914063 C 8.990814208984375 89.80979919433594 6.038055419921875 98.1571044921875 4.059356689453125 106.6427154541016 C 2.029296875 115.3485565185547 0.999969482421875 124.3090209960938 0.999969482421875 133.2752532958984 C 0.999969482421875 142.2414855957031 2.029296875 151.2019348144531 4.059356689453125 159.9077911376953 C 6.038055419921875 168.3934478759766 8.990814208984375 176.7407531738281 12.83566284179688 184.7178344726563 C 16.61203002929688 192.5528717041016 21.28662109375 200.1104431152344 26.72970581054688 207.1807098388672 C 32.12319946289063 214.1865539550781 38.31793212890625 220.7751770019531 45.14181518554688 226.7634429931641 C 51.96806335449219 232.7538299560547 59.47993469238281 238.1926727294922 67.46882629394531 242.9289855957031 C 75.53643798828125 247.7119445800781 84.16151428222656 251.8201751708984 93.10447692871094 255.1395568847656 C 102.2144775390625 258.5209350585938 111.748291015625 261.1179809570313 121.4411773681641 262.8585510253906 C 131.3883209228516 264.6448059082031 141.626708984375 265.5504760742188 151.8719024658203 265.5504760742188 C 162.1170959472656 265.5504760742188 172.3554840087891 264.6448059082031 182.3026428222656 262.8585510253906 C 191.9954833984375 261.1179809570313 201.5293273925781 258.5209350585938 210.6393280029297 255.1395568847656 C 219.5822906494141 251.8201751708984 228.2073669433594 247.7119445800781 236.2749328613281 242.9289855957031 C 244.2638549804688 238.1926727294922 251.7757568359375 232.7538299560547 258.6019287109375 226.7634429931641 C 265.4258422851563 220.7751770019531 271.6205444335938 214.1865539550781 277.0140686035156 207.1807098388672 C 282.4571228027344 200.1104431152344 287.1317749023438 192.5528717041016 290.9081420898438 184.7178344726563 C 294.7529296875 176.7407531738281 297.7057189941406 168.3934478759766 299.6843872070313 159.9077911376953 C 301.7144775390625 151.2019348144531 302.7437744140625 142.2414855957031 302.7437744140625 133.2752532958984 C 302.7437744140625 124.3090209960938 301.7144775390625 115.3485565185547 299.6843872070313 106.6427154541016 C 297.7057189941406 98.1571044921875 294.7529296875 89.80979919433594 290.9081420898438 81.83267211914063 C 287.1317749023438 73.9976806640625 282.4571228027344 66.4400634765625 277.0140686035156 59.36979675292969 C 271.6205444335938 52.36395263671875 265.4258422851563 45.77532958984375 258.6019287109375 39.78701782226563 C 251.7757568359375 33.79667663574219 244.2638549804688 28.35783386230469 236.2749328613281 23.62149047851563 C 228.2073669433594 18.83851623535156 219.5822906494141 14.73028564453125 210.6393280029297 11.41090393066406 C 201.5293273925781 8.029510498046875 191.9954833984375 5.4324951171875 182.3026428222656 3.69189453125 C 172.3554840087891 1.905670166015625 162.1170959472656 0.999969482421875 151.8719024658203 0.999969482421875 M 151.8719024658203 -3.0517578125e-05 C 235.7484436035156 -3.0517578125e-05 303.7437744140625 59.66937255859375 303.7437744140625 133.2752532958984 C 303.7437744140625 206.8811798095703 235.7484436035156 266.5504760742188 151.8719024658203 266.5504760742188 C 67.995361328125 266.5504760742188 -3.0517578125e-05 206.8811798095703 -3.0517578125e-05 133.2752532958984 C -3.0517578125e-05 59.66937255859375 67.995361328125 -3.0517578125e-05 151.8719024658203 -3.0517578125e-05 Z" stroke="none" fill="rgba(112,112,112,0)"/>
        </g>
      </g>
      <g id="Mask_Group_13" data-name="Mask Group 13" transform="translate(0 0)" clip-path="url(#clip-path)">
        <line id="Line_6" data-name="Line 6" transform="translate(-3.099 102.281)" fill="none" stroke="#707070" stroke-width="1"/>
        <path id="Path_28" data-name="Path 28" d="M7548.08-950.067" transform="translate(-7553.782 1067.429)" fill="none" stroke="#707070" stroke-width="1"/>
        <g id="Rectangle_5" data-name="Rectangle 5" transform="matrix(0.899, -0.438, 0.438, 0.899, -27.362, 116.084)" fill="#73d220" stroke="rgba(112,112,112,0)" stroke-width="1">
          <rect width="278.948" height="37.193" stroke="none"/>
          <rect x="0.5" y="0.5" width="277.948" height="36.193" fill="none"/>
        </g>
        <g id="Rectangle_6" data-name="Rectangle 6" transform="matrix(0.899, -0.438, 0.438, 0.899, -14.964, 177.702)" fill="#73d220" stroke="rgba(112,112,112,0)" stroke-width="1">
          <rect width="345.818" height="24.863" stroke="none"/>
          <rect x="0.5" y="0.5" width="344.818" height="23.863" fill="none"/>
        </g>
        <g id="Rectangle_7" data-name="Rectangle 7" transform="matrix(0.899, -0.438, 0.438, 0.899, -5.702, 197.9)" fill="#75aa19" stroke="rgba(112,112,112,0)" stroke-width="1">
          <rect width="345.818" height="24.863" stroke="none"/>
          <rect x="0.5" y="0.5" width="344.818" height="23.863" fill="none"/>
        </g>
        <g id="Rectangle_8" data-name="Rectangle 8" transform="matrix(0.899, -0.438, 0.438, 0.899, 12.894, 235.093)" fill="#73d220" stroke="rgba(112,112,112,0)" stroke-width="1">
          <rect width="345.818" height="24.863" stroke="none"/>
          <rect x="0.5" y="0.5" width="344.818" height="23.863" fill="none"/>
        </g>
        <g id="Rectangle_9" data-name="Rectangle 9" transform="matrix(0.899, -0.438, 0.438, 0.899, 37.69, 268.959)" fill="#75aa19" stroke="rgba(117,170,25,0)" stroke-width="1">
          <rect width="345.818" height="24.863" stroke="none"/>
          <rect x="0.5" y="0.5" width="344.818" height="23.863" fill="none"/>
        </g>
        <g id="Rectangle_10" data-name="Rectangle 10" transform="matrix(0.899, -0.438, 0.438, 0.899, 112.63, 287.894)" fill="#75aa19" stroke="rgba(112,112,112,0)" stroke-width="1">
          <rect width="252.835" height="24.863" stroke="none"/>
          <rect x="0.5" y="0.5" width="251.835" height="23.863" fill="none"/>
        </g>
      </g>
    </g>
    <path id="Path_62" data-name="Path 62" d="M7613.316-823.6c341.509-145.449,252.644-112.375,252.644-112.375v23.825l-229.3,104.922Z" transform="translate(-6810.649 1365.868)" fill="#3a2eb7" stroke="rgba(0,0,0,0)" stroke-width="1"/>
    <g id="Path_61" data-name="Path 61" transform="matrix(0.914, -0.407, 0.407, 0.914, 596.276, 508.871)" fill="#3a2eb7">
      <path d="M303.741,143.777c-81.132,0-157.407-7.478-214.776-21.056-27.9-6.6-49.8-14.291-65.1-22.851C8.031,91.006,0,81.591,0,71.886S8.031,52.767,23.87,43.9c15.3-8.56,37.2-16.248,65.1-22.85C146.335,7.478,222.611,0,303.741,0s157.41,7.478,214.781,21.055c27.9,6.6,49.8,14.29,65.1,22.85,15.839,8.862,23.87,18.277,23.87,27.981s-8.031,19.121-23.87,27.984c-15.3,8.561-37.2,16.249-65.1,22.851C461.153,136.3,384.875,143.777,303.741,143.777Zm0-121.659c-133.3,0-241.753,22.326-241.753,49.769s108.45,49.769,241.753,49.769S545.5,99.328,545.5,71.886,437.048,22.117,303.741,22.117Z" stroke="none"/>
      <path d="M 303.7425842285156 142.7765655517578 C 384.8003540039063 142.7765655517578 460.9955139160156 135.3083343505859 518.2921142578125 121.7476425170898 C 546.097412109375 115.1668014526367 567.9119873046875 107.5122604370117 583.1298217773438 98.99687194824219 C 590.9085693359375 94.64402770996094 596.8307495117188 90.11802673339844 600.7318725585938 85.54464721679688 C 602.6504516601563 83.29548645019531 604.1077880859375 80.99925994873047 605.0635986328125 78.71979522705078 C 606.0087890625 76.46533966064453 606.4880981445313 74.16603088378906 606.4880981445313 71.88587188720703 C 606.4880981445313 69.60602569580078 606.0087890625 67.30710601806641 605.0635986328125 65.05287170410156 C 604.1077880859375 62.77371978759766 602.6504516601563 60.47779846191406 600.7318725585938 58.22887420654297 C 596.830810546875 53.65587615966797 590.9085693359375 49.13033676147461 583.1298217773438 44.77779769897461 C 567.9122314453125 36.26310729980469 546.09765625 28.60910606384277 518.2921142578125 22.02849006652832 C 460.9944458007813 8.468105316162109 384.798828125 1.000105381011963 303.7400512695313 1.000105381011963 C 222.6855163574219 1.000105381011963 146.4919738769531 8.468105316162109 89.19528198242188 22.02841377258301 C 61.39066314697266 28.60879707336426 39.57635498046875 36.26279830932617 24.35828018188477 44.77764511108398 C 16.57950973510742 49.13010406494141 10.65727996826172 53.65571975708008 6.756202697753906 58.22864532470703 C 4.837664604187012 60.47764205932617 3.380279779434204 62.77356719970703 2.424587488174438 65.05271911621094 C 1.47935676574707 67.30695343017578 1.000049114227295 69.60587310791016 1.000049114227295 71.88571929931641 C 1.000049114227295 74.16587829589844 1.47935676574707 76.46510314941406 2.424587488174438 78.71964263916016 C 3.380356788635254 80.99910736083984 4.837664604187012 83.29525756835938 6.756202697753906 85.54448699951172 C 10.65735721588135 90.11787414550781 16.57950973510742 94.64387512207031 24.35828018188477 98.99671936035156 C 39.57635498046875 107.512336730957 61.39066314697266 115.1668014526367 89.19535827636719 121.7474899291992 C 146.4912872314453 135.3083343505859 222.6851959228516 142.7765655517578 303.7413635253906 142.7765655517578 L 303.7425842285156 142.7765655517578 M 303.7412719726563 21.11725997924805 L 303.7412719726563 22.11725997924805 L 303.7412719726563 21.11725997924805 C 368.2798156738281 21.11725997924805 429.0340576171875 26.30725860595703 474.8121948242188 35.73118209838867 C 497.1129760742188 40.32202911376953 514.6407470703125 45.67210388183594 526.9085693359375 51.63279724121094 C 539.90869140625 57.94926071166992 546.5001831054688 64.76333618164063 546.5001831054688 71.88587188720703 C 546.5001831054688 79.00841522216797 539.90869140625 85.82256317138672 526.9085693359375 92.13903045654297 C 514.6407470703125 98.09964752197266 497.1129760742188 103.4497222900391 474.8121948242188 108.0405654907227 C 429.0340576171875 117.4644927978516 368.2799072265625 122.654411315918 303.7412719726563 122.654411315918 C 239.2041320800781 122.654411315918 178.4513549804688 117.4644165039063 132.6742095947266 108.0404891967773 C 110.3739700317383 103.4496459960938 92.84666442871094 98.09956359863281 80.57904815673828 92.13887786865234 C 67.57927703857422 85.82241058349609 60.98789596557617 79.00833892822266 60.98789596557617 71.88579559326172 C 60.98789596557617 64.76325988769531 67.57927703857422 57.94918060302734 80.57904815673828 51.63272094726563 C 92.84666442871094 45.67202758789063 110.3739700317383 40.32195281982422 132.6742095947266 35.73110580444336 C 178.4513549804688 26.30718231201172 239.2042083740234 21.11725997924805 303.7412719726563 21.11725997924805 M 303.7426147460938 143.7765655517578 C 303.7376708984375 143.7765655517578 303.7463073730469 143.7765655517578 303.7413635253906 143.7765655517578 C 222.6098175048828 143.7765655517578 146.3340454101563 136.2987213134766 88.96504974365234 122.7206420898438 C 61.06974029541016 116.1184921264648 39.16858673095703 108.4301071166992 23.86997222900391 99.86941528320313 C 8.031048774719238 91.00625610351563 4.907226684736088e-05 81.59117889404297 4.907226684736088e-05 71.88571929931641 C 4.907226684736088e-05 62.18149185180664 8.031048774719238 52.76741409301758 23.86997222900391 43.90495300292969 C 39.16874313354492 35.34495162963867 61.06989669799805 27.6571044921875 88.96497344970703 21.05525970458984 C 146.3316955566406 7.478395462036133 222.6151885986328 0.0001054124077199958 303.7400207519531 0.0001054124077199958 C 303.7449645996094 0.0001054124077199958 303.736328125 0.0001054077147273347 303.7412719726563 0.0001054124077199958 C 384.8741149902344 0.0001054124077199958 461.1514282226563 7.477643966674805 518.5224609375 21.05533599853516 C 546.4181518554688 27.65733528137207 568.3195190429688 35.3451042175293 583.6181030273438 43.90510559082031 C 599.4569702148438 52.7675666809082 607.4880981445313 62.18164443969727 607.4880981445313 71.88587188720703 C 607.4880981445313 81.59141540527344 599.4569702148438 91.00641632080078 583.6181030273438 99.86956787109375 C 568.3193359375 108.4302597045898 546.4181518554688 116.1184921264648 518.5224609375 122.7207946777344 C 461.1561584472656 136.2979736328125 384.8710021972656 143.7765655517578 303.7426147460938 143.7765655517578 Z M 303.7412719726563 22.11725997924805 C 170.4379730224609 22.1171817779541 61.98789596557617 44.44333648681641 61.98789596557617 71.88579559326172 C 61.98789596557617 99.32826232910156 170.4379730224609 121.654411315918 303.7412719726563 121.654411315918 C 437.0475769042969 121.6544876098633 545.5001831054688 99.32841491699219 545.5001831054688 71.88587188720703 C 545.5001831054688 44.44341278076172 437.0475769042969 22.11725997924805 303.7412719726563 22.11725997924805 Z" stroke="none" fill="rgba(112,112,112,0)"/>
    </g>
  </g>
</svg>
