<svg xmlns="http://www.w3.org/2000/svg" width="1000" height="400" viewBox="0 0 1000 400">
  <g id="Group_124" data-name="Group 124" transform="translate(-7519 -13)">
    <g id="Group_11" data-name="Group 11" transform="translate(3382 573)">
      <g id="Rectangle_1" data-name="Rectangle 1" transform="translate(4137 -560)" fill="#ec1128">
        <path d="M 999.5 399.5 L 0.5 399.5 L 0.5 0.5 L 999.5 0.5 L 999.5 399.5 Z" stroke="none"/>
        <path d="M 1 1 L 1 399 L 999 399 L 999 1 L 1 1 M 0 0 L 1000 0 L 1000 400 L 0 400 L 0 0 Z" stroke="none" fill="#707070"/>
      </g>
      <g id="Group_3" data-name="Group 3" transform="translate(206 135)">
        <rect id="Rectangle_7" data-name="Rectangle 7" width="261" height="64" rx="32" transform="translate(4306 -531)" fill="#cc8d0f"/>
        <rect id="Rectangle_8" data-name="Rectangle 8" width="151" height="43" rx="21.5" transform="translate(4369 -444)" fill="#cc8d0f"/>
        <rect id="Rectangle_9" data-name="Rectangle 9" width="94" height="33" rx="16.5" transform="translate(4428 -411) rotate(-90)" fill="#cc8d0f"/>
      </g>
      <g id="Group_4" data-name="Group 4" transform="translate(-41 270)">
        <rect id="Rectangle_10" data-name="Rectangle 10" width="196" height="66" rx="33" transform="translate(4316 -576)" fill="#cc8d0f"/>
        <rect id="Rectangle_11" data-name="Rectangle 11" width="151" height="43" rx="21.5" transform="translate(4401 -480) rotate(180)" fill="#cc8d0f"/>
      </g>
      <g id="Group_6" data-name="Group 6" transform="translate(-400 38.743)">
        <rect id="Rectangle_12" data-name="Rectangle 12" width="271" height="73" rx="36.5" transform="translate(4592 -535)" fill="#cc8d0f"/>
        <rect id="Rectangle_13" data-name="Rectangle 13" width="203" height="43" rx="21.5" transform="translate(4705 -483)" fill="#cc8d0f"/>
        <rect id="Rectangle_14" data-name="Rectangle 14" width="151" height="43" rx="21.5" transform="translate(4780 -513)" fill="#cc8d0f"/>
        <rect id="Rectangle_15" data-name="Rectangle 15" width="88" height="38" rx="19" transform="translate(4821.776 -491.5) rotate(90)" fill="#cc8d0f"/>
        <rect id="Rectangle_16" data-name="Rectangle 16" width="151" height="43" rx="21.5" transform="translate(4633 -556)" fill="#cc8d0f"/>
      </g>
      <g id="Group_7" data-name="Group 7" transform="translate(6 -129)">
        <rect id="Rectangle_17" data-name="Rectangle 17" width="151" height="43" rx="21.5" transform="translate(4731 -374)" fill="#cc800f"/>
        <rect id="Rectangle_18" data-name="Rectangle 18" width="172" height="60" rx="30" transform="translate(4827 -357)" fill="#cc800f"/>
      </g>
      <rect id="Rectangle_23" data-name="Rectangle 23" width="47" height="185" rx="23.5" transform="translate(4988 -313) rotate(90)" fill="#cc8d0f"/>
      <rect id="Rectangle_24" data-name="Rectangle 24" width="47" height="197" rx="23.5" transform="translate(5068 -346) rotate(90)" fill="#cc8d0f"/>
      <rect id="Rectangle_25" data-name="Rectangle 25" width="47" height="105" rx="23.5" transform="translate(4880.587 -388.507) rotate(180)" fill="#cc800f"/>
      <g id="Group_9" data-name="Group 9" transform="translate(-16)">
        <g id="Group_5" data-name="Group 5" transform="translate(27 70)">
          <rect id="Rectangle_19" data-name="Rectangle 19" width="316" height="33" rx="16.5" transform="translate(4452 -263)"/>
          <rect id="Rectangle_20" data-name="Rectangle 20" width="54" height="24" rx="12" transform="translate(4709 -290) rotate(90)"/>
          <rect id="Rectangle_21" data-name="Rectangle 21" width="54" height="24" rx="12" transform="translate(4690 -284) rotate(90)"/>
          <rect id="Rectangle_22" data-name="Rectangle 22" width="54" height="24" rx="12" transform="translate(4723.787 -250.531) rotate(-179.026)"/>
        </g>
        <rect id="Rectangle_26" data-name="Rectangle 26" width="47" height="20" rx="10" transform="translate(4471 -180)"/>
        <rect id="Rectangle_27" data-name="Rectangle 27" width="47" height="20" rx="10" transform="translate(4756 -180)"/>
      </g>
      <g id="Group_9-2" data-name="Group 9" transform="translate(-47)" opacity="0.34">
        <g id="Group_5-2" data-name="Group 5" transform="translate(27 70)">
          <rect id="Rectangle_19-2" data-name="Rectangle 19" width="316" height="33" rx="16.5" transform="translate(4452 -263)" fill="#090506"/>
          <rect id="Rectangle_20-2" data-name="Rectangle 20" width="54" height="24" rx="12" transform="translate(4709 -290) rotate(90)" fill="#090506"/>
          <rect id="Rectangle_21-2" data-name="Rectangle 21" width="54" height="24" rx="12" transform="translate(4690 -284) rotate(90)" fill="#090506"/>
          <rect id="Rectangle_22-2" data-name="Rectangle 22" width="54" height="24" rx="12" transform="translate(4723.787 -250.531) rotate(-179.026)" fill="#090506"/>
        </g>
        <g id="Group_5-3" data-name="Group 5" transform="translate(289 70)">
          <rect id="Rectangle_19-3" data-name="Rectangle 19" width="316" height="33" rx="16.5" transform="translate(4452 -263)" fill="#090506"/>
          <rect id="Rectangle_20-3" data-name="Rectangle 20" width="54" height="24" rx="12" transform="translate(4709 -290) rotate(90)" fill="#090506"/>
          <rect id="Rectangle_21-3" data-name="Rectangle 21" width="54" height="24" rx="12" transform="translate(4690 -284) rotate(90)" fill="#090506"/>
          <rect id="Rectangle_22-3" data-name="Rectangle 22" width="54" height="24" rx="12" transform="translate(4723.787 -250.531) rotate(-179.026)" fill="#090506"/>
        </g>
        <rect id="Rectangle_26-2" data-name="Rectangle 26" width="47" height="20" rx="10" transform="translate(4471 -180)" fill="#090506"/>
        <rect id="Rectangle_27-2" data-name="Rectangle 27" width="47" height="20" rx="10" transform="translate(4756 -180)" fill="#090506"/>
      </g>
      <g id="Group_9-3" data-name="Group 9" transform="translate(-76)" opacity="0.34">
        <g id="Group_5-4" data-name="Group 5" transform="translate(27 70)" opacity="0.44">
          <rect id="Rectangle_19-4" data-name="Rectangle 19" width="316" height="33" rx="16.5" transform="translate(4452 -263)" fill="#090506"/>
          <rect id="Rectangle_20-4" data-name="Rectangle 20" width="54" height="24" rx="12" transform="translate(4709 -290) rotate(90)" fill="#090506"/>
          <rect id="Rectangle_21-4" data-name="Rectangle 21" width="54" height="24" rx="12" transform="translate(4690 -284) rotate(90)" fill="#090506"/>
          <rect id="Rectangle_22-4" data-name="Rectangle 22" width="54" height="24" rx="12" transform="translate(4723.787 -250.531) rotate(-179.026)" fill="#090506"/>
        </g>
        <rect id="Rectangle_26-3" data-name="Rectangle 26" width="47" height="20" rx="10" transform="translate(4471 -180)" fill="#090506"/>
        <rect id="Rectangle_27-3" data-name="Rectangle 27" width="47" height="20" rx="10" transform="translate(4756 -180)" fill="#090506"/>
      </g>
      <g id="Group_9-4" data-name="Group 9" transform="translate(-140)" opacity="0.41">
        <g id="Group_5-5" data-name="Group 5" transform="translate(27 70)">
          <rect id="Rectangle_19-5" data-name="Rectangle 19" width="316" height="33" rx="16.5" transform="translate(4452 -263)" fill="#090506"/>
          <rect id="Rectangle_20-5" data-name="Rectangle 20" width="54" height="24" rx="12" transform="translate(4709 -290) rotate(90)" fill="#090506"/>
          <rect id="Rectangle_21-5" data-name="Rectangle 21" width="54" height="24" rx="12" transform="translate(4690 -284) rotate(90)" fill="#090506"/>
          <rect id="Rectangle_22-5" data-name="Rectangle 22" width="54" height="24" rx="12" transform="translate(4723.787 -250.531) rotate(-179.026)" fill="#090506"/>
        </g>
        <rect id="Rectangle_26-4" data-name="Rectangle 26" width="47" height="20" rx="10" transform="translate(4471 -180)" fill="#090506"/>
        <rect id="Rectangle_27-4" data-name="Rectangle 27" width="47" height="20" rx="10" transform="translate(4756 -180)" fill="#090506"/>
      </g>
      <g id="Group_10" data-name="Group 10" transform="translate(9311 -598) rotate(180)" opacity="0.41">
        <g id="Group_8" data-name="Group 8" transform="translate(58 192)">
          <rect id="Rectangle_19-6" data-name="Rectangle 19" width="316" height="33" rx="16.5" transform="translate(4452 -263)"/>
          <rect id="Rectangle_20-6" data-name="Rectangle 20" width="54" height="24" rx="12" transform="translate(4709 -290) rotate(90)"/>
          <rect id="Rectangle_21-6" data-name="Rectangle 21" width="54" height="24" rx="12" transform="translate(4690 -284) rotate(90)"/>
          <rect id="Rectangle_22-6" data-name="Rectangle 22" width="54" height="24" rx="12" transform="translate(4723.787 -250.531) rotate(-179.026)"/>
        </g>
        <rect id="Rectangle_28" data-name="Rectangle 28" width="47" height="20" rx="10" transform="translate(4502 -58)"/>
        <rect id="Rectangle_29" data-name="Rectangle 29" width="47" height="20" rx="10" transform="translate(4787 -58)"/>
      </g>
      <rect id="Rectangle_30" data-name="Rectangle 30" width="47" height="288" rx="23.5" transform="translate(4464 -346) rotate(90)" fill="#8d0a5d" opacity="0.3"/>
      <rect id="Rectangle_31" data-name="Rectangle 31" width="47" height="288" rx="23.5" transform="translate(4591 -473) rotate(90)" fill="#8d0a5d" opacity="0.45"/>
      <rect id="Rectangle_32" data-name="Rectangle 32" width="47" height="288" rx="23.5" transform="translate(4637 -383) rotate(90)" fill="#8d0a5d" opacity="0.3"/>
      <rect id="Rectangle_33" data-name="Rectangle 33" width="47" height="288" rx="23.5" transform="translate(4791 -299) rotate(90)" fill="#8d0a5d" opacity="0.43"/>
      <rect id="Rectangle_34" data-name="Rectangle 34" width="47" height="288" rx="23.5" transform="translate(4917 -449) rotate(90)" fill="#8d0a5d" opacity="0.55"/>
      <rect id="Rectangle_35" data-name="Rectangle 35" width="47" height="288" rx="23.5" transform="translate(4900 -511) rotate(90)" fill="#8d0a5d" opacity="0.3"/>
      <rect id="Rectangle_36" data-name="Rectangle 36" width="19" height="118" rx="9.5" transform="translate(4921 -252) rotate(90)" fill="#fff" opacity="0.3"/>
      <rect id="Rectangle_37" data-name="Rectangle 37" width="19" height="118" rx="9.5" transform="translate(4709 -258) rotate(90)" fill="#8d0a5d" opacity="0.3"/>
      <rect id="Rectangle_38" data-name="Rectangle 38" width="19" height="118" rx="9.5" transform="translate(4542 -487) rotate(90)" fill="#8d0a5d" opacity="0.3"/>
      <rect id="Rectangle_39" data-name="Rectangle 39" width="19" height="118" rx="9.5" transform="translate(4458 -435) rotate(90)" fill="#8d0a5d" opacity="0.3"/>
      <rect id="Rectangle_40" data-name="Rectangle 40" width="19" height="118" rx="9.5" transform="translate(4940 -239) rotate(90)" fill="#8d0a5d" opacity="0.3"/>
      <rect id="Rectangle_41" data-name="Rectangle 41" width="19" height="118" rx="9.5" transform="translate(4921 -252) rotate(90)" fill="#8d0a5d" opacity="0.3"/>
      <rect id="Rectangle_42" data-name="Rectangle 42" width="19" height="118" rx="9.5" transform="translate(4803 -411) rotate(90)" fill="#8d0a5d" opacity="0.3"/>
      <rect id="Rectangle_43" data-name="Rectangle 43" width="19" height="118" rx="9.5" transform="translate(4930 -519) rotate(90)" fill="#8d0a5d" opacity="0.3"/>
    </g>
  </g>
</svg>
