<svg xmlns="http://www.w3.org/2000/svg" xmlns:xlink="http://www.w3.org/1999/xlink" width="1000" height="400" viewBox="0 0 1000 400">
  <defs>
    <linearGradient id="linear-gradient" x1="0.5" x2="-0.099" y2="1.46" gradientUnits="objectBoundingBox">
      <stop offset="0" stop-color="#fff"/>
      <stop offset="1" stop-color="gray"/>
    </linearGradient>
  </defs>
  <g id="Group_125" data-name="Group 125" transform="translate(-7519 -466)">
    <g id="Group_11" data-name="Group 11" transform="translate(3382 1026)">
      <g id="Rectangle_1" data-name="Rectangle 1" transform="translate(4137 -560)" fill="#0376e9" stroke="#707070" stroke-width="1">
        <rect width="1000" height="400" stroke="none"/>
        <rect x="0.5" y="0.5" width="999" height="399" fill="none"/>
      </g>
      <g id="Group_3" data-name="Group 3" transform="translate(206 135)">
        <path id="Rectangle_7" data-name="Rectangle 7" d="M32,0H229a32,32,0,0,1,0,64H32A32,32,0,0,1,32,0Z" transform="translate(4306 -531)" fill="#b7ac13"/>
        <rect id="Rectangle_8" data-name="Rectangle 8" width="151" height="43" rx="21.5" transform="translate(4369 -444)" fill="#0fcc3b"/>
        <rect id="Rectangle_9" data-name="Rectangle 9" width="94" height="33" rx="16.5" transform="translate(4428 -411) rotate(-90)" fill="#b7ac13"/>
      </g>
      <g id="Group_3-2" data-name="Group 3" transform="translate(206 100)">
        <rect id="Rectangle_7-2" data-name="Rectangle 7" width="261" height="64" rx="32" transform="translate(4306 -531)" fill="#b7ac13"/>
        <rect id="Rectangle_8-2" data-name="Rectangle 8" width="151" height="43" rx="21.5" transform="translate(4369 -444)" fill="#b7ac13"/>
        <rect id="Rectangle_9-2" data-name="Rectangle 9" width="94" height="33" rx="16.5" transform="translate(4428 -411) rotate(-90)" fill="#b7ac13"/>
      </g>
      <g id="Group_3-3" data-name="Group 3" transform="translate(295 -11)">
        <rect id="Rectangle_7-3" data-name="Rectangle 7" width="261" height="64" rx="32" transform="translate(4306 -531)" fill="#ccb90f"/>
        <rect id="Rectangle_8-3" data-name="Rectangle 8" width="151" height="43" rx="21.5" transform="translate(4369 -444)" fill="#ccb90f"/>
        <rect id="Rectangle_9-3" data-name="Rectangle 9" width="94" height="33" rx="16.5" transform="translate(4428 -411) rotate(-90)" fill="#ccb90f"/>
      </g>
      <g id="Group_3-4" data-name="Group 3" transform="translate(-155 94)">
        <rect id="Rectangle_7-4" data-name="Rectangle 7" width="261" height="64" rx="32" transform="translate(4306 -531)" fill="url(#linear-gradient)"/>
        <rect id="Rectangle_8-4" data-name="Rectangle 8" width="151" height="43" rx="21.5" transform="translate(4369 -444)" fill="url(#linear-gradient)"/>
        <rect id="Rectangle_9-4" data-name="Rectangle 9" width="94" height="33" rx="16.5" transform="translate(4428 -411) rotate(-90)" fill="url(#linear-gradient)"/>
      </g>
      <g id="Group_3-5" data-name="Group 3" transform="translate(62 214)">
        <rect id="Rectangle_7-5" data-name="Rectangle 7" width="261" height="64" rx="32" transform="translate(4306 -531)" fill="#c9c27a"/>
        <rect id="Rectangle_8-5" data-name="Rectangle 8" width="151" height="43" rx="21.5" transform="translate(4369 -444)" fill="#c9c27a"/>
        <rect id="Rectangle_9-5" data-name="Rectangle 9" width="94" height="33" rx="16.5" transform="translate(4428 -411) rotate(-90)" fill="#c9c27a"/>
      </g>
      <g id="Group_4" data-name="Group 4" transform="translate(-41 270)">
        <rect id="Rectangle_10" data-name="Rectangle 10" width="196" height="66" rx="33" transform="translate(4316 -576)" fill="#fff"/>
        <rect id="Rectangle_11" data-name="Rectangle 11" width="151" height="43" rx="21.5" transform="translate(4401 -480) rotate(180)" fill="#fff"/>
      </g>
      <g id="Group_4-2" data-name="Group 4" transform="translate(95 222)">
        <rect id="Rectangle_10-2" data-name="Rectangle 10" width="196" height="66" rx="33" transform="translate(4316 -576)" fill="#c9c27a"/>
        <rect id="Rectangle_11-2" data-name="Rectangle 11" width="151" height="43" rx="21.5" transform="translate(4401 -480) rotate(180)" fill="#c9c27a"/>
      </g>
      <g id="Group_4-3" data-name="Group 4" transform="translate(341 276)">
        <rect id="Rectangle_10-3" data-name="Rectangle 10" width="196" height="66" rx="33" transform="translate(4316 -576)" fill="#c9c27a"/>
        <rect id="Rectangle_11-3" data-name="Rectangle 11" width="151" height="43" rx="21.5" transform="translate(4401 -480) rotate(180)" fill="#c9c27a"/>
        <rect id="Rectangle_11-4" data-name="Rectangle 11" width="151" height="43" rx="21.5" transform="translate(4299 -488) rotate(180)" fill="#c9c27a"/>
      </g>
      <g id="Group_6" data-name="Group 6" transform="translate(-400 38.743)">
        <rect id="Rectangle_12" data-name="Rectangle 12" width="271" height="73" rx="36.5" transform="translate(4592 -535)" fill="url(#linear-gradient)"/>
        <rect id="Rectangle_13" data-name="Rectangle 13" width="203" height="43" rx="21.5" transform="translate(4705 -483)" fill="url(#linear-gradient)"/>
        <rect id="Rectangle_14" data-name="Rectangle 14" width="151" height="43" rx="21.5" transform="translate(4780 -513)" fill="url(#linear-gradient)"/>
        <rect id="Rectangle_15" data-name="Rectangle 15" width="88" height="38" rx="19" transform="translate(4821.776 -491.5) rotate(90)" fill="url(#linear-gradient)"/>
        <rect id="Rectangle_16" data-name="Rectangle 16" width="151" height="43" rx="21.5" transform="translate(4633 -556)" fill="url(#linear-gradient)"/>
      </g>
      <g id="Group_7" data-name="Group 7" transform="translate(6 -129)">
        <rect id="Rectangle_17" data-name="Rectangle 17" width="151" height="43" rx="21.5" transform="translate(4731 -374)" fill="#ccb90f"/>
        <rect id="Rectangle_18" data-name="Rectangle 18" width="172" height="60" rx="30" transform="translate(4827 -357)" fill="#ccb90f"/>
      </g>
      <rect id="Rectangle_23" data-name="Rectangle 23" width="47" height="185" rx="23.5" transform="translate(4988 -313) rotate(90)" fill="#ee0010"/>
      <rect id="Rectangle_24" data-name="Rectangle 24" width="47" height="197" rx="23.5" transform="translate(5068 -346) rotate(90)" fill="#ee0010"/>
      <rect id="Rectangle_24-2" data-name="Rectangle 24" width="47" height="197" rx="23.5" transform="translate(5009 -411) rotate(90)" fill="#ccb90f"/>
      <rect id="Rectangle_24-3" data-name="Rectangle 24" width="47" height="197" rx="23.5" transform="translate(4947 -468) rotate(90)" fill="#ccb90f"/>
      <rect id="Rectangle_25" data-name="Rectangle 25" width="47" height="105" rx="23.5" transform="translate(4880.587 -388.507) rotate(180)" fill="#ccb90f"/>
      <rect id="Rectangle_25-2" data-name="Rectangle 25" width="47" height="105" rx="23.5" transform="translate(4540 -341) rotate(180)" fill="#c9c27a"/>
      <rect id="Rectangle_25-3" data-name="Rectangle 25" width="47" height="105" rx="23.5" transform="translate(4503 -326) rotate(180)" fill="#c9c27a"/>
      <rect id="Rectangle_25-4" data-name="Rectangle 25" width="47" height="105" rx="23.5" transform="translate(4463 -307) rotate(180)" fill="#c9c27a"/>
      <path id="Rectangle_25-5" data-name="Rectangle 25" d="M23.5,0A23.5,23.5,0,0,1,47,23.5v58a23.5,23.5,0,0,1-47,0v-58A23.5,23.5,0,0,1,23.5,0Z" transform="translate(4574 -331) rotate(180)" fill="#b7ac13"/>
      <rect id="Rectangle_25-6" data-name="Rectangle 25" width="47" height="105" rx="23.5" transform="translate(4773 -368) rotate(180)" fill="#ccb90f"/>
      <rect id="Rectangle_30" data-name="Rectangle 30" width="47" height="288" rx="23.5" transform="translate(4464 -346) rotate(90)" opacity="0.3" fill="url(#linear-gradient)"/>
      <rect id="Rectangle_31" data-name="Rectangle 31" width="47" height="288" rx="23.5" transform="translate(4591 -473) rotate(90)" fill="#fff" opacity="0.45"/>
      <rect id="Rectangle_32" data-name="Rectangle 32" width="47" height="288" rx="23.5" transform="translate(4631 -386) rotate(90)" fill="#fff" opacity="0.3"/>
      <rect id="Rectangle_33" data-name="Rectangle 33" width="47" height="288" rx="23.5" transform="translate(4791 -299) rotate(90)" fill="#fff" opacity="0.43"/>
      <rect id="Rectangle_33-2" data-name="Rectangle 33" width="47" height="288" rx="23.5" transform="translate(4822 -473) rotate(90)" fill="#fff" opacity="0.43"/>
      <rect id="Rectangle_34" data-name="Rectangle 34" width="47" height="288" rx="23.5" transform="translate(4917 -449) rotate(90)" fill="#fff" opacity="0.55"/>
      <rect id="Rectangle_34-2" data-name="Rectangle 34" width="47" height="288" rx="23.5" transform="translate(4947 -443) rotate(90)" fill="#fff" opacity="0.55"/>
      <rect id="Rectangle_34-3" data-name="Rectangle 34" width="47" height="288" rx="23.5" transform="translate(5010 -317) rotate(90)" fill="#fff" opacity="0.55"/>
      <rect id="Rectangle_35" data-name="Rectangle 35" width="47" height="288" rx="23.5" transform="translate(4900 -511) rotate(90)" fill="#fff" opacity="0.3"/>
      <rect id="Rectangle_36" data-name="Rectangle 36" width="19" height="118" rx="9.5" transform="translate(4921 -252) rotate(90)" fill="#fff" opacity="0.3"/>
      <rect id="Rectangle_37" data-name="Rectangle 37" width="19" height="118" rx="9.5" transform="translate(4709 -258) rotate(90)" fill="#fff" opacity="0.3"/>
      <rect id="Rectangle_38" data-name="Rectangle 38" width="19" height="118" rx="9.5" transform="translate(4542 -487) rotate(90)" fill="#fff" opacity="0.3"/>
      <rect id="Rectangle_39" data-name="Rectangle 39" width="19" height="118" rx="9.5" transform="translate(4458 -435) rotate(90)" fill="#fff" opacity="0.3"/>
      <rect id="Rectangle_40" data-name="Rectangle 40" width="19" height="118" rx="9.5" transform="translate(4940 -239) rotate(90)" fill="#fff" opacity="0.3"/>
      <rect id="Rectangle_41" data-name="Rectangle 41" width="19" height="118" rx="9.5" transform="translate(4921 -252) rotate(90)" fill="#fff" opacity="0.3"/>
      <rect id="Rectangle_42" data-name="Rectangle 42" width="19" height="118" rx="9.5" transform="translate(4812 -360) rotate(90)" fill="#fff" opacity="0.3"/>
      <rect id="Rectangle_43" data-name="Rectangle 43" width="19" height="118" rx="9.5" transform="translate(4930 -519) rotate(90)" fill="#fff" opacity="0.3"/>
    </g>
  </g>
</svg>
