<svg xmlns="http://www.w3.org/2000/svg" xmlns:xlink="http://www.w3.org/1999/xlink" width="521.479" height="349.824" viewBox="0 0 521.479 349.824">
  <defs>
    <filter id="Path_27" x="121.633" y="31.617" width="318.207" height="286.589" filterUnits="userSpaceOnUse">
      <feOffset dx="20" dy="20" input="SourceAlpha"/>
      <feGaussianBlur stdDeviation="10" result="blur"/>
      <feFlood flood-opacity="0"/>
      <feComposite operator="in" in2="blur"/>
      <feComposite in="SourceGraphic"/>
    </filter>
    <filter id="Path_7" x="111.094" y="21.078" width="339.285" height="307.668" filterUnits="userSpaceOnUse">
      <feOffset dx="20" dy="20" input="SourceAlpha"/>
      <feGaussianBlur stdDeviation="10" result="blur-2"/>
      <feFlood flood-opacity="0"/>
      <feComposite operator="in" in2="blur-2"/>
      <feComposite in="SourceGraphic"/>
    </filter>
    <filter id="Path_8" x="100.555" y="10.539" width="360.363" height="328.746" filterUnits="userSpaceOnUse">
      <feOffset dx="20" dy="20" input="SourceAlpha"/>
      <feGaussianBlur stdDeviation="10" result="blur-3"/>
      <feFlood flood-opacity="0"/>
      <feComposite operator="in" in2="blur-3"/>
      <feComposite in="SourceGraphic"/>
    </filter>
    <filter id="Path_9" x="90.016" y="0" width="381.441" height="349.824" filterUnits="userSpaceOnUse">
      <feOffset dx="20" dy="20" input="SourceAlpha"/>
      <feGaussianBlur stdDeviation="10" result="blur-4"/>
      <feFlood flood-opacity="0"/>
      <feComposite operator="in" in2="blur-4"/>
      <feComposite in="SourceGraphic"/>
    </filter>
    <filter id="Path_29" x="121.633" y="31.617" width="318.207" height="286.589" filterUnits="userSpaceOnUse">
      <feOffset dx="20" dy="20" input="SourceAlpha"/>
      <feGaussianBlur stdDeviation="10" result="blur-5"/>
      <feFlood flood-opacity="0"/>
      <feComposite operator="in" in2="blur-5"/>
      <feComposite in="SourceGraphic"/>
    </filter>
    <clipPath id="clip-path">
      <g transform="matrix(1, 0, 0, 1, 0, 0)" filter="url(#Path_27)">
        <path id="Path_27-2" data-name="Path 27" d="M129.1,0c71.3,0,129.1,50.724,129.1,113.295s-57.8,113.295-129.1,113.295S0,175.866,0,113.295,57.8,0,129.1,0Z" fill="#6200e3" stroke="rgba(112,112,112,0)" stroke-width="1"/>
      </g>
    </clipPath>
  </defs>
  <g id="Group_118" data-name="Group 118" transform="translate(-918.26 -323.025)">
    <g id="Group_33" data-name="Group 33" transform="translate(1018.276 333.025)">
      <g transform="matrix(1, 0, 0, 1, -100.02, -10)" filter="url(#Path_7)">
        <g id="Path_7-2" data-name="Path 7" transform="translate(121.09 31.08)" opacity="0.1">
          <path d="M139.642,0c77.122,0,139.642,55.442,139.642,123.834s-62.52,123.834-139.642,123.834S0,192.225,0,123.834,62.52,0,139.642,0Z" stroke="none"/>
          <path d="M 139.6423034667969 1 C 130.2274780273438 1 120.8189392089844 1.841033935546875 111.6780548095703 3.499786376953125 C 102.7709045410156 5.116104125976563 94.00991821289063 7.527786254882813 85.63841247558594 10.66778564453125 C 77.42037963867188 13.75021362304688 69.49447631835938 17.56517028808594 62.08087158203125 22.00668334960938 C 54.73959350585938 26.40489196777344 47.83662414550781 31.45550537109375 41.56376647949219 37.01824951171875 C 35.29306030273438 42.57907104492188 29.60044860839844 48.69735717773438 24.6441650390625 55.20314025878906 C 19.64230346679688 61.7686767578125 15.34658813476563 68.78681945800781 11.87637329101563 76.06257629394531 C 8.34320068359375 83.47024536132813 5.629730224609375 91.22178649902344 3.8114013671875 99.10177612304688 C 1.94586181640625 107.1863250732422 0.999969482421875 115.5073547363281 0.999969482421875 123.8337478637695 C 0.999969482421875 132.1601409912109 1.94586181640625 140.4811706542969 3.8114013671875 148.5657043457031 C 5.629730224609375 156.4457092285156 8.34320068359375 164.1972503662109 11.87637329101563 171.6049194335938 C 15.34658813476563 178.8806762695313 19.64230346679688 185.8988189697266 24.6441650390625 192.46435546875 C 29.60044860839844 198.9701385498047 35.29306030273438 205.0884246826172 41.56376647949219 210.6492462158203 C 47.83662414550781 216.2120056152344 54.73959350585938 221.2626037597656 62.08087158203125 225.6608276367188 C 69.49447631835938 230.1023254394531 77.42037963867188 233.9172821044922 85.63841247558594 236.9997100830078 C 94.00991821289063 240.1397094726563 102.7709045410156 242.5513916015625 111.6780548095703 244.1677093505859 C 120.8189392089844 245.8264617919922 130.2274780273438 246.6674957275391 139.6423034667969 246.6674957275391 C 149.05712890625 246.6674957275391 158.4656677246094 245.8264617919922 167.6065521240234 244.1677093505859 C 176.513671875 242.5513916015625 185.274658203125 240.1397094726563 193.6461944580078 236.9997100830078 C 201.8641967773438 233.9172821044922 209.7901000976563 230.1023254394531 217.2037048339844 225.6608276367188 C 224.5449829101563 221.2626037597656 231.4479370117188 216.2120056152344 237.7207946777344 210.6492462158203 C 243.9915161132813 205.0884246826172 249.6841278076172 198.9701385498047 254.6404113769531 192.46435546875 C 259.6422729492188 185.8988189697266 263.93798828125 178.8806762695313 267.408203125 171.6049194335938 C 270.9413757324219 164.1972503662109 273.6548461914063 156.4457092285156 275.4731750488281 148.5657043457031 C 277.3386840820313 140.4811706542969 278.2845764160156 132.1601409912109 278.2845764160156 123.8337478637695 C 278.2845764160156 115.5073547363281 277.3386840820313 107.1863250732422 275.4731750488281 99.10177612304688 C 273.6548461914063 91.22178649902344 270.9413757324219 83.47024536132813 267.408203125 76.06257629394531 C 263.93798828125 68.78681945800781 259.6422729492188 61.7686767578125 254.6404113769531 55.20314025878906 C 249.6841278076172 48.69735717773438 243.9915161132813 42.57907104492188 237.7207946777344 37.01824951171875 C 231.4479370117188 31.45550537109375 224.5449829101563 26.40489196777344 217.2037048339844 22.00668334960938 C 209.7901000976563 17.56517028808594 201.8641967773438 13.75021362304688 193.6461944580078 10.66778564453125 C 185.274658203125 7.527786254882813 176.513671875 5.116104125976563 167.6065521240234 3.499786376953125 C 158.4656677246094 1.841033935546875 149.05712890625 1 139.6423034667969 1 M 139.6423034667969 0 C 216.7645874023438 0 279.2845764160156 55.44224548339844 279.2845764160156 123.8337478637695 C 279.2845764160156 192.2252502441406 216.7645874023438 247.6674957275391 139.6423034667969 247.6674957275391 C 62.51998901367188 247.6674957275391 -3.0517578125e-05 192.2252502441406 -3.0517578125e-05 123.8337478637695 C -3.0517578125e-05 55.44224548339844 62.51998901367188 0 139.6423034667969 0 Z" stroke="none" fill="rgba(112,112,112,0)"/>
        </g>
      </g>
      <g transform="matrix(1, 0, 0, 1, -100.02, -10)" filter="url(#Path_8)">
        <g id="Path_8-2" data-name="Path 8" transform="translate(110.55 20.54)" fill="rgba(0,0,0,0.33)" opacity="0.1">
          <path d="M150.181,0c82.943,0,150.181,60.161,150.181,134.373S233.124,268.746,150.181,268.746,0,208.585,0,134.373,67.238,0,150.181,0Z" stroke="none"/>
          <path d="M 150.1813354492188 1 C 140.0519866943359 1 129.9293365478516 1.912994384765625 120.0946502685547 3.713623046875 C 110.5112915039063 5.468231201171875 101.0850982666016 8.086273193359375 92.07791137695313 11.49496459960938 C 83.23568725585938 14.84123229980469 74.70768737792969 18.98275756835938 66.7308349609375 23.8045654296875 C 58.83148193359375 28.57949829101563 51.40371704101563 34.06280517578125 44.65386962890625 40.10211181640625 C 37.90603637695313 46.13969421386719 31.78021240234375 52.78257751464844 26.44668579101563 59.84626770019531 C 21.06375122070313 66.97529602050781 16.44076538085938 74.59584045410156 12.7060546875 82.49623107910156 C 8.903411865234375 90.54029846191406 5.9830322265625 98.95783996582031 4.0260009765625 107.5149536132813 C 2.01806640625 116.2944183349609 1 125.3306884765625 1 134.372802734375 C 1 143.4149169921875 2.01806640625 152.4511871337891 4.0260009765625 161.2306518554688 C 5.9830322265625 169.7877655029297 8.903411865234375 178.2052917480469 12.7060546875 186.2493896484375 C 16.44076538085938 194.1497650146484 21.06375122070313 201.7702941894531 26.44668579101563 208.8993377685547 C 31.78021240234375 215.9630279541016 37.90603637695313 222.6059265136719 44.65386962890625 228.6434936523438 C 51.40371704101563 234.6828002929688 58.83148193359375 240.1661071777344 66.7308349609375 244.9410400390625 C 74.70768737792969 249.7628479003906 83.23568725585938 253.9043731689453 92.07791137695313 257.2506408691406 C 101.0850982666016 260.6593322753906 110.5112915039063 263.2773742675781 120.0946502685547 265.031982421875 C 129.9293365478516 266.8326110839844 140.0519866943359 267.74560546875 150.1813354492188 267.74560546875 C 160.3106842041016 267.74560546875 170.4333343505859 266.8326110839844 180.2680358886719 265.031982421875 C 189.8513793945313 263.2773742675781 199.2775573730469 260.6593322753906 208.2847595214844 257.2506408691406 C 217.1269836425781 253.9043731689453 225.6549987792969 249.7628479003906 233.6318359375 244.9410400390625 C 241.5311889648438 240.1661071777344 248.9589538574219 234.6828002929688 255.7088012695313 228.6434936523438 C 262.4566345214844 222.6059265136719 268.5824584960938 215.9630279541016 273.9159851074219 208.8993377685547 C 279.2989196777344 201.7702941894531 283.9219055175781 194.1497650146484 287.6566162109375 186.2493896484375 C 291.4592590332031 178.2052917480469 294.379638671875 169.7877655029297 296.336669921875 161.2306518554688 C 298.3446044921875 152.4511871337891 299.3626708984375 143.4149169921875 299.3626708984375 134.372802734375 C 299.3626708984375 125.3306884765625 298.3446044921875 116.2944183349609 296.336669921875 107.5149536132813 C 294.379638671875 98.95783996582031 291.4592590332031 90.54029846191406 287.6566162109375 82.49623107910156 C 283.9219055175781 74.59584045410156 279.2989196777344 66.97529602050781 273.9159851074219 59.84626770019531 C 268.5824584960938 52.78257751464844 262.4566345214844 46.13969421386719 255.7088012695313 40.10211181640625 C 248.9589538574219 34.06280517578125 241.5311889648438 28.57949829101563 233.6318359375 23.8045654296875 C 225.6549987792969 18.98275756835938 217.1269836425781 14.84123229980469 208.2847595214844 11.49496459960938 C 199.2775573730469 8.086273193359375 189.8513793945313 5.468231201171875 180.2680358886719 3.713623046875 C 170.4333343505859 1.912994384765625 160.3106842041016 1 150.1813354492188 1 M 150.1813354492188 0 C 233.1241760253906 0 300.3626708984375 60.1607666015625 300.3626708984375 134.372802734375 C 300.3626708984375 208.5848388671875 233.1241760253906 268.74560546875 150.1813354492188 268.74560546875 C 67.23849487304688 268.74560546875 0 208.5848388671875 0 134.372802734375 C 0 60.1607666015625 67.23849487304688 0 150.1813354492188 0 Z" stroke="none" fill="rgba(112,112,112,0)"/>
        </g>
      </g>
      <g transform="matrix(1, 0, 0, 1, -100.02, -10)" filter="url(#Path_9)">
        <g id="Path_9-2" data-name="Path 9" transform="translate(100.02 10)" fill="rgba(0,0,0,0.33)" opacity="0.1">
          <path d="M160.72,0c88.763,0,160.72,64.879,160.72,144.912S249.484,289.824,160.72,289.824,0,224.944,0,144.912,71.957,0,160.72,0Z" stroke="none"/>
          <path d="M 160.7203674316406 1 C 149.8764038085938 1 139.0396118164063 1.984954833984375 128.5110321044922 3.927490234375 C 118.2513732910156 5.820404052734375 108.1599578857422 8.64483642578125 98.51707458496094 12.322265625 C 89.050537109375 15.93240356445313 79.92041015625 20.400634765625 71.38027954101563 25.60272216796875 C 62.92291259765625 30.75442504882813 54.97036743164063 36.67042541503906 47.7435302734375 43.18637084960938 C 40.51858520507813 49.70071411132813 33.95956420898438 56.86825561523438 28.248779296875 64.48988342285156 C 22.48492431640625 72.182373046875 17.53466796875 80.40528869628906 13.5355224609375 88.9302978515625 C 9.4635009765625 97.61070251464844 6.336212158203125 106.6941680908203 4.240447998046875 115.9283752441406 C 2.090240478515625 125.4026641845703 1 135.1541290283203 1 144.9118347167969 C 1 154.6695861816406 2.090240478515625 164.4209899902344 4.240447998046875 173.8952941894531 C 6.336212158203125 183.1295013427734 9.4635009765625 192.2129516601563 13.5355224609375 200.8933715820313 C 17.53466796875 209.4183654785156 22.48492431640625 217.6413269042969 28.248779296875 225.3338012695313 C 33.95956420898438 232.9554595947266 40.51858520507813 240.1230010986328 47.7435302734375 246.6372985839844 C 54.9703369140625 253.1532897949219 62.92291259765625 259.0693054199219 71.38027954101563 264.220947265625 C 79.92041015625 269.423095703125 89.050537109375 273.8912658691406 98.51707458496094 277.5014038085938 C 108.1599578857422 281.1788330078125 118.2513732910156 284.0032653808594 128.5110321044922 285.8961791992188 C 139.0396118164063 287.8387145996094 149.8764038085938 288.8236694335938 160.7203674316406 288.8236694335938 C 171.5643310546875 288.8236694335938 182.401123046875 287.8387145996094 192.9296569824219 285.8961791992188 C 203.1893310546875 284.0032653808594 213.2807922363281 281.1788330078125 222.9236602783203 277.5014038085938 C 232.3901672363281 273.8912658691406 241.5202941894531 269.423095703125 250.0604095458984 264.220947265625 C 258.517822265625 259.0693054199219 266.4703674316406 253.1532897949219 273.6972045898438 246.6372985839844 C 280.9221496582031 240.1230010986328 287.4811096191406 232.9554595947266 293.1919555664063 225.3338012695313 C 298.955810546875 217.6413269042969 303.9060668945313 209.4183654785156 307.9052124023438 200.8933715820313 C 311.9772338867188 192.2129516601563 315.1045227050781 183.1295013427734 317.2002868652344 173.8952941894531 C 319.3504943847656 164.4209899902344 320.4407348632813 154.6695861816406 320.4407348632813 144.9118347167969 C 320.4407348632813 135.1541290283203 319.3504943847656 125.4026641845703 317.2002868652344 115.9283752441406 C 315.1045227050781 106.6941680908203 311.9772338867188 97.61070251464844 307.9052124023438 88.9302978515625 C 303.9060668945313 80.40528869628906 298.955810546875 72.182373046875 293.1919555664063 64.48988342285156 C 287.4811096191406 56.86825561523438 280.9221496582031 49.70071411132813 273.6972045898438 43.18637084960938 C 266.4703674316406 36.67042541503906 258.517822265625 30.75442504882813 250.0604095458984 25.60272216796875 C 241.5202941894531 20.400634765625 232.3901672363281 15.93240356445313 222.9236602783203 12.322265625 C 213.2807922363281 8.64483642578125 203.1893310546875 5.820404052734375 192.9296569824219 3.927490234375 C 182.401123046875 1.984954833984375 171.5643310546875 1 160.7203674316406 1 M 160.7203674316406 0 C 249.4837341308594 0 321.4407348632813 64.87925720214844 321.4407348632813 144.9118347167969 C 321.4407348632813 224.9444580078125 249.4837341308594 289.8236694335938 160.7203674316406 289.8236694335938 C 71.95695495605469 289.8236694335938 0 224.9444580078125 0 144.9118347167969 C 0 64.87925720214844 71.95695495605469 0 160.7203674316406 0 Z" stroke="none" fill="rgba(112,112,112,0)"/>
        </g>
      </g>
    </g>
    <g id="Group_34" data-name="Group 34" transform="translate(1049.893 364.642)">
      <g transform="matrix(1, 0, 0, 1, -131.63, -41.62)" filter="url(#Path_29)">
        <g id="Path_29-2" data-name="Path 29" transform="translate(131.63 41.62)" fill="#6200e3">
          <path d="M129.1,0c71.3,0,129.1,50.724,129.1,113.295s-57.8,113.295-129.1,113.295S0,175.866,0,113.295,57.8,0,129.1,0Z" stroke="none"/>
          <path d="M 129.1032562255859 1.000015258789063 C 120.4028930664063 1.000015258789063 111.7083587646484 1.769134521484375 103.2611846923828 3.2860107421875 C 95.03022766113281 4.764068603515625 86.934326171875 6.969406127929688 79.19842529296875 9.840774536132813 C 71.60458374023438 12.65940856933594 64.28076171875 16.14784240722656 57.43038940429688 20.20913696289063 C 50.64712524414063 24.23068237304688 44.26895141601563 28.84870910644531 38.47305297851563 33.93487548828125 C 32.67951965332031 39.01901245117188 27.42019653320313 44.61270141601563 22.8411865234375 50.56057739257813 C 18.220458984375 56.56266784667969 14.25212097167969 62.97837829589844 11.04638671875 69.62947082519531 C 7.782760620117188 76.40074157714844 5.276351928710938 83.48617553710938 3.596786499023438 90.68898010253906 C 1.873687744140625 98.07847595214844 1 105.6841430664063 1 113.2947082519531 C 1 120.9052734375 1.873687744140625 128.5109405517578 3.596786499023438 135.9004821777344 C 5.276351928710938 143.1032409667969 7.782760620117188 150.1886749267578 11.04638671875 156.9599304199219 C 14.25212097167969 163.6110382080078 18.220458984375 170.0267333984375 22.8411865234375 176.0288391113281 C 27.42019653320313 181.9767150878906 32.67951965332031 187.5704040527344 38.47305297851563 192.654541015625 C 44.26895141601563 197.7407379150391 50.64712524414063 202.3587341308594 57.43038940429688 206.3802795410156 C 64.28076171875 210.4416046142578 71.60458374023438 213.9300079345703 79.19842529296875 216.7486419677734 C 86.934326171875 219.6200103759766 95.03022766113281 221.8253479003906 103.2611846923828 223.3034057617188 C 111.7083587646484 224.8202819824219 120.4028930664063 225.5894012451172 129.1032562255859 225.5894012451172 C 137.8036499023438 225.5894012451172 146.4981536865234 224.8202819824219 154.9453125 223.3034057617188 C 163.1763000488281 221.8253479003906 171.2721862792969 219.6200103759766 179.0080871582031 216.7486419677734 C 186.6019287109375 213.9300079345703 193.9257507324219 210.4416046142578 200.7761535644531 206.3802795410156 C 207.5594177246094 202.3587341308594 213.9375610351563 197.7407379150391 219.7334594726563 192.654541015625 C 225.5270233154297 187.5704040527344 230.7863159179688 181.9767150878906 235.3653259277344 176.0288391113281 C 239.9860534667969 170.0267333984375 243.9544219970703 163.6110382080078 247.1601257324219 156.9599304199219 C 250.4237518310547 150.1886749267578 252.9301605224609 143.1032409667969 254.6097259521484 135.9004821777344 C 256.3328247070313 128.5109405517578 257.2065124511719 120.9052734375 257.2065124511719 113.2947082519531 C 257.2065124511719 105.6841430664063 256.3328247070313 98.07847595214844 254.6097259521484 90.68898010253906 C 252.9301605224609 83.48617553710938 250.4237518310547 76.40074157714844 247.1601257324219 69.62947082519531 C 243.9544219970703 62.97837829589844 239.9860534667969 56.56266784667969 235.3653259277344 50.56057739257813 C 230.7863159179688 44.61270141601563 225.5270233154297 39.01901245117188 219.7334594726563 33.93487548828125 C 213.9375610351563 28.84870910644531 207.5594177246094 24.23068237304688 200.7761535644531 20.20913696289063 C 193.9257507324219 16.14784240722656 186.6019287109375 12.65940856933594 179.0080871582031 9.840774536132813 C 171.2721862792969 6.969406127929688 163.1763000488281 4.764068603515625 154.9453125 3.2860107421875 C 146.4981536865234 1.769134521484375 137.8036499023438 1.000015258789063 129.1032562255859 1.000015258789063 M 129.1032562255859 1.52587890625e-05 C 200.405029296875 1.52587890625e-05 258.2065124511719 50.72377014160156 258.2065124511719 113.2947082519531 C 258.2065124511719 175.8656768798828 200.405029296875 226.5894012451172 129.1032562255859 226.5894012451172 C 57.80152893066406 226.5894012451172 0 175.8656768798828 0 113.2947082519531 C 0 50.72377014160156 57.80152893066406 1.52587890625e-05 129.1032562255859 1.52587890625e-05 Z" stroke="none" fill="rgba(112,112,112,0)"/>
        </g>
      </g>
      <g id="Mask_Group_13" data-name="Mask Group 13" transform="translate(0 0)" clip-path="url(#clip-path)">
        <line id="Line_6" data-name="Line 6" transform="translate(-2.635 86.947)" fill="none" stroke="#707070" stroke-width="1"/>
        <path id="Path_28" data-name="Path 28" d="M7548.08-950.067" transform="translate(-7552.927 1049.834)" fill="none" stroke="#707070" stroke-width="1"/>
        <g id="Rectangle_5" data-name="Rectangle 5" transform="matrix(0.899, -0.438, 0.438, 0.899, -23.26, 98.681)" fill="#73d220" stroke="rgba(112,112,112,0)" stroke-width="1">
          <rect width="237.128" height="31.617" stroke="none"/>
          <rect x="0.5" y="0.5" width="236.128" height="30.617" fill="none"/>
        </g>
        <g id="Rectangle_6" data-name="Rectangle 6" transform="matrix(0.899, -0.438, 0.438, 0.899, -12.721, 151.061)" fill="#73d220" stroke="rgba(112,112,112,0)" stroke-width="1">
          <rect width="293.973" height="21.135" stroke="none"/>
          <rect x="0.5" y="0.5" width="292.973" height="20.135" fill="none"/>
        </g>
        <g id="Rectangle_7" data-name="Rectangle 7" transform="matrix(0.899, -0.438, 0.438, 0.899, -4.848, 168.231)" fill="#75aa19" stroke="rgba(112,112,112,0)" stroke-width="1">
          <rect width="293.973" height="21.135" stroke="none"/>
          <rect x="0.5" y="0.5" width="292.973" height="20.135" fill="none"/>
        </g>
        <g id="Rectangle_8" data-name="Rectangle 8" transform="matrix(0.899, -0.438, 0.438, 0.899, 10.961, 199.848)" fill="#73d220" stroke="rgba(112,112,112,0)" stroke-width="1">
          <rect width="293.973" height="21.135" stroke="none"/>
          <rect x="0.5" y="0.5" width="292.973" height="20.135" fill="none"/>
        </g>
        <g id="Rectangle_9" data-name="Rectangle 9" transform="matrix(0.899, -0.438, 0.438, 0.899, 32.039, 228.637)" fill="#75aa19" stroke="rgba(117,170,25,0)" stroke-width="1">
          <rect width="293.973" height="21.135" stroke="none"/>
          <rect x="0.5" y="0.5" width="292.973" height="20.135" fill="none"/>
        </g>
        <g id="Rectangle_10" data-name="Rectangle 10" transform="matrix(0.899, -0.438, 0.438, 0.899, 95.744, 244.733)" fill="#75aa19" stroke="rgba(112,112,112,0)" stroke-width="1">
          <rect width="214.93" height="21.135" stroke="none"/>
          <rect x="0.5" y="0.5" width="213.93" height="20.135" fill="none"/>
        </g>
      </g>
    </g>
    <path id="Path_62" data-name="Path 62" d="M7613.315-840.933c290.31-123.644,214.768-95.528,214.768-95.528v20.253l-194.926,89.192Z" transform="translate(-6519.607 1402.874)" fill="#3a2eb7" stroke="rgba(0,0,0,0)" stroke-width="1"/>
    <g id="Path_61" data-name="Path 61" transform="matrix(0.914, -0.407, 0.407, 0.914, 918.26, 533.551)" fill="#3a2eb7">
      <path d="M258.2,122.222c-68.968,0-133.809-6.357-182.577-17.9C51.914,98.71,33.3,92.174,20.291,84.9,6.827,77.363,0,69.359,0,61.109S6.827,44.857,20.291,37.323C33.3,30.046,51.914,23.511,75.627,17.9,124.4,6.357,189.237,0,258.2,0S392.016,6.357,440.786,17.9c23.714,5.612,42.332,12.147,55.337,19.424,13.464,7.534,20.291,15.537,20.291,23.786S509.586,77.363,496.122,84.9c-13.005,7.277-31.623,13.813-55.337,19.425C392.017,115.865,327.175,122.222,258.2,122.222Zm0-103.42c-113.318,0-205.51,18.979-205.51,42.307s92.191,42.307,205.51,42.307S463.719,84.437,463.719,61.109,371.525,18.8,258.2,18.8Z" stroke="none"/>
      <path d="M 258.2044372558594 121.2216339111328 C 327.0994873046875 121.2216339111328 391.859619140625 114.8744354248047 440.5552978515625 103.3493041992188 C 464.1783447265625 97.75823974609375 482.7094116210938 91.25643920898438 495.6338195800781 84.02436828613281 C 502.2308349609375 80.33283233642578 507.2514343261719 76.49663543701172 510.5560913085938 72.6224365234375 C 513.7792358398438 68.84383392333984 515.4135131835938 64.97010040283203 515.4135131835938 61.10870361328125 C 515.4135131835938 57.24783706665039 513.7792358398438 53.37456893920898 510.55615234375 49.59637069702148 C 507.2514343261719 45.72256851196289 502.2308959960938 41.88670349121094 495.6338806152344 38.1954345703125 C 482.7096252441406 30.96403694152832 464.1785583496094 24.46257019042969 440.5552978515625 18.87176895141602 C 391.8588256835938 7.346969127655029 327.0986938476563 1.000036001205444 258.2044372558594 1.000036001205444 C 189.3123626708984 1.000036001205444 124.5536880493164 7.347035884857178 75.85768890380859 18.87183570861816 C 52.23482513427734 24.46257019042969 33.70389175415039 30.96403694152832 20.77962303161621 38.1954345703125 C 14.1826229095459 41.88676834106445 9.162023544311523 45.72263717651367 5.857356548309326 49.596435546875 C 2.634289979934692 53.37456893920898 1.000023245811462 57.24783706665039 1.000023245811462 61.10870361328125 C 1.000023245811462 64.97003936767578 2.634289979934692 68.84383392333984 5.857356548309326 72.6224365234375 C 9.162090301513672 76.49663543701172 14.18268966674805 80.33283233642578 20.77968978881836 84.02443695068359 C 33.70382308959961 91.25643920898438 52.23475646972656 97.75830078125 75.85768890380859 103.3493728637695 C 124.5528869628906 114.8745040893555 189.3115539550781 121.2216339111328 258.2044372558594 121.2216339111328 M 258.2044372558594 17.80143547058105 C 313.0772094726563 17.80143547058105 364.7338256835938 22.21443557739258 403.6586303710938 30.22750282287598 C 422.6282348632813 34.132568359375 437.5401000976563 38.68463516235352 447.9799499511719 43.75710296630859 C 459.0870971679688 49.15383529663086 464.7188110351563 54.99170303344727 464.7188110351563 61.10870361328125 C 464.7188110351563 67.22570037841797 459.0870971679688 73.06363677978516 447.9799499511719 78.46030426025391 C 437.5401000976563 83.5328369140625 422.6282348632813 88.0848388671875 403.6586303710938 91.98996734619141 C 364.73388671875 100.0030364990234 313.0772094726563 104.4160385131836 258.2044372558594 104.4160385131836 C 203.3328247070313 104.4160385131836 151.6773529052734 100.0030364990234 112.7534866333008 91.98996734619141 C 93.78428649902344 88.0848388671875 78.87275695800781 83.5328369140625 68.43315887451172 78.46030426025391 C 57.32629013061523 73.06363677978516 51.6946907043457 67.22570037841797 51.6946907043457 61.10870361328125 C 51.6946907043457 54.99170303344727 57.32629013061523 49.15383529663086 68.43315887451172 43.75710296630859 C 78.87282562255859 38.68463516235352 93.78428649902344 34.13263702392578 112.7534866333008 30.22750282287598 C 151.6774291992188 22.21443557739258 203.3328857421875 17.80143547058105 258.2044372558594 17.80143547058105 M 258.2044372558594 122.2216339111328 C 189.236083984375 122.2216339111328 124.3956909179688 115.8649063110352 75.62735748291016 104.3225021362305 C 51.91415786743164 98.71003723144531 33.29642486572266 92.17436981201172 20.29135704040527 84.89710235595703 C 6.827023029327393 77.36263275146484 2.325846435269341e-05 69.35910034179688 2.325846435269341e-05 61.10870361328125 C 2.325846435269341e-05 52.85930252075195 6.827023029327393 44.85663604736328 20.29135704040527 37.32276916503906 C 33.29655838012695 30.04603576660156 51.91429138183594 23.51083564758301 75.62735748291016 17.89870262145996 C 124.3966217041016 6.356569290161133 189.2370910644531 3.602905417210422e-05 258.2044372558594 3.602905417210422e-05 C 327.173828125 3.602905417210422e-05 392.0156860351563 6.356502532958984 440.7856140136719 17.89863586425781 C 464.4991455078125 23.51083564758301 483.1170959472656 30.04610252380371 496.1221618652344 37.32276916503906 C 509.58642578125 44.85657119750977 516.4135131835938 52.85930252075195 516.4135131835938 61.10870361328125 C 516.4135131835938 69.35916900634766 509.58642578125 77.36270141601563 496.1221618652344 84.89703369140625 C 483.116943359375 92.17430114746094 464.4991455078125 98.70996856689453 440.7856140136719 104.3224334716797 C 392.0166931152344 115.8649063110352 327.1747436523438 122.2216339111328 258.2044372558594 122.2216339111328 Z M 258.2044372558594 18.80143547058105 C 144.8859558105469 18.80143547058105 52.6946907043457 37.78043746948242 52.6946907043457 61.10870361328125 C 52.6946907043457 84.43703460693359 144.8859558105469 103.4160385131836 258.2044372558594 103.4160385131836 C 371.5254211425781 103.4160385131836 463.7188110351563 84.43703460693359 463.7188110351563 61.10870361328125 C 463.7188110351563 37.78043746948242 371.5254211425781 18.80143547058105 258.2044372558594 18.80143547058105 Z" stroke="none" fill="rgba(112,112,112,0)"/>
    </g>
  </g>
</svg>
