<svg xmlns="http://www.w3.org/2000/svg" width="512.001" height="456.374" viewBox="0 0 512.001 456.374">
  <g id="badge_1_" data-name="badge (1)" transform="translate(-100.999 147.187) rotate(180)">
    <g id="Group_85" data-name="Group 85" transform="translate(-613 -337)">
      <g id="Group_82" data-name="Group 82">
        <g id="Group_81" data-name="Group 81">
          <path id="Path_377" data-name="Path 377" d="M506.2,218.067c-.489-.228-49.174-22.837-120.446-71.424C315.218,98.556,266.663,33.023,266.174,32.371a10.947,10.947,0,0,0-8.392-4.522,10.609,10.609,0,0,0-8.793,3.772c-.728.826-72.685,82.532-120.326,115.022C80.38,179.567,7.337,217.969,6.609,218.349,2.967,220.273,0,224.067,0,228.186v89.043c0,4.022,2.859,7.728,6.37,9.7a12.435,12.435,0,0,0,5.8,1.435,11.724,11.724,0,0,0,5.946-1.62c.685-.413,68.717-41.761,134.424-89.554a762.27,762.27,0,0,0,105-92.837c17.609,18.174,60.348,60.674,104.587,92.837C418.142,277.925,495.6,326.2,496.37,326.675a9.921,9.921,0,0,0,10.593.283C510.5,325,512,321.273,512,317.23V228.187C512,223.828,510.152,219.871,506.2,218.067Zm-16.457,78.978c-25.043-16.478-75.652-49.1-115.2-77.859-54.772-39.837-108.8-98.163-109.348-98.75a11.512,11.512,0,0,0-8.163-3.554,10.918,10.918,0,0,0-8.13,3.837c-.446.511-45.772,51.685-110.1,98.467-45.337,32.968-91.5,62.848-116.543,78.033V234.86c19.478-9.978,76.554-41.38,118.272-69.826,40.206-27.413,94.728-85.348,115.935-108.728,17.217,21.261,59.13,69.8,116.217,108.728C431.305,205,475.826,227.425,489.739,235.2v61.848Z"/>
        </g>
      </g>
      <g id="Group_84" data-name="Group 84">
        <g id="Group_83" data-name="Group 83">
          <path id="Path_378" data-name="Path 378" d="M506.2,373.893c-.489-.228-49.174-22.837-120.446-71.424C315.218,254.382,266.663,188.85,266.174,188.2a10.95,10.95,0,0,0-8.392-4.522,10.64,10.64,0,0,0-8.793,3.772c-.728.826-72.685,82.532-120.326,115.022C80.38,335.393,7.337,373.8,6.609,374.175,2.967,376.1,0,379.893,0,384.012v89.044c0,4.022,2.859,7.728,6.37,9.7a12.435,12.435,0,0,0,5.8,1.435,11.724,11.724,0,0,0,5.946-1.62c.685-.413,68.717-41.761,134.424-89.554a762.269,762.269,0,0,0,105-92.837c17.609,18.174,60.348,60.674,104.587,92.837C418.142,433.752,495.6,482.024,496.37,482.5a9.9,9.9,0,0,0,10.593.283C510.5,480.829,512,477.1,512,473.057V384.013C512,379.654,510.152,375.7,506.2,373.893Zm-16.457,78.978c-25.043-16.478-75.652-49.1-115.2-77.859-54.772-39.837-108.8-98.163-109.348-98.75a12.485,12.485,0,0,0-8.163-3.554,10.918,10.918,0,0,0-8.13,3.837c-.446.511-45.772,51.685-110.1,98.467C93.467,407.98,47.3,437.86,22.261,453.045V390.686c19.478-9.978,76.554-41.38,118.272-69.826,40.206-27.413,94.728-85.348,115.935-108.728,17.217,21.261,59.13,69.8,116.217,108.728,58.62,39.967,103.141,62.391,117.054,70.163v61.848Z"/>
        </g>
      </g>
    </g>
  </g>
</svg>
