<svg xmlns="http://www.w3.org/2000/svg" width="512.999" height="301.556" viewBox="0 0 512.999 301.556">
  <path id="Intersection_1" data-name="Intersection 1" d="M345.223,409.511a10.949,10.949,0,0,1-8.4-4.522c-.484-.653-49.045-66.185-119.571-114.272C145.984,242.13,97.3,219.521,96.81,219.293c-3.963-1.8-5.81-5.761-5.81-10.121V120.129c0-4.043,1.5-7.772,5.038-9.728a9.925,9.925,0,0,1,10.593.283c.777.478,78.228,48.75,134.244,89.49,44.233,32.162,86.973,74.662,104.576,92.837a762.6,762.6,0,0,1,105-92.837c65.705-47.794,133.739-89.141,134.418-89.555A11.741,11.741,0,0,1,590.826,109a12.426,12.426,0,0,1,5.8,1.436c3.506,1.967,6.37,5.674,6.37,9.7v89.043c0,4.118-2.962,7.913-6.609,9.837-.724.38-73.767,38.783-122.053,71.706-47.647,32.49-119.6,114.2-120.321,115.022a10.9,10.9,0,0,1-8.114,3.8Q345.564,409.534,345.223,409.511ZM113.262,202.163c13.913,7.771,58.44,30.2,117.054,70.163,57.087,38.923,98.995,87.466,116.222,108.727,21.2-23.379,75.717-81.315,115.929-108.727,41.723-28.445,98.794-59.848,118.273-69.816v-62.37C555.7,155.327,509.534,185.207,464.2,218.174c-64.326,46.782-109.652,97.956-110.1,98.466a10.936,10.936,0,0,1-8.13,3.838c-3.544-.217-6.028-1.239-8.175-3.554-.544-.587-54.571-58.913-109.343-98.75-39.549-28.761-90.152-61.381-115.195-77.859Z" transform="translate(-90.501 -108.478)" stroke="#707070" stroke-width="1"/>
</svg>
