<svg xmlns="http://www.w3.org/2000/svg" width="436.149" height="511.999" viewBox="0 0 436.149 511.999">
  <g id="badge_2_" data-name="badge (2)" transform="translate(-37.924)">
    <g id="Group_87" data-name="Group 87">
      <g id="Group_86" data-name="Group 86">
        <path id="Path_379" data-name="Path 379" d="M469.835,1.219a8.95,8.95,0,0,0-9.273.157c-.579.352-58.311,35.583-114.288,76.288a648,648,0,0,0-89.334,79.084c-15-15.472-51.348-51.676-89.033-79.084C120.194,42.969,54.244,1.84,53.582,1.432a10.584,10.584,0,0,0-10.195-.241c-3.014,1.667-5.463,4.843-5.463,8.287V85.33c0,3.713,2.759,7.083,6.134,8.62.417.194,42.482,19.454,103.19,60.843,60.079,40.963,101.741,96.788,102.153,97.343a9.616,9.616,0,0,0,7.306,3.852c.134.009.306.009.44.009a9.518,9.518,0,0,0,7.143-3.222c.616-.7,61.936-70.306,102.524-97.982,41.134-28.046,102.186-60.76,102.8-61.084,3.107-1.639,4.458-4.87,4.458-8.38V9.479C474.075,6.053,472.821,2.895,469.835,1.219ZM455.112,79.655c-14.222,8.491-64.024,35.241-99.565,59.472-34.255,23.352-80.1,72.7-98.163,92.621-14.676-18.111-51.264-59.463-99.894-92.621-49.931-34.047-86.38-53.149-100.6-59.769V26.673C80.592,40.71,122.523,68.506,156.2,93c46.662,33.945,93.278,83.621,93.741,84.121a9.418,9.418,0,0,0,7.255,3.028,9.649,9.649,0,0,0,7.079-3.268c.375-.435,37.977-44.093,92.672-83.88,38.621-28.084,79.2-53.537,98.167-66.463V79.655Z"/>
      </g>
    </g>
    <g id="Group_89" data-name="Group 89">
      <g id="Group_88" data-name="Group 88">
        <path id="Path_380" data-name="Path 380" d="M469.835,133.961a8.97,8.97,0,0,0-9.273.157c-.579.352-58.311,35.583-114.288,76.287a648,648,0,0,0-89.334,79.084c-15-15.472-51.348-51.676-89.033-79.084C120.194,175.71,54.244,134.58,53.582,134.173a10.558,10.558,0,0,0-10.195-.241c-3.014,1.667-5.463,4.843-5.463,8.287v75.852c0,3.713,2.759,7.083,6.134,8.62.417.194,42.482,19.454,103.19,60.843C207.327,328.5,248.989,384.322,249.4,384.877a9.616,9.616,0,0,0,7.306,3.852c.134.009.306.009.44.009a9.518,9.518,0,0,0,7.143-3.222c.616-.7,61.936-70.306,102.524-97.982,41.134-28.046,102.186-60.76,102.8-61.084,3.107-1.639,4.458-4.87,4.458-8.38V142.22C474.075,138.794,472.821,135.637,469.835,133.961ZM455.112,212.4c-14.222,8.491-64.024,35.241-99.565,59.472-34.255,23.352-80.1,72.7-98.163,92.621-14.676-18.111-51.264-59.463-99.894-92.621-49.931-34.047-86.38-53.148-100.6-59.769V159.414c23.7,14.037,65.635,41.833,99.311,66.325,46.662,33.945,93.278,83.621,93.741,84.121a9.229,9.229,0,0,0,7.255,3.028,9.646,9.646,0,0,0,7.079-3.269c.375-.435,37.977-44.093,92.672-83.88,38.621-28.084,79.2-53.537,98.167-66.463V212.4Z"/>
      </g>
    </g>
    <g id="Group_91" data-name="Group 91">
      <g id="Group_90" data-name="Group 90">
        <path id="Path_381" data-name="Path 381" d="M469.835,257.221a8.95,8.95,0,0,0-9.273.157c-.579.352-58.311,35.584-114.288,76.288A648,648,0,0,0,256.94,412.75c-15-15.472-51.348-51.676-89.033-79.084-47.713-34.7-113.663-75.825-114.325-76.232a10.608,10.608,0,0,0-10.195-.241c-3.014,1.666-5.463,4.843-5.463,8.287v75.852c0,3.713,2.759,7.083,6.134,8.62.417.194,42.482,19.454,103.19,60.843,60.079,40.963,101.741,96.788,102.153,97.343a9.616,9.616,0,0,0,7.306,3.852c.134.009.306.009.44.009a9.518,9.518,0,0,0,7.143-3.222c.616-.7,61.936-70.306,102.524-97.982,41.134-28.046,102.186-60.76,102.8-61.084,3.107-1.639,4.458-4.87,4.458-8.38V265.48C474.075,262.054,472.821,258.9,469.835,257.221Zm-14.723,78.435c-14.222,8.491-64.024,35.241-99.565,59.472-34.255,23.352-80.1,72.7-98.163,92.621-14.676-18.111-51.264-59.463-99.894-92.621-49.931-34.047-86.38-53.148-100.6-59.769V282.673C80.592,296.71,122.523,324.506,156.2,349c46.662,33.945,93.278,83.621,93.741,84.121a10.111,10.111,0,0,0,7.255,3.028,9.649,9.649,0,0,0,7.079-3.268c.375-.435,37.977-44.093,92.672-83.88,38.621-28.083,79.2-53.537,98.167-66.463v53.12Z"/>
      </g>
    </g>
  </g>
</svg>
