<svg xmlns="http://www.w3.org/2000/svg" width="386.097" height="511.999" viewBox="0 0 386.097 511.999">
  <g id="badge_3_" data-name="badge (3)" transform="translate(-62.95)">
    <g id="Group_93" data-name="Group 93" transform="translate(62.95 118.303)">
      <g id="Group_92" data-name="Group 92">
        <path id="Path_382" data-name="Path 382" d="M441.7,118.3H72.393c-4.635,0-9.443,2.959-9.443,7.6v16.787c0,3.893,3.221,7.287,7.012,8.172.361.09,36.906,8.885,89.766,44.926,53.184,36.262,90.066,85.68,90.43,86.172a8.512,8.512,0,0,0,6.467,3.41c.119.008.27.008.389.008a8.426,8.426,0,0,0,6.324-2.853c.545-.623,54.828-62.238,90.758-86.738,35.955-24.516,89.5-45.041,90.041-45.246,3.266-1.23,4.91-4.361,4.91-7.852V125.9C449.048,121.262,446.339,118.3,441.7,118.3Zm-9.443,18.648c-14.688,5.967-56.971,23.713-88.139,44.967-30.324,20.672-70.91,64.361-86.9,81.992-12.992-16.033-45.381-52.639-88.43-81.992s-74.369-41.426-89.057-45.574V135.09H432.262v1.861Z" transform="translate(-62.95 -118.303)"/>
      </g>
    </g>
    <g id="Group_95" data-name="Group 95" transform="translate(62.951 167.867)">
      <g id="Group_94" data-name="Group 94">
        <path id="Path_383" data-name="Path 383" d="M445.294,168.951a7.922,7.922,0,0,0-8.209.139c-.512.312-51.619,31.5-101.172,67.533a573.71,573.71,0,0,0-79.082,70.008c-13.275-13.7-45.455-45.746-78.816-70.008C135.779,205.91,77.4,169.5,76.812,169.139a9.344,9.344,0,0,0-9.025-.213c-2.668,1.475-4.836,4.287-4.836,7.336V243.41c0,3.287,2.443,6.271,5.43,7.631.369.172,37.607,17.221,91.348,53.861,53.184,36.262,90.066,85.68,90.43,86.172a8.512,8.512,0,0,0,6.467,3.41c.119.008.27.008.389.008a8.426,8.426,0,0,0,6.324-2.853c.545-.623,54.828-62.238,90.758-86.738,36.414-24.828,90.459-53.787,91-54.074,2.75-1.451,3.947-4.311,3.947-7.418V176.261C449.048,173.23,447.938,170.434,445.294,168.951Zm-13.033,69.434c-12.59,7.516-56.676,31.2-88.139,52.647-30.324,20.672-70.91,64.361-86.9,81.992-12.992-16.033-45.381-52.639-88.43-81.992-44.2-30.139-76.467-47.049-89.057-52.91V191.483c20.984,12.426,58.1,37.033,87.914,58.713,41.307,30.049,82.574,74.024,82.984,74.467a8.8,8.8,0,0,0,6.422,2.68,8.541,8.541,0,0,0,6.266-2.893A533.845,533.845,0,0,1,345.36,250.2c34.189-24.861,70.115-47.394,86.9-58.836v47.025Z" transform="translate(-62.951 -167.868)"/>
      </g>
    </g>
    <g id="Group_97" data-name="Group 97" transform="translate(62.95 285.378)">
      <g id="Group_96" data-name="Group 96">
        <path id="Path_384" data-name="Path 384" d="M445.294,286.459a7.922,7.922,0,0,0-8.209.139c-.512.312-51.619,31.5-101.172,67.533a573.711,573.711,0,0,0-79.082,70.008c-13.275-13.7-45.455-45.746-78.816-70.008-42.238-30.713-100.619-67.123-101.2-67.484a9.366,9.366,0,0,0-9.025-.213c-2.668,1.475-4.836,4.287-4.836,7.336v67.148c0,3.287,2.443,6.271,5.43,7.631.369.172,37.607,17.221,91.348,53.861,53.184,36.262,90.066,85.68,90.43,86.172a8.512,8.512,0,0,0,6.467,3.41c.119.008.27.008.389.008a8.426,8.426,0,0,0,6.324-2.853c.545-.623,54.828-62.238,90.758-86.738,36.414-24.828,90.459-53.787,91-54.074,2.75-1.451,3.947-4.311,3.947-7.418V293.769C449.048,290.738,447.938,287.943,445.294,286.459Zm-13.033,69.434c-12.59,7.516-56.676,31.2-88.139,52.647-30.324,20.672-70.91,64.361-86.9,81.992-12.992-16.033-45.381-52.639-88.43-81.992-44.2-30.139-76.467-47.049-89.057-52.91V308.991c20.984,12.426,58.1,37.033,87.914,58.713,41.307,30.049,82.574,74.025,82.984,74.467a8.615,8.615,0,0,0,12.688-.213A533.846,533.846,0,0,1,345.36,367.7c34.189-24.861,70.115-47.394,86.9-58.836v47.025Z" transform="translate(-62.95 -285.379)"/>
      </g>
    </g>
    <g id="Group_99" data-name="Group 99" transform="translate(141.593)">
      <g id="Group_98" data-name="Group 98">
        <path id="Path_385" data-name="Path 385" d="M237.8,34.8a8.392,8.392,0,0,0-6.775-5.713l-23.217-3.377L197.43,4.68a8.392,8.392,0,0,0-15.053,0L171.992,25.713,148.779,29.09A8.388,8.388,0,0,0,144.131,43.4l16.795,16.377-3.963,23.115a8.39,8.39,0,0,0,12.176,8.844L189.9,80.827l20.762,10.91a8.391,8.391,0,0,0,12.176-8.845l-3.963-23.115L235.671,43.4A8.375,8.375,0,0,0,237.8,34.8ZM204,50.836a8.374,8.374,0,0,0-2.414,7.426l1.836,10.7-9.615-5.049a8.372,8.372,0,0,0-7.812,0l-9.615,5.049,1.836-10.7a8.371,8.371,0,0,0-2.414-7.426l-7.774-7.582,10.746-1.566a8.376,8.376,0,0,0,6.315-4.59L189.9,27.36l4.8,9.738a8.391,8.391,0,0,0,6.32,4.59l10.75,1.566Z" transform="translate(-141.593)"/>
      </g>
    </g>
    <g id="Group_101" data-name="Group 101" transform="translate(284.28)">
      <g id="Group_100" data-name="Group 100">
        <path id="Path_386" data-name="Path 386" d="M380.488,34.8a8.392,8.392,0,0,0-6.775-5.713L350.5,25.713,340.119,4.68a8.392,8.392,0,0,0-15.053,0L314.68,25.713,291.467,29.09A8.388,8.388,0,0,0,286.819,43.4l16.795,16.377-3.963,23.115a8.39,8.39,0,0,0,12.176,8.844l20.762-10.91,20.762,10.91a8.391,8.391,0,0,0,12.176-8.845l-3.963-23.115L378.359,43.4A8.375,8.375,0,0,0,380.488,34.8Zm-33.8,16.033a8.374,8.374,0,0,0-2.414,7.426l1.836,10.7-9.615-5.049a8.372,8.372,0,0,0-7.812,0l-9.615,5.049,1.836-10.7a8.371,8.371,0,0,0-2.414-7.426l-7.774-7.582,10.746-1.566a8.376,8.376,0,0,0,6.315-4.59l4.812-9.738,4.8,9.738a8.391,8.391,0,0,0,6.32,4.59l10.75,1.566Z" transform="translate(-284.281)"/>
      </g>
    </g>
  </g>
</svg>
