<svg xmlns="http://www.w3.org/2000/svg" width="392.534" height="511.999" viewBox="0 0 392.534 511.999">
  <g id="badge_4_" data-name="badge (4)" transform="translate(-59.733)">
    <g id="Group_103" data-name="Group 103">
      <g id="Group_102" data-name="Group 102">
        <path id="Path_387" data-name="Path 387" d="M444.8,111.742H69.333c-4.713,0-9.6,3.008-9.6,7.725v17.067c0,3.958,3.275,7.408,7.129,8.308.367.092,37.521,9.033,91.263,45.675,54.071,36.867,91.567,87.108,91.938,87.608a8.656,8.656,0,0,0,6.575,3.467c.121.008.275.008.4.008a8.565,8.565,0,0,0,6.429-2.9c.554-.633,55.742-63.275,92.271-88.183,36.554-24.925,90.992-45.792,91.542-46,3.321-1.25,4.992-4.433,4.992-7.983V119.467C452.267,114.75,449.513,111.742,444.8,111.742ZM435.2,130.7c-14.933,6.067-57.921,24.108-89.608,45.717-30.829,21.017-72.092,65.433-88.346,83.358-13.208-16.3-46.138-53.517-89.9-83.358S91.733,134.3,76.8,130.083v-1.275H435.2Z"/>
      </g>
    </g>
    <g id="Group_105" data-name="Group 105">
      <g id="Group_104" data-name="Group 104">
        <path id="Path_388" data-name="Path 388" d="M448.45,163.233a8.055,8.055,0,0,0-8.346.142c-.521.317-52.479,32.025-102.858,68.658a583.226,583.226,0,0,0-80.4,71.175c-13.5-13.925-46.212-46.508-80.129-71.175-42.942-31.225-102.3-68.242-102.892-68.608a9.522,9.522,0,0,0-9.175-.217c-2.713,1.5-4.917,4.358-4.917,7.458v68.267c0,3.342,2.483,6.375,5.521,7.758.375.175,38.233,17.508,92.871,54.758,54.071,36.867,91.567,87.108,91.938,87.608a8.656,8.656,0,0,0,6.575,3.467c.121.008.275.008.4.008a8.565,8.565,0,0,0,6.429-2.9c.554-.633,55.742-63.275,92.271-88.183,37.021-25.242,91.967-54.683,92.521-54.975,2.8-1.475,4.013-4.383,4.013-7.542V170.665C452.267,167.583,451.138,164.742,448.45,163.233ZM435.2,233.825c-12.8,7.642-57.621,31.717-89.608,53.525-30.829,21.017-72.092,65.433-88.346,83.358-13.208-16.3-46.138-53.517-89.9-83.358C122.4,256.708,89.6,239.517,76.8,233.558V186.141c21.333,12.633,59.071,37.65,89.379,59.692,42,30.55,83.95,75.258,84.367,75.708a9.112,9.112,0,0,0,6.529,2.725,8.684,8.684,0,0,0,6.371-2.942c.338-.392,34.179-39.683,83.4-75.492,34.758-25.275,71.283-48.183,88.35-59.817v47.81Z"/>
      </g>
    </g>
    <g id="Group_107" data-name="Group 107">
      <g id="Group_106" data-name="Group 106">
        <path id="Path_389" data-name="Path 389" d="M448.45,282.7a8.073,8.073,0,0,0-8.346.142c-.521.317-52.479,32.025-102.858,68.658a583.228,583.228,0,0,0-80.4,71.175c-13.5-13.925-46.212-46.508-80.129-71.175-42.942-31.225-102.3-68.242-102.892-68.608a9.525,9.525,0,0,0-9.175-.217c-2.713,1.5-4.917,4.358-4.917,7.458V358.4c0,3.342,2.483,6.375,5.521,7.758.375.175,38.233,17.508,92.871,54.758,54.071,36.867,91.567,87.108,91.938,87.608a8.656,8.656,0,0,0,6.575,3.467c.121.008.275.008.4.008a8.565,8.565,0,0,0,6.429-2.9c.554-.633,55.742-63.275,92.271-88.183,37.021-25.242,91.967-54.683,92.521-54.975,2.8-1.475,4.013-4.383,4.013-7.542V290.132C452.267,287.05,451.138,284.208,448.45,282.7ZM435.2,353.292c-12.8,7.642-57.621,31.717-89.608,53.525-30.829,21.017-72.092,65.433-88.346,83.358-13.208-16.3-46.138-53.517-89.9-83.358C122.4,376.175,89.6,358.983,76.8,353.025V305.608c21.333,12.633,59.071,37.65,89.379,59.692,42,30.55,83.95,75.258,84.367,75.708a8.949,8.949,0,0,0,6.529,2.725,8.684,8.684,0,0,0,6.371-2.942c.338-.392,34.179-39.683,83.4-75.492,34.758-25.275,71.283-48.183,88.35-59.817v47.81Z"/>
      </g>
    </g>
    <g id="Group_109" data-name="Group 109">
      <g id="Group_108" data-name="Group 108">
        <path id="Path_390" data-name="Path 390" d="M169.229,35.383a8.529,8.529,0,0,0-6.888-5.808l-23.6-3.433L128.187,4.759a8.532,8.532,0,0,0-15.3,0L102.324,26.141l-23.6,3.433A8.528,8.528,0,0,0,74,44.124l17.075,16.65-4.029,23.5a8.531,8.531,0,0,0,12.379,8.992l21.108-11.092L141.64,93.266a8.531,8.531,0,0,0,12.379-8.992l-4.029-23.5,17.075-16.65A8.515,8.515,0,0,0,169.229,35.383Zm-34.362,16.3a8.51,8.51,0,0,0-2.454,7.55l1.867,10.883-9.775-5.133a8.512,8.512,0,0,0-7.942,0l-9.775,5.133,1.867-10.883a8.512,8.512,0,0,0-2.454-7.55l-7.9-7.708,10.925-1.592a8.519,8.519,0,0,0,6.421-4.667l4.892-9.9,4.883,9.9a8.532,8.532,0,0,0,6.425,4.667l10.929,1.592Z"/>
      </g>
    </g>
    <g id="Group_111" data-name="Group 111">
      <g id="Group_110" data-name="Group 110">
        <path id="Path_391" data-name="Path 391" d="M305.763,35.383a8.529,8.529,0,0,0-6.888-5.808l-23.6-3.433L264.721,4.759a8.532,8.532,0,0,0-15.3,0L238.858,26.141l-23.6,3.433a8.528,8.528,0,0,0-4.724,14.55l17.075,16.65-4.029,23.5a8.531,8.531,0,0,0,12.379,8.992l21.108-11.092,21.108,11.092a8.531,8.531,0,0,0,12.38-8.992l-4.029-23.5L303.6,44.124A8.521,8.521,0,0,0,305.763,35.383ZM271.4,51.683a8.51,8.51,0,0,0-2.454,7.55l1.867,10.883-9.775-5.133a8.512,8.512,0,0,0-7.942,0l-9.775,5.133,1.867-10.883a8.512,8.512,0,0,0-2.454-7.55l-7.9-7.708,10.925-1.592a8.519,8.519,0,0,0,6.421-4.667l4.892-9.9,4.883,9.9a8.532,8.532,0,0,0,6.425,4.667L279.3,43.975Z"/>
      </g>
    </g>
    <g id="Group_113" data-name="Group 113">
      <g id="Group_112" data-name="Group 112">
        <path id="Path_392" data-name="Path 392" d="M433.763,35.383a8.529,8.529,0,0,0-6.887-5.808l-23.6-3.433L392.722,4.759a8.533,8.533,0,0,0-15.305,0L366.858,26.141l-23.6,3.433a8.528,8.528,0,0,0-4.724,14.55l17.075,16.65-4.029,23.5a8.531,8.531,0,0,0,12.38,8.992l21.108-11.092,21.108,11.092a8.531,8.531,0,0,0,12.38-8.992l-4.029-23.5L431.6,44.124A8.522,8.522,0,0,0,433.763,35.383ZM399.4,51.683a8.51,8.51,0,0,0-2.454,7.55l1.867,10.883-9.775-5.133a8.512,8.512,0,0,0-7.942,0l-9.775,5.133,1.867-10.883a8.512,8.512,0,0,0-2.454-7.55l-7.9-7.708,10.925-1.592a8.519,8.519,0,0,0,6.421-4.667l4.892-9.9,4.883,9.9a8.532,8.532,0,0,0,6.425,4.667L407.3,43.975Z"/>
      </g>
    </g>
  </g>
</svg>
