<svg xmlns="http://www.w3.org/2000/svg" xmlns:xlink="http://www.w3.org/1999/xlink" width="92.564" height="75.484" viewBox="0 0 92.564 75.484">
  <defs>
    <linearGradient id="linear-gradient" x1="0.5" y1="1" x2="0.5" gradientUnits="objectBoundingBox">
      <stop offset="0" stop-color="gray" stop-opacity="0.251"/>
      <stop offset="0.54" stop-color="gray" stop-opacity="0.122"/>
      <stop offset="1" stop-color="gray" stop-opacity="0.102"/>
    </linearGradient>
  </defs>
  <g id="undraw_staying_in_i80u" transform="translate(-0.005 0.02)" opacity="0.72">
    <path id="Path_233" data-name="Path 233" d="M147.774,85.1c3.412,5.832,2.769,13.662,1.267,19.812a15.318,15.318,0,0,0-.651,6.557,10.288,10.288,0,0,0,4.372,6.429c3.528,2.4,7.558,2.425,10.492.071,2.536-2.035,4.205-5.646,6.79-7.567,4.333-3.222,10.265-1.073,15.422,2.142,3.649,2.275,7.663,5.144,11.035,3.649,2.373-1.052,3.853-4.139,4.545-7.519a14.9,14.9,0,0,1,1.3-4.651,4.94,4.94,0,0,1,1.728-1.607c5.916-3.582,13.917-.291,19.626-4.372,3.854-2.754,6.046-8.573,6.769-14.833s.134-12.988-.605-19.617c-.526-4.711-1.237-9.759-3.6-13.635-2.5-4.1-6.45-6-9.883-5.7s-6.416,2.5-8.983,5.215c-3.212,3.388-6.108,7.743-10.263,8.765-2.829.7-5.92-.255-8.929-.821a65.071,65.071,0,0,0-14.9-.621c-4.709.192-9.447.458-13.837,2.086-3.106,1.152-5.488,3.644-8.388,5.234-1.889,1.036-4.02,1.125-5.781,2.523a9.074,9.074,0,0,0-3.179,9.11C142.946,79.7,145.96,82,147.774,85.1Z" transform="translate(-138.229 -44.25)" fill="#6c63ff" opacity="0.1"/>
    <path id="Path_234" data-name="Path 234" d="M103.107,331.775s-4.61,7.2,10.5,7.327c0,0,.222-6.267-4.719-8.849a4.433,4.433,0,0,0-5.715,1.416Z" transform="translate(-102.44 -303.208)" fill="#6c63ff"/>
    <path id="Path_235" data-name="Path 235" d="M109.93,350.28s7.741,1.525,10.47,7.448" transform="translate(-109.228 -321.833)" fill="none" stroke="#535461" stroke-miterlimit="10" stroke-width="1"/>
    <path id="Path_236" data-name="Path 236" d="M144.6,192.866s-4.971-6.423-4.517-12.756a12.337,12.337,0,0,0-1.88-7.554,20.694,20.694,0,0,0-2.336-2.976" transform="translate(-132.756 -157.94)" fill="none" stroke="#535461" stroke-miterlimit="10" stroke-width="2"/>
    <path id="Path_237" data-name="Path 237" d="M106.1,115.916c.347.889-.257,4.1-.257,4.1s-2.617-1.953-2.964-2.84a1.729,1.729,0,1,1,3.221-1.258Z" transform="translate(-102.726 -108.269)" fill="#6c63ff"/>
    <path id="Path_238" data-name="Path 238" d="M154.755,148.172c-.192.936-2.443,3.3-2.443,3.3s-1.137-3.06-.945-4a1.729,1.729,0,1,1,3.388.7Z" transform="translate(-146.792 -136.637)" fill="#6c63ff"/>
    <path id="Path_239" data-name="Path 239" d="M185.2,231.324c-.638.711-3.774,1.616-3.774,1.616s.564-3.215,1.2-3.926a1.729,1.729,0,1,1,2.573,2.311Z" transform="translate(-174.078 -211.326)" fill="#6c63ff"/>
    <path id="Path_240" data-name="Path 240" d="M198.717,308.286c-.509.808-3.447,2.232-3.447,2.232s.012-3.264.521-4.072a1.729,1.729,0,1,1,2.926,1.842Z" transform="translate(-186.631 -281.343)" fill="#6c63ff"/>
    <path id="Path_241" data-name="Path 241" d="M115.748,187.574c.88.372,4.1-.147,4.1-.147s-1.878-2.671-2.761-3.042a1.73,1.73,0,1,0-1.342,3.189Z" transform="translate(-113.545 -171.245)" fill="#6c63ff"/>
    <path id="Path_242" data-name="Path 242" d="M124.387,273.531c.951.093,3.87-1.368,3.87-1.368s-2.588-1.983-3.543-2.073a1.729,1.729,0,0,0-.327,3.441Z" transform="translate(-120.962 -249.098)" fill="#6c63ff"/>
    <path id="Path_243" data-name="Path 243" d="M151.143,356.965c.922.25,4.046-.695,4.046-.695s-2.22-2.393-3.142-2.642a1.729,1.729,0,1,0-.9,3.338Z" transform="translate(-145.449 -324.815)" fill="#6c63ff"/>
    <path id="Path_244" data-name="Path 244" d="M106.1,115.916c.347.889-.257,4.1-.257,4.1s-2.617-1.953-2.964-2.84a1.729,1.729,0,1,1,3.221-1.258Z" transform="translate(-102.726 -108.269)" opacity="0.25"/>
    <path id="Path_245" data-name="Path 245" d="M154.755,148.172c-.192.936-2.443,3.3-2.443,3.3s-1.137-3.06-.945-4a1.729,1.729,0,1,1,3.388.7Z" transform="translate(-146.792 -136.637)" opacity="0.25"/>
    <path id="Path_246" data-name="Path 246" d="M185.2,231.324c-.638.711-3.774,1.616-3.774,1.616s.564-3.215,1.2-3.926a1.729,1.729,0,1,1,2.573,2.311Z" transform="translate(-174.078 -211.326)" opacity="0.25"/>
    <path id="Path_247" data-name="Path 247" d="M198.717,308.286c-.509.808-3.447,2.232-3.447,2.232s.012-3.264.521-4.072a1.729,1.729,0,1,1,2.926,1.842Z" transform="translate(-186.631 -281.343)" opacity="0.25"/>
    <path id="Path_248" data-name="Path 248" d="M115.748,187.574c.88.372,4.1-.147,4.1-.147s-1.878-2.671-2.761-3.042a1.73,1.73,0,1,0-1.342,3.189Z" transform="translate(-113.545 -171.245)" opacity="0.25"/>
    <path id="Path_249" data-name="Path 249" d="M124.387,273.531c.951.093,3.87-1.368,3.87-1.368s-2.588-1.983-3.543-2.073a1.729,1.729,0,0,0-.327,3.441Z" transform="translate(-120.962 -249.098)" opacity="0.25"/>
    <path id="Path_250" data-name="Path 250" d="M151.143,356.965c.922.25,4.046-.695,4.046-.695s-2.22-2.393-3.142-2.642a1.729,1.729,0,1,0-.9,3.338Z" transform="translate(-145.449 -324.815)" opacity="0.25"/>
    <path id="Path_251" data-name="Path 251" d="M123,132.168v31.795l42.3-8.218-.808-24.385Z" transform="translate(-111.554 -119.16)" fill="#5f546f"/>
    <path id="Path_252" data-name="Path 252" d="M123,132.168v31.795l42.3-8.218-.808-24.385Z" transform="translate(-111.554 -119.16)" opacity="0.1"/>
    <path id="Path_253" data-name="Path 253" d="M192.334,154.218v10.509l-44.727,13.067-.457-.236L111.77,159.2V115.755l43.785-1.415.27,24.115-1.751.539-.673-22.556-38.531,1.337-.27,32.67,33.546,14.685.025-.006Z" transform="translate(-101.369 -103.723)" fill="#5f546f"/>
    <path id="Path_254" data-name="Path 254" d="M537.334,543.08v10.509l-44.727,13.067-.457-.236,1.02-12.433Z" transform="translate(-446.369 -492.584)" opacity="0.1"/>
    <path id="Path_255" data-name="Path 255" d="M259.772,407.685s-21.655,2.161-23.761,5.291-.017,6.969-.017,6.969l33.478,14.55,45.4-11.72s-1.209-8.218-4.985-9.161-33.816-7.411-33.816-7.411S263.948,405.462,259.772,407.685Z" transform="translate(-222.73 -372.447)" fill="#ebecf0"/>
    <path id="Path_256" data-name="Path 256" d="M245,412.716,279.152,424.5s36.427-11.047,41.588-10c0,0-25.485-9.12-35.66-8.724a165.57,165.57,0,0,0-16.6,1.648S245.942,409.686,245,412.716Z" transform="translate(-231.735 -372.157)" fill="#f8f9fa"/>
    <rect id="Rectangle_71" data-name="Rectangle 71" width="19.44" height="13.847" rx="6.923" transform="translate(15.002 32.106) rotate(-40.12)" fill="#6c63ff"/>
    <rect id="Rectangle_72" data-name="Rectangle 72" width="19.44" height="13.847" rx="6.923" transform="translate(15.001 32.198) rotate(-40.12)" opacity="0.1"/>
    <rect id="Rectangle_73" data-name="Rectangle 73" width="18.165" height="12.938" rx="6.469" transform="translate(15.781 32.042) rotate(-40.12)" fill="#6c63ff"/>
    <path id="Path_257" data-name="Path 257" d="M319.69,387.763a2.416,2.416,0,0,1,.972-.9c.243-.093.513-.11.753-.211a2.019,2.019,0,0,0,.96-1.273,3.407,3.407,0,0,1,.744-1.444" transform="translate(-299.478 -352.353)" opacity="0.05"/>
    <path id="Path_258" data-name="Path 258" d="M344.66,397.183a2.415,2.415,0,0,1,.972-.9c.243-.093.513-.11.753-.211a2.019,2.019,0,0,0,.96-1.273,3.407,3.407,0,0,1,.744-1.444" transform="translate(-322.126 -360.897)" opacity="0.05"/>
    <path id="Path_259" data-name="Path 259" d="M399.22,316.253a2.417,2.417,0,0,1,.972-.9c.243-.093.513-.11.753-.211a2.019,2.019,0,0,0,.96-1.273,3.408,3.408,0,0,1,.744-1.444" transform="translate(-371.611 -287.495)" opacity="0.05"/>
    <path id="Path_260" data-name="Path 260" d="M408.79,380.773a2.416,2.416,0,0,1,.972-.9c.243-.093.513-.11.753-.211a2.019,2.019,0,0,0,.96-1.273,3.407,3.407,0,0,1,.744-1.444" transform="translate(-380.291 -346.013)" opacity="0.1"/>
    <rect id="Rectangle_74" data-name="Rectangle 74" width="19.44" height="13.847" rx="6.923" transform="translate(31.931 30.059) rotate(-40.12)" fill="#6c63ff"/>
    <rect id="Rectangle_75" data-name="Rectangle 75" width="19.44" height="13.847" rx="6.923" transform="translate(31.931 30.059) rotate(-40.12)" opacity="0.1"/>
    <rect id="Rectangle_76" data-name="Rectangle 76" width="18.165" height="12.938" rx="6.469" transform="translate(32.71 29.996) rotate(-40.12)" fill="#6c63ff"/>
    <path id="Path_261" data-name="Path 261" d="M501.69,365.763a2.415,2.415,0,0,1,.972-.9c.243-.093.513-.11.753-.211a2.019,2.019,0,0,0,.96-1.273,3.408,3.408,0,0,1,.744-1.444" transform="translate(-464.55 -332.4)" opacity="0.05"/>
    <path id="Path_262" data-name="Path 262" d="M526.66,375.183a2.417,2.417,0,0,1,.972-.9c.243-.093.513-.11.753-.211a2.019,2.019,0,0,0,.96-1.273,3.407,3.407,0,0,1,.744-1.444" transform="translate(-487.197 -340.943)" opacity="0.05"/>
    <path id="Path_263" data-name="Path 263" d="M581.22,294.253a2.416,2.416,0,0,1,.972-.9c.243-.093.513-.11.753-.211a2.019,2.019,0,0,0,.96-1.273,3.408,3.408,0,0,1,.744-1.444" transform="translate(-536.682 -267.541)" opacity="0.05"/>
    <path id="Path_264" data-name="Path 264" d="M590.79,358.773a2.416,2.416,0,0,1,.972-.9c.243-.093.513-.11.753-.211a2.019,2.019,0,0,0,.96-1.273,3.407,3.407,0,0,1,.744-1.444" transform="translate(-545.362 -326.06)" opacity="0.1"/>
    <path id="Path_265" data-name="Path 265" d="M302.625,220.052a.831.831,0,0,0-.621-.613c-2.616-.651-4.972-5.623-4.972-5.623a8.091,8.091,0,0,0-.757-2.367,11.754,11.754,0,0,1-.69-2.782c.845-.381,1.488-.806,1.069-1.1a2.116,2.116,0,0,0-.774-.325l-.268-1.474a28.264,28.264,0,0,0-.663-4.546l-.656-5.434a.351.351,0,0,0-.042-.338v-.007l-.018-.03-.008-.012-.02-.029-.011-.015-.035-.044-.023-.027-.02-.02-.028-.029-.021-.02-.033-.031-.022-.02-.044-.036-.02-.016a1.423,1.423,0,0,0-.154-.111l-.016-.01-.074-.047-.024-.015-.077-.046-.026-.015-.093-.05-.02-.01q-.12-.062-.261-.126l-.023-.01-.121-.053-.042-.018-.115-.047-.048-.02-.127-.048-.046-.018-.186-.066c-.062-.021-.123-.041-.186-.06l-.066-.019-.111-.031-.072-.018-.1-.022-.068-.014-.1-.018-.055-.009q-.075-.011-.148-.019h-.03l-.115-.008h-.313l-.109.011h-.008q-.061.008-.119.02h-.01l-.093.022-.028.007-.073.022-.032.01-.063.023-.033.013h-.01l-.022.01a19.55,19.55,0,0,1-3.673.664,17.271,17.271,0,0,1-.606-2.68,16.139,16.139,0,0,0-1.137-4.072.333.333,0,0,1-.038.071.4.4,0,0,0-.013-.074c-.134-.683-.6-.93-2.127-1.511a1.779,1.779,0,0,0-2.435.769c-.015.027-.027.052-.039.076l-.177-.087-2.178,2.935-.059.108-1.488,2.913-.05.1-.02.014-2.1,4.855a8.475,8.475,0,0,0-3.107-.593l-.947-.852-2.369-2.842a16.277,16.277,0,0,0-.856-2.273,9.056,9.056,0,0,1-.565-2.483,4.366,4.366,0,0,0,.566-1.023l-.052-.068c.018-.04.035-.08.052-.121,0,0-1.894-2.462-1.894-3.409s-5.3-1.7-5.3-1.7,0,.019-.014.049a1.993,1.993,0,0,1-.558-.482c-.026-.033-.052-.068-.077-.1a3.786,3.786,0,0,0,.789-1.274,1.128,1.128,0,0,0,.535.136c.235,0,.52-.163.474-.393h0a.239.239,0,0,0,0-.093c-.026-.133-.152-.218-.249-.312a.672.672,0,0,1-.2-.4.366.366,0,0,1,.1-.228,2.614,2.614,0,0,1,.266-.18.9.9,0,0,0,.245-.757v-.176a13.524,13.524,0,0,0-.212-1.853,3.021,3.021,0,0,0-.115-.465,3.407,3.407,0,0,0-.31-.6l-.923-1.532a1.85,1.85,0,0,0-.422-.537c-.645-.5-1.4.108-2.011-.241a3.413,3.413,0,0,0-.93-.5,3.078,3.078,0,0,0-1.331.054.627.627,0,0,0-.326.144,1.061,1.061,0,0,0-.17.488,1.373,1.373,0,0,1-.651.744,9.814,9.814,0,0,0-.874.509,5.156,5.156,0,0,0-1.1,1.472,7.582,7.582,0,0,1-1.624,1.834.229.229,0,0,0,.04.06l-.04.034c.093.213.428.151.614.293a.347.347,0,0,1,.132.258,1.2,1.2,0,0,1-.131.425,1.145,1.145,0,0,0-.158.567.394.394,0,0,0,.093.316,1.462,1.462,0,0,1,.168.157.239.239,0,0,1,.038.093c-.027.173-.178.363-.193.552a.385.385,0,0,0,0,.08v.015c-.021.254.208.459.439.567a2.443,2.443,0,0,1,.627.325.964.964,0,0,0-.22.594.439.439,0,0,0,.042.241c.147.295.566.3.885.219a.451.451,0,0,1,.259-.014.591.591,0,0,1,.193.158.814.814,0,0,0,1.233-.217l-.017.07c-.029.117-.061.237-.093.36v-.078s-1.793.419-3.205.725a2.9,2.9,0,0,0-1.923,1.436l-1.312,2.384s.014.04.045.108l-.045.082a2.707,2.707,0,0,0,.312.573c-.6,1.41-1.86,4.165-2.963,5.2a6.586,6.586,0,0,1-.565.476,1.443,1.443,0,0,0-.641.132,1.619,1.619,0,0,0-.58.465.867.867,0,0,1-.486-.027,11.669,11.669,0,0,0-1.785,1.777c-.144.052-.287.105-.428.164-.645.272-1.3.8-1.29,1.5a4.525,4.525,0,0,0,.5,1.4l-.406.474a5.362,5.362,0,0,1-1.61.852,9.6,9.6,0,0,0-2.275,1.413l-2.841,1.989-.3.193a16.614,16.614,0,0,1-1.216-2.181s-1.042-1.894-2.178.186l-.034.062a3.564,3.564,0,0,0-.367,1.071c-1.333-.651-1.979,1.894-2.061,2.466a2.217,2.217,0,0,0,.037,1.276,5.654,5.654,0,0,0,3.48,3.15,4.7,4.7,0,0,0,.465.118c1.42.284,2.367-1.8,2.367-1.8l.03-.3a4.38,4.38,0,0,0,.651.019c.139-.007.279-.007.434,0a5.614,5.614,0,0,0,2.222-.412l1.209-.485.2-.081c-.006.04-.011.08-.018.121l4.546-1.509s1.553-.194,3.28-.448c.054.153.1.307.167.457a3.563,3.563,0,0,0,2.261,1.865,10.616,10.616,0,0,0,2.992.353h.313a2.272,2.272,0,0,0,.966-.14.864.864,0,0,0,.552-.869,1.326,1.326,0,0,0-.493-.691,3.779,3.779,0,0,1-1.008-1.321,1.941,1.941,0,0,1-.107-.378,2.082,2.082,0,0,0,.924.509c1.894.473,5.209.947,6.155.663a13.114,13.114,0,0,1,6.913,0c3.6.852,4.64.568,4.64.568l-.016-.023a9.005,9.005,0,0,0,3.588.175,19.417,19.417,0,0,1,2.275-.29c.483-.033,1.046-.093,1.619-.186a4.494,4.494,0,0,0,2.64-1.488,13.162,13.162,0,0,0,4.854-.837l.434-.226.324.794s-.473,2.462,2.462,3.5a21.386,21.386,0,0,0,4.3,1.038,18.051,18.051,0,0,0,1.1,4.548l-1.042,1.515c-.321,1.282.651,1.811,1.566,2.028a5.834,5.834,0,0,1,2.12,1,21.511,21.511,0,0,0,3.889,1.986C302.383,221.072,302.73,220.532,302.625,220.052Zm-33.716-21.1.586.586-.207-.018-.365.663h-1.817a5.063,5.063,0,0,1-1.042-.663l-.242.024.432-.308s.624-.338.539-1.592Zm-6.484-2.425c-.158-.507-.336-1.058-.517-1.59.022-.211.048-.421.079-.628l.672,2.085Zm-13.27-2.908a6.78,6.78,0,0,1-.729,1.046c-.085-.026-.17-.047-.257-.068h0S248.612,194.206,249.154,193.616Zm38.879,9.4c-.014-.131-.032-.273-.052-.423l1.188-.619c.759.569,1.043,2.183,1.137,3.653C289.894,205.445,288.2,204.6,288.034,203.021Z" transform="translate(-214.869 -161.082)" fill="url(#linear-gradient)"/>
    <path id="Path_266" data-name="Path 266" d="M902.55,401.691s.558-1.4,2.7-.651,1.774,1.36,1.774,1.36l-.286,1.245-1.116.651-1.86-.186Z" transform="translate(-828.125 -367.673)" fill="#ffbcc7"/>
    <path id="Path_267" data-name="Path 267" d="M907.038,402.349a.182.182,0,0,1-.017.05l-.286,1.245-1.116.651-1.86-.186-1.209-2.418a1.473,1.473,0,0,1,.784-.727,2.643,2.643,0,0,1,1.913.076C907.027,401.658,907.073,402.188,907.038,402.349Z" transform="translate(-828.125 -367.673)" opacity="0.03"/>
    <path id="Path_268" data-name="Path 268" d="M928.515,519.4a20.476,20.476,0,0,0,.93,4.837,8.01,8.01,0,0,1,.744,2.325s2.312,4.882,4.883,5.523a.816.816,0,0,1,.61.6c.1.472-.238,1-2.8.479a21.042,21.042,0,0,1-3.82-1.953,5.729,5.729,0,0,0-2.083-.987c-.895-.213-1.853-.733-1.538-1.992l1.023-1.488a21.487,21.487,0,0,1-1.3-6.232C924.7,516.047,928.515,519.4,928.515,519.4Z" transform="translate(-848.602 -474.126)" fill="#ffbcc7"/>
    <path id="Path_269" data-name="Path 269" d="M808.2,322.615c0,1.3-4.651-1.209-4.651-1.209a1.809,1.809,0,0,1,2.511-1.023c1.5.571,1.953.814,2.089,1.488A3.987,3.987,0,0,1,808.2,322.615Z" transform="translate(-738.333 -294.55)" fill="#ffbcc7"/>
    <path id="Path_270" data-name="Path 270" d="M662.361,305.92l-2.79,5.395-.26-1.13.144-.283,1.462-2.861.049-.1Z" transform="translate(-597.981 -277.483)" fill="#ffbcc7"/>
    <path id="Path_271" data-name="Path 271" d="M546.389,419.92l-1.488,3.255-1.023,1.023-.48-.505-.192-.2-1.1-1.153,1.023-2.418Z" transform="translate(-491.682 -380.88)" fill="#ffbcc7"/>
    <path id="Path_272" data-name="Path 272" d="M524.691,257.536s-6.325,2.976-6.511,2.883-2.6-.651-1.488-2.883a9.814,9.814,0,0,0,.744-2.046,8.7,8.7,0,0,0,.279-2.232s3.907-1.767,4.186.279a2.913,2.913,0,0,0,.558,1.435,1.831,1.831,0,0,0,1.209.7Z" transform="translate(-477.891 -233.192)" fill="#feb7c5"/>
    <path id="Path_273" data-name="Path 273" d="M240.288,504.434l-.279,2.79s-.93,2.046-2.325,1.767a4.647,4.647,0,0,1-.453-.116,5.554,5.554,0,0,1-3.417-3.095,2.18,2.18,0,0,1-.036-1.254c.093-.651.93-3.907,2.7-1.86s2.79,3.069,2.79,3.069Z" transform="translate(-221.484 -459.441)" fill="#feb7c5"/>
    <path id="Path_274" data-name="Path 274" d="M302.478,411.17l-7.906,3.721-1.116,1.3a5.284,5.284,0,0,1-1.581.837,9.389,9.389,0,0,0-2.232,1.4l-2.79,1.953-1.3.837,1.3,1.023,4-.93,4.837-1.023,2.511-1.209,7.162-6.232Z" transform="translate(-268.513 -377.06)" fill="#5d526d"/>
    <path id="Path_275" data-name="Path 275" d="M240.288,504.434l-.279,2.79s-.93,2.046-2.325,1.767a4.647,4.647,0,0,1-.453-.116,5.554,5.554,0,0,1-3.417-3.095,2.18,2.18,0,0,1-.036-1.254c.093-.651.93-3.907,2.7-1.86s2.79,3.069,2.79,3.069Z" transform="translate(-221.484 -459.441)" opacity="0.03"/>
    <path id="Path_276" data-name="Path 276" d="M302.478,411.17l-7.906,3.721-1.116,1.3a5.284,5.284,0,0,1-1.581.837,9.389,9.389,0,0,0-2.232,1.4l-2.79,1.953-1.3.837,1.3,1.023,4-.93,4.837-1.023,2.511-1.209,7.162-6.232Z" transform="translate(-268.513 -377.06)" opacity="0.05"/>
    <path id="Path_277" data-name="Path 277" d="M265.784,486.354l-1.3.518-1.19.476a5.514,5.514,0,0,1-2.185.4h-.427a4.249,4.249,0,0,1-2.959-1.007,5.787,5.787,0,0,0-.486-.372,3.507,3.507,0,0,1-1.072-4.513l.034-.061c1.116-2.046,2.139-.186,2.139-.186a10.656,10.656,0,0,0,1.767,2.79c.507.38,2.178.027,3.193-.237.475-.124.806-.228.806-.228Z" transform="translate(-241.493 -440.245)" fill="#feb7c5"/>
    <path id="Path_278" data-name="Path 278" d="M338.064,517.106c.3-1.989-.465-2.574-1.184-2.708.475-.124.806-.228.806-.228l1.674,2.418Z" transform="translate(-315.069 -470.479)" opacity="0.1"/>
    <path id="Path_279" data-name="Path 279" d="M344.943,422.17l-9.673,6.79s-2.511,1.488-3.441,1.116-4.279.93-4.279.93,2.79-.837,2.232,2.7l4.465-1.488s6.7-.837,7.627-1.3,4.837-8.464,4.837-8.464Z" transform="translate(-306.607 -387.036)" fill="#5d526d"/>
    <path id="Path_280" data-name="Path 280" d="M620.271,337.17a12.632,12.632,0,0,0,.651,3.628,15.994,15.994,0,0,1,.837,2.232l2.325,2.79.93.837s3.535,0,3.907,1.488-5.395.465-5.395.465l-.837-.837-3.907-2.418-2.232-6.79Z" transform="translate(-568.726 -309.942)" fill="#feb7c5"/>
    <path id="Path_281" data-name="Path 281" d="M389.414,334.17s-1.767,4.558-3.255,5.953-2.232,1.023-2.232,1.023-3.907,3.069-1.581,3.814,3.534-2.511,3.534-2.511l3.348-1.674s3.069-2.7,2.883-4.651S389.414,334.17,389.414,334.17Z" transform="translate(-355.636 -307.222)" fill="#feb7c5"/>
    <path id="Path_282" data-name="Path 282" d="M389.414,334.17s-1.767,4.558-3.255,5.953-2.232,1.023-2.232,1.023-3.907,3.069-1.581,3.814,3.534-2.511,3.534-2.511l3.348-1.674s3.069-2.7,2.883-4.651S389.414,334.17,389.414,334.17Z" transform="translate(-355.636 -307.222)" opacity="0.03"/>
    <path id="Path_283" data-name="Path 283" d="M454.584,287.4c-.689.035-1.79.345-1.819-1.854,0,0-1.762.412-3.148.713a2.844,2.844,0,0,0-1.889,1.411l-1.288,2.341a2.847,2.847,0,0,0,2.325,1.767,6.951,6.951,0,0,1-2.976,6.046c-3.348,2.325,8.65,5.581,8.65,5.581l5.953-1.953s-.651-6.7,1.3-8.464a4.637,4.637,0,0,0,3.813-2.79s-1.86-2.418-1.86-3.348-5.209-1.674-5.209-1.674-.631,2.549-2.827,2.258A5.622,5.622,0,0,0,454.584,287.4Z" transform="translate(-413.312 -262.779)" opacity="0.1"/>
    <path id="Path_284" data-name="Path 284" d="M454.584,285.4c-.689.035-1.79.345-1.819-1.854,0,0-1.762.412-3.148.713a2.844,2.844,0,0,0-1.889,1.411l-1.288,2.341a2.847,2.847,0,0,0,2.325,1.767,6.951,6.951,0,0,1-2.976,6.046c-3.348,2.325,8.65,5.581,8.65,5.581l5.953-1.953s-.651-6.7,1.3-8.464a4.637,4.637,0,0,0,3.813-2.79s-1.86-2.418-1.86-3.348-5.209-1.674-5.209-1.674-.631,2.549-2.827,2.258A5.622,5.622,0,0,0,454.584,285.4Z" transform="translate(-413.312 -260.965)" fill="#d6e6f9"/>
    <path id="Path_285" data-name="Path 285" d="M928.515,519.4a20.476,20.476,0,0,0,.93,4.837,8.01,8.01,0,0,1,.744,2.325s2.312,4.882,4.883,5.523a.816.816,0,0,1,.61.6c.1.472-.238,1-2.8.479a21.042,21.042,0,0,1-3.82-1.953,5.729,5.729,0,0,0-2.083-.987c-.895-.213-1.853-.733-1.538-1.992l1.023-1.488a21.487,21.487,0,0,1-1.3-6.232C924.7,516.047,928.515,519.4,928.515,519.4Z" transform="translate(-848.602 -474.126)" opacity="0.03"/>
    <path id="Path_286" data-name="Path 286" d="M907.038,403.736a.182.182,0,0,1-.017.05l-.286,1.245-1.116.651-1.86-.186-1.209-2.418a1.473,1.473,0,0,1,.784-.727c-.144.63-.425,2.511,1.355,2.588,2.139.093,2.325-1.4,2.325-1.4Z" transform="translate(-828.125 -369.06)" opacity="0.1"/>
    <path id="Path_287" data-name="Path 287" d="M784.692,403.286s7.534-.279,9.766-1.116c0,0-.837,2.7,1.3,2.79s2.325-1.4,2.325-1.4l.651,5.395a27.569,27.569,0,0,1,.651,4.465l.372,2.046s-5.023,1.674-5.581.558c0,0,.372-5.209-1.116-6.325l-4.465,2.325s-4.279,1.581-5.767.465S784.692,403.286,784.692,403.286Z" transform="translate(-719.196 -368.897)" fill="#94b6f0"/>
    <path id="Path_288" data-name="Path 288" d="M784.692,403.286s7.534-.279,9.766-1.116c0,0-.837,2.7,1.3,2.79s2.325-1.4,2.325-1.4l.651,5.395a27.569,27.569,0,0,1,.651,4.465l.372,2.046s-5.023,1.674-5.581.558c0,0,.372-5.209-1.116-6.325l-4.465,2.325s-4.279,1.581-5.767.465S784.692,403.286,784.692,403.286Z" transform="translate(-719.196 -368.897)" opacity="0.03"/>
    <path id="Path_289" data-name="Path 289" d="M532.583,255a3.721,3.721,0,0,1-5.023.521,8.7,8.7,0,0,0,.279-2.232s3.906-1.767,4.186.279A2.859,2.859,0,0,0,532.583,255Z" transform="translate(-488.013 -233.219)" opacity="0.1"/>
    <circle id="Ellipse_192" data-name="Ellipse 192" cx="3.721" cy="3.721" r="3.721" transform="translate(38.057 15.415)" fill="#feb7c5"/>
    <path id="Path_290" data-name="Path 290" d="M489.926,178.681a.616.616,0,0,0-.32.142,1.047,1.047,0,0,0-.167.48,1.353,1.353,0,0,1-.64.73,9.7,9.7,0,0,0-.859.5,5.014,5.014,0,0,0-1.08,1.446,7.449,7.449,0,0,1-1.6,1.805c.093.209.42.148.6.287.22.168.126.516,0,.764s-.25.574-.06.775a1.438,1.438,0,0,1,.166.154c.146.213-.131.472-.153.729s.2.45.432.558a1.97,1.97,0,0,1,.651.355c-.167.232-.341.528-.214.784.144.289.558.291.87.214a.444.444,0,0,1,.254-.014.58.58,0,0,1,.186.155.8.8,0,0,0,1.234-.261,2.4,2.4,0,0,0,.07-.8c.017-.428.166-.837.22-1.265a14.989,14.989,0,0,0-.105-2.167.225.225,0,0,1,.028-.137.234.234,0,0,1,.168-.072,10.351,10.351,0,0,0,1.206-.234c.307-.079.651-.209.757-.508a.622.622,0,0,0,.219.61,1.6,1.6,0,0,0,.61.295,1.937,1.937,0,0,0,1.618-.051,4.266,4.266,0,0,0,.155,1.7,1.452,1.452,0,0,0,1.266,1c.231,0,.511-.16.465-.386-.026-.13-.15-.214-.245-.306a.529.529,0,0,1-.093-.712,2.568,2.568,0,0,1,.261-.177.961.961,0,0,0,.238-.823,13.291,13.291,0,0,0-.208-1.825,2.967,2.967,0,0,0-.115-.456,3.347,3.347,0,0,0-.3-.592l-.905-1.5a1.816,1.816,0,0,0-.415-.527c-.633-.486-1.367.106-1.976-.236a3.318,3.318,0,0,0-.913-.486A3.011,3.011,0,0,0,489.926,178.681Z" transform="translate(-449.648 -166.101)" opacity="0.1"/>
    <path id="Path_291" data-name="Path 291" d="M489.926,177.681a.616.616,0,0,0-.32.142,1.047,1.047,0,0,0-.167.48,1.353,1.353,0,0,1-.64.73,9.705,9.705,0,0,0-.859.5,5.014,5.014,0,0,0-1.08,1.446,7.449,7.449,0,0,1-1.6,1.805c.093.209.42.148.6.287.22.168.126.516,0,.764s-.25.574-.06.775a1.437,1.437,0,0,1,.166.154c.146.213-.131.472-.153.729s.2.45.432.558a1.97,1.97,0,0,1,.651.355c-.167.232-.341.528-.214.784.144.289.558.291.87.214a.444.444,0,0,1,.254-.014.58.58,0,0,1,.186.155.8.8,0,0,0,1.234-.261,2.4,2.4,0,0,0,.07-.8c.017-.428.166-.837.22-1.265a14.989,14.989,0,0,0-.105-2.167.225.225,0,0,1,.028-.137.234.234,0,0,1,.168-.072,10.347,10.347,0,0,0,1.206-.234c.307-.079.651-.209.757-.508a.622.622,0,0,0,.219.61,1.6,1.6,0,0,0,.61.295,1.937,1.937,0,0,0,1.618-.051,4.266,4.266,0,0,0,.155,1.7,1.452,1.452,0,0,0,1.266,1c.231,0,.511-.16.465-.386-.026-.13-.15-.214-.245-.306a.529.529,0,0,1-.093-.713,2.568,2.568,0,0,1,.261-.177.961.961,0,0,0,.238-.823,13.291,13.291,0,0,0-.208-1.825,2.968,2.968,0,0,0-.115-.456,3.346,3.346,0,0,0-.3-.592l-.905-1.5a1.817,1.817,0,0,0-.415-.527c-.633-.486-1.367.106-1.976-.236a3.317,3.317,0,0,0-.913-.486A3.011,3.011,0,0,0,489.926,177.681Z" transform="translate(-449.648 -165.194)" fill="#8e6f80"/>
    <path id="Path_292" data-name="Path 292" d="M452.857,432.4l-1.4.93a14.722,14.722,0,0,0-1.792-2.641,9.614,9.614,0,0,0-2.579-2.2c-2.7-1.488,2.6-2.325,2.6-2.325a10.65,10.65,0,0,0,1.3,1.566c.936.93,2.27,1.86,3.628,1.5C457.135,428.588,452.857,432.4,452.857,432.4Z" transform="translate(-414.334 -390.664)" fill="#ffbcc7"/>
    <rect id="Rectangle_77" data-name="Rectangle 77" width="5.767" height="1.953" transform="translate(41.034 36.436)" fill="#cccad6"/>
    <path id="Path_293" data-name="Path 293" d="M544.539,303.552a16.719,16.719,0,0,0-1.3-2.418,6.46,6.46,0,0,1-.558-2.511s-.558-3.441,1.116-4.186S545,298.715,545,298.715l-.093.744s2.511,2.325,2.418,4.093S544.539,303.552,544.539,303.552Z" transform="translate(-501.645 -271.116)" fill="#ffbcc7"/>
    <path id="Path_294" data-name="Path 294" d="M544.539,303.552a16.719,16.719,0,0,0-1.3-2.418,6.46,6.46,0,0,1-.558-2.511s-.558-3.441,1.116-4.186S545,298.715,545,298.715l-.093.744s2.511,2.325,2.418,4.093S544.539,303.552,544.539,303.552Z" transform="translate(-501.645 -271.116)" opacity="0.03"/>
    <path id="Path_295" data-name="Path 295" d="M499.55,387.574s.837-.372,1.023-.93,2.511-.279,2.511-.279l2.79-.558s.744-1.116,0-1.674a2.461,2.461,0,0,1-.744-1.767s2.582,0,3.192-.662a.555.555,0,0,0,.063-.082c.465-.744,2.418,6.139,2.418,6.139l-4.651-.93-3.534,2.046A3.1,3.1,0,0,1,499.55,387.574Z" transform="translate(-462.609 -350.208)" opacity="0.1"/>
    <path id="Path_296" data-name="Path 296" d="M499.55,386.574s.837-.372,1.023-.93,2.511-.279,2.511-.279l2.79-.558s.744-1.116,0-1.674a2.461,2.461,0,0,1-.744-1.767s2.582,0,3.192-.662a.56.56,0,0,0,.063-.082c.465-.744,2.418,6.139,2.418,6.139l-4.651-.93-3.534,2.046A3.1,3.1,0,0,1,499.55,386.574Z" transform="translate(-462.609 -349.301)" fill="#ff7f8e"/>
    <path id="Path_297" data-name="Path 297" d="M499.55,386.574s.837-.372,1.023-.93,2.511-.279,2.511-.279l2.79-.558s.744-1.116,0-1.674a2.461,2.461,0,0,1-.744-1.767s2.582,0,3.192-.662a.56.56,0,0,0,.063-.082c.465-.744,2.418,6.139,2.418,6.139l-4.651-.93-3.534,2.046A3.1,3.1,0,0,1,499.55,386.574Z" transform="translate(-462.609 -349.301)" opacity="0.03"/>
    <path id="Path_298" data-name="Path 298" d="M645.646,467.742l-1.1-1.153,1.023-2.418h.837S646.949,466.682,645.646,467.742Z" transform="translate(-594.122 -425.13)" opacity="0.1"/>
    <path id="Path_299" data-name="Path 299" d="M606.247,457.356l1.86-.186a4.881,4.881,0,0,0,1.023.651s.558,2.6-.837,3.628-3.162-.93-3.162-.93l-1.581-1.86Z" transform="translate(-556.935 -418.781)" fill="#cccad6"/>
    <path id="Path_300" data-name="Path 300" d="M844.223,447.983a19.622,19.622,0,0,1-5.209-1.116c-2.883-1.023-2.418-3.441-2.418-3.441l-1.686-4.138-.36-.885,3.627-2.232s.132.57.3,1.37c.26,1.215.608,2.959.721,4.025.186,1.767,2.325,2.6,2.325,2.6l3.814,1.581a3.185,3.185,0,0,1,2.325.279C848.595,446.68,844.223,447.983,844.223,447.983Z" transform="translate(-766.45 -399.734)" fill="#ffbcc7"/>
    <path id="Path_301" data-name="Path 301" d="M558.025,419.92h.916l-1.488,3.255L556.43,424.2l-.48-.505Z" transform="translate(-504.235 -380.88)" opacity="0.1"/>
    <path id="Path_302" data-name="Path 302" d="M808.2,331.767c0,1.3-4.651-1.209-4.651-1.209a1.748,1.748,0,0,1,.119-.268c3.41,1.661,4.285,1,4.48.729A3.99,3.99,0,0,1,808.2,331.767Z" transform="translate(-738.333 -303.702)" opacity="0.1"/>
    <path id="Path_303" data-name="Path 303" d="M763.406,351.193l1.4-1.023-2.79,5.395-.26-1.132.144-.279c1.873-1.3,1.593-2.511,1.462-2.861Z" transform="translate(-700.421 -321.733)" opacity="0.1"/>
    <path id="Path_304" data-name="Path 304" d="M838.48,437.54a15.234,15.234,0,0,0-3.57,1.747l-.36-.885,3.627-2.232S838.312,436.74,838.48,437.54Z" transform="translate(-766.45 -399.734)" opacity="0.1"/>
    <path id="Path_305" data-name="Path 305" d="M656.619,341.964l-3.069,5.581,2.232,1.4a10.051,10.051,0,0,0,4.719.521,19.071,19.071,0,0,1,2.232-.286c.473-.033,1.023-.093,1.59-.186a4.417,4.417,0,0,0,3.535-3.233c.573-2.182,1.369-5.535,1.166-6.635a1,1,0,0,0-.034-.136l.93,2.79.465,1.4s3.348-2.232,4.651-2.046a40.706,40.706,0,0,1-1.767-6.232,16.005,16.005,0,0,0-1.116-4s-.465,1.4-4.744-.744l-2.139,2.883s.837,1.488-1.581,3.069l-2.7,6.232Z" transform="translate(-602.285 -303.575)" fill="#94b6f0"/>
    <path id="Path_306" data-name="Path 306" d="M451,427.844a3.707,3.707,0,0,1-1.327,2.847,9.614,9.614,0,0,0-2.579-2.2c-2.7-1.488,2.6-2.325,2.6-2.325a10.65,10.65,0,0,0,1.3,1.566C451,427.772,451,427.808,451,427.844Z" transform="translate(-414.334 -390.664)" opacity="0.1"/>
    <circle id="Ellipse_193" data-name="Ellipse 193" cx="3.721" cy="3.721" r="3.721" transform="translate(29.035 33.459)" fill="#ffbcc7"/>
    <path id="Path_307" data-name="Path 307" d="M501.99,451.727s-1.023.279-4.558-.558a12.875,12.875,0,0,0-6.79,0c-.93.279-4.186-.186-6.046-.651s-2.046-3.255-2.046-3.255c.651.093,3.534-2.6,3.534-2.6,1.674-1.488,4.744-1.488,4.744-1.488l1.192.214,5.039.9.58.875Z" transform="translate(-447.19 -406.083)" opacity="0.1"/>
    <path id="Path_308" data-name="Path 308" d="M500.99,452.727s-1.023.279-4.558-.558a12.875,12.875,0,0,0-6.79,0c-.93.279-4.186-.186-6.046-.651s-2.046-3.255-2.046-3.255c.651.093,3.534-2.6,3.534-2.6,1.674-1.488,4.744-1.488,4.744-1.488l1.192.214,5.039.9.579.875Z" transform="translate(-446.283 -406.99)" fill="#ff7f8e"/>
    <path id="Path_309" data-name="Path 309" d="M523.8,448.247l-7.369,5.264c-2.116.718-3.373.315-4.119-.416a2.817,2.817,0,0,1,.854-4.548,7.649,7.649,0,0,1,2.428-.617l2.588-1.46,5.039.9Z" transform="translate(-473.445 -409.076)" opacity="0.1"/>
    <path id="Path_310" data-name="Path 310" d="M669.13,464.17a.544.544,0,0,0,.644,0" transform="translate(-616.416 -425.13)" opacity="0.1"/>
    <path id="Path_311" data-name="Path 311" d="M553.63,266.37s-.279-.007-.292.22a12.217,12.217,0,0,0,.356,1.431c.093.325.186.651.26.908l.157.536.073.155.44.937.414.881.258.332,1.35-.93.67-1.7-.308-.135-.053-.023-.594-.465-1.674-1.3-.755-.586-.093-.069Z" transform="translate(-511.394 -245.728)" fill="#ffe09c"/>
    <path id="Path_312" data-name="Path 312" d="M574.924,298.424s1.483-.99,1.744-1.86a4.567,4.567,0,0,0,.246-1.11s.056-.348-.62-.33a3.144,3.144,0,0,1-.939,1.934l-.824.667Z" transform="translate(-530.615 -271.806)" fill="#e7c4c3"/>
    <ellipse id="Ellipse_194" data-name="Ellipse 194" cx="0.549" cy="0.465" rx="0.549" ry="0.465" transform="translate(43.843 25.115) rotate(-83.66)" fill="#ff7f8e"/>
    <ellipse id="Ellipse_195" data-name="Ellipse 195" cx="0.549" cy="0.465" rx="0.549" ry="0.465" transform="translate(43.437 23.423) rotate(-83.66)" fill="#ff7f8e"/>
    <path id="Path_313" data-name="Path 313" d="M583.06,289.47a.573.573,0,0,0-.279.445.471.471,0,1,0,.924.1v-.062l-.053-.023Z" transform="translate(-538.094 -266.679)" fill="#ff7f8e"/>
    <path id="Path_314" data-name="Path 314" d="M562.78,300.1a.427.427,0,0,0-.33.111l.44.937a.57.57,0,0,0,.292-.451A.512.512,0,0,0,562.78,300.1Z" transform="translate(-519.658 -276.319)" fill="#ff7f8e"/>
    <path id="Path_315" data-name="Path 315" d="M557.556,282.165a.446.446,0,0,0-.4.18c.093.325.186.651.26.908h.015a.555.555,0,0,0,.121-1.088Z" transform="translate(-514.86 -260.052)" fill="#ff7f8e"/>
    <path id="Path_316" data-name="Path 316" d="M559.175,269.17a.643.643,0,0,0-.044.172.511.511,0,0,0,.4.6.446.446,0,0,0,.4-.186Z" transform="translate(-516.644 -248.267)" fill="#ff7f8e"/>
    <path id="Path_317" data-name="Path 317" d="M572.8,310.009l-.175-.02a.965.965,0,0,0,.055-.41.06.06,0,0,0-.007-.027c-.048-.169.175.02.175.02S572.877,309.933,572.8,310.009Z" transform="translate(-528.891 -284.83)" fill="#94cc79"/>
    <path id="Path_318" data-name="Path 318" d="M579.295,297.139l-.175-.02a.964.964,0,0,0,.055-.41.06.06,0,0,0-.006-.027c-.048-.169.175.02.175.02S579.364,297.063,579.295,297.139Z" transform="translate(-534.778 -273.157)" fill="#94cc79"/>
    <path id="Path_319" data-name="Path 319" d="M573.075,294.139l-.175-.02a.964.964,0,0,0,.055-.41.06.06,0,0,0-.006-.027c-.048-.169.175.02.175.02S573.146,294.063,573.075,294.139Z" transform="translate(-529.136 -270.436)" fill="#94cc79"/>
    <path id="Path_320" data-name="Path 320" d="M564.385,285.529l-.175-.02a.965.965,0,0,0,.055-.41.06.06,0,0,0-.007-.027c-.048-.169.175.02.175.02S564.457,285.453,564.385,285.529Z" transform="translate(-521.255 -262.627)" fill="#94cc79"/>
    <path id="Path_321" data-name="Path 321" d="M557.485,270.229l-.175-.02a.962.962,0,0,0,.055-.41.06.06,0,0,0-.006-.027c-.048-.169.175.02.175.02S557.56,270.153,557.485,270.229Z" transform="translate(-514.996 -248.75)" fill="#94cc79"/>
    <path id="Path_322" data-name="Path 322" d="M568.955,279.919l-.175-.02a.962.962,0,0,0,.055-.41.059.059,0,0,0-.006-.027c-.048-.169.175.02.175.02S569.026,279.843,568.955,279.919Z" transform="translate(-525.399 -257.539)" fill="#94cc79"/>
    <path id="Path_323" data-name="Path 323" d="M555.089,273.351s.323.508.54.06a1.942,1.942,0,0,0-.45-.875,15.746,15.746,0,0,1-1.209-2.611,20.321,20.321,0,0,1-.621-2.368s-.118-.148-.093.465a15.354,15.354,0,0,0,.584,2.352l.711,1.789.382.581Z" transform="translate(-511.316 -246.79)" fill="#e7c4c3"/>
    <path id="Path_324" data-name="Path 324" d="M555.089,273.351s.323.508.54.06a1.942,1.942,0,0,0-.45-.875,15.746,15.746,0,0,1-1.209-2.611,20.321,20.321,0,0,1-.621-2.368s-.118-.148-.093.465a15.354,15.354,0,0,0,.584,2.352l.711,1.789.382.581Z" transform="translate(-511.316 -246.79)" fill="#fff" opacity="0.2"/>
    <path id="Path_325" data-name="Path 325" d="M581.03,307.68c0,.651-2.232,1.023-2.232,1.023l-.315-.558-2.382-4.186s-1.488-3.72,0-4.279,1.674,3.721,1.674,3.721a43.442,43.442,0,0,1,2.949,3.634A1.628,1.628,0,0,1,581.03,307.68Z" transform="translate(-531.439 -275.894)" fill="#ffbcc7"/>
    <path id="Path_326" data-name="Path 326" d="M610.708,379.821c0,.651-2.232,1.023-2.232,1.023l-.315-.558a4.71,4.71,0,0,0,2.242-1.116A1.682,1.682,0,0,1,610.708,379.821Z" transform="translate(-561.117 -348.036)" opacity="0.1"/>
    <path id="Path_327" data-name="Path 327" d="M511.295,392.673c.744.731,2,1.134,4.119.416l8.464-6.046s1.209-.651,0-3.534-1.953-3.348-1.953-3.348-1.488,1.3-2.511,1.209l.93,2.883-5.767,3.255a7.652,7.652,0,0,0-2.428.617A2.815,2.815,0,0,0,511.295,392.673Z" transform="translate(-472.52 -348.934)" fill="#ff7f8e"/>
    <path id="Path_328" data-name="Path 328" d="M376.057,403.318c-.617.268-.877,1-1.372,1.452a6.127,6.127,0,0,1-1.849.88c-.633.267-1.273.782-1.267,1.47s.682,1.291.567,1.977c-.059.353-.321.645-.381,1a1.347,1.347,0,0,0,.365,1.058,5.468,5.468,0,0,0,2.78,1.378,3.837,3.837,0,0,1,2.547,1.691c.121.253.186.527.3.785a3.508,3.508,0,0,0,2.221,1.832,10.4,10.4,0,0,0,2.939.346,2.481,2.481,0,0,0,1.072-.135.853.853,0,0,0,.541-.853,1.334,1.334,0,0,0-.485-.679,3.683,3.683,0,0,1-.991-1.3,1.6,1.6,0,0,1,.151-1.564c.406-.508,1.132-.612,1.66-.991a1.945,1.945,0,0,0,.019-3,9.587,9.587,0,0,0-1.1-.572c-1.091-.6-1.714-1.8-2.71-2.55a27.017,27.017,0,0,0-2.6-1.36C377.674,403.718,377.112,402.86,376.057,403.318Z" transform="translate(-346.532 -369.82)" opacity="0.1"/>
    <path id="Path_329" data-name="Path 329" d="M374.057,403.318c-.617.268-.877,1-1.372,1.452a6.127,6.127,0,0,1-1.849.88c-.633.267-1.273.782-1.267,1.47s.682,1.291.567,1.977c-.059.353-.321.645-.381,1a1.347,1.347,0,0,0,.365,1.058,5.468,5.468,0,0,0,2.78,1.378,3.838,3.838,0,0,1,2.547,1.691c.121.253.186.527.3.785a3.508,3.508,0,0,0,2.221,1.832,10.4,10.4,0,0,0,2.939.346,2.481,2.481,0,0,0,1.072-.135.853.853,0,0,0,.541-.853,1.335,1.335,0,0,0-.485-.679,3.683,3.683,0,0,1-.991-1.3,1.6,1.6,0,0,1,.151-1.564c.406-.508,1.132-.612,1.66-.991a1.945,1.945,0,0,0,.019-3,9.585,9.585,0,0,0-1.1-.572c-1.091-.6-1.714-1.8-2.71-2.55a27.016,27.016,0,0,0-2.6-1.36C375.674,403.718,375.112,402.86,374.057,403.318Z" transform="translate(-344.718 -369.82)" fill="#ad5975"/>
    <path id="Path_330" data-name="Path 330" d="M121.571,675.968l-6.675,5.56-7.857-5.31,7.724-4.128,6.508,3.079Z" transform="translate(-97.079 -609.595)" fill="#dadae5"/>
    <path id="Path_331" data-name="Path 331" d="M63.035,588.78l3.346,6.575-7.774,3.929-4.976-9.239Z" transform="translate(-48.637 -534.034)" fill="none"/>
    <path id="Path_332" data-name="Path 332" d="M65.268,595.94,68.63,602.4l-7.258,3.379-4.692-8.711Z" transform="translate(-51.403 -540.528)" fill="#dadae5"/>
    <path id="Path_333" data-name="Path 333" d="M63.035,589.5l-.533.666-8.588,1.127-.284-.528Z" transform="translate(-48.637 -534.687)" opacity="0.03"/>
    <path id="Path_334" data-name="Path 334" d="M152.889,596.075l-3.346-6.575-.533.666,3.278,6.3Z" transform="translate(-135.145 -534.687)" opacity="0.03"/>
    <path id="Path_335" data-name="Path 335" d="M63.035,588.78l-.533.666-8.588,1.127-.284-.528Z" transform="translate(-48.637 -534.034)" fill="#eff0f4"/>
    <path id="Path_336" data-name="Path 336" d="M152.889,595.355l-3.346-6.575-.533.666,3.278,6.3Z" transform="translate(-135.145 -534.034)" fill="#eff0f4"/>
    <path id="Path_337" data-name="Path 337" d="M63.035,588.78l-.812,1.038-8.588,1.127,0-.9Z" transform="translate(-48.637 -534.034)" opacity="0.03"/>
    <path id="Path_338" data-name="Path 338" d="M150.168,595.355l-3.346-6.575-.812,1.038,3.278,6.3Z" transform="translate(-132.424 -534.034)" opacity="0.03"/>
    <path id="Path_339" data-name="Path 339" d="M114.9,660.54v1.351l-7.774,4.145v-1.567Z" transform="translate(-97.161 -599.119)" opacity="0.03"/>
    <path id="Path_340" data-name="Path 340" d="M196.9,663.919l-6.757-3.379-.059,1.36,6.667,3.5Z" transform="translate(-172.395 -599.119)" opacity="0.03"/>
    <path id="Path_341" data-name="Path 341" d="M114.9,659.47v1.165l-7.774,4.145V663.4Z" transform="translate(-97.161 -598.149)" fill="#eff0f4"/>
    <path id="Path_342" data-name="Path 342" d="M196.9,662.849l-6.757-3.379-.059,1.174,6.667,3.5Z" transform="translate(-172.395 -598.149)" fill="#eff0f4"/>
    <path id="Path_343" data-name="Path 343" d="M114.9,659.47v1.165l-7.774,4.145V663.4Z" transform="translate(-97.161 -598.149)" opacity="0.03"/>
    <path id="Path_344" data-name="Path 344" d="M196.9,662.849l-6.757-3.379-.059,1.174,6.667,3.5Z" transform="translate(-172.395 -598.149)" opacity="0.03"/>
    <path id="Path_345" data-name="Path 345" d="M197.467,695.8l-.017,1.681-6.658,5.544-.083-1.715Z" transform="translate(-172.967 -631.1)" fill="#cccad6"/>
    <path id="Path_346" data-name="Path 346" d="M276.785,729.078s.166.223-.011.366a12.4,12.4,0,0,1-1.375.533c-.318.113-.637.222-.892.31l-.529.18-.169.03-1.023.18-.958.169-.42-.02-.018-1.638,1.007-1.527.287.174.05.03.72.22,2.031.623.914.279.107.033Z" transform="translate(-255.671 -664.112)" fill="#ffe09c"/>
    <path id="Path_347" data-name="Path 347" d="M263.992,728.635a5.123,5.123,0,0,1,.518-2.5,4.475,4.475,0,0,1,.766-.837s.252-.246.627.317a3.146,3.146,0,0,0-1.041,1.882l-.071,1.058Z" transform="translate(-248.96 -661.923)" fill="#e7c4c3"/>
    <ellipse id="Ellipse_196" data-name="Ellipse 196" cx="0.549" cy="0.465" rx="0.549" ry="0.465" transform="translate(15.92 65.53) rotate(-41.49)" fill="#ff7f8e"/>
    <ellipse id="Ellipse_197" data-name="Ellipse 197" cx="0.549" cy="0.465" rx="0.549" ry="0.465" transform="translate(17.537 64.888) rotate(-41.49)" fill="#ff7f8e"/>
    <path id="Path_348" data-name="Path 348" d="M283.621,729.771a.573.573,0,0,1-.2.485.471.471,0,1,1-.616-.7c.016-.014.032-.027.048-.039l.05.03Z" transform="translate(-265.835 -665.799)" fill="#ff7f8e"/>
    <path id="Path_349" data-name="Path 349" d="M287.281,753.2a.427.427,0,0,1,.1.334l-1.023.18a.57.57,0,0,1,.2-.5A.517.517,0,0,1,287.281,753.2Z" transform="translate(-269.243 -687.146)" fill="#ff7f8e"/>
    <path id="Path_350" data-name="Path 350" d="M304.611,746.626a.446.446,0,0,1,.081.428c-.318.112-.637.222-.892.31l-.01-.011a.556.556,0,0,1,.821-.726Z" transform="translate(-284.964 -681.186)" fill="#ff7f8e"/>
    <path id="Path_351" data-name="Path 351" d="M316.131,739.191a.636.636,0,0,1-.115.135.512.512,0,0,1-.719.015.447.447,0,0,1-.08-.431Z" transform="translate(-295.399 -674.316)" fill="#ff7f8e"/>
    <path id="Path_352" data-name="Path 352" d="M279.12,753.429l.116.132a.965.965,0,0,1,.3-.279l.026-.01c.167-.058-.116-.132-.116-.132S279.141,753.327,279.12,753.429Z" transform="translate(-262.682 -687.222)" fill="#94cc79"/>
    <path id="Path_353" data-name="Path 353" d="M285.93,740.739l.116.132a.963.963,0,0,1,.3-.279l.026-.01c.166-.058-.116-.132-.116-.132S285.95,740.637,285.93,740.739Z" transform="translate(-268.858 -675.712)" fill="#94cc79"/>
    <path id="Path_354" data-name="Path 354" d="M291.94,744.079l.116.132a.964.964,0,0,1,.3-.279l.026-.01c.166-.058-.116-.132-.116-.132S291.961,743.976,291.94,744.079Z" transform="translate(-274.309 -678.742)" fill="#94cc79"/>
    <path id="Path_355" data-name="Path 355" d="M304,746.179l.116.132a.964.964,0,0,1,.3-.279l.026-.01c.166-.058-.116-.132-.116-.132S304.02,746.081,304,746.179Z" transform="translate(-285.247 -680.646)" fill="#94cc79"/>
    <path id="Path_356" data-name="Path 356" d="M320.47,743.049l.116.132a.962.962,0,0,1,.3-.279l.026-.01c.166-.058-.116-.132-.116-.132S320.491,742.947,320.47,743.049Z" transform="translate(-300.185 -677.807)" fill="#94cc79"/>
    <path id="Path_357" data-name="Path 357" d="M305.94,739.259l.116.132a.964.964,0,0,1,.3-.279l.026-.01c.166-.058-.116-.132-.116-.132S305.961,739.159,305.94,739.259Z" transform="translate(-287.007 -674.37)" fill="#94cc79"/>
    <path id="Path_358" data-name="Path 358" d="M263.839,747.343s-.6.029-.361-.407a1.941,1.941,0,0,1,.975-.136,15.4,15.4,0,0,0,2.83-.514,20.375,20.375,0,0,0,2.295-.856s.186.011-.329.348a14.809,14.809,0,0,1-2.266.875l-1.872.448-.7.022Z" transform="translate(-248.443 -680.229)" fill="#e7c4c3"/>
    <path id="Path_359" data-name="Path 359" d="M263.839,747.343s-.6.029-.361-.407a1.941,1.941,0,0,1,.975-.136,15.4,15.4,0,0,0,2.83-.514,20.375,20.375,0,0,0,2.295-.856s.186.011-.329.348a14.809,14.809,0,0,1-2.266.875l-1.872.448-.7.022Z" transform="translate(-248.443 -680.229)" fill="#fff" opacity="0.2"/>
    <path id="Path_360" data-name="Path 360" d="M274.554,749.76s.237.144.127.342a12.044,12.044,0,0,1-1.073,1.011c-.252.223-.507.446-.71.623l-.422.366-.146.093-.876.55-.824.517-.4.14-.633-1.511.358-1.794.332.053.058.009.75-.066,2.116-.186.952-.085.112-.01Z" transform="translate(-254.047 -684.156)" fill="#ffe09c"/>
    <path id="Path_361" data-name="Path 361" d="M264.326,755.611a5.17,5.17,0,0,1-.465-2.511,4.616,4.616,0,0,1,.393-1.066s.141-.323.7.058a3.158,3.158,0,0,0-.256,2.139l.337,1Z" transform="translate(-248.794 -686.103)" fill="#e7c4c3"/>
    <ellipse id="Ellipse_198" data-name="Ellipse 198" cx="0.549" cy="0.465" rx="0.549" ry="0.465" transform="matrix(0.445, -0.896, 0.896, 0.445, 15.905, 68.091)" fill="#ff7f8e"/>
    <ellipse id="Ellipse_199" data-name="Ellipse 199" cx="0.549" cy="0.465" rx="0.549" ry="0.465" transform="matrix(0.445, -0.896, 0.896, 0.445, 17.161, 66.887)" fill="#ff7f8e"/>
    <path id="Path_362" data-name="Path 362" d="M276.869,753.33a.573.573,0,0,1-.006.525.471.471,0,1,1-.832-.413c.009-.018.02-.037.031-.055l.058.009Z" transform="translate(-259.819 -687.394)" fill="#ff7f8e"/>
    <path id="Path_363" data-name="Path 363" d="M289.522,772.6a.427.427,0,0,1,.218.272l-.876.55a.57.57,0,0,1,0-.538A.512.512,0,0,1,289.522,772.6Z" transform="translate(-271.458 -704.83)" fill="#ff7f8e"/>
    <path id="Path_364" data-name="Path 364" d="M303.081,759.974a.446.446,0,0,1,.236.365c-.252.223-.507.446-.71.623l-.013-.006a.556.556,0,0,1,.486-.982Z" transform="translate(-283.757 -693.383)" fill="#ff7f8e"/>
    <path id="Path_365" data-name="Path 365" d="M309.383,750.4a.638.638,0,0,1-.057.168.511.511,0,0,1-.66.285.446.446,0,0,1-.236-.372Z" transform="translate(-289.265 -684.737)" fill="#ff7f8e"/>
    <path id="Path_366" data-name="Path 366" d="M281.3,777.123l.157.078a.963.963,0,0,1,.176-.372l.02-.02c.133-.116-.157-.078-.157-.078S281.28,777.024,281.3,777.123Z" transform="translate(-264.657 -708.614)" fill="#94cc79"/>
    <path id="Path_367" data-name="Path 367" d="M282.828,762.843l.157.078a.962.962,0,0,1,.176-.372l.02-.02c.133-.116-.157-.078-.157-.078S282.808,762.741,282.828,762.843Z" transform="translate(-266.043 -695.662)" fill="#94cc79"/>
    <path id="Path_368" data-name="Path 368" d="M289.649,763.673l.157.078a.964.964,0,0,1,.176-.372l.02-.02c.133-.116-.157-.078-.157-.078S289.63,763.57,289.649,763.673Z" transform="translate(-272.23 -696.415)" fill="#94cc79"/>
    <path id="Path_369" data-name="Path 369" d="M301.619,761.123l.157.078a.963.963,0,0,1,.176-.372l.02-.02c.133-.116-.157-.078-.157-.078S301.6,761.02,301.619,761.123Z" transform="translate(-283.087 -694.102)" fill="#94cc79"/>
    <path id="Path_370" data-name="Path 370" d="M315.7,751.983l.157.078a.963.963,0,0,1,.176-.372l.02-.02c.133-.116-.157-.078-.157-.078S315.68,751.88,315.7,751.983Z" transform="translate(-295.857 -685.812)" fill="#94cc79"/>
    <path id="Path_371" data-name="Path 371" d="M300.809,753.943l.157.078a.964.964,0,0,1,.176-.372l.02-.02c.133-.116-.157-.078-.157-.078S300.79,753.84,300.809,753.943Z" transform="translate(-282.352 -687.59)" fill="#94cc79"/>
    <path id="Path_372" data-name="Path 372" d="M269.815,755.962s-.546.252-.487-.242a1.941,1.941,0,0,1,.852-.493,15.782,15.782,0,0,0,2.429-1.542,20.45,20.45,0,0,0,1.8-1.657s.18-.06-.175.446a15.053,15.053,0,0,1-1.767,1.664l-1.565,1.116-.635.279Z" transform="translate(-253.796 -686.212)" fill="#e7c4c3"/>
    <path id="Path_373" data-name="Path 373" d="M269.815,755.962s-.546.252-.487-.242a1.941,1.941,0,0,1,.852-.493,15.782,15.782,0,0,0,2.429-1.542,20.45,20.45,0,0,0,1.8-1.657s.18-.06-.175.446a15.053,15.053,0,0,1-1.767,1.664l-1.565,1.116-.635.279Z" transform="translate(-253.796 -686.212)" fill="#fff" opacity="0.2"/>
    <path id="Path_374" data-name="Path 374" d="M114.9,706.669l-7.774-4.959v1.365l7.857,5.31Z" transform="translate(-97.161 -636.46)" fill="#cccad6"/>
    <path id="Path_375" data-name="Path 375" d="M52.088,612.1l.832-.482-4.976-9.239-.583.566Z" transform="translate(-42.95 -546.369)" fill="#cccad6"/>
  </g>
</svg>
