<svg xmlns="http://www.w3.org/2000/svg" xmlns:xlink="http://www.w3.org/1999/xlink" width="102.307" height="76.25" viewBox="0 0 102.307 76.25">
  <defs>
    <linearGradient id="linear-gradient" x1="0.5" y1="1" x2="0.5" gradientUnits="objectBoundingBox">
      <stop offset="0" stop-color="gray" stop-opacity="0.251"/>
      <stop offset="0.54" stop-color="gray" stop-opacity="0.122"/>
      <stop offset="1" stop-color="gray" stop-opacity="0.102"/>
    </linearGradient>
  </defs>
  <g id="undraw_studying_s3l7" transform="translate(-0.012 -0.057)" opacity="0.78">
    <path id="Path_74" data-name="Path 74" d="M171.083,142.414c-.018.108-.037.216-.057.325a39.823,39.823,0,0,1-3.314,10.5q-.078.162-.159.325a30,30,0,0,1-3.734,5.759,11.952,11.952,0,0,1-2.682,2.517,13.148,13.148,0,0,1-4.776,1.6c-1.718.318-3.459.58-5.2.869q-.923.151-1.835.316c-1.678.3-3.343.654-4.969,1.119a25.83,25.83,0,0,0-5.8,2.384q-.22.126-.436.258c-.144.087-.29.176-.43.267s-.281.181-.42.272l-.214.145c-.071.046-.14.1-.21.143-.207.141-.411.29-.614.433l-.008.006-.4.29c-.752.557-1.489,1.141-2.222,1.726l-.463.37-.717.567c-.14.111-.282.221-.423.331-.1.08-.2.16-.308.24-.523.4-1.052.8-1.592,1.174l-.386.268a20.371,20.371,0,0,1-3.433,1.891l-.015.007a13.622,13.622,0,0,1-1.824.629,10.922,10.922,0,0,1-1.074.233,9.495,9.495,0,0,1-2.912.05c-1.9-.27-3.684-1.159-5.581-1.457-3.914-.608-7.715,1.352-11.4,2.891q-1.352.566-2.735,1.063-.916.33-1.84.629a57.938,57.938,0,0,1-11.546,2.47,26.681,26.681,0,0,1-4.9.132,16.55,16.55,0,0,1-1.835-.239,10.593,10.593,0,0,1-5.544-2.7,12.986,12.986,0,0,1-2.893-4.5q-.418-1.007-.737-2.061a22.99,22.99,0,0,1-.751-3.364c-.038-.257-.071-.515-.1-.773q-.075-.664-.112-1.333a23.087,23.087,0,0,1,.687-7.052c.658-2.549,1.755-4.99,2.238-7.564.02-.108.039-.216.057-.325q.1-.58.147-1.18c.243-3.147-.7-6.228-1.442-9.313-.026-.108-.052-.216-.077-.325q-.121-.513-.229-1.027a25.969,25.969,0,0,1-.266-10.011c.019-.108.042-.217.064-.325a16.193,16.193,0,0,1,2.257-5.644,19.559,19.559,0,0,1,4.25-4.5q1.174-.937,2.427-1.753.9-.585,1.835-1.108a30.59,30.59,0,0,1,16.449-3.864q.451.023.9.062.471.041.94.1a55.937,55.937,0,0,1,10.744,2.613l3.547,1.159q.788.257,1.576.507c2.574.812,5.191,1.546,7.832,2.1q.919.193,1.835.353a43.377,43.377,0,0,0,6.432.663q1.256.031,2.512-.026.635-.029,1.27-.085a70.612,70.612,0,0,0,12.835-2.812c.612-.171,1.226-.341,1.835-.505.806-.216,1.612-.426,2.422-.619a19.163,19.163,0,0,1,14.218,1.981,6.956,6.956,0,0,1,2.782,2.31,8.346,8.346,0,0,1,.938,3.631c.172,1.795.29,3.615.327,5.442,0,.108,0,.216.007.325A57.9,57.9,0,0,1,171.083,142.414Z" transform="translate(-70.44 -108.407)" fill="#6c63ff" opacity="0.1"/>
    <path id="Path_75" data-name="Path 75" d="M148.391,153.594h-.329v.325h.373Zm-3.733,0a.021.021,0,0,0,0,.008l-.029.269v.048h2.859V153.9l.2-.305Zm-7.646,0V143.1H140.3c-.035-.029-.071-.058-.107-.085l-.048-.037c-.02-.016-.041-.032-.062-.046s-.071-.051-.109-.076-.061-.042-.1-.062l-.022-.014h-2.839V142.2l-.076.037-.081.045h-.006l-.017.011-.05.033c-.017.011-.035.021-.051.033-.05.034-.1.071-.15.108l-.048.039c-.033.025-.064.051-.1.077-.128.105-.255.215-.386.317l-.1.075a2.488,2.488,0,0,1-.218.143,1.032,1.032,0,0,1-.1.053l-.054.025-.049.021h0a2.054,2.054,0,0,1-.359.114v10.262h-4.926a.148.148,0,0,0,.01.034c.027.1.054.193.08.29h4.838V165.17h.075l.086.006.156.012.253.025.114.014.126.015H136c.072.01.146.021.22.033l.047.008.106.017.153.027h0l.366-.019h0l.05.011a.292.292,0,0,1,.062.013V153.919h7.613v-.048l.029-.269a.022.022,0,0,1,0-.008Zm11.379,0h-.329v.325h.373Zm-3.939,0-.033.325H147.6l.216-.325Zm-7.438,0V143.1H140.3c-.035-.029-.07-.058-.107-.085l-.048-.037c-.02-.016-.041-.032-.062-.046s-.072-.051-.109-.076-.061-.042-.1-.062l-.022-.014h-2.841V142.2l-.076.037-.081.045h-.006l-.017.011-.05.033c-.017.011-.035.021-.051.033-.05.034-.1.071-.15.108l-.048.039c-.033.025-.064.051-.1.077-.128.105-.255.215-.386.317l-.1.075a2.488,2.488,0,0,1-.218.143,1.032,1.032,0,0,1-.1.053l-.054.025-.049.021h0a2.054,2.054,0,0,1-.359.114v10.262h-4.926a.148.148,0,0,0,.01.034c.027.1.055.193.081.29h4.837v11.252l.075,0,.086.006.156.012.253.025.114.014.126.015H136c.072.01.146.021.22.033l.047.008.106.017.153.027h0l.366-.019h0l.05.011a.292.292,0,0,1,.062.013V153.919h7.41l.035-.325Zm24.889-21.86H182.6c0-.108,0-.216-.007-.325H161.9V118.665c-.614.164-1.228.334-1.835.505v12.24H137.561l-.057-.062.086-.1h0l8.371-9.187q-1.256.058-2.512.026l-6.437,7.061V121.43q-.922-.159-1.835-.353V128.8l-9.411-10.323c-1.181-.386-2.363-.78-3.547-1.159l12.792,14.035-.057.062h-23.48V114.7q-.469-.053-.94-.1-.449-.04-.9-.062v16.87H93.185v-13q-.936.522-1.835,1.108V131.41H82.4c-.022.107-.044.216-.064.325h9v11.038h-8.5c.025.108.051.216.077.325h8.43v10.5H84.208c-.018.108-.037.216-.057.325h7.195V183.27a16.551,16.551,0,0,0,1.835.239v-29.59h16.452v26.987q.925-.3,1.84-.629V153.919h23.7V177.5a13.62,13.62,0,0,0,1.824-.629l.015-.007V153.919h23.05v11.057q.917-.165,1.835-.316V153.919h16.39q.081-.162.159-.325H161.9V143.1h19.863c.02-.108.039-.216.057-.325H161.9Zm-68.717,0h16.448v11.038H93.185Zm0,21.86V143.1h16.448v10.5Zm18.289-21.86h23.7v11.038h-23.7Zm0,21.86V143.1h23.7v10.5Zm48.588,0H137.012V143.1h23.05Zm0-10.819H137.012V132.03l.324-.3h22.726Zm-15.4,10.819a.021.021,0,0,0,0,.008l-.029.269v.048h2.859V153.9l.2-.305Zm3.733,0h-.329v.325h.373Zm-11.379,0V143.1H140.3c-.035-.029-.071-.058-.107-.085l-.048-.037c-.02-.016-.041-.032-.062-.046s-.071-.051-.109-.076-.061-.042-.1-.062l-.022-.014h-2.84V142.2l-.076.037-.081.045h-.006l-.017.011-.05.033c-.017.011-.035.021-.051.033-.05.034-.1.071-.15.108l-.048.039c-.033.025-.064.051-.1.077-.128.105-.255.215-.386.317l-.1.075a2.488,2.488,0,0,1-.218.143,1.032,1.032,0,0,1-.1.053l-.054.025-.049.021h0a2.054,2.054,0,0,1-.359.114v10.262h-4.926a.148.148,0,0,0,.01.034c.027.1.054.193.08.29h4.838V165.17h.075l.086.006.156.012.253.025.114.014.126.015H136c.072.01.146.021.22.033l.047.008.106.017.153.027h0l.366-.019h0l.05.011a.292.292,0,0,1,.062.013V153.919h7.613v-.048l.029-.269a.022.022,0,0,1,0-.008Z" transform="translate(-81.179 -108.765)" fill="#6c63ff" opacity="0.1"/>
    <path id="Path_76" data-name="Path 76" d="M270.789,207.41h.147a.351.351,0,0,1-.175-.283h0c0-.224.274-.407.609-.407h4.265c.335,0,.61.183.61.407h0c0,.223-.274.407-.61.407h-.142a.353.353,0,0,1,.174.283c0,.193-.2.352-.466.4h1.228c.334,0,.609.183.609.407s-.274.406-.609.406h-4.27c-.334,0-.609-.183-.609-.406,0-.193.2-.352.466-.4h-1.228c-.334,0-.609-.183-.609-.407S270.452,207.41,270.789,207.41Z" transform="translate(-250.875 -192.041)" fill="#6c63ff" opacity="0.1"/>
    <path id="Path_77" data-name="Path 77" d="M749.308,247.48h.143a.353.353,0,0,1-.175-.284h0c0-.223.274-.406.61-.406h4.265c.335,0,.61.183.61.406h0c0,.224-.274.407-.61.407h-.142a.354.354,0,0,1,.174.284c0,.193-.2.351-.466.394h1.228c.334,0,.609.184.609.407s-.274.407-.609.407h-4.264c-.334,0-.609-.183-.609-.407,0-.193.2-.352.466-.394h-1.23c-.334,0-.608-.184-.608-.407S748.976,247.48,749.308,247.48Z" transform="translate(-683.171 -228.24)" fill="#6c63ff" opacity="0.1"/>
    <path id="Path_78" data-name="Path 78" d="M203.059,418.941h.143a.354.354,0,0,1-.174-.284h0c0-.223.273-.407.609-.407H207.9c.335,0,.61.184.61.407h0c0,.224-.274.407-.61.407h-.142a.353.353,0,0,1,.174.284c0,.193-.2.351-.466.394h1.228c.335,0,.609.183.609.407s-.273.407-.609.407h-4.266c-.334,0-.609-.184-.609-.407,0-.193.2-.352.466-.4h-1.228c-.334,0-.609-.183-.609-.406S202.724,418.941,203.059,418.941Z" transform="translate(-189.687 -383.138)" fill="#6c63ff" opacity="0.1"/>
    <path id="Path_79" data-name="Path 79" d="M655.065,713.44l-.717.567c-.14.111-.282.221-.423.331-.1.08-.2.16-.308.24-.523.4-1.052.8-1.592,1.174l-.386.268a20.366,20.366,0,0,1-3.433,1.891l-.016.007V713.44Z" transform="translate(-592.37 -649.813)" fill="#65617d"/>
    <path id="Path_80" data-name="Path 80" d="M418.06,311.136l.108-3.337c-.065-.05-.13-.1-.193-.143a17.789,17.789,0,0,0-.17-2.976c-.437-3.337-3.272-3.41-4.072-2.721a1.934,1.934,0,0,1-.345.238c.072-.476.162-.953.227-1.425.35-2.542-.193-5.4-2.166-7.046a25.054,25.054,0,0,0-2.742-1.684c-1.625-1.025-2.909-2.539-4.552-3.536s-3.951-1.372-5.384-.089c-.555.5-.914,1.185-1.484,1.664-1.063.893-2.719.951-3.646,1.948h0c-.046.05-.091.1-.133.156-.773.991-.561,2.4-.315,3.626.3,1.48.174,2.666,1.443,3.091,0,.059.009.118.015.176a6.27,6.27,0,0,0,2.759,4.513l-.206.073c-.549.193-1.042.381-1.358.509-1.159.472-3.6,1.088-3.6,1.088s-.058.7-.047,1.721a17,17,0,0,0-2.569,3.358,26.223,26.223,0,0,1-4.726,5.769c-.872.581-1.818,1.269-1.818,1.269a8.53,8.53,0,0,1-2.035.835,10.963,10.963,0,0,1-1.855-.218s-5.6-6.858-5.235-1.6,4.835,5.441,4.835,5.441l4.508-.072s2.436.326,3.527-.58a82.256,82.256,0,0,0,7.308-6.936c.036.04.071.078.109.116,0,0,.617-.8.691,0s-.4,1.159-.146,1.449a5.534,5.534,0,0,1,1.054,1.7c.036.4-1.017,2.029.763,3.265.028.019.058.038.091.056a4.56,4.56,0,0,0,1.328,1.432l5.453-.072,10.289.8s.306-.27.721-.71a2.252,2.252,0,0,0,2.187.676,5.9,5.9,0,0,0,1.273-2.466s-.8-2.068-1.159-2.684.255-1.959.255-1.959.436-1.306.691-1.306.072-.869.072-.869a1.057,1.057,0,0,1-.109-.98A9.375,9.375,0,0,0,418.06,311.136Z" transform="translate(-344.616 -265.105)" fill="url(#linear-gradient)"/>
    <path id="Path_81" data-name="Path 81" d="M663.17,435.427l-.386.452h0l-1.561,1.818-2.039.124-3.264.2s-4.4-5.3-3.574-6.458a2.113,2.113,0,0,0,.29-1.485c-.008-.072-.018-.143-.031-.214a6.175,6.175,0,0,0-.514-1.584l.108-.049.07-.032,3.848-1.756.952-.435a2.571,2.571,0,0,0,.261.752c.018.037.039.073.06.108,1.313,2.173,5.522.8,5.522.8Z" transform="translate(-595.893 -390.148)" fill="#ee8e9e"/>
    <path id="Path_82" data-name="Path 82" d="M763.031,440.975a6.346,6.346,0,0,1-.243,1.884l-5.447.83-.2-1.414-.807-5.584.757-.757a2.022,2.022,0,0,0,1.732-.433c.793-.686,3.607-.613,4.04,2.7A18.364,18.364,0,0,1,763.031,440.975Z" transform="translate(-690.064 -398.409)" fill="#ee8e9e"/>
    <path id="Path_83" data-name="Path 83" d="M783.667,601.928a5.876,5.876,0,0,0,1.262-2.453l-1.227-2.057-1.082-1.159-2.021,3.9S781.935,602.469,783.667,601.928Z" transform="translate(-711.989 -543.953)" fill="#dfe5ee"/>
    <path id="Path_84" data-name="Path 84" d="M783.667,601.928a5.876,5.876,0,0,0,1.262-2.453l-1.227-2.057-1.082-1.159-2.021,3.9S781.935,602.469,783.667,601.928Z" transform="translate(-711.989 -543.953)" opacity="0.1"/>
    <path id="Path_85" data-name="Path 85" d="M133.393,690.687c-.1.08-.2.16-.308.24-.523.4-1.052.8-1.592,1.174l-.386.268H100.292l-9.117-.327-7.332-.062-1.835-.1-9.157-.483a22.989,22.989,0,0,1-.754-3.367c-.038-.257-.071-.515-.1-.773l10,.554,1.835.1,16.449.918,1.84.1,23.7,1.323,1.824.1h.015Z" transform="translate(-71.838 -626.162)" fill="#d48a9b"/>
    <path id="Path_86" data-name="Path 86" d="M144.7,626.008a25.832,25.832,0,0,0-5.8,2.384c-.146.084-.29.17-.436.258s-.29.176-.43.267-.281.181-.42.272l-.214.145-.21.143c-.207.142-.411.29-.614.433l-.008.006-.4.29c-.753.557-1.489,1.141-2.222,1.726l-.465.37-.715.567c-.14.111-.282.221-.423.331-.1.08-.2.16-.308.24l-5.409-.258h-.015l-1.824-.085-23.71-1.123-1.84-.088L82.8,631.1l-1.835-.088-9.912-.467c-.038-.257-.071-.515-.1-.773q-.075-.664-.112-1.333l10.12-3.574,1.835-.65,1.667-.589,3.038.158,7.022.36h0l4.726.248,1.84.1,1.176.062h0l.281.015h0l9.893.517h0l.1.007h0l4.414.23h.079l.441.022h0l1.5.079,1.882.1h0l.62.033h0l.117.007.877.045h0l.25.013h0l.837.044h0l.333.018h.08l.783.042,1.213.064h.006l.377.019h.041l.225.013.553.029h0l.483.025h0l.542.028h.009l.411.022h0l.315.016,1.118.059h0l.2.011h.07l.1.006h0l.327.017h0l.147.008h0l1.14.059h.1l1.683-.015h.012l6.4-.052h.633l2.059-.016h.307Z" transform="translate(-70.79 -568.679)" fill="#efc6cd"/>
    <path id="Path_87" data-name="Path 87" d="M387.037,639.5l.6,3.166,16.178-.243s1.217.352,1.19-.622c0,0,2.462-2.327,14.934.379l-4.788-3.76-13.089.7-15.177-.406Z" transform="translate(-356.302 -582.04)" fill="#6c63ff"/>
    <path id="Path_88" data-name="Path 88" d="M391.59,640.147l.568,3.436s13.91-.406,16.1-.027l-1.653-3.139A106.037,106.037,0,0,0,391.59,640.147Z" transform="translate(-360.557 -583.443)" fill="#fff"/>
    <path id="Path_89" data-name="Path 89" d="M391.59,640.147l.568,3.436s13.91-.406,16.1-.027l-1.653-3.139A106.037,106.037,0,0,0,391.59,640.147Z" transform="translate(-360.557 -583.443)" opacity="0.1"/>
    <path id="Path_90" data-name="Path 90" d="M393.74,640.132l.56,3.2s13.733-.377,15.9-.025l-1.63-2.918A111.128,111.128,0,0,0,393.74,640.132Z" transform="translate(-362.499 -583.44)" fill="#fff"/>
    <path id="Path_91" data-name="Path 91" d="M396.35,641.233l.546,2.989s13.432-.353,15.552-.023l-1.594-2.731A112.956,112.956,0,0,0,396.35,641.233Z" transform="translate(-364.857 -584.443)" opacity="0.1"/>
    <path id="Path_92" data-name="Path 92" d="M397.47,640.122l.549,2.995s13.432-.353,15.552-.023l-1.6-2.734A113.482,113.482,0,0,0,397.47,640.122Z" transform="translate(-365.869 -583.441)" fill="#fff"/>
    <path id="Path_93" data-name="Path 93" d="M281.012,557.41s.7.919-.324,2.307-1.875,2.559-1.532,3.424c0,0,1.546-2.577,2.811-2.608S282.4,558.959,281.012,557.41Z" transform="translate(-258.914 -508.855)" fill="#6c63ff"/>
    <path id="Path_94" data-name="Path 94" d="M281.383,557.41a1.117,1.117,0,0,1,.144.29c1.231,1.449,1.887,2.8.7,2.83-1.1.031-2.424,2-2.74,2.5q.016.056.038.113s1.546-2.577,2.811-2.608S282.771,558.959,281.383,557.41Z" transform="translate(-259.285 -508.855)" opacity="0.1"/>
    <path id="Path_95" data-name="Path 95" d="M311.1,567.6c0,.323-.037.585-.081.585s-.081-.263-.081-.585.045-.172.09-.172S311.1,567.276,311.1,567.6Z" transform="translate(-287.697 -517.874)" fill="#ffd037"/>
    <path id="Path_96" data-name="Path 96" d="M312.079,571.446c-.284.156-.531.249-.553.21s.193-.193.475-.352.172-.043.193,0S312.363,571.291,312.079,571.446Z" transform="translate(-288.226 -521.334)" fill="#ffd037"/>
    <path id="Path_97" data-name="Path 97" d="M245.907,557.41s-.7.919.325,2.307,1.874,2.559,1.532,3.424c0,0-1.55-2.577-2.812-2.608S244.519,558.959,245.907,557.41Z" transform="translate(-227.521 -508.855)" fill="#6c63ff"/>
    <path id="Path_98" data-name="Path 98" d="M245.907,557.41a1.159,1.159,0,0,0-.144.29c-1.231,1.449-1.887,2.8-.7,2.83,1.1.031,2.425,2,2.741,2.5a1.173,1.173,0,0,1-.038.113s-1.55-2.577-2.812-2.608S244.519,558.959,245.907,557.41Z" transform="translate(-227.521 -508.855)" opacity="0.1"/>
    <path id="Path_99" data-name="Path 99" d="M247.13,567.6c0,.323.037.585.081.585s.081-.263.081-.585-.045-.172-.09-.172S247.13,567.276,247.13,567.6Z" transform="translate(-230.051 -517.874)" fill="#ffd037"/>
    <path id="Path_100" data-name="Path 100" d="M240.879,571.446c.284.156.532.249.553.21s-.193-.193-.475-.352-.172-.043-.193,0S240.595,571.291,240.879,571.446Z" transform="translate(-224.248 -521.334)" fill="#ffd037"/>
    <path id="Path_101" data-name="Path 101" d="M248.267,599.9l-.035.29-.049.4-.02.169-.049.406-.021.169-.05.406-.562,4.61c-.05.412-.723.732-1.534.732h-2.919c-.811,0-1.483-.321-1.533-.732l-.563-4.61-.049-.406-.02-.169-.05-.406-.02-.169-.049-.4-.036-.29c-.028-.233.335-.429.795-.429h5.975C247.935,599.47,248.3,599.666,248.267,599.9Z" transform="translate(-224.246 -546.853)" fill="#65617d"/>
    <path id="Path_102" data-name="Path 102" d="M178.144,551.59l-.049.406h-7.4l-.049-.406Z" transform="translate(-154.154 -498.257)" fill="#9d9cb5"/>
    <path id="Path_103" data-name="Path 103" d="M178.725,557.54l-.049.406H171.42l-.05-.406Z" transform="translate(-154.805 -503.632)" fill="#9d9cb5"/>
    <path id="Path_104" data-name="Path 104" d="M179.314,563.49l-.049.4h-7.115l-.049-.4Z" transform="translate(-155.464 -509.007)" fill="#9d9cb5"/>
    <path id="Path_105" data-name="Path 105" d="M394.4,593.854s-1.876-1.8-1.8.541S394.4,593.854,394.4,593.854Z" transform="translate(-361.468 -541.181)" fill="#ee8e9e"/>
    <path id="Path_106" data-name="Path 106" d="M393.9,490.755a2.737,2.737,0,0,1-.558.861,84.852,84.852,0,0,1-7.162,6.786c-1.082.9-3.5.58-3.5.58l-4.472.072s-4.437-.181-4.8-5.409,5.194,1.587,5.194,1.587a10.846,10.846,0,0,0,1.84.216,8.442,8.442,0,0,0,2.02-.829s.938-.686,1.8-1.263a26.121,26.121,0,0,0,4.69-5.736,15.671,15.671,0,0,1,2.36-3.131c.468-.517.814-.869.814-.869S394.153,489.636,393.9,490.755Z" transform="translate(-344.119 -442.193)" fill="#ee8e9e"/>
    <path id="Path_107" data-name="Path 107" d="M561.532,490.718a2.734,2.734,0,0,1-.558.861c-1.642-1.672-1.985-5.009-2.024-7.13.468-.517.814-.869.814-.869S561.784,489.6,561.532,490.718Z" transform="translate(-511.75 -442.157)" opacity="0.1"/>
    <path id="Path_108" data-name="Path 108" d="M662.782,456.368h0l-1.56,1.818-2.039.124-3.264.2s-4.4-5.3-3.574-6.458a2.114,2.114,0,0,0,.29-1.485c-.008-.071-.018-.143-.031-.213a6.176,6.176,0,0,0-.514-1.584l.108-.049.07-.032a6.925,6.925,0,0,1,.354,1.479c.011.069.02.14.03.214.034.261.065.551.1.869a4.9,4.9,0,0,0,2.916,4.367,8.413,8.413,0,0,1,.781.378,4.164,4.164,0,0,0,2.618.473,7.917,7.917,0,0,0,3.714-1.755l.009,1.463Z" transform="translate(-595.893 -410.638)" opacity="0.1"/>
    <path id="Path_109" data-name="Path 109" d="M580.461,463.429s-13.418-.037-15.187-1.262-.721-2.85-.757-3.247a5.566,5.566,0,0,0-1.045-1.7c-.252-.29.216-.649.144-1.442s-.685,0-.685,0c-2.526-2.562-1.985-9.054-1.985-9.054s2.415-.612,3.574-1.083c.314-.128.8-.309,1.352-.505l.2-.073c1.417-.507,3.1-1.08,3.1-1.08s.324-.229.649.456a6.021,6.021,0,0,1,.418,1.633c.011.069.02.14.03.213.034.261.065.551.1.869a4.9,4.9,0,0,0,2.916,4.367,8.413,8.413,0,0,1,.781.378,4.164,4.164,0,0,0,2.618.473,7.916,7.916,0,0,0,3.714-1.755l.009,1.463.025,4.4Z" transform="translate(-513.509 -406.355)" fill="#dfe5ee"/>
    <path id="Path_110" data-name="Path 110" d="M620.776,581.96l-.216,1.371s-5.339,1.334-7.43,1.731-6.6-.108-6.926.757,1.371,2.057,1.371,2.057l5.409-.072,10.208.794s3.9-3.427,2.633-5.808S620.776,581.96,620.776,581.96Z" transform="translate(-554.402 -530.585)" fill="#ee8e9e"/>
    <path id="Path_111" data-name="Path 111" d="M624.446,474.58s-2.454,2.02-1.984,2.995S624.446,474.58,624.446,474.58Z" transform="translate(-569.073 -434.027)" opacity="0.1"/>
    <path id="Path_112" data-name="Path 112" d="M590.207,512.29s-2.489,4.293-2.344,4.617.83,1.479.793.613A34.877,34.877,0,0,1,590.207,512.29Z" transform="translate(-537.865 -468.094)" opacity="0.1"/>
    <path id="Path_113" data-name="Path 113" d="M610.76,520.14a22.135,22.135,0,0,1-1.154,3.788C609.031,525.046,610.76,520.14,610.76,520.14Z" transform="translate(-557.407 -475.186)" opacity="0.1"/>
    <path id="Path_114" data-name="Path 114" d="M621.466,426.9a6.24,6.24,0,0,1-4.743,3.209h-.012a6.23,6.23,0,0,1-4.391-1.15c1.449-.523,3.306-1.153,3.306-1.153s.324-.229.649.456l4.87-2.222A2.58,2.58,0,0,0,621.466,426.9Z" transform="translate(-559.965 -390.175)" opacity="0.1"/>
    <path id="Path_115" data-name="Path 115" d="M598.16,343.436a6.212,6.212,0,0,1-.821,3.1,6.287,6.287,0,0,1-.93,1.238,6.214,6.214,0,0,1-3.783,1.87h-.013a6.1,6.1,0,0,1-.694.04,6.24,6.24,0,0,1-6.2-5.537,6.044,6.044,0,0,1-.04-.7,6.24,6.24,0,0,1,12.48,0Z" transform="translate(-535.898 -309.917)" fill="#ee8e9e"/>
    <path id="Path_116" data-name="Path 116" d="M752.7,495.51l.58-.869s3.174-3.788,6.279-1.371l-.108,3.319a8.8,8.8,0,0,1-.361,1.546,1.056,1.056,0,0,0,.108.975s.181.869-.071.869-.686,1.3-.686,1.3-.613,1.335-.252,1.948,1.154,2.669,1.154,2.669a3.977,3.977,0,0,1-1.624-2.02s-3.066-2.381-5.447-.869Z" transform="translate(-686.396 -450.183)" opacity="0.1"/>
    <path id="Path_117" data-name="Path 117" d="M770.574,489.173a6.346,6.346,0,0,1-.243,1.884l-5.447.83-.2-1.414C765.393,489.729,767.986,487.364,770.574,489.173Z" transform="translate(-697.607 -446.608)" opacity="0.1"/>
    <path id="Path_118" data-name="Path 118" d="M752.7,493.51l.58-.869s3.174-3.787,6.279-1.371l-.108,3.319a8.8,8.8,0,0,1-.361,1.546,1.055,1.055,0,0,0,.108.975s.181.869-.071.869-.686,1.3-.686,1.3-.613,1.335-.252,1.948,1.154,2.669,1.154,2.669a3.977,3.977,0,0,1-1.624-2.02s-3.066-2.381-5.447-.869Z" transform="translate(-686.396 -448.376)" fill="#dfe5ee"/>
    <path id="Path_119" data-name="Path 119" d="M763.095,496.61s-5.23,3.211-4.978,6.027C758.117,502.637,761.039,497.475,763.095,496.61Z" transform="translate(-691.671 -453.929)" opacity="0.1"/>
    <path id="Path_120" data-name="Path 120" d="M602.687,355.619l.025,4.4a3.616,3.616,0,0,1-2.658-.724,3.19,3.19,0,0,1-.966-1.729,6.127,6.127,0,0,1-.126-1.635.092.092,0,0,1,0-.016,21.382,21.382,0,0,0,.193-3.635,3.045,3.045,0,0,0-2.072-2.734,1.251,1.251,0,0,1-.668-.242.969.969,0,0,1-.156-.761l.035-.451c.009-.116.012-.231.012-.346a4.427,4.427,0,0,0-3.574-4.341l-.039-.007a2.441,2.441,0,0,0-1.022-.057c-.639.148-1.053.768-1.642,1.063-1.13.564-3.015-.053-4.2-.247-.077-.013-.151-.027-.221-.043a6.033,6.033,0,0,1-.04-.7,6.24,6.24,0,1,1,11.659,3.1c.018.037.039.073.06.108,1.313,2.173,5.522.8,5.522.8l.253,7.756Z" transform="translate(-535.799 -309.887)" opacity="0.1"/>
    <path id="Path_121" data-name="Path 121" d="M575.163,302.5c.585-.3,1-.916,1.642-1.063a2.464,2.464,0,0,1,1.023.056l.039.008a4.431,4.431,0,0,1,3.558,4.688l-.035.451a.956.956,0,0,0,.158.76,1.221,1.221,0,0,0,.667.241,3.04,3.04,0,0,1,2.072,2.735,22.063,22.063,0,0,1-.193,3.65,4.136,4.136,0,0,0,1.09,3.365c1.449,1.256,3.651.541,5.569.426a1.739,1.739,0,0,1-1.53-1.721,5.158,5.158,0,0,1,.691-2.415,4.792,4.792,0,0,0,.641-2.428c-.11-1.159-1.024-2.087-1.374-3.2-.408-1.3-.014-2.692.17-4.042.347-2.527-.193-5.372-2.149-7.005a24.84,24.84,0,0,0-2.721-1.675c-1.613-1.023-2.885-2.523-4.516-3.518s-3.92-1.364-5.343-.089c-.551.494-.906,1.178-1.472,1.655-1.106.932-2.864.95-3.751,2.093-.763.984-.556,2.382-.312,3.6.326,1.63.142,2.9,1.884,3.188C572.148,302.451,574.032,303.068,575.163,302.5Z" transform="translate(-520.706 -268.098)" fill="#603556"/>
    <path id="Path_122" data-name="Path 122" d="M589.4,358.184c-1.4.171-2.779.259-3.8-.622a4.125,4.125,0,0,1-1.09-3.365,21.675,21.675,0,0,0,.193-3.651,3.041,3.041,0,0,0-2.072-2.734,1.238,1.238,0,0,1-.667-.241.963.963,0,0,1-.158-.761l.035-.451a4.43,4.43,0,0,0-3.558-4.687l-.039-.008a2.463,2.463,0,0,0-1.023-.056c-.64.148-1.053.773-1.642,1.063-1.131.565-3.014-.052-4.2-.246-1.739-.285-1.557-1.555-1.884-3.188a6.131,6.131,0,0,1-.1-2.786,1.52,1.52,0,0,0-.133.156c-.763.984-.556,2.382-.312,3.6.326,1.63.142,2.9,1.884,3.188,1.184.193,3.068.811,4.2.246.585-.3,1-.916,1.642-1.063a2.464,2.464,0,0,1,1.023.056l.039.008a4.431,4.431,0,0,1,3.558,4.688l-.035.451a.955.955,0,0,0,.157.76,1.221,1.221,0,0,0,.667.241,3.039,3.039,0,0,1,2.072,2.735,21.945,21.945,0,0,1-.193,3.65,4.133,4.133,0,0,0,1.09,3.365c1.449,1.256,3.651.541,5.569.426A1.47,1.47,0,0,1,589.4,358.184Z" transform="translate(-520.588 -309.24)" opacity="0.1"/>
    <path id="Path_123" data-name="Path 123" d="M368.57,573.7l5.955-2.222a.567.567,0,0,1,.729.332h0a.567.567,0,0,1-.332.729l-5.955,2.222-1.277-.128Z" transform="translate(-338.965 -521.528)" fill="#5c5c8e"/>
    <path id="Path_124" data-name="Path 124" d="M375.039,572.458h0a.567.567,0,0,1-.333.729l-5.959,2.229-.958-.1-.138.147,1.277.128,5.955-2.222a.567.567,0,0,0,.332-.729h0a.567.567,0,0,0-.232-.283A.656.656,0,0,1,375.039,572.458Z" transform="translate(-338.929 -522.361)" fill="#fff" opacity="0.1"/>
    <path id="Path_125" data-name="Path 125" d="M298.14,539.52l.4,1.062-1.047-.105-.229-.023.313-.332Z" transform="translate(-268.534 -487.353)" fill="#efc8c4"/>
    <path id="Path_126" data-name="Path 126" d="M368.03,601a.252.252,0,0,1,.062.067.1.1,0,0,1,0,.1.206.206,0,0,1-.057.042.193.193,0,0,0-.085.143l-.23-.022Z" transform="translate(-338.992 -548.235)" fill="#727a9c"/>
    <path id="Path_127" data-name="Path 127" d="M569.34,632.631s5.158-1.083,13.813.29l-3.391-2.488-6.169-1.263-4.364,1.159Z" transform="translate(-521.037 -573.683)" fill="#fff"/>
    <path id="Path_128" data-name="Path 128" d="M569.34,632.631s5.158-1.083,13.813.29l-3.391-2.488-6.169-1.263-4.364,1.159Z" transform="translate(-521.037 -573.683)" opacity="0.1"/>
    <path id="Path_129" data-name="Path 129" d="M548.716,636.578s2.6-7.026,15.939.022l-4.788-3.081s-11.471-3.169-12.8.483Z" transform="translate(-501.018 -576.46)" fill="#fff"/>
    <path id="Path_130" data-name="Path 130" d="M548.653,631.8s2.6-7.512,15.939.135l-4.788-3.342s-11.475-3.791-12.8.177Z" transform="translate(-500.954 -571.687)" opacity="0.1"/>
    <path id="Path_131" data-name="Path 131" d="M548.716,631.535s2.6-7.623,15.939.024l-4.788-3.342s-11.471-3.682-12.8.29Z" transform="translate(-501.018 -571.419)" fill="#fff"/>
    <path id="Path_132" data-name="Path 132" d="M548.68,628.64s2.6-8.472,15.938.13l-4.792-3.761s-11.471-3.864-12.8.595Z" transform="translate(-500.982 -568.521)" opacity="0.1"/>
    <path id="Path_133" data-name="Path 133" d="M548.68,627.623s2.6-8.576,15.938.027l-4.792-3.76s-11.471-3.864-12.8.595Z" transform="translate(-500.982 -567.51)" fill="#fff"/>
    <path id="Path_134" data-name="Path 134" d="M964.208,668.71s-3.2,3.43-.32,5.1a.8.8,0,0,0,.915.216s-.182-.161.183-.472a2.153,2.153,0,0,0,.343-.377,1.062,1.062,0,0,0,.2-.643h0a3.72,3.72,0,0,0-.913-3.128s-.121-.591-.223-.656l-.244.824a1.419,1.419,0,0,1,.841.621s-.806-.633-.884-.5c-.015.027-.109.443-.109.443a2.334,2.334,0,0,1,1.395,1s-.859-.882-1.432-.847l-.1.636a2.452,2.452,0,0,1,1.546,1.053s-.929-.892-1.561-.912l-.018.638s1.1.251,1.441.933c0,0-1.177-.92-1.435-.786a3.162,3.162,0,0,0,.1.742s.788.193.949.612c0,0-.852-.532-.925-.451a3.322,3.322,0,0,0,.548,1.083,2.4,2.4,0,0,1-.665-1.041,1.325,1.325,0,0,0-.16.741s-.316-.35.107-.925a3.056,3.056,0,0,1-.116-.694,2.884,2.884,0,0,0-.625.966,1.284,1.284,0,0,1,.624-1.131v-.643a4.1,4.1,0,0,0-.837,1.034s-.01-.6.851-1.195l.1-.625a4.887,4.887,0,0,0-.893.91,1.944,1.944,0,0,1,.927-1.088l.113-.41s-.46.377-.58.5-.165.1-.165.1a2.028,2.028,0,0,1,.792-.767A4.617,4.617,0,0,0,964.208,668.71Z" transform="translate(-876.485 -609.404)" fill="#6c63ff" opacity="0.1"/>
    <path id="Path_135" data-name="Path 135" d="M1100.437,90.91s-4.278,1.932-2.261,4.578a.8.8,0,0,0,.76.554s-.105-.219.351-.366a2.116,2.116,0,0,0,.462-.215,1.062,1.062,0,0,0,.432-.517h0a3.717,3.717,0,0,0,.364-3.237s.117-.592.047-.692l-.543.667a1.418,1.418,0,0,1,.537.9s-.5-.894-.622-.8c-.025.018-.271.366-.271.366a2.355,2.355,0,0,1,.9,1.465s-.452-1.146-.995-1.335l-.341.547a2.459,2.459,0,0,1,1.022,1.568s-.514-1.18-1.089-1.443l-.264.58s.922.658.966,1.417c0,0-.731-1.3-1.021-1.279a3,3,0,0,0-.193.722s.651.483.64.931c0,0-.58-.819-.676-.773a3.308,3.308,0,0,0,.088,1.21,2.4,2.4,0,0,1-.211-1.217,1.323,1.323,0,0,0-.434.622s-.156-.445.456-.813a3.027,3.027,0,0,1,.16-.684,2.883,2.883,0,0,0-.948.646s.13-.565,1.012-.8l.251-.591a4.1,4.1,0,0,0-1.171.63s.222-.556,1.246-.773l.329-.539a4.934,4.934,0,0,0-1.176.495,1.953,1.953,0,0,1,1.276-.645l.262-.334s-.57.17-.729.234-.193.026-.193.026a2.028,2.028,0,0,1,1.033-.4A5.07,5.07,0,0,0,1100.437,90.91Z" transform="translate(-998.4 -87.418)" fill="#6c63ff" opacity="0.1"/>
    <path id="Path_136" data-name="Path 136" d="M667.369,103.29s-6.428,1.835-3.3,4.567a1.24,1.24,0,0,0,1.167.58s-.166-.224.521-.36a4.083,4.083,0,0,0,.694-.2,1.238,1.238,0,0,0,.64-.511h0a2.729,2.729,0,0,0,.464-3.263s.161-.6.053-.7l-.8.659s.773.4.838.922c0,0-.78-.917-.966-.827-.038.018-.4.362-.4.362s1.341.694,1.4,1.506c0,0-.715-1.17-1.546-1.376l-.5.543s1.468.689,1.589,1.612a4.284,4.284,0,0,0-1.687-1.488l-.386.58s1.414.69,1.507,1.459c0,0-1.143-1.338-1.581-1.321a2.266,2.266,0,0,0-.275.725s1,.51.994.958c0,0-.9-.844-1.051-.8a2.3,2.3,0,0,0,.166,1.226,1.835,1.835,0,0,1-.354-1.235,1.453,1.453,0,0,0-.64.616s-.249-.453.669-.809c0,0,.117-.616.224-.688a4.726,4.726,0,0,0-1.417.628s.182-.568,1.511-.784l.365-.591a7.4,7.4,0,0,0-1.756.606s.322-.556,1.867-.75l.483-.536a9.5,9.5,0,0,0-1.768.469,3.313,3.313,0,0,1,1.915-.618l.386-.33s-.859.156-1.1.216-.29.021-.29.021a3.805,3.805,0,0,1,1.546-.379S667.425,103.331,667.369,103.29Z" transform="translate(-605.938 -98.602)" fill="#6c63ff" opacity="0.1"/>
    <path id="Path_137" data-name="Path 137" d="M889.96,794.347s3.236-3.4.37-5.094a.8.8,0,0,0-.913-.226s.181.163-.186.471a2.183,2.183,0,0,0-.347.373,1.057,1.057,0,0,0-.2.641h0a3.715,3.715,0,0,0,.882,3.137s.115.592.216.659l.252-.822a1.418,1.418,0,0,1-.836-.629s.8.64.878.508c.016-.027.114-.441.114-.441a2.351,2.351,0,0,1-1.385-1.018s.85.891,1.424.861l.11-.635a2.464,2.464,0,0,1-1.537-1.063s.921.9,1.552.927l.024-.639s-1.1-.267-1.436-.953c0,0,1.169.933,1.428.8a2.878,2.878,0,0,0-.1-.742s-.786-.207-.943-.622c0,0,.847.541.921.46a3.313,3.313,0,0,0-.537-1.088,2.4,2.4,0,0,1,.655,1.047,1.32,1.32,0,0,0,.167-.739s.313.354-.116.924a3.057,3.057,0,0,1,.109.695,2.893,2.893,0,0,0,.634-.955,1.266,1.266,0,0,1-.635,1.124l-.01.643a4.1,4.1,0,0,0,.846-1.026s0,.6-.863,1.187l-.1.624a4.9,4.9,0,0,0,.9-.9,1.947,1.947,0,0,1-.938,1.078l-.117.409s.464-.372.587-.491.166-.1.166-.1a2.022,2.022,0,0,1-.8.759A4.95,4.95,0,0,0,889.96,794.347Z" transform="translate(-809.567 -718.04)" fill="#6c63ff" opacity="0.1"/>
    <path id="Path_138" data-name="Path 138" d="M575.85,55.461s.552,4.66,3.685,3.535a.8.8,0,0,0,.756-.559s-.241.035-.243-.444a2.164,2.164,0,0,0-.067-.505,1.056,1.056,0,0,0-.362-.567h0a3.71,3.71,0,0,0-2.982-1.318s-.529-.29-.645-.253l.472.718a1.415,1.415,0,0,1,1.017-.241s-1,.207-.951.352c.01.03.267.369.267.369a2.357,2.357,0,0,1,1.676-.42s-1.228.085-1.572.546l.412.491a2.46,2.46,0,0,1,1.8-.5,3.5,3.5,0,0,0-1.705.6l.481.427a2.4,2.4,0,0,1,1.642-.5s-1.464.305-1.528.588a3.088,3.088,0,0,0,.631.4s.661-.474,1.08-.329c0,0-.956.307-.942.415a3.321,3.321,0,0,0,1.181.28,2.451,2.451,0,0,1-1.224-.164,1.325,1.325,0,0,0,.463.6s-.471.014-.638-.676a3.077,3.077,0,0,1-.6-.358,2.89,2.89,0,0,0,.331,1.1,1.271,1.271,0,0,1-.462-1.206l-.483-.418a4.123,4.123,0,0,0,.248,1.307,1.618,1.618,0,0,1-.363-1.422l-.414-.476a4.907,4.907,0,0,0,.117,1.269,1.945,1.945,0,0,1-.231-1.41l-.241-.351s-.009.594,0,.766-.033.188-.033.188a2.029,2.029,0,0,1-.075-1.1A4.928,4.928,0,0,0,575.85,55.461Z" transform="translate(-527.018 -55.29)" fill="#6c63ff" opacity="0.1"/>
    <path id="Path_139" data-name="Path 139" d="M774.128,733.127s-4.523-1.256-4.668,2.071a.8.8,0,0,0,.231.912s.059-.236.5-.057a2.163,2.163,0,0,0,.493.13,1.056,1.056,0,0,0,.663-.122h0a3.717,3.717,0,0,0,2.351-2.255s.469-.38.483-.5l-.843.165a1.418,1.418,0,0,1-.162,1.034s.193-1.007.036-1.014c-.032,0-.443.107-.443.107a2.336,2.336,0,0,1-.246,1.7s.386-1.169.09-1.661l-.612.2a2.456,2.456,0,0,1-.218,1.859,3.482,3.482,0,0,0,.087-1.805l-.574.279a2.392,2.392,0,0,1-.161,1.71s.273-1.47.034-1.637a3.142,3.142,0,0,0-.612.431s.193.791-.1,1.124c0,0,.077-1-.028-1.029a3.309,3.309,0,0,0-.707.986,2.4,2.4,0,0,1,.616-1.07,1.327,1.327,0,0,0-.731.2s.164-.441.869-.332a3.028,3.028,0,0,1,.561-.423,2.87,2.87,0,0,0-1.142-.11,1.278,1.278,0,0,1,1.292.031l.572-.29a4.122,4.122,0,0,0-1.3-.265,1.592,1.592,0,0,1,1.449.2l.6-.2a4.919,4.919,0,0,0-1.219-.372,1.948,1.948,0,0,1,1.393.321l.415-.09s-.547-.234-.71-.29-.162-.1-.162-.1a2.029,2.029,0,0,1,1.046.348A4.989,4.989,0,0,0,774.128,733.127Z" transform="translate(-701.875 -667.388)" fill="#6c63ff" opacity="0.1"/>
  </g>
</svg>
