<svg xmlns="http://www.w3.org/2000/svg" xmlns:xlink="http://www.w3.org/1999/xlink" width="109.693" height="62.56" viewBox="0 0 109.693 62.56">
  <defs>
    <linearGradient id="linear-gradient" x1="0.5" y1="1" x2="0.5" gradientUnits="objectBoundingBox">
      <stop offset="0" stop-color="gray" stop-opacity="0.251"/>
      <stop offset="0.54" stop-color="gray" stop-opacity="0.122"/>
      <stop offset="1" stop-color="gray" stop-opacity="0.102"/>
    </linearGradient>
    <linearGradient id="linear-gradient-2" x1="0" y1="0.5" x2="1" y2="0.5" xlink:href="#linear-gradient"/>
  </defs>
  <g id="undraw_winners_ao2o" transform="translate(0.02 0)" opacity="0.79">
    <path id="Path_140" data-name="Path 140" d="M94.9,201.021c2.119-.121,4.748-1.558,6.792-2.194q3.629-1.126,7.287-2.166,12.734-3.623,25.742-6.175,1.214-.239,2.432-.466a17.212,17.212,0,0,0-5.682-6.824,17.457,17.457,0,0,0,.1-1.8,17.092,17.092,0,0,0-16.971-17.212,16.7,16.7,0,0,0-8.236,2.162,45.265,45.265,0,0,0-24.771-7.006c-13.464,0-25.283,5.334-31.981,13.366l31.477,5.318,19.305,3.26c-22.008.657-44.084,1.31-66.029-.232a17.4,17.4,0,0,0-2.5,21.957h0c0,.344.014.686.04,1.024.559.16,1.1.315,1.583.417q11.66,2.463,23.47,4.123c-5.8,3.577-12.868,4.084-19.56,5.6a19.613,19.613,0,0,0,12.492,4.315h72.212c7.819,0,14.157-5.443,14.157-12.159h0a17.277,17.277,0,0,0,2.3-6.318C124.08,201.407,109.431,200.194,94.9,201.021Z" transform="translate(-28.976 -155.926)" fill="#6c63ff" opacity="0.1"/>
    <path id="Path_141" data-name="Path 141" d="M137.672,195.432a17.259,17.259,0,0,0-7.287-14.135,17.7,17.7,0,0,0,.1-1.8,17.092,17.092,0,0,0-16.971-17.209,16.71,16.71,0,0,0-8.237,2.161A45.254,45.254,0,0,0,80.5,157.44c-15.412,0-28.679,6.995-34.562,17.025-.327-.019-.656-.03-.988-.03A17.094,17.094,0,0,0,27.98,191.647a17.31,17.31,0,0,0,2.792,9.461h0c0,8.553,8.072,15.486,18.026,15.486h72.214c7.818,0,14.156-5.444,14.156-12.16h0a17.309,17.309,0,0,0,2.5-9Z" transform="translate(-28 -154.208)" fill="#6c63ff" opacity="0.1"/>
    <path id="Path_142" data-name="Path 142" d="M732.159,247.105a1.068,1.068,0,0,0-.468-.205c-.179-.041-.362-.067-.545-.1l-2.361-.34a2.78,2.78,0,0,0-.723-.038.918.918,0,0,0-.629.326.49.49,0,0,0-.109.307.809.809,0,0,0,.107.318,1.068,1.068,0,0,1,.058.141,3.235,3.235,0,0,0,.084.321.276.276,0,0,0,.04.063.1.1,0,0,1,0,.016c-.026.132.057.27.02.4-.033.109-.139.175-.206.267a.4.4,0,0,0-.01.442c.072.111.2.187.24.314.049.168-.083.33-.2.459a7.1,7.1,0,0,0-.6.757.469.469,0,0,0-.1.225c-.01.167.15.314.122.479-.022.13-.15.21-.26.288a1.617,1.617,0,0,0-.767,1.188,4.162,4.162,0,0,0-.928-2.109,1.509,1.509,0,0,1-.344-.54c-.021-.083-.025-.173-.054-.253-.1-.254-.4-.363-.534-.6-.1-.165-.1-.377-.215-.522s-.306-.177-.409-.317a2.029,2.029,0,0,1-.13-.3.645.645,0,0,0-.177-.213.532.532,0,0,0-.044-.032.152.152,0,0,0,.051-.113c0-.112-.111-.186-.208-.242-.125-.071-.246-.148-.365-.227a.855.855,0,0,0,.327-.267.879.879,0,0,0,.125-.575.726.726,0,0,0-.172-.44c-.06-.064-.136-.11-.2-.171a1.4,1.4,0,0,1-.288-.616,1.252,1.252,0,0,0-.494-.742c-.127-.074-.274-.108-.4-.186a.347.347,0,0,1-.184-.365c.029-.1.118-.162.178-.244a.485.485,0,0,0-.122-.671c-.071-.045-.158-.084-.173-.167a.305.305,0,0,1-.223-.236.912.912,0,0,1,0-.341q.038-.268.074-.533a.347.347,0,0,0,.267,0,2.347,2.347,0,0,0,.288.376,3.756,3.756,0,0,1,.671,1.165.7.7,0,0,0,.252.407c.049.028.1.042.152.072a.57.57,0,0,1,.15.153c.115.152.23.3.344.456l.006.023a.134.134,0,0,0,.015.038.128.128,0,0,0,.082.042,1.4,1.4,0,0,0,1.055-.036c.276-.173.4-.514.631-.742.166-.162.4-.288.448-.516a1.683,1.683,0,0,1-.165-.06c.048-.048.1-.1.161-.167a2.031,2.031,0,0,0,.255-.3,1.963,1.963,0,0,0,.192-.43q.277-.79.556-1.581c.088-.249.176-.5.288-.743.115-.263.251-.515.377-.773a10.265,10.265,0,0,0,.746-2.1.768.768,0,0,0,.03-.306.806.806,0,0,0-.272-.414,2,2,0,0,0-.409-.338.671.671,0,0,0-.512-.082.74.74,0,0,0-.456.575,6.048,6.048,0,0,0-.059.767c-.034.369-.161.726-.192,1.1-.016.214,0,.431-.026.644a2.352,2.352,0,0,1-.288.794,5.141,5.141,0,0,1-1.24,1.528c-.058.049-.119.1-.176.149a.917.917,0,0,1,.012-.125.75.75,0,0,0-.122.043.367.367,0,0,0-.014-.144c-.077-.229-.418-.288-.479-.521a1.066,1.066,0,0,1-.016-.174,4.436,4.436,0,0,0-.207-.575,2.455,2.455,0,0,0-.1-.553,1.55,1.55,0,0,0-.255-.288,1.129,1.129,0,0,1-.243-.457c-.012-.047-.024-.1-.037-.143a.655.655,0,0,0-.035-.315c-.087-.217-.313-.356-.394-.575-.063-.171-.036-.384-.155-.516a.562.562,0,0,0-.227-.137,5.056,5.056,0,0,0-1.368-.323,1.165,1.165,0,0,1-.74-.222c-.22-.215-.23-.6-.487-.767a.582.582,0,0,0-.722.168.922.922,0,0,0-.073.1,1.027,1.027,0,0,1-.02-.393c0-.033.007-.066.01-.1a1.918,1.918,0,0,0,1.039-.821v.006l.012.03c.028.07.072.137.137.145h0a.192.192,0,0,0,.119-.043.984.984,0,0,0,.159-.138q.036-.04.069-.083a1.087,1.087,0,0,0,.113-.192,1.142,1.142,0,0,0,.1-.321c.017-.111.019-.225.038-.337a2.08,2.08,0,0,1,.07-.254c.01-.028.019-.056.028-.083l.031-.1a2.22,2.22,0,0,0,.1-.608v-.1a1.012,1.012,0,0,0-.322-.714c-.165-.135-.384-.192-.5-.375a1.785,1.785,0,0,1-.142-.425.959.959,0,0,0-.754-.678.839.839,0,0,0-.6.164h0l-.013.011h0a.959.959,0,0,0-.238.265.791.791,0,0,1-.338-.192c-.1-.089-.17-.2-.266-.288a.686.686,0,0,0-.683-.144.816.816,0,0,0-.488.559,1.948,1.948,0,0,1-.153.59c-.085.128-.225.192-.323.309a.581.581,0,0,0-.121.256h0a.692.692,0,0,0-.016.16h0a.292.292,0,0,0,.006.071v.012a.5.5,0,0,0,.016.078h0a.671.671,0,0,0,.143.263.631.631,0,0,0,.231.167.941.941,0,0,0,.111.035l.114.026.04.01a1.912,1.912,0,0,0-.054,1.689.755.755,0,0,1-.01.081,6.64,6.64,0,0,0,.05,1.13.606.606,0,0,1-.07.431.815.815,0,0,1-.139.124c.052-.067.1-.133.158-.2a.684.684,0,0,0-.541-.14,2.506,2.506,0,0,0-1.055.322,1.181,1.181,0,0,1-.681.259c-.145-.016-.288-.1-.429-.058a.868.868,0,0,0-.22.13.3.3,0,0,1-.18.056,3.889,3.889,0,0,0-.564-.461,4.447,4.447,0,0,1-.561-.6c-.311-.375-.62-.751-.925-1.13a2.175,2.175,0,0,1-.566-1.07,1.041,1.041,0,0,1-.007-.122,3.1,3.1,0,0,1,.073-.575.288.288,0,0,0,0-.139c-.029-.1-.139-.131-.234-.152h0a2.218,2.218,0,0,0,.026-.221,16.8,16.8,0,0,1,.17-2.47,1.679,1.679,0,0,1,.4-.85c.35-.354.936-.439,1.2-.858a.979.979,0,0,0-.147-1.151,1.452,1.452,0,0,0-1.129-.418.583.583,0,0,0-.329.088.7.7,0,0,0-.2.3l-.411,1a6.051,6.051,0,0,0-.3.8c-.115.42-.141.863-.232,1.287a3.348,3.348,0,0,1-.325,1.033c-.129.337-.268.671-.384,1.015-.029.086-.129.342-.192.575a.349.349,0,0,0-.065.049,1.738,1.738,0,0,0-.136.2c-.087.115-.229.176-.325.288s-.116.315.017.371a.392.392,0,0,0,.083.018.272.272,0,0,1,.231.38c-.021.15-.1.288-.108.437a1.18,1.18,0,0,0,.279.734,6.322,6.322,0,0,0,.512.689c.135.152.288.288.424.433.519.533.931,1.156,1.4,1.735a3.849,3.849,0,0,0,.569.6,4.28,4.28,0,0,0,.431.3l.8.508a.879.879,0,0,0,.3.143.4.4,0,0,0,.107,0c0,.024.009.047.014.071a4.215,4.215,0,0,1,.215.735c.015.256-.008.518.011.777.017.239.07.479.083.714a4.589,4.589,0,0,1-.192,1.342,8,8,0,0,1-.575,1.9,1.116,1.116,0,0,0-.192.512.266.266,0,0,0,.006.067h0l-.144.082c-.042.024-.084.048-.123.073a1.026,1.026,0,0,0-.452.455c-.06.166-.033.356-.105.517l-.011.021c-.077.15-.229.261-.264.425h0c-.026.126.024.259,0,.384v0a1.4,1.4,0,0,0-.052.192.228.228,0,0,0,.006.063.365.365,0,0,0,.115.187.763.763,0,0,0,.112.089q.061.04.127.075l.025.013c.036.019.073.037.11.055l.025.011c.043.019.087.036.131.052l.031.01c.034.012.07.022.105.031l.024.008.022,0,.1.02.036.007q.063.011.129.017h.038c.033,0,.064,0,.1.006h.175a1.073,1.073,0,0,0,.135-.012h.014c.04-.006.081-.012.121-.021l.031-.007c.037-.009.075-.017.112-.029l.02-.006c.045-.013.09-.028.134-.045a3.516,3.516,0,0,0,.443-.22c.1-.053.192-.106.288-.155a2.229,2.229,0,0,1,.219-.1,1.234,1.234,0,0,1,.575-.1,2.249,2.249,0,0,1,.288.058c0,.011,0,.021,0,.032q.117.69.231,1.381a2.808,2.808,0,0,1,.4-.239.88.88,0,0,0-.051.216.858.858,0,0,0,0,.172.373.373,0,0,1-.027.264c-.034.044-.1.069-.114.119a.406.406,0,0,0-.01.156.249.249,0,0,1-.228.232.364.364,0,0,1-.145.428.507.507,0,0,0-.111.073.333.333,0,0,0-.064.145,2.562,2.562,0,0,1-.751,1.234,2.415,2.415,0,0,0-.371.362,1.647,1.647,0,0,0-.168.331q-.384.938-.779,1.876a4.163,4.163,0,0,0-.334,1.083c-.115,1.034-1.036,1.91-.863,2.936a1.438,1.438,0,0,0,.3.7,1.765,1.765,0,0,0,.767.471,13.966,13.966,0,0,0,2.3.6l1.22.25a5.335,5.335,0,0,0,.727.115,4.759,4.759,0,0,1,.883.067,2.741,2.741,0,0,0,.53.141c.157.009.351-.025.444.1s.021.3.109.412c.142.181.488,0,.642.171a.794.794,0,0,1,.1.212.383.383,0,0,0,.1.121.811.811,0,0,1,.012.164,2.831,2.831,0,0,1-.138.654q-.173.584-.344,1.169a2.587,2.587,0,0,0-.1.422,1.023,1.023,0,0,0,0,.209.574.574,0,0,0,.344.5.631.631,0,0,0,.466-.058,2.061,2.061,0,0,0,.384-.259,2.619,2.619,0,0,0,.553-.57c.479-.717.324-1.688.661-2.48a11.852,11.852,0,0,0,.8-1.517.607.607,0,0,0,.011-.328.679.679,0,0,0-.455-.37h-.009a3.928,3.928,0,0,0-.479-.137c-.04-.009-.081-.015-.123-.022a.753.753,0,0,1-.212-.276.643.643,0,0,0-.045-.166.173.173,0,0,0-.138-.077c-.1-.01-.224.025-.329.017-.214-.015-.356-.225-.548-.322a1.118,1.118,0,0,0-.6-.059.559.559,0,0,1-.219-.013.82.82,0,0,1-.23-.158.964.964,0,0,0-.845-.17.921.921,0,0,1-.288.065c-.187-.011-.319-.177-.457-.3a5.491,5.491,0,0,0-1.374-.664.313.313,0,0,1-.165-.142c-.053-.13.066-.261.174-.35l.788-.655c.863-.717,1.942-1.257,2.342-2.309a1.336,1.336,0,0,1,.192-.394.534.534,0,0,1,.106-.1.805.805,0,0,1,.59-.115,1.992,1.992,0,0,1,.694.3q.515.312,1,.671a8.86,8.86,0,0,1,.916.752c.5.479.922,1.048,1.391,1.565a4.469,4.469,0,0,0,1.656,1.246,2.131,2.131,0,0,0,2-.178,3.358,3.358,0,0,0,1.015-2.123,3.431,3.431,0,0,0,.643-1.342c.11-.3.251-.575.37-.871.142-.347.253-.706.364-1.063a5.114,5.114,0,0,0,.255-1.109,8.761,8.761,0,0,1,.054-1.794,6.623,6.623,0,0,0,.641-.246,3.173,3.173,0,0,1,1.014-.087h.022a.523.523,0,0,0,.337-.08.537.537,0,0,0,.139-.408A1.247,1.247,0,0,0,732.159,247.105Zm-13.893-16.356a.712.712,0,0,1-.243.017Z" transform="translate(-642.595 -216.427)" fill="url(#linear-gradient)"/>
    <path id="Path_143" data-name="Path 143" d="M787.835,310.076a1.055,1.055,0,0,1-.4.212l-.68.244a2.532,2.532,0,0,1-1.144.218,3.793,3.793,0,0,1-1.292-.334c-.215-.263.538-.649.795-.871a1.085,1.085,0,0,0,.161-.142.578.578,0,0,0,.07-.429,6.618,6.618,0,0,1-.05-1.129,2.284,2.284,0,0,1,.038-.267c.1-.441.506-.28.83-.163a6.493,6.493,0,0,1,1.127.488.808.808,0,0,1,.278.236,1.2,1.2,0,0,1,.062.767.719.719,0,0,0,.112.564,1.45,1.45,0,0,1,.181.192A.36.36,0,0,1,787.835,310.076Z" transform="translate(-711.786 -289.688)" fill="#be6f72"/>
    <path id="Path_144" data-name="Path 144" d="M714.465,231.65c.1-.425.117-.863.232-1.284a6,6,0,0,1,.3-.8l.423-.987a.7.7,0,0,1,.2-.3.591.591,0,0,1,.329-.088,1.465,1.465,0,0,1,1.13.417.968.968,0,0,1,.147,1.144c-.268.419-.854.5-1.2.856a1.676,1.676,0,0,0-.4.849,16.7,16.7,0,0,0-.17,2.463.817.817,0,0,1-.288.681.839.839,0,0,1-.43.083l-.629.011c-.105,0-.488.066-.558-.013-.123-.139.157-.831.208-.986.113-.342.252-.676.383-1.013A3.366,3.366,0,0,0,714.465,231.65Z" transform="translate(-647.807 -218.172)" fill="#be6f72"/>
    <path id="Path_145" data-name="Path 145" d="M828.51,570.307a12.028,12.028,0,0,1-.8,1.514c-.337.791-.185,1.758-.661,2.474a2.613,2.613,0,0,1-.553.571,2.055,2.055,0,0,1-.384.258.631.631,0,0,1-.466.057.574.574,0,0,1-.344-.5,1,1,0,0,1,0-.208,2.575,2.575,0,0,1,.1-.421q.173-.582.344-1.166a2.817,2.817,0,0,0,.138-.652c.013-.242-.141-.556-.076-.781.03-.1.141-.192.192-.277a1.606,1.606,0,0,0,.165-.392,2.437,2.437,0,0,1,.3-.779,1.825,1.825,0,0,1,.374-.35.991.991,0,0,1,.357-.2.874.874,0,0,1,.384.018,3.774,3.774,0,0,1,.479.136h.009a.671.671,0,0,1,.455.369A.6.6,0,0,1,828.51,570.307Z" transform="translate(-748.865 -526.706)" fill="#3f3d56"/>
    <path id="Path_146" data-name="Path 146" d="M916.951,439.538a.531.531,0,0,1-.139.408.524.524,0,0,1-.338.08h-.026a3.232,3.232,0,0,0-1.014.087,3.836,3.836,0,0,1-.73.261,1.781,1.781,0,0,1-1-.322,9.949,9.949,0,0,0-.908-.431c-.2-.083-.618-.137-.716-.36a3.277,3.277,0,0,1-.084-.32,1.066,1.066,0,0,0-.058-.141.81.81,0,0,1-.107-.317.49.49,0,0,1,.109-.307.92.92,0,0,1,.628-.323,2.781,2.781,0,0,1,.723.038l2.361.339a5.519,5.519,0,0,1,.545.1,1.068,1.068,0,0,1,.468.205A1.212,1.212,0,0,1,916.951,439.538Z" transform="translate(-827.104 -407.725)" fill="#3f3d56"/>
    <path id="Path_147" data-name="Path 147" d="M765.375,447.94a5.612,5.612,0,0,0-.132,2,5.091,5.091,0,0,1-.255,1.106c-.111.357-.222.714-.364,1.06-.119.288-.26.575-.37.869a3.485,3.485,0,0,1-.643,1.342,3.338,3.338,0,0,1-1.015,2.117,2.125,2.125,0,0,1-2,.178,4.469,4.469,0,0,1-1.656-1.246c-.469-.517-.888-1.08-1.391-1.561a8.719,8.719,0,0,0-.918-.751q-.487-.354-1-.665a2.006,2.006,0,0,0-.694-.3.805.805,0,0,0-.59.115.533.533,0,0,0-.106.1,1.318,1.318,0,0,0-.192.393c-.4,1.049-1.483,1.588-2.346,2.3l-.788.653c-.107.089-.226.22-.174.349a.313.313,0,0,0,.165.142,5.486,5.486,0,0,1,1.374.663c.138.127.27.293.457.3a.919.919,0,0,0,.288-.064.967.967,0,0,1,.845.169.822.822,0,0,0,.23.158.56.56,0,0,0,.219.013,1.167,1.167,0,0,1,.6.058c.183.091.334.306.548.321.1.008.229-.027.329-.017a.173.173,0,0,1,.138.077.639.639,0,0,1,.045.165c.039.135.172.218.258.329a.909.909,0,0,1,.138.618,2.639,2.639,0,0,1-.84,1.766,1.039,1.039,0,0,1-.517.288.479.479,0,0,1-.512-.227.788.788,0,0,0-.1-.211c-.154-.17-.5.011-.642-.171-.088-.113-.025-.294-.109-.411s-.288-.1-.444-.1a2.81,2.81,0,0,1-.53-.141,4.766,4.766,0,0,0-.883-.067,5.329,5.329,0,0,1-.727-.115l-1.22-.249a14.454,14.454,0,0,1-2.3-.6,1.847,1.847,0,0,1-.767-.47,1.438,1.438,0,0,1-.3-.7c-.174-1.023.747-1.9.863-2.928a4.106,4.106,0,0,1,.334-1.08q.39-.936.779-1.873a1.669,1.669,0,0,1,.163-.332,2.407,2.407,0,0,1,.371-.361,2.554,2.554,0,0,0,.751-1.231.332.332,0,0,1,.064-.145.539.539,0,0,1,.111-.072.364.364,0,0,0,.145-.427.249.249,0,0,0,.228-.232.4.4,0,0,1,.01-.155c.023-.05.081-.075.114-.119a.37.37,0,0,0,.027-.263.858.858,0,0,1,0-.172.881.881,0,0,1,.257-.536c.229-.225.555-.167.872-.221a4.99,4.99,0,0,0,.921-.294,9.043,9.043,0,0,1,2.6-.6,5.675,5.675,0,0,1,2.625.418,1.493,1.493,0,0,1,.338.192.641.641,0,0,1,.177.212,1.979,1.979,0,0,0,.13.294c.1.14.3.185.409.317s.122.356.215.52c.133.234.442.342.534.6.029.081.033.169.054.252a1.443,1.443,0,0,0,.344.539,4.143,4.143,0,0,1,.928,2.109,1.6,1.6,0,0,1,.767-1.185c.11-.072.238-.152.26-.282.028-.165-.132-.312-.122-.479a.47.47,0,0,1,.1-.224,7.1,7.1,0,0,1,.6-.755c.118-.129.25-.288.2-.458-.037-.128-.168-.2-.24-.314a.4.4,0,0,1,.01-.441c.067-.091.174-.157.206-.266.037-.128-.046-.266-.02-.4a.491.491,0,0,1,.2-.256,2,2,0,0,1,2.437.229A.91.91,0,0,1,765.375,447.94Z" transform="translate(-677.602 -415.514)" fill="#65617d"/>
    <path id="Path_148" data-name="Path 148" d="M916.924,439.538a.532.532,0,0,1-.139.408.524.524,0,0,1-.338.08h-.026c.039-.2.282-.314.324-.516a.457.457,0,0,0-.105-.348,1.728,1.728,0,0,0-.863-.543,5.716,5.716,0,0,0-2.882-.216,2.9,2.9,0,0,0-.757.233,2.463,2.463,0,0,0-.23.163.811.811,0,0,1-.107-.317.49.49,0,0,1,.109-.307.92.92,0,0,1,.628-.323,2.783,2.783,0,0,1,.723.038l2.361.339a5.52,5.52,0,0,1,.545.1,1.068,1.068,0,0,1,.468.205A1.2,1.2,0,0,1,916.924,439.538Z" transform="translate(-827.077 -407.725)" opacity="0.1"/>
    <path id="Path_149" data-name="Path 149" d="M828.51,571.914a12.023,12.023,0,0,1-.8,1.514c-.337.791-.185,1.759-.661,2.474a2.612,2.612,0,0,1-.553.57,2.049,2.049,0,0,1-.384.258.63.63,0,0,1-.466.058.574.574,0,0,1-.344-.5,1,1,0,0,1,0-.208l.006.015c.083.2.22.412.434.448a.588.588,0,0,0,.443-.156,2.739,2.739,0,0,0,.676-1,4.153,4.153,0,0,0,.324-.827c.038-.163.057-.33.1-.493.182-.792.8-1.438.94-2.241a.547.547,0,0,0,.008-.168.847.847,0,0,0-.083-.209,1.038,1.038,0,0,1-.073-.232.671.671,0,0,1,.455.369A.6.6,0,0,1,828.51,571.914Z" transform="translate(-748.865 -528.314)" opacity="0.1"/>
    <path id="Path_150" data-name="Path 150" d="M786.759,511.275a1.39,1.39,0,0,1-.432.591,2.109,2.109,0,0,1-.931.4.926.926,0,0,1-.479-.006c-.213-.074-.366-.273-.584-.331a3.984,3.984,0,0,0-.479-.028,1.7,1.7,0,0,1-.731-.428c-.7-.525-1.617-.7-2.316-1.221a.215.215,0,0,1-.075-.078.233.233,0,0,1-.014-.108,2.206,2.206,0,0,1,.21-.921,3.217,3.217,0,0,1,.4-.563,17.075,17.075,0,0,1,2-2.187,3.038,3.038,0,0,1,1.055-.647,1.581,1.581,0,0,1,.924-.017.535.535,0,0,0-.106.1,1.317,1.317,0,0,0-.192.393c-.4,1.05-1.484,1.589-2.347,2.3l-.788.653c-.107.089-.226.22-.174.349a.313.313,0,0,0,.165.142,5.485,5.485,0,0,1,1.374.663c.138.127.27.293.457.3a.919.919,0,0,0,.288-.064.967.967,0,0,1,.845.169.822.822,0,0,0,.23.158.558.558,0,0,0,.219.013,1.167,1.167,0,0,1,.6.059c.183.091.334.306.548.321C786.535,511.3,786.659,511.263,786.759,511.275Z" transform="translate(-708.562 -469.049)" opacity="0.1"/>
    <path id="Path_151" data-name="Path 151" d="M743.411,395.336a1.018,1.018,0,0,0-.451.453c-.061.166-.033.356-.106.517s-.24.273-.276.446c-.026.126.025.258,0,.384a1.665,1.665,0,0,0-.053.2c-.01.143.113.259.233.339a1.947,1.947,0,0,0,1.742.192,7.874,7.874,0,0,0,.733-.375,1.449,1.449,0,0,1,.789-.192c.158.017.31.075.468.1a.491.491,0,0,0,.438-.13.547.547,0,0,0,.1-.227,3.4,3.4,0,0,0-.054-1.614c-.127-.529-.318-1.038-.454-1.565a7.183,7.183,0,0,0-.33-1.159,1.521,1.521,0,0,0-.806-.853.15.15,0,0,0-.1-.012.163.163,0,0,0-.062.046,2.949,2.949,0,0,0-.658,1.107c-.151.459-.192.946-.33,1.408a1.441,1.441,0,0,1-.288.6A3.286,3.286,0,0,1,743.411,395.336Z" transform="translate(-674.032 -366.124)" fill="#3f3d56"/>
    <path id="Path_152" data-name="Path 152" d="M747.045,396.968a.558.558,0,0,1-.1.227.486.486,0,0,1-.438.129c-.157-.019-.309-.078-.467-.1a1.446,1.446,0,0,0-.789.192c-.245.123-.479.275-.734.374a1.936,1.936,0,0,1-1.163.066,1.877,1.877,0,0,1-.575-.253.412.412,0,0,1-.233-.338,1.65,1.65,0,0,1,.053-.2c.025-.126-.025-.258,0-.384.036-.173.2-.288.276-.447s.045-.35.105-.516a1.022,1.022,0,0,1,.452-.454,3.444,3.444,0,0,0,.545-.351.546.546,0,0,0,.051-.071,1.724,1.724,0,0,0,.228-.528c.141-.462.179-.948.329-1.409a2.953,2.953,0,0,1,.659-1.106.144.144,0,0,1,.061-.046.154.154,0,0,1,.1.011,1.532,1.532,0,0,1,.806.854,7.561,7.561,0,0,1,.33,1.158c.134.526.327,1.037.453,1.566A3.411,3.411,0,0,1,747.045,396.968Z" transform="translate(-674.05 -366.059)" opacity="0.1"/>
    <path id="Path_153" data-name="Path 153" d="M797.2,308.931a1.918,1.918,0,0,1-2.336-1.055,2.285,2.285,0,0,1,.038-.268c.1-.441.506-.28.83-.163a6.489,6.489,0,0,1,1.127.488.808.808,0,0,1,.278.236A1.181,1.181,0,0,1,797.2,308.931Z" transform="translate(-721.349 -289.715)" opacity="0.1"/>
    <circle id="Ellipse_190" data-name="Ellipse 190" cx="1.918" cy="1.918" r="1.918" transform="translate(73.35 15.374)" fill="#be6f72"/>
    <path id="Path_154" data-name="Path 154" d="M795.618,447.16c0,.159-.216.21-.376.2a12.14,12.14,0,0,0-1.708-.144c-.72.065-1.382.463-2.1.5a6.375,6.375,0,0,0-.835.024c-.355.066-.671.282-1.033.313-.313.027-.623-.091-.937-.079a1.505,1.505,0,0,0-.626.178.881.881,0,0,1,.257-.536c.229-.225.555-.167.872-.221a4.994,4.994,0,0,0,.92-.294,9.043,9.043,0,0,1,2.6-.6,5.675,5.675,0,0,1,2.624.415,1.493,1.493,0,0,1,.339.192A.149.149,0,0,1,795.618,447.16Z" transform="translate(-715.147 -415.538)" opacity="0.1"/>
    <path id="Path_155" data-name="Path 155" d="M774.528,331.941l-.777-.288-.328-.121a1.588,1.588,0,0,0-.418-.111,1.064,1.064,0,0,0-.93.541,2.921,2.921,0,0,0-.34,1.071q-.132.761-.224,1.528a9.987,9.987,0,0,0-.1,1.394,16.52,16.52,0,0,0,.549,3.513,12.352,12.352,0,0,1,.306,1.558c.023.217.034.434.057.652.025.245.065.486.105.729l.231,1.378a1.821,1.821,0,0,1,.968-.394c.314-.012.624.105.937.079a10.689,10.689,0,0,0,1.033-.312,6.225,6.225,0,0,1,.836-.024c.721-.036,1.384-.435,2.1-.5a11.547,11.547,0,0,1,1.709.143c.159.01.375-.041.375-.2,0-.111-.111-.185-.208-.241a10.253,10.253,0,0,1-1.3-.927,4.387,4.387,0,0,1-1.021-1.011c-.626-.973-.411-2.29-.945-3.317-.434-.834,0-1.927,0-2.868a4.363,4.363,0,0,0-.367-2.147l-.373-.944a.154.154,0,0,0-.044-.072.147.147,0,0,0-.085-.026.9.9,0,0,0-.619.2c-.175.143-.288.348-.46.5A.7.7,0,0,1,774.528,331.941Z" transform="translate(-700.148 -311.148)" fill="#e3e8f4"/>
    <path id="Path_156" data-name="Path 156" d="M807.959,325.72a1.7,1.7,0,0,1,.3-.741.583.583,0,0,1,.722-.167c.257.167.267.552.487.767a1.181,1.181,0,0,0,.74.222,5.021,5.021,0,0,1,1.368.322.559.559,0,0,1,.227.136c.12.136.1.345.155.515.081.219.307.358.394.575a1.148,1.148,0,0,1-.081.76c-.145.446-.236.909-.377,1.357a3.02,3.02,0,0,1-.671,1.226c-.146.15-.362.288-.554.2l-.074.532a.9.9,0,0,0,0,.34.3.3,0,0,0,.222.236c.014.082.1.122.173.167a.479.479,0,0,1,.122.671c-.06.082-.15.146-.178.243a.345.345,0,0,0,.184.364c.125.077.271.112.4.186a1.237,1.237,0,0,1,.494.739,1.37,1.37,0,0,0,.288.615c.063.06.139.106.2.17a.728.728,0,0,1,.172.44.874.874,0,0,1-.125.575,1.738,1.738,0,0,1-.863.479,7.27,7.27,0,0,0-1.377.9,1.469,1.469,0,0,1-.628.3,5.5,5.5,0,0,1-.929-.108,2.309,2.309,0,0,0-.554.073l-.575.125a3.728,3.728,0,0,0-.352-1.317,6.547,6.547,0,0,1-.245-2.493,19.511,19.511,0,0,1,.4-2.487,15.869,15.869,0,0,1,.288-1.735,11.422,11.422,0,0,0,.5-1.615C808.36,327.382,807.754,326.614,807.959,325.72Z" transform="translate(-732.326 -305.471)" fill="#3f3d56"/>
    <path id="Path_157" data-name="Path 157" d="M848.739,352.126a1.056,1.056,0,0,1,.11.312,1.126,1.126,0,0,0,.243.456,1.573,1.573,0,0,1,.255.288,2.15,2.15,0,0,1,.1.552,4.434,4.434,0,0,1,.207.575,1.046,1.046,0,0,0,.016.174c.062.232.4.288.479.52.051.151-.036.314-.02.473a.418.418,0,0,1,.009.15.3.3,0,0,1-.109.14,2.2,2.2,0,0,0-.631,1.123,6.4,6.4,0,0,0-.145,1.3l-.375-.5a.569.569,0,0,0-.15-.153c-.048-.029-.1-.043-.152-.072a.694.694,0,0,1-.252-.4,3.738,3.738,0,0,0-.671-1.162,1.268,1.268,0,0,1-.363-.593,1.091,1.091,0,0,1,.017-.32,5.46,5.46,0,0,1,.5-1.828c.143-.261.328-.5.465-.761C848.364,352.22,848.493,351.764,848.739,352.126Z" transform="translate(-768.743 -330.104)" fill="#3f3d56"/>
    <path id="Path_158" data-name="Path 158" d="M713.123,296.158a.438.438,0,0,1-.059.23.3.3,0,0,1-.3.1.876.876,0,0,1-.3-.142l-.8-.507a4.443,4.443,0,0,1-.43-.3,3.839,3.839,0,0,1-.569-.6c-.466-.575-.878-1.2-1.4-1.726-.141-.144-.288-.282-.424-.432a6.321,6.321,0,0,1-.512-.688,1.173,1.173,0,0,1-.279-.732c.015-.15.087-.288.108-.436a.272.272,0,0,0-.231-.379.392.392,0,0,1-.083-.018c-.133-.056-.113-.262-.017-.37s.238-.169.325-.288a1.729,1.729,0,0,1,.136-.2.519.519,0,0,1,.223-.112,3.458,3.458,0,0,1,1.7-.064c.1.021.205.059.234.152a.281.281,0,0,1,0,.138,3.09,3.09,0,0,0-.073.575,1,1,0,0,0,.007.121,2.17,2.17,0,0,0,.566,1.068c.3.378.615.753.925,1.127a4.423,4.423,0,0,0,.561.6,3.2,3.2,0,0,1,.59.492,1.075,1.075,0,0,1,.1.589A13.065,13.065,0,0,1,713.123,296.158Z" transform="translate(-642.586 -273.533)" fill="#3f3d56"/>
    <path id="Path_159" data-name="Path 159" d="M875.786,334.845a1.547,1.547,0,0,0,.447-.731l.556-1.577c.088-.249.176-.5.288-.742.115-.262.251-.514.377-.767a10.23,10.23,0,0,0,.745-2.085.774.774,0,0,0,.03-.306.8.8,0,0,0-.272-.413,1.994,1.994,0,0,0-.408-.337.671.671,0,0,0-.512-.082.74.74,0,0,0-.456.575,6.009,6.009,0,0,0-.059.767c-.034.368-.161.724-.192,1.093-.016.214,0,.43-.026.642a2.344,2.344,0,0,1-.288.793,5.148,5.148,0,0,1-1.24,1.525,1.993,1.993,0,0,0-.372.358,1.168,1.168,0,0,0-.179.447,1.029,1.029,0,0,0,.078.726,1.066,1.066,0,0,0,.743.443C875.432,335.252,875.521,335.12,875.786,334.845Z" transform="translate(-793.073 -308.22)" fill="#be6f72"/>
    <path id="Path_160" data-name="Path 160" d="M790.967,268.609a.9.9,0,0,1,.869-.471.959.959,0,0,1,.754.677,1.749,1.749,0,0,0,.142.424c.119.185.339.239.5.373a1.009,1.009,0,0,1,.322.713,2.157,2.157,0,0,1-.128.806,2.559,2.559,0,0,0-.1.337c-.019.111-.021.224-.038.336a1.093,1.093,0,0,1-.44.726.192.192,0,0,1-.119.043c-.075-.009-.121-.1-.149-.175-.152-.44-.116-.978-.4-1.329a1.453,1.453,0,0,0-.454-.338.586.586,0,0,0-.232-.087.611.611,0,0,0-.336.123,2.09,2.09,0,0,1-.664.293.815.815,0,0,1-.686-.148c-.132-.109-.229-.273-.376-.359a2.891,2.891,0,0,0-.445-.139.659.659,0,0,1-.267-1c.1-.115.238-.18.323-.308a1.943,1.943,0,0,0,.153-.589.81.81,0,0,1,.488-.557.686.686,0,0,1,.683.143c.1.086.173.2.267.288a.767.767,0,0,0,.71.192" transform="translate(-715.688 -254.095)" fill="#3f3d56"/>
    <path id="Path_161" data-name="Path 161" d="M828.565,419.041a.372.372,0,0,0-.1.407,8.975,8.975,0,0,0,1.115-.16c.261-.037.718-.019.894-.258.313-.423-.656-.329-.833-.314A1.827,1.827,0,0,0,828.565,419.041Z" transform="translate(-751.71 -390.415)" opacity="0.1"/>
    <path id="Path_162" data-name="Path 162" d="M710.5,289.79a3.08,3.08,0,0,0-.073.575,1.676,1.676,0,0,1-.863-.133l-.793-.27a.225.225,0,0,0-.3.057,6.719,6.719,0,0,1-.479.532.394.394,0,0,1-.083-.018c-.133-.056-.113-.262-.017-.37s.238-.169.325-.288a1.739,1.739,0,0,1,.136-.2.519.519,0,0,1,.223-.112,3.458,3.458,0,0,1,1.7-.064c.1.021.205.059.234.152A.281.281,0,0,1,710.5,289.79Z" transform="translate(-642.649 -273.533)" fill="#3f3d56"/>
    <path id="Path_163" data-name="Path 163" d="M710.5,289.79a3.08,3.08,0,0,0-.073.575,1.676,1.676,0,0,1-.863-.133l-.793-.27a.225.225,0,0,0-.3.057,6.719,6.719,0,0,1-.479.532.394.394,0,0,1-.083-.018c-.133-.056-.113-.262-.017-.37s.238-.169.325-.288a1.739,1.739,0,0,1,.136-.2.519.519,0,0,1,.223-.112,3.458,3.458,0,0,1,1.7-.064c.1.021.205.059.234.152A.281.281,0,0,1,710.5,289.79Z" transform="translate(-642.649 -273.533)" opacity="0.1"/>
    <path id="Path_164" data-name="Path 164" d="M793.585,479.6a.479.479,0,0,1,.335.251l-1.11-.282-.575-.147c-.1-.026-.466-.056-.533-.135-.1-.117.245-.036.306-.028.186.028.372.057.557.09C792.912,479.412,793.248,479.515,793.585,479.6Z" transform="translate(-718.478 -445.139)" opacity="0.1"/>
    <path id="Path_165" data-name="Path 165" d="M794.144,486.1a2.078,2.078,0,0,0-.489-.084c-.173-.041-.342-.1-.512-.149-.344-.112-.686-.24-1.039-.322-.065-.014-.288-.018-.277-.1s.222-.111.275-.115a2.717,2.717,0,0,1,1,.228A4.392,4.392,0,0,1,794.144,486.1Z" transform="translate(-718.606 -450.655)" opacity="0.1"/>
    <path id="Path_166" data-name="Path 166" d="M795.623,468.421a7.361,7.361,0,0,0-1.034-.357.42.42,0,0,1-.264-.081.31.31,0,0,1-.085-.153,1.787,1.787,0,0,1,.745.187,2.344,2.344,0,0,1,.349.186C795.415,468.252,795.535,468.393,795.623,468.421Z" transform="translate(-720.789 -434.836)" opacity="0.1"/>
    <path id="Path_167" data-name="Path 167" d="M867.413,384.46a1.677,1.677,0,0,0,1.176,1.853c-.047.227-.282.353-.448.515-.234.227-.355.568-.631.74a1.407,1.407,0,0,1-1.055.036.128.128,0,0,1-.083-.043.117.117,0,0,1-.015-.037,2.467,2.467,0,0,1-.073-1.3,4.256,4.256,0,0,1,.51-.991C866.979,384.909,867,384.565,867.413,384.46Z" transform="translate(-785.872 -359.461)" fill="#3f3d56"/>
    <path id="Path_168" data-name="Path 168" d="M747.064,327.09a2.493,2.493,0,0,0-1.055.321,1.179,1.179,0,0,1-.681.258c-.145-.016-.288-.1-.429-.058a.842.842,0,0,0-.22.13.248.248,0,0,1-.242.038l-.1,1.327a4.866,4.866,0,0,0,.049,1.511,4.23,4.23,0,0,1,.215.734c.015.255-.008.517.011.775.017.239.07.474.083.712a4.531,4.531,0,0,1-.192,1.336,7.946,7.946,0,0,1-.575,1.892,1.116,1.116,0,0,0-.192.511.262.262,0,0,0,.006.067c-.1.053-.185.1-.266.154a1.022,1.022,0,0,0-.452.454c-.06.166-.033.356-.105.516s-.24.274-.276.447c-.026.126.024.258,0,.384a1.639,1.639,0,0,0-.053.2.416.416,0,0,0,.233.338,1.875,1.875,0,0,0,.575.253l.572-2.272h0a18.324,18.324,0,0,0,1.3-3.017,6.489,6.489,0,0,1,.375-.993,4.669,4.669,0,0,0,.288-.564,4.249,4.249,0,0,0,.138-.758,5.306,5.306,0,0,1,.225-.875,3.76,3.76,0,0,0,.245-.938,4.316,4.316,0,0,1,.042-1.378,1.834,1.834,0,0,1,.292-.44c.247-.3.473-.62.72-.923A.665.665,0,0,0,747.064,327.09Z" transform="translate(-674.095 -307.589)" fill="#3f3d56"/>
    <g id="Group_62" data-name="Group 62" transform="translate(72.913 14.198)" opacity="0.1">
      <path id="Path_169" data-name="Path 169" d="M816.133,271.81l-.12.009-.013.01A.7.7,0,0,0,816.133,271.81Z" transform="translate(-813.376 -271.81)"/>
      <path id="Path_170" data-name="Path 170" d="M793.582,286.72a2.586,2.586,0,0,1-.123.56,2.56,2.56,0,0,0-.1.337c-.019.111-.021.224-.038.336a1.093,1.093,0,0,1-.44.726.192.192,0,0,1-.119.043c-.075-.009-.121-.1-.149-.174-.152-.44-.116-.978-.4-1.329a1.453,1.453,0,0,0-.455-.338.585.585,0,0,0-.232-.087.611.611,0,0,0-.336.123,2.089,2.089,0,0,1-.663.293.815.815,0,0,1-.686-.148c-.132-.109-.229-.273-.376-.359a2.9,2.9,0,0,0-.445-.139.655.655,0,0,1-.374-.428.274.274,0,0,1-.008-.036.67.67,0,0,0,.008.324.655.655,0,0,0,.374.428,3.234,3.234,0,0,1,.445.139,3.628,3.628,0,0,1,.376.359.815.815,0,0,0,.686.148,2.089,2.089,0,0,0,.663-.293.611.611,0,0,1,.336-.123.585.585,0,0,1,.232.087,1.451,1.451,0,0,1,.448.341c.281.351.245.889.4,1.329.028.08.074.166.149.174a.192.192,0,0,0,.126-.046,1.093,1.093,0,0,0,.441-.729c.017-.111.019-.224.038-.336a2.57,2.57,0,0,1,.1-.338,2.158,2.158,0,0,0,.128-.806C793.586,286.747,793.584,286.734,793.582,286.72Z" transform="translate(-788.631 -284.73)"/>
    </g>
    <path id="Path_171" data-name="Path 171" d="M651.8,372.81l-.065.875a18.2,18.2,0,0,1-1.913,6.257,17.757,17.757,0,0,1-9.521,8.609q-.618.244-1.284.456l-.495-1.553a18.163,18.163,0,0,0,3.569-1.561,15.8,15.8,0,0,0,6.248-6.631,17.813,17.813,0,0,0,1.64-4.823h-6.012v-1.63Z" transform="translate(-580 -348.928)" fill="#6c63ff"/>
    <path id="Path_172" data-name="Path 172" d="M643.919,388.571a17.753,17.753,0,0,0,9.52-8.608,18.167,18.167,0,0,0,1.913-6.257l.065-.875h.671l-.065.875a18.178,18.178,0,0,1-1.913,6.257,17.757,17.757,0,0,1-9.52,8.608q-.618.244-1.285.457l-.065-.2Q643.587,388.7,643.919,388.571Z" transform="translate(-584.267 -348.946)" fill="#fff" opacity="0.1"/>
    <path id="Path_173" data-name="Path 173" d="M414.8,387.455l-.495,1.553q-.666-.213-1.285-.457a17.754,17.754,0,0,1-9.52-8.608,18.167,18.167,0,0,1-1.913-6.257l-.065-.875h7.83v1.63h-6.013a17.823,17.823,0,0,0,1.644,4.823,15.785,15.785,0,0,0,6.247,6.63A18.124,18.124,0,0,0,414.8,387.455Z" transform="translate(-365.724 -348.928)" fill="#6c63ff"/>
    <path id="Path_174" data-name="Path 174" d="M413.43,388.571a17.753,17.753,0,0,1-9.52-8.608A18.169,18.169,0,0,1,402,373.705l-.065-.875h-.671l.065.875a18.18,18.18,0,0,0,1.913,6.257,17.757,17.757,0,0,0,9.52,8.608q.618.244,1.285.457l.065-.2Q413.762,388.7,413.43,388.571Z" transform="translate(-365.489 -348.946)" fill="#fff" opacity="0.1"/>
    <path id="Path_175" data-name="Path 175" d="M513.01,575.464v8.79H494.92v-8.79l.575-.767c5.862-2.081,7.05-7.507,7.287-9.654a8.827,8.827,0,0,0,.06-.894h2.237a8.827,8.827,0,0,0,.06.894c.241,2.147,1.429,7.575,7.287,9.654Z" transform="translate(-450.169 -521.922)" fill="#6c63ff"/>
    <rect id="Rectangle_64" data-name="Rectangle 64" width="18.09" height="1.103" transform="translate(44.751 53.543)" opacity="0.1"/>
    <path id="Path_176" data-name="Path 176" d="M496.454,574.7c5.862-2.081,7.05-7.507,7.287-9.654a8.827,8.827,0,0,0,.06-.894h-.959a8.827,8.827,0,0,1-.06.894c-.241,2.147-1.429,7.575-7.287,9.654l-.575.767v8.79h.959v-8.79Z" transform="translate(-450.169 -521.922)" fill="#fff" opacity="0.1"/>
    <path id="Path_177" data-name="Path 177" d="M466.26,372.81h1.622v1.63H466.4Q466.317,373.635,466.26,372.81Z" transform="translate(-424.257 -348.928)" opacity="0.1"/>
    <path id="Path_178" data-name="Path 178" d="M506.34,510.822l-.495,1.553q-.666-.213-1.285-.457a17.174,17.174,0,0,1-1.79-2.658A18.124,18.124,0,0,0,506.34,510.822Z" transform="translate(-457.266 -472.295)" opacity="0.1"/>
    <path id="Path_179" data-name="Path 179" d="M638.51,510.831a18.162,18.162,0,0,0,3.569-1.561,17.244,17.244,0,0,1-1.79,2.659q-.618.245-1.284.456Z" transform="translate(-579.991 -472.304)" opacity="0.1"/>
    <path id="Path_180" data-name="Path 180" d="M696.951,372.81q-.057.825-.144,1.63H695.33v-1.63Z" transform="translate(-631.363 -348.928)" opacity="0.1"/>
    <path id="Path_181" data-name="Path 181" d="M579.318,565.044a6.2,6.2,0,0,1-2.358,0,8.818,8.818,0,0,0,.06-.894h2.237A8.818,8.818,0,0,0,579.318,565.044Z" transform="translate(-524.342 -521.922)" opacity="0.1"/>
    <path id="Path_182" data-name="Path 182" d="M468.26,344.65c.041,12.087,5.219,21.861,11.6,21.861s11.56-9.774,11.6-21.861Z" transform="translate(-426.065 -323.468)" fill="#6c63ff"/>
    <path id="Path_183" data-name="Path 183" d="M470.322,344.65H468.26c.041,12.087,5.219,21.861,11.6,21.861a6.269,6.269,0,0,0,1.031-.087C474.992,365.438,470.361,356.079,470.322,344.65Z" transform="translate(-426.065 -323.468)" fill="#fff" opacity="0.1"/>
    <rect id="Rectangle_65" data-name="Rectangle 65" width="12.305" height="3.164" transform="translate(47.644 56.907)" fill="#3f3d56"/>
    <path id="Path_184" data-name="Path 184" d="M497.665,593.931h11.729V593.5h-12.3v3.164h.575Z" transform="translate(-449.446 -536.593)" fill="#fff" opacity="0.1"/>
    <path id="Path_185" data-name="Path 185" d="M199.8,317.282c-.221-.074-1.525-1.106-1.624-1.573a47.953,47.953,0,0,1,.689-4.817,1.772,1.772,0,0,1-.192-.014v-.07l.162-5.715s.664-3.835-.591-3.612-.468,3.612-.468,3.612-.143,1.72-.244,2.236c-.1.5-.535,2.525-.236,3.155a.681.681,0,0,0,.036.065h0s.05,2.162-.492,2.457c-.517.281-.732,1.7-.75,1.822l-.028-.012h0a1.5,1.5,0,0,1-.4-.365c-.012-.014-.02-.03-.031-.045a2.112,2.112,0,0,0-.65-3.3,1.362,1.362,0,0,0-.128-.529,3.674,3.674,0,0,0-2.611-1.246c-.453-.013-.824.115-.959.469a2.706,2.706,0,0,0-.077.57,1.448,1.448,0,0,1-.62.922,3.893,3.893,0,0,0-.413-.4,9.025,9.025,0,0,1-.959-1.055,15.629,15.629,0,0,1-2.141-2.63c-.148-.566-2.139-3.963-2.582-3.371s1.526,3.17,1.526,3.17a6,6,0,0,0,.662,1.253c.288.316,2.493,3.519,2.493,3.519l.105.219a1.916,1.916,0,0,0-1.042,1.045c-.221.717.262,1.438.6,2.109a4.18,4.18,0,0,1-.1,4.177,6.508,6.508,0,0,1-3.276,2,3.224,3.224,0,0,0,2.071.688c-.282.817-1.281,1.087-2.132,1.239a3.069,3.069,0,0,0,1.7.681,5.092,5.092,0,0,0,.91.072h.075l.075-.006a2.6,2.6,0,0,0,.31-.039,1.627,1.627,0,0,0,1.1-.723c.192-.335.259-.791.607-.959a.776.776,0,0,1,.288-.068h.187l1.451.014h.185a1.2,1.2,0,0,0,1.055-.419,1.162,1.162,0,0,0,.131-.532c.031-.459,0-.932.012-1.4a5.335,5.335,0,0,1-.055,2.642,4.506,4.506,0,0,1-.9.975,1.728,1.728,0,0,0-.238.244c-.047.034-.075.052-.075.052l-.03.089a1.688,1.688,0,0,0-.234.543.377.377,0,0,0-.018.154c.034.068-.24.349-.16.467a4.229,4.229,0,0,0-.812,2.014l-1.246,1.893c-.64,1.683-1.6,1.855-1.6,1.855s-2.252-1.511-2.314-1.585a8.7,8.7,0,0,0-.922-.443.976.976,0,0,0-.443-.4c-.3-.123-.32-.575-.32-.575-.036-1.069-.664-1.151-.664-1.151a2.04,2.04,0,0,0-1.19.212l-.09.007c-.435.035-.959.075-1.534.113a2.116,2.116,0,0,0-1.981,1.142.319.319,0,0,0,.061.461c.258.24,1.909,0,1.979-.006a1.073,1.073,0,0,1-.376-.026c.26-.01.617-.019.922-.019h.074a3.994,3.994,0,0,0-.028.487c0,.307.849.5.849.5l2.584,2.3a10.236,10.236,0,0,1,2.658,1.77,1.326,1.326,0,0,0,1.947.143c1.094-.27,4.242-4.076,4.245-4.08h0c0,.111.066,3.812.192,4.555h0a.494.494,0,0,0,.028.11,3.625,3.625,0,0,1-.135,1.56,4.334,4.334,0,0,0-.062.934,46.345,46.345,0,0,0-1.083,4.9,8.807,8.807,0,0,1-.64,2.236v1.534l.128-.007a.833.833,0,0,0-.046.077l-.009.016a5.458,5.458,0,0,0,1.316.123,3.693,3.693,0,0,1,1.438.408,4,4,0,0,0,1.255.207c.947.061.947-.418.947-.418-.108-.653-1.605-.872-1.651-.878-.121-.076-.234-.158-.327-.229l-.019-.015a.413.413,0,0,0,.016-.044c.16-.652-.726-.935-.726-.935v-.159c.575-.3.689-2.322.689-2.322s.863-2.506.984-2.924a2.765,2.765,0,0,0,0-1.044l.086-.541a2.66,2.66,0,0,0,.185-.442,1.092,1.092,0,0,1,.209-.516c.135-.16-.148-.541-.148-.541l.246-.639v-.7l.575-2.543a16.59,16.59,0,0,0,.394-3.931,1.668,1.668,0,0,1,.246-1.462,1.209,1.209,0,0,1-.127.058,3.662,3.662,0,0,0,.149-.408l1.294.16v.019h.467s-.148-1.822-.148-2.556.5-3.37.5-3.37S200.017,317.356,199.8,317.282Zm-5.746-2.127c0,.072-.007.147-.012.223l-.026.039-.048-.04-.058.091-.017.009c-.127-.065-.192-.438-.283-.358l-.012.011c-.02-.023-.04-.03-.061-.011l-.019.016v-.085a2.159,2.159,0,0,0,.537.068C194.05,315.131,194.049,315.144,194.049,315.155Zm4.305,8.484h.028l-.046.121C198.342,323.72,198.348,323.68,198.354,323.639Zm-4.726,21.743-.176-.044.1-.016.089.058.011.008Zm1.8-.258c-.059-.031-.118-.066-.175-.1C195.275,345.033,195.35,345.072,195.431,345.125Z" transform="translate(-164.163 -284.43)" fill="url(#linear-gradient-2)"/>
    <path id="Path_186" data-name="Path 186" d="M344.841,390.03l-1.161,3.026h.282l-1.092.871,1.971.245Z" transform="translate(-310.013 -352.632)" fill="#f86d70"/>
    <path id="Path_187" data-name="Path 187" d="M344.841,390.03l-1.161,3.026-.292-.079-.518.949,1.971.245Z" transform="translate(-310.013 -352.632)" opacity="0.1"/>
    <path id="Path_188" data-name="Path 188" d="M344.44,358.369h1.821l.668-5.5H344.44Z" transform="translate(-311.432 -319.035)" fill="#f86d70"/>
    <path id="Path_189" data-name="Path 189" d="M344.44,358.369h1.821l.668-5.5H344.44Z" transform="translate(-311.432 -319.035)" opacity="0.1"/>
    <path id="Path_190" data-name="Path 190" d="M333.6,433.5l.393-.066.9-.153s2.713-.612,3.272-.662a3.5,3.5,0,0,0,.982-.28c.147-.063.24-.111.24-.111l-.977-1.784-1.516-1.124a2.625,2.625,0,0,1-1.364-.762.9.9,0,0,1-.126-.851c.247-.767-1.478.734-1.478.734s.016.36,0,.818c0,.09-.009.184-.015.28a1.887,1.887,0,0,1-.015.192,3.083,3.083,0,0,1-.3,1.2C333.185,431.613,333.6,433.5,333.6,433.5Z" transform="translate(-304.151 -398.359)" fill="#fbbebe"/>
    <path id="Path_191" data-name="Path 191" d="M338.79,429.652h.038c.069,0,.125-.147.192-.153a1.989,1.989,0,0,0,1.375-.547.9.9,0,0,1-.126-.85c.247-.767-1.478.733-1.478.733S338.81,429.193,338.79,429.652Z" transform="translate(-309.009 -398.719)" opacity="0.1"/>
    <path id="Path_192" data-name="Path 192" d="M316.89,403.846a2.1,2.1,0,0,0,2.1,2.1,1.465,1.465,0,0,0,.205-.01,2.1,2.1,0,1,0-2.307-2.092Z" transform="translate(-289.209 -375.088)" fill="#fbbebe"/>
    <path id="Path_193" data-name="Path 193" d="M255.027,385.98a2.585,2.585,0,0,0-.076.567c-.1.682-.8,1.09-1.423,1.376s-1.335.624-1.534,1.283c-.219.712.259,1.427.591,2.1a4.158,4.158,0,0,1-.1,4.154,6.41,6.41,0,0,1-3.249,1.994,3.2,3.2,0,0,0,2.057.685c-.279.812-1.271,1.082-2.117,1.231a3.041,3.041,0,0,0,1.688.677,3.83,3.83,0,0,0,1.342.025,1.613,1.613,0,0,0,1.091-.719c.192-.333.257-.786.6-.954a1.092,1.092,0,0,1,.492-.072l1.438.015c.448,0,.978-.035,1.209-.417a1.151,1.151,0,0,0,.13-.529,8,8,0,0,1,.269-2.8c.117-.26-.634-.671-.555-.946a8.84,8.84,0,0,0,.336-2.676,4.079,4.079,0,0,1,.905-2.062,2.328,2.328,0,0,0,.429-2.146C258.194,385.988,255.457,384.869,255.027,385.98Z" transform="translate(-227.991 -360.413)" fill="#3f3d56"/>
    <path id="Path_194" data-name="Path 194" d="M330.13,751.957l.366.243.057.037.011.007.434.288,1.014.171.892-.061s.257-.537-.147-.525a.839.839,0,0,1-.368-.106l-.056-.028h0c-.058-.031-.117-.065-.174-.1h0c-.12-.076-.233-.158-.324-.228-.134-.1-.223-.182-.223-.182Z" transform="translate(-301.179 -691.281)" fill="#fbbebe"/>
    <path id="Path_195" data-name="Path 195" d="M334,757.29l.057.037.011.007.434.288,1.014.171.892-.061s.257-.537-.147-.524a.84.84,0,0,1-.368-.106c.071.056.13.116.136.167.016.137-.66.384-.66.384l-.953-.252s-.162-.046-.384-.1l-.021-.006Z" transform="translate(-304.678 -696.371)" opacity="0.1"/>
    <path id="Path_196" data-name="Path 196" d="M317,756.258a5.4,5.4,0,0,0,1.307.122,3.682,3.682,0,0,1,1.431.4,4.012,4.012,0,0,0,1.246.205c.941.061.941-.416.941-.416-.107-.649-1.594-.863-1.64-.873h0a1.848,1.848,0,0,1,.174.1h0c.105.069.22.159.228.232.016.136-.66.384-.66.384l-.953-.251s-.162-.047-.384-.1h-.021a8.183,8.183,0,0,0-1-.206.694.694,0,0,0-.664.384A.111.111,0,0,0,317,756.258Z" transform="translate(-289.308 -695.105)" fill="#3f3d56"/>
    <path id="Path_197" data-name="Path 197" d="M188.54,571.356l.415.318s.121-.006.3-.012h.058c.258-.01.614-.019.916-.019a2.9,2.9,0,0,1,.584.033c.207.073.575-1.185.575-1.185l-.416-.1-.138-.033-.1-.023-.338-.08-1.026.117-.721.464Z" transform="translate(-173.165 -527.446)" fill="#fbbebe"/>
    <path id="Path_198" data-name="Path 198" d="M188.54,571.356l.415.318s.121-.006.3-.011a.363.363,0,0,1-.192-.172c-.268-.745,1.063-1.063,1.063-1.063l.62-.027.121-.006h.1l-.138-.033-.1-.023-.338-.08-1.026.117-.721.464Z" transform="translate(-173.165 -527.446)" opacity="0.1"/>
    <path id="Path_199" data-name="Path 199" d="M178.747,568.094c.251.232,1.9,0,1.966-.006a1.036,1.036,0,0,1-.373-.026.411.411,0,0,1-.288-.206c-.268-.746,1.063-1.063,1.063-1.063l.62-.027.12-.006,1.508-.065.073-.415s-.49.046-1.259.107c-.432.035-.959.075-1.527.112a2.1,2.1,0,0,0-1.967,1.136A.319.319,0,0,0,178.747,568.094Z" transform="translate(-164.191 -523.847)" fill="#3f3d56"/>
    <path id="Path_200" data-name="Path 200" d="M371.484,312.96a.426.426,0,0,0,.036.065l.366.537.953.1.01-.378.16-5.684s.66-3.812-.587-3.593-.464,3.593-.464,3.593-.142,1.711-.242,2.224C371.621,310.318,371.187,312.337,371.484,312.96Z" transform="translate(-338.475 -286.711)" fill="#fbbebe"/>
    <path id="Path_201" data-name="Path 201" d="M350.14,541.124l.271.464.607,1.038s1.1.4,1.383.1a3.982,3.982,0,0,0,.438-1.247c.1-.4.16-.735.16-.735Z" transform="translate(-319.271 -500.756)" fill="#fbbebe"/>
    <path id="Path_202" data-name="Path 202" d="M350.14,541.169l.271.464a.321.321,0,0,0,.046-.049c.307-.391,1.658-.083,2.382-.058.1-.4.16-.735.16-.735Z" transform="translate(-319.271 -500.802)" opacity="0.1"/>
    <path id="Path_203" data-name="Path 203" d="M206.16,568.043a2.9,2.9,0,0,1,.584.033c.207.073.575-1.185.575-1.185l-.554-.13,1.508-.065.073-.415s-.49.046-1.259.107a1.581,1.581,0,0,0-.419.35l-.023.029A2.513,2.513,0,0,0,206.16,568.043Z" transform="translate(-189.096 -523.847)" opacity="0.1"/>
    <path id="Path_204" data-name="Path 204" d="M330.13,751.921l.423.28c.631-.114,1.207-.293,1.275-.575a.11.11,0,0,0,0-.013c-.134-.1-.223-.182-.223-.182Z" transform="translate(-301.179 -691.245)" opacity="0.1"/>
    <path id="Path_205" data-name="Path 205" d="M317.09,757.67a14.639,14.639,0,0,0,1.663-.178,8.166,8.166,0,0,0-1-.208A.69.69,0,0,0,317.09,757.67Z" transform="translate(-289.389 -696.534)" opacity="0.1"/>
    <path id="Path_206" data-name="Path 206" d="M206.64,545.426c0,.306.843.5.843.5l2.567,2.285a10.142,10.142,0,0,1,2.639,1.76,1.314,1.314,0,0,0,1.931.147c1.087-.268,4.219-4.057,4.219-4.057s.073,4.326.22,4.644a3.605,3.605,0,0,1-.134,1.552,4.314,4.314,0,0,0-.061.928,46.126,46.126,0,0,0-1.075,4.876,8.778,8.778,0,0,1-.636,2.224v1.527s2.872-.11,3.03-.757-.72-.929-.72-.929v-.159c.575-.293.684-2.309.684-2.309s.856-2.493.978-2.908a2.72,2.72,0,0,0,0-1.039l.085-.537a2.681,2.681,0,0,0,.183-.44,1.087,1.087,0,0,1,.208-.513c.134-.159-.147-.538-.147-.538l.245-.636v-.7l.575-2.529a16.5,16.5,0,0,0,.391-3.911,1.655,1.655,0,0,1,.245-1.454c-.981.514-1.476-.63-1.638-1.122-.041-.127-.061-.211-.061-.211a6.859,6.859,0,0,0-2.6-.378,3,3,0,0,0-.747.158c-1.393.5-1.613,2.578-1.613,2.578l-1.234,1.882c-.636,1.674-1.589,1.845-1.589,1.845s-2.236-1.5-2.3-1.576a8.953,8.953,0,0,0-.917-.44.968.968,0,0,0-.44-.4c-.293-.123-.317-.575-.317-.575-.036-1.063-.66-1.151-.66-1.151C206.628,542.885,206.64,545.121,206.64,545.426Z" transform="translate(-189.53 -500.746)" fill="#3f3d56"/>
    <rect id="Rectangle_66" data-name="Rectangle 66" width="1.319" height="4.093" transform="translate(30.869 38.706) rotate(180)" fill="#f86d70"/>
    <rect id="Rectangle_67" data-name="Rectangle 67" width="1.319" height="4.093" transform="translate(30.869 38.706) rotate(180)" opacity="0.1"/>
    <path id="Path_207" data-name="Path 207" d="M372.439,397.41a.058.058,0,0,0,0,.009.427.427,0,0,0,.036.065l.366.537.953.1.011-.378A3.805,3.805,0,0,1,372.439,397.41Z" transform="translate(-339.431 -371.169)" opacity="0.1"/>
    <path id="Path_208" data-name="Path 208" d="M361.176,398.18s.049,2.15-.489,2.443-.747,1.822-.747,1.822a13.7,13.7,0,0,1,1.993,1.544c.363.472,1.2,1.6,1.026,1.864s.416,1.491.416,1.491-1.076,2.2-.831,3.031a17.364,17.364,0,0,1,.268,3.03h.465s-.147-1.808-.147-2.542.488-3.348.488-3.348.221-2.566,0-2.639-1.515-1.1-1.613-1.565a47.889,47.889,0,0,1,.685-4.794A4.28,4.28,0,0,1,361.176,398.18Z" transform="translate(-328.131 -371.865)" fill="#f86d70"/>
    <path id="Path_209" data-name="Path 209" d="M336.12,446.105a2.093,2.093,0,0,0,.319.838l.9-.153s2.713-.612,3.272-.662a3.5,3.5,0,0,0,.982-.28,4.329,4.329,0,0,0-1.213-1.99l-.344-.319a5.768,5.768,0,0,0-1.736-1.109c.04.034,2.886,2.463,2.263,2.94s-2.3-.684-2.3-.684l-1.908-1.64-.069-.059-.11.172a1.6,1.6,0,0,1,.164.079,2.808,2.808,0,0,1,1.342,1.668C338.077,446.224,336.12,446.105,336.12,446.105Z" transform="translate(-306.595 -411.873)" opacity="0.1"/>
    <path id="Path_210" data-name="Path 210" d="M330,541.1s1.808,1,2.247.44a.747.747,0,0,1,.55-.192c-.041-.127-.061-.211-.061-.211a6.86,6.86,0,0,0-2.6-.378Z" transform="translate(-301.062 -500.755)" fill="#444053"/>
    <path id="Path_211" data-name="Path 211" d="M330.832,443.016l1.977,1.7s1.671,1.164,2.3.684-2.264-2.941-2.264-2.941h0a5.848,5.848,0,0,1,1.735,1.107l.344.319c.905.839,1.109.839,1.14,2.072a1.733,1.733,0,0,1-.175.819,7.289,7.289,0,0,0-.454,2.621c.045.245-.547,2.355-.355,2.942s-2.4-.293-2.835.269-2.247-.44-2.247-.44a19.817,19.817,0,0,1,1.246-2.737,1.989,1.989,0,0,0,0-2.1,2.28,2.28,0,0,1-.586-1.2s1.956.121,1.564-1.2a2.767,2.767,0,0,0-1.5-1.747Z" transform="translate(-301.062 -411.9)" fill="#e8e8f0"/>
    <path id="Path_212" data-name="Path 212" d="M346.848,493.38a4.388,4.388,0,0,1-1.739,1.8c-.032.012-.062.022-.1.032C343.989,495.524,346.925,493.823,346.848,493.38Z" transform="translate(-314.439 -457.937)" opacity="0.1"/>
    <path id="Path_213" data-name="Path 213" d="M240.671,331.124a5.707,5.707,0,0,0,.66,1.246c.293.317,2.468,3.495,2.468,3.495l.184.384.158.327,1.393-.147.1-.562-.054-.065a6.583,6.583,0,0,0-.778-.815,9.009,9.009,0,0,1-.953-1.05,15.573,15.573,0,0,1-2.126-2.616c-.147-.562-2.127-3.931-2.566-3.348S240.671,331.124,240.671,331.124Z" transform="translate(-218.868 -308.33)" fill="#fbbebe"/>
    <g id="Group_63" data-name="Group 63" transform="translate(23.394 25.101)" opacity="0.1">
      <path id="Path_214" data-name="Path 214" d="M274.631,519.062a1.094,1.094,0,0,0-.492.071c-.345.168-.41.621-.6.954a1.612,1.612,0,0,1-1.092.719,2.428,2.428,0,0,1-.265.036,3,3,0,0,0,.84-.036,1.612,1.612,0,0,0,1.092-.719c.192-.333.257-.786.6-.954a.766.766,0,0,1,.288-.067Z" transform="translate(-272.18 -506.254)"/>
      <path id="Path_215" data-name="Path 215" d="M317,390.974a4.085,4.085,0,0,1,.9-2.062,2.331,2.331,0,0,0,.429-2.146,3.625,3.625,0,0,0-2.9-1.224,3.594,3.594,0,0,1,2.326,1.224,2.331,2.331,0,0,1-.429,2.146,4.069,4.069,0,0,0-.9,2.062,8.951,8.951,0,0,1-.337,2.676c-.078.273.671.687.556.945a7.987,7.987,0,0,0-.269,2.8,1.165,1.165,0,0,1-.131.529,1.121,1.121,0,0,1-.967.414h.335c.447,0,.977-.034,1.208-.417a1.165,1.165,0,0,0,.131-.529,7.986,7.986,0,0,1,.269-2.8c.117-.259-.634-.671-.556-.945A8.843,8.843,0,0,0,317,390.974Z" transform="translate(-311.147 -385.521)"/>
    </g>
    <path id="Path_216" data-name="Path 216" d="M290.12,410.687l.158.327,1.393-.147.1-.562-.054-.065C291.565,410.313,290.452,410.849,290.12,410.687Z" transform="translate(-265.005 -382.769)" opacity="0.1"/>
    <path id="Path_217" data-name="Path 217" d="M296.015,414.977s-.342-.537-.538-.391-.271-.44-.384-.342-.439.37-.575-.011c-.106-.3-1.265-2.22-1.734-2.991-.121-.2-.2-.322-.2-.322s-1.319.66-1.637.44v.464l.268.025,1.438,2.685s.453.72.422.971a4.329,4.329,0,0,0,.678,1.424c.1.073,1.151,1.3,1.151,1.3s.538,2.64.073,3.373a5,5,0,0,1-1.27,1.27,4.1,4.1,0,0,0-.207.782c.035.074-.282.391-.135.489s.342.781.342.781.685-1.1,1.055-1.27.844-2.42.844-2.42.135-1.325.146-2.18S295.721,414.977,296.015,414.977Z" transform="translate(-265.756 -383.384)" opacity="0.1"/>
    <path id="Path_218" data-name="Path 218" d="M295.245,414.977s-.341-.537-.537-.391-.272-.44-.384-.342-.438.37-.575-.011c-.107-.3-1.266-2.22-1.735-2.991l-.2-.322s-1.319.66-1.638.44v.464l.269.025,1.438,2.685s.454.72.422.971a4.217,4.217,0,0,0,.678,1.424c.1.073,1.151,1.3,1.151,1.3s.538,2.64.074,3.373a4.5,4.5,0,0,1-.885.98,1.711,1.711,0,0,0-.575.922.364.364,0,0,0-.017.153c.035.073-.282.391-.135.489s.344.784.344.784.685-1.1,1.055-1.27.845-2.42.845-2.42.134-1.325.146-2.18S294.957,414.977,295.245,414.977Z" transform="translate(-265.06 -383.384)" fill="#f86d70"/>
    <path id="Path_219" data-name="Path 219" d="M306.9,569.21a4.917,4.917,0,0,1,1.438.488c.411.3-1.564-.464-1.564-.464Z" transform="translate(-280.059 -526.496)" opacity="0.1"/>
    <path id="Path_220" data-name="Path 220" d="M333.83,596.35s1.071.893.879,1.7-.687,2.835-.687,2.835Z" transform="translate(-304.524 -551.034)" opacity="0.1"/>
    <path id="Path_221" data-name="Path 221" d="M222.788,578.45s-1.509.165-1.411.361,1.411-.18,1.411-.18Z" transform="translate(-202.85 -534.851)" opacity="0.1"/>
    <path id="Path_222" data-name="Path 222" d="M349.856,651.178s.1.122-.464,0-.147-.5-.147-.5Z" transform="translate(-318.329 -600.155)" opacity="0.1"/>
    <path id="Path_223" data-name="Path 223" d="M343.247,672.95a3.567,3.567,0,0,1-1.178,0C341.658,672.828,343.247,672.95,343.247,672.95Z" transform="translate(-311.912 -620.24)" opacity="0.1"/>
    <path id="Path_224" data-name="Path 224" d="M320.1,741.9s-.134-.147-.806.122-.941.281-1.136.192A10.8,10.8,0,0,1,320.1,741.9Z" transform="translate(-290.346 -682.595)" opacity="0.1"/>
    <path id="Path_225" data-name="Path 225" d="M337.333,576.28l-.953,1.326S336.893,576.445,337.333,576.28Z" transform="translate(-306.83 -532.889)" opacity="0.1"/>
    <path id="Path_226" data-name="Path 226" d="M313.917,449.15s-.041.44-.656.612a1.68,1.68,0,0,0-.732.311" transform="translate(-285.267 -417.948)" opacity="0.1"/>
    <path id="Path_227" data-name="Path 227" d="M294.708,415.88a2.631,2.631,0,0,1-1.658.454" transform="translate(-267.655 -387.868)" opacity="0.1"/>
    <path id="Path_228" data-name="Path 228" d="M316.78,539.621s.237.149.805-.5" transform="translate(-289.109 -499.292)" opacity="0.1"/>
    <path id="Path_229" data-name="Path 229" d="M371.589,465.073a.416.416,0,0,0-.137-.322l-.159-.192a.742.742,0,0,0-.1-.107c-.1-.074-.219-.1-.318-.162" transform="translate(-338.013 -431.637)" opacity="0.1"/>
    <path id="Path_230" data-name="Path 230" d="M847.391,123.751s-8.072-.487-7.123,5.17a1.375,1.375,0,0,0,.717,1.454s.014-.419.828-.276a3.787,3.787,0,0,0,.877.042,1.827,1.827,0,0,0,1.072-.443h0s2.27-.938,3.152-4.647c0,0,.653-.809.627-1.017l-1.363.582a2.429,2.429,0,0,1,.1,1.8s-.044-1.764-.306-1.726c-.053.009-.708.34-.708.34a4.028,4.028,0,0,1,.2,2.956s.229-2.109-.447-2.832l-.959.56a4.234,4.234,0,0,1,.3,3.211s.163-2.213-.5-3.075l-.869.678s.879,1.743.343,2.94c0,0-.07-2.576-.531-2.771a5.339,5.339,0,0,0-.876.945s.6,1.266.228,1.933c0,0-.229-1.716-.417-1.726a5.7,5.7,0,0,0-.836,1.918,4.131,4.131,0,0,1,.653-2.025,2.283,2.283,0,0,0-1.16.6s.118-.8,1.347-.873a5.31,5.31,0,0,1,.793-.916,4.989,4.989,0,0,0-1.963.226,2.2,2.2,0,0,1,2.187-.413l.858-.7a7.1,7.1,0,0,0-2.292.023,2.786,2.786,0,0,1,2.523-.182l.934-.558a8.568,8.568,0,0,0-2.189-.192,3.357,3.357,0,0,1,2.463.039l.671-.3s-1-.2-1.3-.229-.31-.112-.31-.112a3.485,3.485,0,0,1,1.888.21A8.451,8.451,0,0,0,847.391,123.751Z" transform="translate(-762.334 -123.74)" fill="#6c63ff" opacity="0.1"/>
    <path id="Path_231" data-name="Path 231" d="M780.789,138.815s-3.644-.221-3.217,2.336a.625.625,0,0,0,.323.658s.007-.192.375-.126a1.678,1.678,0,0,0,.4.019.822.822,0,0,0,.484-.2h0a2.892,2.892,0,0,0,1.425-2.1s.294-.366.283-.46l-.616.263a1.1,1.1,0,0,1,.045.814s-.02-.8-.138-.779c-.024,0-.32.153-.32.153a1.82,1.82,0,0,1,.089,1.337s.1-.953-.2-1.28l-.433.253a1.908,1.908,0,0,1,.136,1.451,2.718,2.718,0,0,0-.227-1.389l-.392.31a1.875,1.875,0,0,1,.155,1.328s-.032-1.164-.241-1.251a2.4,2.4,0,0,0-.4.428s.272.575.1.873c0,0-.1-.776-.192-.779a2.6,2.6,0,0,0-.378.863,1.874,1.874,0,0,1,.3-.916,1.032,1.032,0,0,0-.524.271s.054-.362.609-.4a2.622,2.622,0,0,1,.359-.413,2.248,2.248,0,0,0-.887.1,1,1,0,0,1,.989-.192l.384-.316a3.308,3.308,0,0,0-1.036.011,1.26,1.26,0,0,1,1.14-.082l.422-.252a3.792,3.792,0,0,0-.99-.085,1.514,1.514,0,0,1,1.113.017l.3-.135s-.455-.09-.588-.1-.14-.051-.14-.051a1.571,1.571,0,0,1,.853.1A3.868,3.868,0,0,0,780.789,138.815Z" transform="translate(-705.688 -137.365)" fill="#6c63ff" opacity="0.1"/>
    <ellipse id="Ellipse_191" data-name="Ellipse 191" cx="3.855" cy="0.652" rx="3.855" ry="0.652" transform="translate(83.973 61.093)" fill="#6c63ff"/>
    <path id="Path_232" data-name="Path 232" d="M927.2,739.823a1.116,1.116,0,0,0,.367-.555.5.5,0,0,0-.257-.565c-.236-.09-.488.074-.679.239a.906.906,0,0,1-.66.318,1.007,1.007,0,0,0,.311-.941.4.4,0,0,0-.086-.192c-.131-.14-.368-.081-.525.03a1.958,1.958,0,0,0-.641,1.638,3.079,3.079,0,0,1-.009-.671.691.691,0,0,0-.254-.6.758.758,0,0,0-.383-.09.8.8,0,0,0-.626.178.618.618,0,0,0,.024.767,2.441,2.441,0,0,0,.649.52,1.438,1.438,0,0,1,.463.442.4.4,0,0,1,.035.08h1.406A3.907,3.907,0,0,0,927.2,739.823Z" transform="translate(-837.777 -679.144)" fill="#6c63ff"/>
  </g>
</svg>
